<svg width="560" height="571" viewBox="0 0 560 571" fill="none" xmlns="http://www.w3.org/2000/svg">
<path fill-rule="evenodd" clip-rule="evenodd" d="M10 0C4.47715 0 0 4.47715 0 10V53V83V126C0 131.523 4.47715 136 10 136H433C438.523 136 443 131.523 443 126V53C443 47.4772 438.523 43 433 43H276V10C276 4.47715 271.523 0 266 0H10Z" fill="white"/>
<path d="M26.424 19.44C24.4187 18.3947 22.6373 17.872 21.08 17.872C19.928 17.872 19.0107 18.128 18.328 18.64C17.6667 19.152 17.336 19.856 17.336 20.752C17.336 21.6267 17.752 22.3627 18.584 22.96C19.4373 23.536 20.6213 24.112 22.136 24.688C23.288 25.0933 24.2693 25.5627 25.08 26.096C25.912 26.608 26.5947 27.312 27.128 28.208C27.6613 29.104 27.928 30.2347 27.928 31.6C27.928 32.8373 27.6187 33.9573 27 34.96C26.3813 35.9627 25.4853 36.7627 24.312 37.36C23.1387 37.9573 21.752 38.256 20.152 38.256C18.744 38.256 17.3573 38.0427 15.992 37.616C14.6267 37.168 13.4107 36.56 12.344 35.792L14.008 32.88C14.7973 33.4773 15.7253 33.9787 16.792 34.384C17.88 34.768 18.8827 34.96 19.8 34.96C20.9307 34.96 21.9227 34.6933 22.776 34.16C23.6293 33.6053 24.056 32.7627 24.056 31.632C24.056 30.736 23.6933 29.9893 22.968 29.392C22.264 28.7947 21.272 28.2507 19.992 27.76C18.6693 27.2693 17.5707 26.7893 16.696 26.32C15.8213 25.8293 15.064 25.1573 14.424 24.304C13.8053 23.4293 13.496 22.3413 13.496 21.04C13.496 19.1413 14.136 17.616 15.416 16.464C16.7173 15.2907 18.424 14.6613 20.536 14.576C22.072 14.576 23.416 14.7573 24.568 15.12C25.7413 15.4613 26.8293 15.952 27.832 16.592L26.424 19.44ZM39.417 14.704C42.0623 14.704 44.1317 15.3653 45.625 16.688C47.1183 18.0107 47.865 19.8453 47.865 22.192C47.865 23.536 47.5983 24.7947 47.065 25.968C46.5317 27.12 45.6677 28.0693 44.473 28.816C43.2997 29.5413 41.785 29.904 39.929 29.904H36.569V38H32.825V14.704H39.417ZM39.929 26.32C40.953 26.32 41.7743 26.1067 42.393 25.68C43.033 25.232 43.481 24.6987 43.737 24.08C44.0143 23.44 44.153 22.832 44.153 22.256C44.153 21.2747 43.833 20.368 43.193 19.536C42.5743 18.704 41.5183 18.288 40.025 18.288H36.569V26.32H39.929ZM67.8435 14.704V18.288H56.1315V24.496H66.5635V28.08H56.1315V34.416H68.2915V38H52.3875V14.704H67.8435ZM90.73 36.176C90.0473 36.6667 89.098 37.136 87.882 37.584C86.6873 38.032 85.3753 38.256 83.946 38.256C81.5353 38.256 79.4233 37.7333 77.61 36.688C75.818 35.6213 74.4313 34.2027 73.45 32.432C72.49 30.64 72.01 28.6773 72.01 26.544C72.01 24.2187 72.49 22.1387 73.45 20.304C74.4313 18.4693 75.786 17.04 77.514 16.016C79.2633 14.9707 81.2473 14.448 83.466 14.448C84.8313 14.448 86.09 14.6293 87.242 14.992C88.4153 15.3547 89.45 15.8133 90.346 16.368L88.874 19.856C87.146 18.64 85.386 18.032 83.594 18.032C82.2287 18.032 80.9487 18.4053 79.754 19.152C78.5807 19.8773 77.642 20.88 76.938 22.16C76.234 23.4187 75.882 24.8053 75.882 26.32C75.882 27.92 76.202 29.36 76.842 30.64C77.5033 31.8987 78.4313 32.8907 79.626 33.616C80.842 34.32 82.2393 34.672 83.818 34.672C84.9487 34.672 85.962 34.5013 86.858 34.16C87.7753 33.8187 88.5433 33.3813 89.162 32.848L90.73 36.176ZM99.444 14.704V38H95.7V14.704H99.444ZM117.824 32.528H109.344L107.104 38H103.424L113.728 13.744H113.952L124.256 38H119.968L117.824 32.528ZM116.576 29.328L113.664 21.968L110.656 29.328H116.576ZM131.975 14.704V34.416H143.463V38H128.231V14.704H131.975ZM152.132 14.704V38H148.388V14.704H152.132ZM176.56 34.416V38H156.88C157.114 37.6587 159.184 34.512 163.088 28.56C166.33 23.5467 168.57 20.1227 169.808 18.288H161.168C160.464 18.288 159.813 18.0853 159.216 17.68C158.64 17.2747 158.352 16.7733 158.352 16.176V13.52H161.808V13.968C161.808 14.3307 161.861 14.544 161.968 14.608C162.096 14.672 162.373 14.704 162.8 14.704H176.368L163.28 34.416H176.56ZM196.906 14.704V18.288H185.194V24.496H195.626V28.08H185.194V34.416H197.354V38H181.45V14.704H196.906ZM214.737 19.44C212.731 18.3947 210.95 17.872 209.393 17.872C208.241 17.872 207.323 18.128 206.641 18.64C205.979 19.152 205.649 19.856 205.649 20.752C205.649 21.6267 206.065 22.3627 206.897 22.96C207.75 23.536 208.934 24.112 210.449 24.688C211.601 25.0933 212.582 25.5627 213.393 26.096C214.225 26.608 214.907 27.312 215.441 28.208C215.974 29.104 216.241 30.2347 216.241 31.6C216.241 32.8373 215.931 33.9573 215.312 34.96C214.694 35.9627 213.798 36.7627 212.625 37.36C211.451 37.9573 210.065 38.256 208.465 38.256C207.057 38.256 205.67 38.0427 204.305 37.616C202.939 37.168 201.723 36.56 200.657 35.792L202.321 32.88C203.11 33.4773 204.038 33.9787 205.105 34.384C206.193 34.768 207.195 34.96 208.113 34.96C209.243 34.96 210.235 34.6933 211.089 34.16C211.942 33.6053 212.369 32.7627 212.369 31.632C212.369 30.736 212.006 29.9893 211.281 29.392C210.577 28.7947 209.585 28.2507 208.305 27.76C206.982 27.2693 205.883 26.7893 205.009 26.32C204.134 25.8293 203.377 25.1573 202.737 24.304C202.118 23.4293 201.809 22.3413 201.809 21.04C201.809 19.1413 202.449 17.616 203.729 16.464C205.03 15.2907 206.737 14.6613 208.849 14.576C210.385 14.576 211.729 14.7573 212.881 15.12C214.054 15.4613 215.142 15.952 216.145 16.592L214.737 19.44ZM235.132 14.704V38H231.388V14.704H235.132ZM262.12 14.704V38.832H262.024L245.224 22.544L245.32 38H241.544V13.904H241.736L258.472 30.384L258.408 14.704H262.12Z" fill="#0066B3"/>
<path d="M62.2 111.44C60.4933 112.667 58.12 113.84 55.08 114.96C52.0933 116.08 48.8133 116.64 45.24 116.64C39.2133 116.64 33.9333 115.333 29.4 112.72C24.92 110.053 21.4533 106.507 19 102.08C16.6 97.6 15.4 92.6933 15.4 87.36C15.4 81.5467 16.6 76.3467 19 71.76C21.4533 67.1733 24.84 63.6 29.16 61.04C33.5333 58.4267 38.4933 57.12 44.04 57.12C47.4533 57.12 50.6 57.5733 53.48 58.48C56.4133 59.3867 59 60.5333 61.24 61.92L57.56 70.64C53.24 67.6 48.84 66.08 44.36 66.08C40.9467 66.08 37.7467 67.0133 34.76 68.88C31.8267 70.6933 29.48 73.2 27.72 76.4C25.96 79.5467 25.08 83.0133 25.08 86.8C25.08 90.8 25.88 94.4 27.48 97.6C29.1333 100.747 31.4533 103.227 34.44 105.04C37.48 106.8 40.9733 107.68 44.92 107.68C47.7467 107.68 50.28 107.253 52.52 106.4C54.8133 105.547 56.7333 104.453 58.28 103.12L62.2 111.44ZM106.465 116L93.345 95.76H92.385H83.985V116H74.625V57.76H91.025C97.5317 57.76 102.732 59.4133 106.625 62.72C110.572 66.0267 112.545 70.6133 112.545 76.48C112.545 80.0533 111.772 83.3867 110.225 86.48C108.732 89.52 106.358 91.8667 103.105 93.52L117.265 116H106.465ZM83.985 86.8H92.305C96.0383 86.8 98.7317 85.7867 100.385 83.76C102.092 81.68 102.945 79.36 102.945 76.8C102.945 75.3067 102.625 73.8133 101.985 72.32C101.345 70.7733 100.252 69.4667 98.705 68.4C97.1583 67.28 95.1317 66.72 92.625 66.72H83.985V86.8ZM166.859 57.76V66.72H137.579V82.24H163.659V91.2H137.579V107.04H167.979V116H128.219V57.76H166.859ZM210.795 102.32H189.595L183.995 116H174.795L200.555 55.36H201.115L226.875 116H216.155L210.795 102.32ZM207.675 94.32L200.395 75.92L192.875 94.32H207.675ZM267.003 57.76V66.72H251.963V116H242.683V66.72H228.043V57.76H267.003ZM288.204 57.76V116H278.844V57.76H288.204ZM300.634 86.96C300.634 81.6267 301.968 76.6933 304.634 72.16C307.301 67.5733 310.901 63.92 315.434 61.2C320.021 58.48 325.008 57.12 330.394 57.12C335.728 57.12 340.661 58.48 345.194 61.2C349.781 63.92 353.434 67.5733 356.154 72.16C358.874 76.7467 360.234 81.68 360.234 86.96C360.234 92.3467 358.874 97.3067 356.154 101.84C353.488 106.373 349.861 109.973 345.274 112.64C340.688 115.307 335.728 116.64 330.394 116.64C325.008 116.64 320.021 115.333 315.434 112.72C310.901 110.053 307.301 106.453 304.634 101.92C301.968 97.3867 300.634 92.4 300.634 86.96ZM310.234 86.96C310.234 90.7467 311.141 94.2133 312.954 97.36C314.768 100.507 317.221 103.013 320.314 104.88C323.461 106.747 326.901 107.68 330.634 107.68C334.314 107.68 337.674 106.773 340.714 104.96C343.754 103.093 346.154 100.587 347.914 97.44C349.728 94.24 350.634 90.7467 350.634 86.96C350.634 83.1733 349.728 79.68 347.914 76.48C346.101 73.28 343.648 70.7467 340.554 68.88C337.461 67.0133 334.074 66.08 330.394 66.08C326.661 66.08 323.248 67.0133 320.154 68.88C317.114 70.7467 314.688 73.28 312.874 76.48C311.114 79.68 310.234 83.1733 310.234 86.96ZM424.112 57.76V118.08H423.872L381.872 77.36L382.112 116H372.672V55.76H373.152L414.992 96.96L414.832 57.76H424.112Z" fill="#222D5B"/>
<circle cx="330" cy="87" r="15" fill="#FDB813"/>
<g filter="url(#filter0_b)">
<path d="M101.064 387C101.064 381.477 105.541 377 111.064 377H549.127C554.65 377 559.127 381.477 559.127 387V457C559.127 462.523 554.65 467 549.127 467H111.064C105.541 467 101.064 462.523 101.064 457V387Z" fill="#FDB717"/>
</g>
<path d="M200.264 406.704H206.888C209.81 406.704 212.221 407.28 214.12 408.432C216.04 409.584 217.437 411.067 218.312 412.88C219.186 414.693 219.624 416.624 219.624 418.672C219.624 420.933 219.09 422.928 218.024 424.656C216.978 426.363 215.57 427.685 213.8 428.624C212.029 429.541 210.098 430 208.008 430H200.264V406.704ZM207.336 426.416C209 426.416 210.461 426.107 211.72 425.488C213 424.869 213.992 423.963 214.696 422.768C215.421 421.552 215.784 420.101 215.784 418.416C215.784 416.581 215.389 415.056 214.6 413.84C213.832 412.603 212.84 411.696 211.624 411.12C210.429 410.544 209.192 410.256 207.912 410.256H204.008V426.416H207.336ZM230.399 427.28C231.402 427.28 232.415 426.928 233.439 426.224L235.071 428.88C234.346 429.328 233.567 429.691 232.735 429.968C231.903 430.224 231.103 430.352 230.335 430.352C228.778 430.352 227.423 430.043 226.271 429.424C225.141 428.805 224.266 427.952 223.647 426.864C223.05 425.776 222.751 424.528 222.751 423.12C222.751 421.797 223.093 420.581 223.775 419.472C224.458 418.363 225.386 417.488 226.559 416.848C227.733 416.187 229.013 415.856 230.399 415.856C232.234 415.856 233.759 416.4 234.975 417.488C236.191 418.555 237.002 420.069 237.407 422.032L226.975 425.552C227.338 426.107 227.818 426.533 228.415 426.832C229.013 427.131 229.674 427.28 230.399 427.28ZM230.111 418.672C228.981 418.672 228.053 419.067 227.327 419.856C226.623 420.645 226.271 421.669 226.271 422.928C226.271 423.163 226.282 423.344 226.303 423.472L233.407 420.944C233.13 420.283 232.725 419.739 232.191 419.312C231.658 418.885 230.965 418.672 230.111 418.672ZM244.998 430.288C243.953 430.288 242.961 430.107 242.022 429.744C241.105 429.36 240.347 428.827 239.75 428.144L241.254 426.128C242.385 427.237 243.537 427.792 244.71 427.792C245.35 427.792 245.873 427.675 246.278 427.44C246.705 427.184 246.918 426.811 246.918 426.32C246.918 425.808 246.705 425.424 246.278 425.168C245.851 424.912 245.371 424.709 244.838 424.56C244.326 424.389 243.995 424.283 243.846 424.24C242.673 423.877 241.798 423.355 241.222 422.672C240.646 421.968 240.358 421.147 240.358 420.208C240.358 419.461 240.539 418.768 240.902 418.128C241.286 417.467 241.851 416.933 242.598 416.528C243.366 416.123 244.294 415.92 245.382 415.92C246.406 415.92 247.291 416.037 248.038 416.272C248.806 416.507 249.521 416.88 250.182 417.392L248.806 419.536C248.422 419.173 247.953 418.885 247.398 418.672C246.865 418.459 246.374 418.352 245.926 418.352C245.371 418.352 244.913 418.48 244.55 418.736C244.187 418.992 244.006 419.323 244.006 419.728C243.985 420.219 244.166 420.592 244.55 420.848C244.934 421.083 245.553 421.339 246.406 421.616C246.769 421.723 247.003 421.797 247.11 421.84C248.177 422.181 249.009 422.661 249.606 423.28C250.203 423.877 250.502 424.667 250.502 425.648C250.502 426.971 250.022 428.08 249.062 428.976C248.123 429.851 246.769 430.288 244.998 430.288ZM259.617 423.856L258.049 425.072V430H254.465V405.04H258.049V421.36L264.833 416.144L267.009 418.064L262.081 421.904L267.585 430H263.425L259.617 423.856ZM275.924 410.512V416.464H279.444V419.28H275.924V430H272.34V419.28H270.004V416.464H272.34V410.512H275.924ZM281.845 423.088C281.845 421.744 282.165 420.517 282.805 419.408C283.467 418.299 284.373 417.435 285.525 416.816C286.677 416.176 287.989 415.856 289.461 415.856C290.933 415.856 292.235 416.176 293.365 416.816C294.517 417.435 295.403 418.299 296.021 419.408C296.64 420.496 296.949 421.723 296.949 423.088C296.949 424.453 296.64 425.691 296.021 426.8C295.403 427.888 294.517 428.752 293.365 429.392C292.235 430.032 290.923 430.352 289.429 430.352C287.979 430.352 286.677 430.064 285.525 429.488C284.373 428.891 283.467 428.048 282.805 426.96C282.165 425.851 281.845 424.56 281.845 423.088ZM285.461 423.12C285.461 424.336 285.835 425.36 286.581 426.192C287.328 427.003 288.256 427.408 289.365 427.408C290.517 427.408 291.456 427.003 292.181 426.192C292.928 425.381 293.301 424.357 293.301 423.12C293.301 421.883 292.928 420.859 292.181 420.048C291.456 419.216 290.517 418.8 289.365 418.8C288.256 418.8 287.328 419.227 286.581 420.08C285.835 420.912 285.461 421.925 285.461 423.12ZM309.611 415.856C310.87 415.856 312.011 416.155 313.035 416.752C314.059 417.349 314.859 418.203 315.435 419.312C316.011 420.421 316.299 421.712 316.299 423.184C316.299 424.635 315.979 425.904 315.339 426.992C314.721 428.08 313.846 428.912 312.715 429.488C311.606 430.064 310.347 430.352 308.939 430.352C308.043 430.352 307.179 430.171 306.347 429.808C305.515 429.445 304.833 428.955 304.299 428.336V436.496H300.715V416.208H303.819L304.139 418.224C304.843 417.499 305.654 416.923 306.571 416.496C307.51 416.069 308.523 415.856 309.611 415.856ZM308.235 427.504C309.025 427.504 309.75 427.323 310.411 426.96C311.094 426.576 311.638 426.064 312.043 425.424C312.449 424.784 312.651 424.059 312.651 423.248C312.651 421.989 312.246 420.955 311.435 420.144C310.646 419.312 309.665 418.896 308.491 418.896C307.446 418.896 306.561 419.152 305.835 419.664C305.131 420.176 304.619 420.891 304.299 421.808V424.528C304.513 425.403 304.971 426.117 305.675 426.672C306.401 427.227 307.254 427.504 308.235 427.504ZM343.044 424.528H334.564L332.324 430H328.644L338.948 405.744H339.172L349.476 430H345.188L343.044 424.528ZM341.796 421.328L338.884 413.968L335.876 421.328H341.796ZM361.611 415.856C362.87 415.856 364.011 416.155 365.035 416.752C366.059 417.349 366.859 418.203 367.435 419.312C368.011 420.421 368.299 421.712 368.299 423.184C368.299 424.635 367.979 425.904 367.339 426.992C366.721 428.08 365.846 428.912 364.715 429.488C363.606 430.064 362.347 430.352 360.939 430.352C360.043 430.352 359.179 430.171 358.347 429.808C357.515 429.445 356.833 428.955 356.299 428.336V436.496H352.715V416.208H355.819L356.139 418.224C356.843 417.499 357.654 416.923 358.571 416.496C359.51 416.069 360.523 415.856 361.611 415.856ZM360.235 427.504C361.025 427.504 361.75 427.323 362.411 426.96C363.094 426.576 363.638 426.064 364.043 425.424C364.449 424.784 364.651 424.059 364.651 423.248C364.651 421.989 364.246 420.955 363.435 420.144C362.646 419.312 361.665 418.896 360.491 418.896C359.446 418.896 358.561 419.152 357.835 419.664C357.131 420.176 356.619 420.891 356.299 421.808V424.528C356.513 425.403 356.971 426.117 357.675 426.672C358.401 427.227 359.254 427.504 360.235 427.504ZM380.986 415.856C382.245 415.856 383.386 416.155 384.41 416.752C385.434 417.349 386.234 418.203 386.81 419.312C387.386 420.421 387.674 421.712 387.674 423.184C387.674 424.635 387.354 425.904 386.714 426.992C386.096 428.08 385.221 428.912 384.09 429.488C382.981 430.064 381.722 430.352 380.314 430.352C379.418 430.352 378.554 430.171 377.722 429.808C376.89 429.445 376.208 428.955 375.674 428.336V436.496H372.09V416.208H375.194L375.514 418.224C376.218 417.499 377.029 416.923 377.946 416.496C378.885 416.069 379.898 415.856 380.986 415.856ZM379.61 427.504C380.4 427.504 381.125 427.323 381.786 426.96C382.469 426.576 383.013 426.064 383.418 425.424C383.824 424.784 384.026 424.059 384.026 423.248C384.026 421.989 383.621 420.955 382.81 420.144C382.021 419.312 381.04 418.896 379.866 418.896C378.821 418.896 377.936 419.152 377.21 419.664C376.506 420.176 375.994 420.891 375.674 421.808V424.528C375.888 425.403 376.346 426.117 377.05 426.672C377.776 427.227 378.629 427.504 379.61 427.504ZM395.049 405.04V430H391.465V405.04H395.049ZM403.549 416.464V430H399.965V416.464H403.549ZM399.805 411.632C399.805 411.099 400.019 410.651 400.445 410.288C400.872 409.904 401.352 409.712 401.885 409.712C402.397 409.712 402.856 409.904 403.261 410.288C403.688 410.651 403.901 411.099 403.901 411.632C403.901 412.165 403.688 412.613 403.261 412.976C402.856 413.339 402.397 413.52 401.885 413.52C401.352 413.52 400.872 413.339 400.445 412.976C400.019 412.613 399.805 412.165 399.805 411.632ZM419.665 428.752C419.068 429.243 418.332 429.637 417.457 429.936C416.604 430.213 415.74 430.352 414.865 430.352C413.372 430.352 412.049 430.064 410.897 429.488C409.767 428.912 408.892 428.091 408.273 427.024C407.655 425.936 407.345 424.667 407.345 423.216C407.345 421.787 407.676 420.539 408.337 419.472C408.999 418.384 409.873 417.552 410.961 416.976C412.071 416.4 413.255 416.112 414.513 416.112C416.647 416.112 418.407 416.688 419.793 417.84L418.001 420.176C417.596 419.856 417.116 419.589 416.561 419.376C416.028 419.141 415.452 419.024 414.833 419.024C413.745 419.024 412.817 419.429 412.049 420.24C411.303 421.029 410.929 422.021 410.929 423.216C410.929 424.411 411.324 425.413 412.113 426.224C412.924 427.013 413.948 427.408 415.185 427.408C416.252 427.408 417.148 427.109 417.873 426.512L419.665 428.752ZM437.516 416.464V430H433.932V428.048C433.442 428.624 432.78 429.157 431.948 429.648C431.116 430.117 430.146 430.352 429.036 430.352C427.735 430.352 426.572 430.085 425.548 429.552C424.524 428.997 423.714 428.187 423.116 427.12C422.519 426.053 422.22 424.763 422.22 423.248C422.22 421.776 422.53 420.485 423.148 419.376C423.767 418.245 424.588 417.381 425.612 416.784C426.658 416.165 427.799 415.856 429.036 415.856C431.234 415.856 432.876 416.667 433.964 418.288L434.22 416.464H437.516ZM430.028 427.408C431.01 427.408 431.831 427.163 432.492 426.672C433.175 426.16 433.655 425.445 433.932 424.528V421.584C433.676 420.752 433.175 420.08 432.428 419.568C431.703 419.056 430.86 418.8 429.9 418.8C428.77 418.8 427.81 419.205 427.02 420.016C426.231 420.805 425.836 421.819 425.836 423.056C425.836 423.867 426.028 424.603 426.412 425.264C426.796 425.925 427.308 426.448 427.948 426.832C428.588 427.216 429.282 427.408 430.028 427.408ZM447.361 410.512V416.464H450.881V419.28H447.361V430H443.777V419.28H441.441V416.464H443.777V410.512H447.361ZM457.987 416.464V430H454.403V416.464H457.987ZM454.243 411.632C454.243 411.099 454.456 410.651 454.883 410.288C455.309 409.904 455.789 409.712 456.323 409.712C456.835 409.712 457.293 409.904 457.699 410.288C458.125 410.651 458.339 411.099 458.339 411.632C458.339 412.165 458.125 412.613 457.699 412.976C457.293 413.339 456.835 413.52 456.323 413.52C455.789 413.52 455.309 413.339 454.883 412.976C454.456 412.613 454.243 412.165 454.243 411.632ZM461.783 423.088C461.783 421.744 462.103 420.517 462.743 419.408C463.404 418.299 464.311 417.435 465.463 416.816C466.615 416.176 467.927 415.856 469.399 415.856C470.871 415.856 472.172 416.176 473.303 416.816C474.455 417.435 475.34 418.299 475.959 419.408C476.577 420.496 476.887 421.723 476.887 423.088C476.887 424.453 476.577 425.691 475.959 426.8C475.34 427.888 474.455 428.752 473.303 429.392C472.172 430.032 470.86 430.352 469.367 430.352C467.916 430.352 466.615 430.064 465.463 429.488C464.311 428.891 463.404 428.048 462.743 426.96C462.103 425.851 461.783 424.56 461.783 423.088ZM465.399 423.12C465.399 424.336 465.772 425.36 466.519 426.192C467.265 427.003 468.193 427.408 469.303 427.408C470.455 427.408 471.393 427.003 472.119 426.192C472.865 425.381 473.239 424.357 473.239 423.12C473.239 421.883 472.865 420.859 472.119 420.048C471.393 419.216 470.455 418.8 469.303 418.8C468.193 418.8 467.265 419.227 466.519 420.08C465.772 420.912 465.399 421.925 465.399 423.12ZM489.485 415.888C490.743 415.888 491.789 416.272 492.621 417.04C493.474 417.787 493.911 418.757 493.933 419.952V430H490.349V421.232C490.306 420.528 490.093 419.973 489.709 419.568C489.346 419.163 488.791 418.949 488.045 418.928C486.935 418.928 486.018 419.408 485.293 420.368C484.589 421.307 484.237 422.512 484.237 423.984V430H480.653V416.464H483.885L484.141 418.864C484.631 417.925 485.335 417.2 486.253 416.688C487.191 416.155 488.269 415.888 489.485 415.888Z" fill="black"/>
<g filter="url(#filter1_b)">
<path d="M101 184C101 178.477 105.477 174 111 174H549.064C554.587 174 559.064 178.477 559.064 184V254C559.064 259.523 554.587 264 549.064 264H111C105.477 264 101 259.523 101 254V184Z" fill="#FDB717"/>
</g>
<g filter="url(#filter2_b)">
<path d="M101.064 286C101.064 280.477 105.541 276 111.064 276H549.127C554.65 276 559.127 280.477 559.127 286V356C559.127 361.523 554.65 366 549.127 366H111.064C105.541 366 101.064 361.523 101.064 356V286Z" fill="#FDB717"/>
</g>
<g filter="url(#filter3_b)">
<path d="M101.064 488C101.064 482.477 105.541 478 111.064 478H549.127C554.65 478 559.127 482.477 559.127 488V560.486C559.127 566.009 554.65 570.486 549.127 570.486H111.064C105.541 570.486 101.064 566.009 101.064 560.486V488Z" fill="#FDB717"/>
</g>
<path d="M219.24 231.024L213.736 217.136L207.56 231.088L198.248 206.832H202.6L208.04 222.384L211.912 212.464L209.672 206.832H213.352L219.336 221.936L224.328 206.832H228.328L219.24 231.024ZM235.556 227.28C236.558 227.28 237.572 226.928 238.596 226.224L240.228 228.88C239.502 229.328 238.724 229.691 237.892 229.968C237.06 230.224 236.26 230.352 235.492 230.352C233.934 230.352 232.58 230.043 231.428 229.424C230.297 228.805 229.422 227.952 228.804 226.864C228.206 225.776 227.908 224.528 227.908 223.12C227.908 221.797 228.249 220.581 228.932 219.472C229.614 218.363 230.542 217.488 231.716 216.848C232.889 216.187 234.169 215.856 235.556 215.856C237.39 215.856 238.916 216.4 240.132 217.488C241.348 218.555 242.158 220.069 242.564 222.032L232.132 225.552C232.494 226.107 232.974 226.533 233.572 226.832C234.169 227.131 234.83 227.28 235.556 227.28ZM235.268 218.672C234.137 218.672 233.209 219.067 232.484 219.856C231.78 220.645 231.428 221.669 231.428 222.928C231.428 223.163 231.438 223.344 231.46 223.472L238.564 220.944C238.286 220.283 237.881 219.739 237.348 219.312C236.814 218.885 236.121 218.672 235.268 218.672ZM255.114 215.856C256.309 215.856 257.408 216.144 258.41 216.72C259.413 217.296 260.202 218.128 260.778 219.216C261.376 220.283 261.674 221.541 261.674 222.992C261.674 224.485 261.354 225.787 260.714 226.896C260.074 228.005 259.21 228.859 258.122 229.456C257.056 230.053 255.893 230.352 254.634 230.352C253.568 230.352 252.618 230.16 251.786 229.776C250.954 229.392 250.25 228.869 249.674 228.208V230H246.09V205.04H249.674V217.904C250.25 217.285 251.008 216.795 251.946 216.432C252.906 216.048 253.962 215.856 255.114 215.856ZM253.866 227.312C255.04 227.312 256.021 226.896 256.81 226.064C257.621 225.232 258.026 224.197 258.026 222.96C258.026 222.171 257.834 221.445 257.45 220.784C257.088 220.123 256.586 219.611 255.946 219.248C255.328 218.864 254.634 218.672 253.866 218.672C252.864 218.672 251.978 218.928 251.21 219.44C250.464 219.952 249.952 220.635 249.674 221.488V224.496C249.994 225.371 250.517 226.064 251.242 226.576C251.968 227.067 252.842 227.312 253.866 227.312ZM269.529 230.288C268.484 230.288 267.492 230.107 266.553 229.744C265.636 229.36 264.879 228.827 264.281 228.144L265.785 226.128C266.916 227.237 268.068 227.792 269.241 227.792C269.881 227.792 270.404 227.675 270.809 227.44C271.236 227.184 271.449 226.811 271.449 226.32C271.449 225.808 271.236 225.424 270.809 225.168C270.383 224.912 269.903 224.709 269.369 224.56C268.857 224.389 268.527 224.283 268.377 224.24C267.204 223.877 266.329 223.355 265.753 222.672C265.177 221.968 264.889 221.147 264.889 220.208C264.889 219.461 265.071 218.768 265.433 218.128C265.817 217.467 266.383 216.933 267.129 216.528C267.897 216.123 268.825 215.92 269.913 215.92C270.937 215.92 271.823 216.037 272.569 216.272C273.337 216.507 274.052 216.88 274.713 217.392L273.337 219.536C272.953 219.173 272.484 218.885 271.929 218.672C271.396 218.459 270.905 218.352 270.457 218.352C269.903 218.352 269.444 218.48 269.081 218.736C268.719 218.992 268.537 219.323 268.537 219.728C268.516 220.219 268.697 220.592 269.081 220.848C269.465 221.083 270.084 221.339 270.937 221.616C271.3 221.723 271.535 221.797 271.641 221.84C272.708 222.181 273.54 222.661 274.137 223.28C274.735 223.877 275.033 224.667 275.033 225.648C275.033 226.971 274.553 228.08 273.593 228.976C272.655 229.851 271.3 230.288 269.529 230.288ZM282.58 216.464V230H278.996V216.464H282.58ZM278.836 211.632C278.836 211.099 279.05 210.651 279.476 210.288C279.903 209.904 280.383 209.712 280.916 209.712C281.428 209.712 281.887 209.904 282.292 210.288C282.719 210.651 282.932 211.099 282.932 211.632C282.932 212.165 282.719 212.613 282.292 212.976C281.887 213.339 281.428 213.52 280.916 213.52C280.383 213.52 279.903 213.339 279.476 212.976C279.05 212.613 278.836 212.165 278.836 211.632ZM292.392 210.512V216.464H295.912V219.28H292.392V230H288.808V219.28H286.472V216.464H288.808V210.512H292.392ZM305.962 227.28C306.965 227.28 307.978 226.928 309.002 226.224L310.634 228.88C309.909 229.328 309.13 229.691 308.298 229.968C307.466 230.224 306.666 230.352 305.898 230.352C304.341 230.352 302.986 230.043 301.834 229.424C300.703 228.805 299.829 227.952 299.21 226.864C298.613 225.776 298.314 224.528 298.314 223.12C298.314 221.797 298.655 220.581 299.338 219.472C300.021 218.363 300.949 217.488 302.122 216.848C303.295 216.187 304.575 215.856 305.962 215.856C307.797 215.856 309.322 216.4 310.538 217.488C311.754 218.555 312.565 220.069 312.97 222.032L302.538 225.552C302.901 226.107 303.381 226.533 303.978 226.832C304.575 227.131 305.237 227.28 305.962 227.28ZM305.674 218.672C304.543 218.672 303.615 219.067 302.89 219.856C302.186 220.645 301.834 221.669 301.834 222.928C301.834 223.163 301.845 223.344 301.866 223.472L308.97 220.944C308.693 220.283 308.287 219.739 307.754 219.312C307.221 218.885 306.527 218.672 305.674 218.672ZM327.482 206.704H334.106C337.029 206.704 339.44 207.28 341.338 208.432C343.258 209.584 344.656 211.067 345.53 212.88C346.405 214.693 346.842 216.624 346.842 218.672C346.842 220.933 346.309 222.928 345.242 224.656C344.197 226.363 342.789 227.685 341.018 228.624C339.248 229.541 337.317 230 335.226 230H327.482V206.704ZM334.554 226.416C336.218 226.416 337.68 226.107 338.938 225.488C340.218 224.869 341.21 223.963 341.914 222.768C342.64 221.552 343.002 220.101 343.002 218.416C343.002 216.581 342.608 215.056 341.818 213.84C341.05 212.603 340.058 211.696 338.842 211.12C337.648 210.544 336.41 210.256 335.13 210.256H331.226V226.416H334.554ZM357.618 227.28C358.621 227.28 359.634 226.928 360.658 226.224L362.29 228.88C361.565 229.328 360.786 229.691 359.954 229.968C359.122 230.224 358.322 230.352 357.554 230.352C355.997 230.352 354.642 230.043 353.49 229.424C352.36 228.805 351.485 227.952 350.866 226.864C350.269 225.776 349.97 224.528 349.97 223.12C349.97 221.797 350.312 220.581 350.994 219.472C351.677 218.363 352.605 217.488 353.778 216.848C354.952 216.187 356.232 215.856 357.618 215.856C359.453 215.856 360.978 216.4 362.194 217.488C363.41 218.555 364.221 220.069 364.626 222.032L354.194 225.552C354.557 226.107 355.037 226.533 355.634 226.832C356.232 227.131 356.893 227.28 357.618 227.28ZM357.33 218.672C356.2 218.672 355.272 219.067 354.546 219.856C353.842 220.645 353.49 221.669 353.49 222.928C353.49 223.163 353.501 223.344 353.522 223.472L360.626 220.944C360.349 220.283 359.944 219.739 359.41 219.312C358.877 218.885 358.184 218.672 357.33 218.672ZM372.217 230.288C371.171 230.288 370.179 230.107 369.241 229.744C368.323 229.36 367.566 228.827 366.969 228.144L368.473 226.128C369.603 227.237 370.755 227.792 371.929 227.792C372.569 227.792 373.091 227.675 373.497 227.44C373.923 227.184 374.137 226.811 374.137 226.32C374.137 225.808 373.923 225.424 373.497 225.168C373.07 224.912 372.59 224.709 372.057 224.56C371.545 224.389 371.214 224.283 371.065 224.24C369.891 223.877 369.017 223.355 368.441 222.672C367.865 221.968 367.577 221.147 367.577 220.208C367.577 219.461 367.758 218.768 368.121 218.128C368.505 217.467 369.07 216.933 369.817 216.528C370.585 216.123 371.513 215.92 372.601 215.92C373.625 215.92 374.51 216.037 375.257 216.272C376.025 216.507 376.739 216.88 377.401 217.392L376.025 219.536C375.641 219.173 375.171 218.885 374.617 218.672C374.083 218.459 373.593 218.352 373.145 218.352C372.59 218.352 372.131 218.48 371.769 218.736C371.406 218.992 371.225 219.323 371.225 219.728C371.203 220.219 371.385 220.592 371.769 220.848C372.153 221.083 372.771 221.339 373.625 221.616C373.987 221.723 374.222 221.797 374.329 221.84C375.395 222.181 376.227 222.661 376.825 223.28C377.422 223.877 377.721 224.667 377.721 225.648C377.721 226.971 377.241 228.08 376.281 228.976C375.342 229.851 373.987 230.288 372.217 230.288ZM385.268 216.464V230H381.684V216.464H385.268ZM381.524 211.632C381.524 211.099 381.737 210.651 382.164 210.288C382.591 209.904 383.071 209.712 383.604 209.712C384.116 209.712 384.575 209.904 384.98 210.288C385.407 210.651 385.62 211.099 385.62 211.632C385.62 212.165 385.407 212.613 384.98 212.976C384.575 213.339 384.116 213.52 383.604 213.52C383.071 213.52 382.591 213.339 382.164 212.976C381.737 212.613 381.524 212.165 381.524 211.632ZM404.84 216.464V230.064C404.84 231.323 404.499 232.453 403.816 233.456C403.155 234.48 402.216 235.28 401 235.856C399.805 236.453 398.451 236.752 396.936 236.752C395.464 236.752 394.237 236.517 393.256 236.048C392.275 235.6 391.283 234.939 390.28 234.064L392.392 231.6C393.075 232.24 393.768 232.731 394.472 233.072C395.176 233.435 395.976 233.616 396.872 233.616C398.195 233.616 399.251 233.285 400.04 232.624C400.829 231.984 401.235 231.109 401.256 230V227.728C400.787 228.517 400.083 229.157 399.144 229.648C398.227 230.117 397.149 230.352 395.912 230.352C394.675 230.352 393.533 230.043 392.488 229.424C391.443 228.784 390.611 227.92 389.992 226.832C389.373 225.723 389.064 224.496 389.064 223.152C389.064 221.787 389.384 220.549 390.024 219.44C390.685 218.309 391.549 217.435 392.616 216.816C393.704 216.176 394.856 215.856 396.072 215.856C397.203 215.856 398.227 216.059 399.144 216.464C400.083 216.848 400.787 217.36 401.256 218L401.544 216.464H404.84ZM396.968 227.408C398.013 227.408 398.909 227.152 399.656 226.64C400.424 226.128 400.957 225.435 401.256 224.56V221.616C400.957 220.763 400.424 220.08 399.656 219.568C398.888 219.056 397.992 218.8 396.968 218.8C395.752 218.8 394.728 219.205 393.896 220.016C393.085 220.805 392.68 221.819 392.68 223.056C392.68 223.867 392.872 224.603 393.256 225.264C393.64 225.925 394.152 226.448 394.792 226.832C395.453 227.216 396.179 227.408 396.968 227.408ZM418.61 215.888C419.868 215.888 420.914 216.272 421.746 217.04C422.599 217.787 423.036 218.757 423.058 219.952V230H419.474V221.232C419.431 220.528 419.218 219.973 418.834 219.568C418.471 219.163 417.916 218.949 417.17 218.928C416.06 218.928 415.143 219.408 414.418 220.368C413.714 221.307 413.362 222.512 413.362 223.984V230H409.778V216.464H413.01L413.266 218.864C413.756 217.925 414.46 217.2 415.378 216.688C416.316 216.155 417.394 215.888 418.61 215.888Z" fill="black"/>
<path d="M219.303 329.565L213.799 315.677L207.623 329.629L198.311 305.373H202.663L208.103 320.925L211.975 311.005L209.735 305.373H213.415L219.399 320.477L224.391 305.373H228.391L219.303 329.565ZM235.619 325.821C236.622 325.821 237.635 325.469 238.659 324.765L240.291 327.421C239.566 327.869 238.787 328.232 237.955 328.509C237.123 328.765 236.323 328.893 235.555 328.893C233.998 328.893 232.643 328.584 231.491 327.965C230.361 327.347 229.486 326.493 228.867 325.405C228.27 324.317 227.971 323.069 227.971 321.661C227.971 320.339 228.313 319.123 228.995 318.013C229.678 316.904 230.606 316.029 231.779 315.389C232.953 314.728 234.233 314.397 235.619 314.397C237.454 314.397 238.979 314.941 240.195 316.029C241.411 317.096 242.222 318.611 242.627 320.573L232.195 324.093C232.558 324.648 233.038 325.075 233.635 325.373C234.233 325.672 234.894 325.821 235.619 325.821ZM235.331 317.213C234.201 317.213 233.273 317.608 232.547 318.397C231.843 319.187 231.491 320.211 231.491 321.469C231.491 321.704 231.502 321.885 231.523 322.013L238.627 319.485C238.35 318.824 237.945 318.28 237.411 317.853C236.878 317.427 236.185 317.213 235.331 317.213ZM255.178 314.397C256.373 314.397 257.471 314.685 258.474 315.261C259.477 315.837 260.266 316.669 260.842 317.757C261.439 318.824 261.738 320.083 261.738 321.533C261.738 323.027 261.418 324.328 260.778 325.437C260.138 326.547 259.274 327.4 258.186 327.997C257.119 328.595 255.957 328.893 254.698 328.893C253.631 328.893 252.682 328.701 251.85 328.317C251.018 327.933 250.314 327.411 249.738 326.749V328.541H246.154V303.581H249.738V316.445C250.314 315.827 251.071 315.336 252.01 314.973C252.97 314.589 254.026 314.397 255.178 314.397ZM253.93 325.853C255.103 325.853 256.085 325.437 256.874 324.605C257.685 323.773 258.09 322.739 258.09 321.501C258.09 320.712 257.898 319.987 257.514 319.325C257.151 318.664 256.65 318.152 256.01 317.789C255.391 317.405 254.698 317.213 253.93 317.213C252.927 317.213 252.042 317.469 251.274 317.981C250.527 318.493 250.015 319.176 249.738 320.029V323.037C250.058 323.912 250.581 324.605 251.306 325.117C252.031 325.608 252.906 325.853 253.93 325.853ZM269.593 328.829C268.548 328.829 267.556 328.648 266.617 328.285C265.7 327.901 264.942 327.368 264.345 326.685L265.849 324.669C266.98 325.779 268.132 326.333 269.305 326.333C269.945 326.333 270.468 326.216 270.873 325.981C271.3 325.725 271.513 325.352 271.513 324.861C271.513 324.349 271.3 323.965 270.873 323.709C270.446 323.453 269.966 323.251 269.433 323.101C268.921 322.931 268.59 322.824 268.441 322.781C267.268 322.419 266.393 321.896 265.817 321.213C265.241 320.509 264.953 319.688 264.953 318.749C264.953 318.003 265.134 317.309 265.497 316.669C265.881 316.008 266.446 315.475 267.193 315.069C267.961 314.664 268.889 314.461 269.977 314.461C271.001 314.461 271.886 314.579 272.633 314.813C273.401 315.048 274.116 315.421 274.777 315.933L273.401 318.077C273.017 317.715 272.548 317.427 271.993 317.213C271.46 317 270.969 316.893 270.521 316.893C269.966 316.893 269.508 317.021 269.145 317.277C268.782 317.533 268.601 317.864 268.601 318.269C268.58 318.76 268.761 319.133 269.145 319.389C269.529 319.624 270.148 319.88 271.001 320.157C271.364 320.264 271.598 320.339 271.705 320.381C272.772 320.723 273.604 321.203 274.201 321.821C274.798 322.419 275.097 323.208 275.097 324.189C275.097 325.512 274.617 326.621 273.657 327.517C272.718 328.392 271.364 328.829 269.593 328.829ZM282.644 315.005V328.541H279.06V315.005H282.644ZM278.9 310.173C278.9 309.64 279.114 309.192 279.54 308.829C279.967 308.445 280.447 308.253 280.98 308.253C281.492 308.253 281.951 308.445 282.356 308.829C282.783 309.192 282.996 309.64 282.996 310.173C282.996 310.707 282.783 311.155 282.356 311.517C281.951 311.88 281.492 312.061 280.98 312.061C280.447 312.061 279.967 311.88 279.54 311.517C279.114 311.155 278.9 310.707 278.9 310.173ZM292.456 309.053V315.005H295.976V317.821H292.456V328.541H288.872V317.821H286.536V315.005H288.872V309.053H292.456ZM306.026 325.821C307.028 325.821 308.042 325.469 309.066 324.765L310.698 327.421C309.972 327.869 309.194 328.232 308.362 328.509C307.53 328.765 306.73 328.893 305.962 328.893C304.404 328.893 303.05 328.584 301.898 327.965C300.767 327.347 299.892 326.493 299.274 325.405C298.676 324.317 298.378 323.069 298.378 321.661C298.378 320.339 298.719 319.123 299.402 318.013C300.084 316.904 301.012 316.029 302.186 315.389C303.359 314.728 304.639 314.397 306.026 314.397C307.86 314.397 309.386 314.941 310.602 316.029C311.818 317.096 312.628 318.611 313.034 320.573L302.602 324.093C302.964 324.648 303.444 325.075 304.042 325.373C304.639 325.672 305.3 325.821 306.026 325.821ZM305.738 317.213C304.607 317.213 303.679 317.608 302.954 318.397C302.25 319.187 301.898 320.211 301.898 321.469C301.898 321.704 301.908 321.885 301.93 322.013L309.034 319.485C308.756 318.824 308.351 318.28 307.818 317.853C307.284 317.427 306.591 317.213 305.738 317.213ZM327.546 305.245H334.17C337.093 305.245 339.504 305.821 341.402 306.973C343.322 308.125 344.72 309.608 345.594 311.421C346.469 313.235 346.906 315.165 346.906 317.213C346.906 319.475 346.373 321.469 345.306 323.197C344.261 324.904 342.853 326.227 341.082 327.165C339.312 328.083 337.381 328.541 335.29 328.541H327.546V305.245ZM334.618 324.957C336.282 324.957 337.744 324.648 339.002 324.029C340.282 323.411 341.274 322.504 341.978 321.309C342.704 320.093 343.066 318.643 343.066 316.957C343.066 315.123 342.672 313.597 341.882 312.381C341.114 311.144 340.122 310.237 338.906 309.661C337.712 309.085 336.474 308.797 335.194 308.797H331.29V324.957H334.618ZM357.682 325.821C358.685 325.821 359.698 325.469 360.722 324.765L362.354 327.421C361.629 327.869 360.85 328.232 360.018 328.509C359.186 328.765 358.386 328.893 357.618 328.893C356.061 328.893 354.706 328.584 353.554 327.965C352.423 327.347 351.549 326.493 350.93 325.405C350.333 324.317 350.034 323.069 350.034 321.661C350.034 320.339 350.375 319.123 351.058 318.013C351.741 316.904 352.669 316.029 353.842 315.389C355.015 314.728 356.295 314.397 357.682 314.397C359.517 314.397 361.042 314.941 362.258 316.029C363.474 317.096 364.285 318.611 364.69 320.573L354.258 324.093C354.621 324.648 355.101 325.075 355.698 325.373C356.295 325.672 356.957 325.821 357.682 325.821ZM357.394 317.213C356.263 317.213 355.335 317.608 354.61 318.397C353.906 319.187 353.554 320.211 353.554 321.469C353.554 321.704 353.565 321.885 353.586 322.013L360.69 319.485C360.413 318.824 360.007 318.28 359.474 317.853C358.941 317.427 358.247 317.213 357.394 317.213ZM381.061 315.005L373.637 328.893H373.477L365.701 315.005H369.957L373.669 322.749L377.061 315.005H381.061ZM390.151 325.821C391.153 325.821 392.167 325.469 393.191 324.765L394.823 327.421C394.097 327.869 393.319 328.232 392.487 328.509C391.655 328.765 390.855 328.893 390.087 328.893C388.529 328.893 387.175 328.584 386.023 327.965C384.892 327.347 384.017 326.493 383.399 325.405C382.801 324.317 382.503 323.069 382.503 321.661C382.503 320.339 382.844 319.123 383.527 318.013C384.209 316.904 385.137 316.029 386.311 315.389C387.484 314.728 388.764 314.397 390.151 314.397C391.985 314.397 393.511 314.941 394.727 316.029C395.943 317.096 396.753 318.611 397.159 320.573L386.727 324.093C387.089 324.648 387.569 325.075 388.167 325.373C388.764 325.672 389.425 325.821 390.151 325.821ZM389.863 317.213C388.732 317.213 387.804 317.608 387.079 318.397C386.375 319.187 386.023 320.211 386.023 321.469C386.023 321.704 386.033 321.885 386.055 322.013L393.159 319.485C392.881 318.824 392.476 318.28 391.943 317.853C391.409 317.427 390.716 317.213 389.863 317.213ZM404.269 303.581V328.541H400.685V303.581H404.269ZM408.065 321.629C408.065 320.285 408.385 319.059 409.025 317.949C409.687 316.84 410.593 315.976 411.745 315.357C412.897 314.717 414.209 314.397 415.681 314.397C417.153 314.397 418.455 314.717 419.585 315.357C420.737 315.976 421.623 316.84 422.241 317.949C422.86 319.037 423.169 320.264 423.169 321.629C423.169 322.995 422.86 324.232 422.241 325.341C421.623 326.429 420.737 327.293 419.585 327.933C418.455 328.573 417.143 328.893 415.649 328.893C414.199 328.893 412.897 328.605 411.745 328.029C410.593 327.432 409.687 326.589 409.025 325.501C408.385 324.392 408.065 323.101 408.065 321.629ZM411.681 321.661C411.681 322.877 412.055 323.901 412.801 324.733C413.548 325.544 414.476 325.949 415.585 325.949C416.737 325.949 417.676 325.544 418.401 324.733C419.148 323.923 419.521 322.899 419.521 321.661C419.521 320.424 419.148 319.4 418.401 318.589C417.676 317.757 416.737 317.341 415.585 317.341C414.476 317.341 413.548 317.768 412.801 318.621C412.055 319.453 411.681 320.467 411.681 321.661ZM435.831 314.397C437.09 314.397 438.231 314.696 439.255 315.293C440.279 315.891 441.079 316.744 441.655 317.853C442.231 318.963 442.519 320.253 442.519 321.725C442.519 323.176 442.199 324.445 441.559 325.533C440.941 326.621 440.066 327.453 438.935 328.029C437.826 328.605 436.567 328.893 435.159 328.893C434.263 328.893 433.399 328.712 432.567 328.349C431.735 327.987 431.053 327.496 430.519 326.877V335.037H426.935V314.749H430.039L430.359 316.765C431.063 316.04 431.874 315.464 432.791 315.037C433.73 314.611 434.743 314.397 435.831 314.397ZM434.455 326.045C435.245 326.045 435.97 325.864 436.631 325.501C437.314 325.117 437.858 324.605 438.263 323.965C438.669 323.325 438.871 322.6 438.871 321.789C438.871 320.531 438.466 319.496 437.655 318.685C436.866 317.853 435.885 317.437 434.711 317.437C433.666 317.437 432.781 317.693 432.055 318.205C431.351 318.717 430.839 319.432 430.519 320.349V323.069C430.733 323.944 431.191 324.659 431.895 325.213C432.621 325.768 433.474 326.045 434.455 326.045ZM463.878 314.397C465.201 314.397 466.246 314.771 467.014 315.517C467.804 316.264 468.22 317.245 468.262 318.461V328.541H464.71V319.837C464.668 319.112 464.508 318.557 464.23 318.173C463.953 317.768 463.494 317.544 462.854 317.501C461.745 317.501 460.849 318.003 460.166 319.005C459.484 319.987 459.132 321.139 459.11 322.461V328.541H455.494V319.837C455.452 319.133 455.281 318.579 454.982 318.173C454.705 317.768 454.236 317.544 453.574 317.501C452.849 317.501 452.209 317.736 451.654 318.205C451.1 318.675 450.662 319.293 450.342 320.061C450.044 320.829 449.894 321.629 449.894 322.461V328.541H446.31V315.005H449.542L449.83 317.373C450.342 316.413 451.036 315.677 451.91 315.165C452.785 314.653 453.788 314.397 454.918 314.397C456.006 314.397 456.913 314.643 457.638 315.133C458.385 315.603 458.876 316.285 459.11 317.181C459.665 316.307 460.369 315.624 461.222 315.133C462.076 314.643 462.961 314.397 463.878 314.397ZM479.713 325.821C480.716 325.821 481.729 325.469 482.753 324.765L484.385 327.421C483.66 327.869 482.881 328.232 482.049 328.509C481.217 328.765 480.417 328.893 479.649 328.893C478.092 328.893 476.737 328.584 475.585 327.965C474.455 327.347 473.58 326.493 472.961 325.405C472.364 324.317 472.065 323.069 472.065 321.661C472.065 320.339 472.407 319.123 473.089 318.013C473.772 316.904 474.7 316.029 475.873 315.389C477.047 314.728 478.327 314.397 479.713 314.397C481.548 314.397 483.073 314.941 484.289 316.029C485.505 317.096 486.316 318.611 486.721 320.573L476.289 324.093C476.652 324.648 477.132 325.075 477.729 325.373C478.327 325.672 478.988 325.821 479.713 325.821ZM479.425 317.213C478.295 317.213 477.367 317.608 476.641 318.397C475.937 319.187 475.585 320.211 475.585 321.469C475.585 321.704 475.596 321.885 475.617 322.013L482.721 319.485C482.444 318.824 482.039 318.28 481.505 317.853C480.972 317.427 480.279 317.213 479.425 317.213ZM499.08 314.429C500.338 314.429 501.384 314.813 502.216 315.581C503.069 316.328 503.506 317.299 503.528 318.493V328.541H499.944V319.773C499.901 319.069 499.688 318.515 499.304 318.109C498.941 317.704 498.386 317.491 497.64 317.469C496.53 317.469 495.613 317.949 494.888 318.909C494.184 319.848 493.832 321.053 493.832 322.525V328.541H490.248V315.005H493.48L493.736 317.405C494.226 316.467 494.93 315.741 495.848 315.229C496.786 314.696 497.864 314.429 499.08 314.429ZM513.362 309.053V315.005H516.882V317.821H513.362V328.541H509.778V317.821H507.442V315.005H509.778V309.053H513.362Z" fill="black"/>
<path d="M223.703 492.259V516.387H219.991V502.915L211.831 514.499H211.767L203.799 503.459V516.387H200.183V492.259H200.215L211.831 508.707L223.639 492.259H223.703ZM228.233 509.475C228.233 508.131 228.553 506.905 229.193 505.795C229.855 504.686 230.761 503.822 231.913 503.203C233.065 502.563 234.377 502.243 235.849 502.243C237.321 502.243 238.623 502.563 239.753 503.203C240.905 503.822 241.791 504.686 242.409 505.795C243.028 506.883 243.337 508.11 243.337 509.475C243.337 510.841 243.028 512.078 242.409 513.187C241.791 514.275 240.905 515.139 239.753 515.779C238.623 516.419 237.311 516.739 235.817 516.739C234.367 516.739 233.065 516.451 231.913 515.875C230.761 515.278 229.855 514.435 229.193 513.347C228.553 512.238 228.233 510.947 228.233 509.475ZM231.849 509.507C231.849 510.723 232.223 511.747 232.969 512.579C233.716 513.39 234.644 513.795 235.753 513.795C236.905 513.795 237.844 513.39 238.569 512.579C239.316 511.769 239.689 510.745 239.689 509.507C239.689 508.27 239.316 507.246 238.569 506.435C237.844 505.603 236.905 505.187 235.753 505.187C234.644 505.187 233.716 505.614 232.969 506.467C232.223 507.299 231.849 508.313 231.849 509.507ZM256.127 502.243C257.322 502.243 258.421 502.531 259.423 503.107C260.426 503.683 261.215 504.515 261.791 505.603C262.389 506.67 262.687 507.929 262.687 509.379C262.687 510.873 262.367 512.174 261.727 513.283C261.087 514.393 260.223 515.246 259.135 515.843C258.069 516.441 256.906 516.739 255.647 516.739C254.581 516.739 253.631 516.547 252.799 516.163C251.967 515.779 251.263 515.257 250.687 514.595V516.387H247.103V491.427H250.687V504.291C251.263 503.673 252.021 503.182 252.959 502.819C253.919 502.435 254.975 502.243 256.127 502.243ZM254.879 513.699C256.053 513.699 257.034 513.283 257.823 512.451C258.634 511.619 259.039 510.585 259.039 509.347C259.039 508.558 258.847 507.833 258.463 507.171C258.101 506.51 257.599 505.998 256.959 505.635C256.341 505.251 255.647 505.059 254.879 505.059C253.877 505.059 252.991 505.315 252.223 505.827C251.477 506.339 250.965 507.022 250.687 507.875V510.883C251.007 511.758 251.53 512.451 252.255 512.963C252.981 513.454 253.855 513.699 254.879 513.699ZM270.062 502.851V516.387H266.478V502.851H270.062ZM266.318 498.019C266.318 497.486 266.532 497.038 266.958 496.675C267.385 496.291 267.865 496.099 268.398 496.099C268.91 496.099 269.369 496.291 269.774 496.675C270.201 497.038 270.414 497.486 270.414 498.019C270.414 498.553 270.201 499.001 269.774 499.363C269.369 499.726 268.91 499.907 268.398 499.907C267.865 499.907 267.385 499.726 266.958 499.363C266.532 499.001 266.318 498.553 266.318 498.019ZM278.562 491.427V516.387H274.978V491.427H278.562ZM290.006 513.667C291.009 513.667 292.022 513.315 293.046 512.611L294.678 515.267C293.953 515.715 293.174 516.078 292.342 516.355C291.51 516.611 290.71 516.739 289.942 516.739C288.385 516.739 287.03 516.43 285.878 515.811C284.748 515.193 283.873 514.339 283.254 513.251C282.657 512.163 282.358 510.915 282.358 509.507C282.358 508.185 282.7 506.969 283.382 505.859C284.065 504.75 284.993 503.875 286.166 503.235C287.34 502.574 288.62 502.243 290.006 502.243C291.841 502.243 293.366 502.787 294.582 503.875C295.798 504.942 296.609 506.457 297.014 508.419L286.582 511.939C286.945 512.494 287.425 512.921 288.022 513.219C288.62 513.518 289.281 513.667 290.006 513.667ZM289.718 505.059C288.588 505.059 287.66 505.454 286.934 506.243C286.23 507.033 285.878 508.057 285.878 509.315C285.878 509.55 285.889 509.731 285.91 509.859L293.014 507.331C292.737 506.67 292.332 506.126 291.798 505.699C291.265 505.273 290.572 505.059 289.718 505.059ZM323.495 510.915H315.015L312.775 516.387H309.095L319.399 492.131H319.623L329.927 516.387H325.639L323.495 510.915ZM322.247 507.715L319.335 500.355L316.327 507.715H322.247ZM342.062 502.243C343.32 502.243 344.462 502.542 345.486 503.139C346.51 503.737 347.31 504.59 347.886 505.699C348.462 506.809 348.75 508.099 348.75 509.571C348.75 511.022 348.43 512.291 347.79 513.379C347.171 514.467 346.296 515.299 345.166 515.875C344.056 516.451 342.798 516.739 341.39 516.739C340.494 516.739 339.63 516.558 338.798 516.195C337.966 515.833 337.283 515.342 336.75 514.723V522.883H333.166V502.595H336.27L336.59 504.611C337.294 503.886 338.104 503.31 339.022 502.883C339.96 502.457 340.974 502.243 342.062 502.243ZM340.686 513.891C341.475 513.891 342.2 513.71 342.862 513.347C343.544 512.963 344.088 512.451 344.494 511.811C344.899 511.171 345.102 510.446 345.102 509.635C345.102 508.377 344.696 507.342 343.886 506.531C343.096 505.699 342.115 505.283 340.942 505.283C339.896 505.283 339.011 505.539 338.286 506.051C337.582 506.563 337.07 507.278 336.75 508.195V510.915C336.963 511.79 337.422 512.505 338.126 513.059C338.851 513.614 339.704 513.891 340.686 513.891ZM361.437 502.243C362.695 502.243 363.837 502.542 364.861 503.139C365.885 503.737 366.685 504.59 367.261 505.699C367.837 506.809 368.125 508.099 368.125 509.571C368.125 511.022 367.805 512.291 367.165 513.379C366.546 514.467 365.671 515.299 364.541 515.875C363.431 516.451 362.173 516.739 360.765 516.739C359.869 516.739 359.005 516.558 358.173 516.195C357.341 515.833 356.658 515.342 356.125 514.723V522.883H352.541V502.595H355.645L355.965 504.611C356.669 503.886 357.479 503.31 358.397 502.883C359.335 502.457 360.349 502.243 361.437 502.243ZM360.061 513.891C360.85 513.891 361.575 513.71 362.237 513.347C362.919 512.963 363.463 512.451 363.869 511.811C364.274 511.171 364.477 510.446 364.477 509.635C364.477 508.377 364.071 507.342 363.261 506.531C362.471 505.699 361.49 505.283 360.317 505.283C359.271 505.283 358.386 505.539 357.661 506.051C356.957 506.563 356.445 507.278 356.125 508.195V510.915C356.338 511.79 356.797 512.505 357.501 513.059C358.226 513.614 359.079 513.891 360.061 513.891ZM375.5 491.427V516.387H371.916V491.427H375.5ZM384 502.851V516.387H380.416V502.851H384ZM380.256 498.019C380.256 497.486 380.469 497.038 380.896 496.675C381.322 496.291 381.802 496.099 382.336 496.099C382.848 496.099 383.306 496.291 383.712 496.675C384.138 497.038 384.352 497.486 384.352 498.019C384.352 498.553 384.138 499.001 383.712 499.363C383.306 499.726 382.848 499.907 382.336 499.907C381.802 499.907 381.322 499.726 380.896 499.363C380.469 499.001 380.256 498.553 380.256 498.019ZM400.116 515.139C399.518 515.63 398.782 516.025 397.908 516.323C397.054 516.601 396.19 516.739 395.316 516.739C393.822 516.739 392.5 516.451 391.348 515.875C390.217 515.299 389.342 514.478 388.724 513.411C388.105 512.323 387.796 511.054 387.796 509.603C387.796 508.174 388.126 506.926 388.788 505.859C389.449 504.771 390.324 503.939 391.412 503.363C392.521 502.787 393.705 502.499 394.964 502.499C397.097 502.499 398.857 503.075 400.244 504.227L398.452 506.563C398.046 506.243 397.566 505.977 397.012 505.763C396.478 505.529 395.902 505.411 395.284 505.411C394.196 505.411 393.268 505.817 392.5 506.627C391.753 507.417 391.38 508.409 391.38 509.603C391.38 510.798 391.774 511.801 392.564 512.611C393.374 513.401 394.398 513.795 395.636 513.795C396.702 513.795 397.598 513.497 398.324 512.899L400.116 515.139ZM417.967 502.851V516.387H414.383V514.435C413.892 515.011 413.231 515.545 412.399 516.035C411.567 516.505 410.596 516.739 409.487 516.739C408.185 516.739 407.023 516.473 405.999 515.939C404.975 515.385 404.164 514.574 403.567 513.507C402.969 512.441 402.671 511.15 402.671 509.635C402.671 508.163 402.98 506.873 403.599 505.763C404.217 504.633 405.039 503.769 406.063 503.171C407.108 502.553 408.249 502.243 409.487 502.243C411.684 502.243 413.327 503.054 414.415 504.675L414.671 502.851H417.967ZM410.479 513.795C411.46 513.795 412.281 513.55 412.943 513.059C413.625 512.547 414.105 511.833 414.383 510.915V507.971C414.127 507.139 413.625 506.467 412.879 505.955C412.153 505.443 411.311 505.187 410.351 505.187C409.22 505.187 408.26 505.593 407.471 506.403C406.681 507.193 406.287 508.206 406.287 509.443C406.287 510.254 406.479 510.99 406.863 511.651C407.247 512.313 407.759 512.835 408.399 513.219C409.039 513.603 409.732 513.795 410.479 513.795ZM427.812 496.899V502.851H431.332V505.667H427.812V516.387H424.228V505.667H421.892V502.851H424.228V496.899H427.812ZM438.437 502.851V516.387H434.853V502.851H438.437ZM434.693 498.019C434.693 497.486 434.907 497.038 435.333 496.675C435.76 496.291 436.24 496.099 436.773 496.099C437.285 496.099 437.744 496.291 438.149 496.675C438.576 497.038 438.789 497.486 438.789 498.019C438.789 498.553 438.576 499.001 438.149 499.363C437.744 499.726 437.285 499.907 436.773 499.907C436.24 499.907 435.76 499.726 435.333 499.363C434.907 499.001 434.693 498.553 434.693 498.019ZM442.233 509.475C442.233 508.131 442.553 506.905 443.193 505.795C443.855 504.686 444.761 503.822 445.913 503.203C447.065 502.563 448.377 502.243 449.849 502.243C451.321 502.243 452.623 502.563 453.753 503.203C454.905 503.822 455.791 504.686 456.409 505.795C457.028 506.883 457.337 508.11 457.337 509.475C457.337 510.841 457.028 512.078 456.409 513.187C455.791 514.275 454.905 515.139 453.753 515.779C452.623 516.419 451.311 516.739 449.817 516.739C448.367 516.739 447.065 516.451 445.913 515.875C444.761 515.278 443.855 514.435 443.193 513.347C442.553 512.238 442.233 510.947 442.233 509.475ZM445.849 509.507C445.849 510.723 446.223 511.747 446.969 512.579C447.716 513.39 448.644 513.795 449.753 513.795C450.905 513.795 451.844 513.39 452.569 512.579C453.316 511.769 453.689 510.745 453.689 509.507C453.689 508.27 453.316 507.246 452.569 506.435C451.844 505.603 450.905 505.187 449.753 505.187C448.644 505.187 447.716 505.614 446.969 506.467C446.223 507.299 445.849 508.313 445.849 509.507ZM469.935 502.275C471.194 502.275 472.239 502.659 473.071 503.427C473.925 504.174 474.362 505.145 474.383 506.339V516.387H470.799V507.619C470.757 506.915 470.543 506.361 470.159 505.955C469.797 505.55 469.242 505.337 468.495 505.315C467.386 505.315 466.469 505.795 465.743 506.755C465.039 507.694 464.687 508.899 464.687 510.371V516.387H461.103V502.851H464.335L464.591 505.251C465.082 504.313 465.786 503.587 466.703 503.075C467.642 502.542 468.719 502.275 469.935 502.275Z" fill="black"/>
<path d="M113.185 199.177C112.12 200.296 112.064 201.12 112.064 219.195C112.064 237.269 112.12 238.093 113.185 239.212C114.251 240.331 115.036 240.389 132.251 240.389C149.466 240.389 150.251 240.331 151.316 239.212C152.382 238.093 152.438 237.269 152.438 219.195C152.438 201.12 152.382 200.296 151.316 199.177C150.251 198.059 149.466 198 132.251 198C115.036 198 114.251 198.059 113.185 199.177ZM147.952 205.065V207.42H140.101H132.251V205.065V202.71H140.101H147.952V205.065ZM147.952 223.905V235.68H132.251H116.55V223.905V212.13H132.251H147.952V223.905Z" fill="black"/>
<path d="M121.036 219.195V221.55H126.643H132.251V219.195V216.84H126.643H121.036V219.195Z" fill="black"/>
<path d="M136.737 223.905V230.97H140.101H143.466V223.905V216.84H140.101H136.737V223.905Z" fill="black"/>
<path d="M121.036 228.615V230.97H126.643H132.251V228.615V226.26H126.643H121.036V228.615Z" fill="black"/>
<path d="M113.249 300.719C112.184 301.838 112.127 302.662 112.127 320.736C112.127 338.811 112.184 339.635 113.249 340.753C114.314 341.872 115.099 341.931 132.315 341.931C149.53 341.931 150.315 341.872 151.38 340.753C152.446 339.635 152.502 338.811 152.502 320.736C152.502 302.662 152.446 301.838 151.38 300.719C150.315 299.6 149.53 299.541 132.315 299.541C115.099 299.541 114.314 299.6 113.249 300.719ZM148.016 323.091V337.221H132.315H116.613V323.091V308.961H132.315H148.016V323.091Z" fill="black"/>
<path d="M123.903 319.264L120.258 323.091L124.015 327.036C127.716 330.921 127.772 330.98 128.95 329.862C130.464 328.39 130.408 327.919 127.997 325.328L125.922 323.091L127.997 320.854C129.118 319.618 130.071 318.322 130.071 318.028C130.071 317.439 128.277 315.438 127.772 315.438C127.604 315.438 125.866 317.145 123.903 319.264Z" fill="black"/>
<path d="M135.511 316.497C134.221 318.028 134.277 318.322 136.632 320.854L138.707 323.091L136.632 325.328C134.221 327.919 134.165 328.39 135.679 329.862C136.857 330.98 136.913 330.921 140.614 327.036L144.371 323.091L140.726 319.264C138.763 317.145 136.969 315.438 136.744 315.438C136.576 315.438 136.016 315.908 135.511 316.497Z" fill="black"/>
<path d="M111.083 406.07C110.115 407.087 110.064 407.837 110.064 422.127C110.064 436.417 110.115 437.167 111.083 438.184C112.001 439.147 112.766 439.254 120.004 439.254C126.682 439.254 127.906 439.361 127.906 440.057C127.906 441.074 126.071 443.001 125.102 443.001C124.541 443.001 124.337 443.643 124.337 445.409V447.818H132.494H140.65V445.409C140.65 443.643 140.446 443.001 139.886 443.001C138.917 443.001 137.082 441.074 137.082 440.057C137.082 439.361 138.305 439.254 144.983 439.254C152.222 439.254 152.987 439.147 153.904 438.184C154.873 437.167 154.924 436.417 154.924 422.127C154.924 407.837 154.873 407.087 153.904 406.07C152.936 405.054 152.222 405 132.494 405C112.766 405 112.052 405.054 111.083 406.07ZM150.846 419.986V430.691H132.494H114.142V419.986V409.282H132.494H150.846V419.986Z" fill="black"/>
<path d="M115.027 494.031C113.733 495.39 113.733 553.096 115.027 554.455C116.322 555.814 148.447 555.814 149.741 554.455C151.035 553.096 151.035 495.39 149.741 494.031C148.447 492.672 116.322 492.672 115.027 494.031ZM146.087 523.044V548.221H141.443C138.398 548.221 136.495 548.621 135.734 549.42C134.211 550.938 130.557 550.938 129.035 549.42C128.273 548.621 126.37 548.221 123.325 548.221H118.682V523.044V497.867H132.384H146.087V523.044Z" fill="black"/>
<path d="M125.837 511.055C125.533 511.695 125.761 512.734 126.142 513.293C126.675 513.933 126.675 514.732 126.294 515.451C125.837 516.091 125.533 517.29 125.533 518.009C125.533 519.288 126.37 519.448 132.384 519.448C138.398 519.448 139.236 519.288 139.236 518.009C139.236 517.29 138.931 516.171 138.551 515.531C138.094 514.812 138.17 513.853 138.703 512.973C140.073 510.656 138.246 509.137 136.343 510.895C134.592 512.574 129.872 512.654 128.578 511.055C127.36 509.537 126.37 509.537 125.837 511.055Z" fill="black"/>
<path d="M123.249 525.442C123.249 528.08 123.554 529.039 124.391 529.039C125 529.039 125.533 529.598 125.533 530.238C125.533 530.877 126.066 531.436 126.675 531.436C127.436 531.436 127.817 532.236 127.817 533.834C127.817 535.433 128.197 536.232 128.959 536.232C129.72 536.232 130.101 535.433 130.101 533.834C130.101 531.676 130.329 531.436 132.384 531.436C134.44 531.436 134.668 531.676 134.668 533.834C134.668 535.433 135.049 536.232 135.81 536.232C136.571 536.232 136.952 535.433 136.952 533.834C136.952 532.236 137.333 531.436 138.094 531.436C138.703 531.436 139.236 530.877 139.236 530.238C139.236 529.598 139.769 529.039 140.378 529.039C141.215 529.039 141.519 528.08 141.519 525.442V521.845H132.384H123.249V525.442Z" fill="black"/>
<path d="M208.359 550.222H201.999L200.319 554.326H197.559L205.287 536.134H205.455L213.183 554.326H209.967L208.359 550.222ZM207.423 547.822L205.239 542.302L202.983 547.822H207.423ZM222.236 543.742C223.18 543.742 223.964 544.03 224.588 544.606C225.228 545.166 225.556 545.894 225.572 546.79V554.326H222.884V547.75C222.852 547.222 222.692 546.806 222.404 546.502C222.132 546.198 221.716 546.038 221.156 546.022C220.324 546.022 219.636 546.382 219.092 547.102C218.564 547.806 218.3 548.71 218.3 549.814V554.326H215.612V544.174H218.036L218.228 545.974C218.596 545.27 219.124 544.726 219.812 544.342C220.516 543.942 221.324 543.742 222.236 543.742ZM240.1 535.606V554.326H237.412V552.958C236.292 554.046 234.964 554.59 233.428 554.59C232.484 554.59 231.628 554.366 230.86 553.918C230.108 553.47 229.516 552.83 229.084 551.998C228.652 551.166 228.436 550.198 228.436 549.094C228.436 547.99 228.66 547.03 229.108 546.214C229.572 545.398 230.204 544.782 231.004 544.366C231.82 543.934 232.74 543.718 233.764 543.718C234.5 543.718 235.196 543.862 235.852 544.15C236.508 544.422 237.036 544.798 237.436 545.278V535.606H240.1ZM234.292 552.31C235.06 552.31 235.716 552.118 236.26 551.734C236.804 551.35 237.188 550.814 237.412 550.126V547.966C237.22 547.342 236.836 546.83 236.26 546.43C235.7 546.03 235.044 545.83 234.292 545.83C233.732 545.83 233.212 545.974 232.732 546.262C232.252 546.534 231.868 546.918 231.58 547.414C231.292 547.894 231.148 548.438 231.148 549.046C231.148 549.654 231.292 550.206 231.58 550.702C231.868 551.198 232.252 551.59 232.732 551.878C233.212 552.166 233.732 552.31 234.292 552.31ZM246.424 546.526C246.696 545.982 247.08 545.494 247.576 545.062C248.072 544.63 248.576 544.302 249.088 544.078C249.616 543.838 250.056 543.718 250.408 543.718L250.288 546.406C249.552 546.342 248.896 546.478 248.32 546.814C247.744 547.134 247.296 547.582 246.976 548.158C246.656 548.718 246.496 549.318 246.496 549.958V554.326H243.808V544.174H246.232L246.424 546.526ZM251.874 549.142C251.874 548.134 252.114 547.214 252.594 546.382C253.09 545.55 253.77 544.902 254.634 544.438C255.498 543.958 256.482 543.718 257.586 543.718C258.69 543.718 259.666 543.958 260.514 544.438C261.378 544.902 262.042 545.55 262.506 546.382C262.97 547.198 263.202 548.118 263.202 549.142C263.202 550.166 262.97 551.094 262.506 551.926C262.042 552.742 261.378 553.39 260.514 553.87C259.666 554.35 258.682 554.59 257.562 554.59C256.474 554.59 255.498 554.374 254.634 553.942C253.77 553.494 253.09 552.862 252.594 552.046C252.114 551.214 251.874 550.246 251.874 549.142ZM254.586 549.166C254.586 550.078 254.866 550.846 255.426 551.47C255.986 552.078 256.682 552.382 257.514 552.382C258.378 552.382 259.082 552.078 259.626 551.47C260.186 550.862 260.466 550.094 260.466 549.166C260.466 548.238 260.186 547.47 259.626 546.862C259.082 546.238 258.378 545.926 257.514 545.926C256.682 545.926 255.986 546.246 255.426 546.886C254.866 547.51 254.586 548.27 254.586 549.166ZM268.714 544.174V554.326H266.026V544.174H268.714ZM265.906 540.55C265.906 540.15 266.066 539.814 266.386 539.542C266.706 539.254 267.066 539.11 267.466 539.11C267.85 539.11 268.194 539.254 268.498 539.542C268.818 539.814 268.978 540.15 268.978 540.55C268.978 540.95 268.818 541.286 268.498 541.558C268.194 541.83 267.85 541.966 267.466 541.966C267.066 541.966 266.706 541.83 266.386 541.558C266.066 541.286 265.906 540.95 265.906 540.55ZM283.225 535.606V554.326H280.537V552.958C279.417 554.046 278.089 554.59 276.553 554.59C275.609 554.59 274.753 554.366 273.985 553.918C273.233 553.47 272.641 552.83 272.209 551.998C271.777 551.166 271.561 550.198 271.561 549.094C271.561 547.99 271.785 547.03 272.233 546.214C272.697 545.398 273.329 544.782 274.129 544.366C274.945 543.934 275.865 543.718 276.889 543.718C277.625 543.718 278.321 543.862 278.977 544.15C279.633 544.422 280.161 544.798 280.561 545.278V535.606H283.225ZM277.417 552.31C278.185 552.31 278.841 552.118 279.385 551.734C279.929 551.35 280.313 550.814 280.537 550.126V547.966C280.345 547.342 279.961 546.83 279.385 546.43C278.825 546.03 278.169 545.83 277.417 545.83C276.857 545.83 276.337 545.974 275.857 546.262C275.377 546.534 274.993 546.918 274.705 547.414C274.417 547.894 274.273 548.438 274.273 549.046C274.273 549.654 274.417 550.206 274.705 550.702C274.993 551.198 275.377 551.59 275.857 551.878C276.337 552.166 276.857 552.31 277.417 552.31ZM302.396 536.374C299.948 543.046 297.684 549.182 295.604 554.782H293.18C293.948 552.734 295.084 549.662 296.588 545.566L299.972 536.374H302.396ZM314.582 544.174V554.326H311.894V544.174H314.582ZM311.774 540.55C311.774 540.15 311.934 539.814 312.254 539.542C312.574 539.254 312.934 539.11 313.334 539.11C313.718 539.11 314.062 539.254 314.366 539.542C314.686 539.814 314.846 540.15 314.846 540.55C314.846 540.95 314.686 541.286 314.366 541.558C314.062 541.83 313.718 541.966 313.334 541.966C312.934 541.966 312.574 541.83 312.254 541.558C311.934 541.286 311.774 540.95 311.774 540.55ZM317.741 545.614C317.741 544.014 318.141 542.534 318.941 541.174C319.741 539.798 320.821 538.702 322.181 537.886C323.557 537.07 325.053 536.662 326.669 536.662C328.269 536.662 329.749 537.07 331.109 537.886C332.485 538.702 333.581 539.798 334.397 541.174C335.213 542.55 335.621 544.03 335.621 545.614C335.621 547.23 335.213 548.718 334.397 550.078C333.597 551.438 332.509 552.518 331.133 553.318C329.757 554.118 328.269 554.518 326.669 554.518C325.053 554.518 323.557 554.126 322.181 553.342C320.821 552.542 319.741 551.462 318.941 550.102C318.141 548.742 317.741 547.246 317.741 545.614ZM320.621 545.614C320.621 546.75 320.893 547.79 321.437 548.734C321.981 549.678 322.717 550.43 323.645 550.99C324.589 551.55 325.621 551.83 326.741 551.83C327.845 551.83 328.853 551.558 329.765 551.014C330.677 550.454 331.397 549.702 331.925 548.758C332.469 547.798 332.741 546.75 332.741 545.614C332.741 544.478 332.469 543.43 331.925 542.47C331.381 541.51 330.645 540.75 329.717 540.19C328.789 539.63 327.773 539.35 326.669 539.35C325.549 539.35 324.525 539.63 323.597 540.19C322.685 540.75 321.957 541.51 321.413 542.47C320.885 543.43 320.621 544.478 320.621 545.614ZM348.52 540.406C347.016 539.622 345.68 539.23 344.512 539.23C343.648 539.23 342.96 539.422 342.448 539.806C341.952 540.19 341.704 540.718 341.704 541.39C341.704 542.046 342.016 542.598 342.64 543.046C343.28 543.478 344.168 543.91 345.304 544.342C346.168 544.646 346.904 544.998 347.512 545.398C348.136 545.782 348.648 546.31 349.048 546.982C349.448 547.654 349.648 548.502 349.648 549.526C349.648 550.454 349.416 551.294 348.952 552.046C348.488 552.798 347.816 553.398 346.936 553.846C346.056 554.294 345.016 554.518 343.816 554.518C342.76 554.518 341.72 554.358 340.696 554.038C339.672 553.702 338.76 553.246 337.96 552.67L339.208 550.486C339.8 550.934 340.496 551.31 341.296 551.614C342.112 551.902 342.864 552.046 343.552 552.046C344.4 552.046 345.144 551.846 345.784 551.446C346.424 551.03 346.744 550.398 346.744 549.55C346.744 548.878 346.472 548.318 345.928 547.87C345.4 547.422 344.656 547.014 343.696 546.646C342.704 546.278 341.88 545.918 341.224 545.566C340.568 545.198 340 544.694 339.52 544.054C339.056 543.398 338.824 542.582 338.824 541.606C338.824 540.182 339.304 539.038 340.264 538.174C341.24 537.294 342.52 536.822 344.104 536.758C345.256 536.758 346.264 536.894 347.128 537.166C348.008 537.422 348.824 537.79 349.576 538.27L348.52 540.406Z" fill="black"/>
<defs>
<filter id="filter0_b" x="97.0637" y="373" width="466.064" height="98" filterUnits="userSpaceOnUse" color-interpolation-filters="sRGB">
<feFlood flood-opacity="0" result="BackgroundImageFix"/>
<feGaussianBlur in="BackgroundImage" stdDeviation="2"/>
<feComposite in2="SourceAlpha" operator="in" result="effect1_backgroundBlur"/>
<feBlend mode="normal" in="SourceGraphic" in2="effect1_backgroundBlur" result="shape"/>
</filter>
<filter id="filter1_b" x="97" y="170" width="466.064" height="98" filterUnits="userSpaceOnUse" color-interpolation-filters="sRGB">
<feFlood flood-opacity="0" result="BackgroundImageFix"/>
<feGaussianBlur in="BackgroundImage" stdDeviation="2"/>
<feComposite in2="SourceAlpha" operator="in" result="effect1_backgroundBlur"/>
<feBlend mode="normal" in="SourceGraphic" in2="effect1_backgroundBlur" result="shape"/>
</filter>
<filter id="filter2_b" x="97.0637" y="272" width="466.064" height="98" filterUnits="userSpaceOnUse" color-interpolation-filters="sRGB">
<feFlood flood-opacity="0" result="BackgroundImageFix"/>
<feGaussianBlur in="BackgroundImage" stdDeviation="2"/>
<feComposite in2="SourceAlpha" operator="in" result="effect1_backgroundBlur"/>
<feBlend mode="normal" in="SourceGraphic" in2="effect1_backgroundBlur" result="shape"/>
</filter>
<filter id="filter3_b" x="97.0637" y="474" width="466.064" height="100.486" filterUnits="userSpaceOnUse" color-interpolation-filters="sRGB">
<feFlood flood-opacity="0" result="BackgroundImageFix"/>
<feGaussianBlur in="BackgroundImage" stdDeviation="2"/>
<feComposite in2="SourceAlpha" operator="in" result="effect1_backgroundBlur"/>
<feBlend mode="normal" in="SourceGraphic" in2="effect1_backgroundBlur" result="shape"/>
</filter>
</defs>
</svg>
