<svg width="541" height="562" viewBox="0 0 541 562" fill="none" xmlns="http://www.w3.org/2000/svg">
<path d="M15.424 6.44C13.4187 5.39467 11.6373 4.872 10.08 4.872C8.928 4.872 8.01067 5.128 7.328 5.64C6.66667 6.152 6.336 6.856 6.336 7.752C6.336 8.62667 6.752 9.36267 7.584 9.96C8.43733 10.536 9.62133 11.112 11.136 11.688C12.288 12.0933 13.2693 12.5627 14.08 13.096C14.912 13.608 15.5947 14.312 16.128 15.208C16.6613 16.104 16.928 17.2347 16.928 18.6C16.928 19.8373 16.6187 20.9573 16 21.96C15.3813 22.9627 14.4853 23.7627 13.312 24.36C12.1387 24.9573 10.752 25.256 9.152 25.256C7.744 25.256 6.35733 25.0427 4.992 24.616C3.62667 24.168 2.41067 23.56 1.344 22.792L3.008 19.88C3.79733 20.4773 4.72533 20.9787 5.792 21.384C6.88 21.768 7.88267 21.96 8.8 21.96C9.93067 21.96 10.9227 21.6933 11.776 21.16C12.6293 20.6053 13.056 19.7627 13.056 18.632C13.056 17.736 12.6933 16.9893 11.968 16.392C11.264 15.7947 10.272 15.2507 8.992 14.76C7.66933 14.2693 6.57067 13.7893 5.696 13.32C4.82133 12.8293 4.064 12.1573 3.424 11.304C2.80533 10.4293 2.496 9.34133 2.496 8.04C2.496 6.14133 3.136 4.616 4.416 3.464C5.71733 2.29067 7.424 1.66133 9.536 1.576C11.072 1.576 12.416 1.75733 13.568 2.12C14.7413 2.46133 15.8293 2.952 16.832 3.592L15.424 6.44ZM28.417 1.704C31.0623 1.704 33.1317 2.36533 34.625 3.688C36.1183 5.01067 36.865 6.84533 36.865 9.192C36.865 10.536 36.5983 11.7947 36.065 12.968C35.5317 14.12 34.6677 15.0693 33.473 15.816C32.2997 16.5413 30.785 16.904 28.929 16.904H25.569V25H21.825V1.704H28.417ZM28.929 13.32C29.953 13.32 30.7743 13.1067 31.393 12.68C32.033 12.232 32.481 11.6987 32.737 11.08C33.0143 10.44 33.153 9.832 33.153 9.256C33.153 8.27467 32.833 7.368 32.193 6.536C31.5743 5.704 30.5183 5.288 29.025 5.288H25.569V13.32H28.929ZM56.8435 1.704V5.288H45.1315V11.496H55.5635V15.08H45.1315V21.416H57.2915V25H41.3875V1.704H56.8435ZM79.73 23.176C79.0473 23.6667 78.098 24.136 76.882 24.584C75.6873 25.032 74.3753 25.256 72.946 25.256C70.5353 25.256 68.4233 24.7333 66.61 23.688C64.818 22.6213 63.4313 21.2027 62.45 19.432C61.49 17.64 61.01 15.6773 61.01 13.544C61.01 11.2187 61.49 9.13867 62.45 7.304C63.4313 5.46933 64.786 4.04 66.514 3.016C68.2633 1.97066 70.2473 1.448 72.466 1.448C73.8313 1.448 75.09 1.62933 76.242 1.992C77.4153 2.35467 78.45 2.81333 79.346 3.368L77.874 6.856C76.146 5.64 74.386 5.032 72.594 5.032C71.2287 5.032 69.9487 5.40533 68.754 6.152C67.5807 6.87733 66.642 7.88 65.938 9.16C65.234 10.4187 64.882 11.8053 64.882 13.32C64.882 14.92 65.202 16.36 65.842 17.64C66.5033 18.8987 67.4313 19.8907 68.626 20.616C69.842 21.32 71.2393 21.672 72.818 21.672C73.9487 21.672 74.962 21.5013 75.858 21.16C76.7753 20.8187 77.5433 20.3813 78.162 19.848L79.73 23.176ZM88.444 1.704V25H84.7V1.704H88.444ZM106.824 19.528H98.3443L96.1043 25H92.4243L102.728 0.743999H102.952L113.256 25H108.968L106.824 19.528ZM105.576 16.328L102.664 8.968L99.6562 16.328H105.576ZM120.975 1.704V21.416H132.463V25H117.231V1.704H120.975ZM141.132 1.704V25H137.388V1.704H141.132ZM165.56 21.416V25H145.88C146.114 24.6587 148.184 21.512 152.088 15.56C155.33 10.5467 157.57 7.12267 158.808 5.288H150.168C149.464 5.288 148.813 5.08533 148.216 4.68C147.64 4.27467 147.352 3.77333 147.352 3.176V0.519999H150.808V0.967999C150.808 1.33067 150.861 1.544 150.968 1.608C151.096 1.672 151.373 1.704 151.8 1.704H165.368L152.28 21.416H165.56ZM185.906 1.704V5.288H174.194V11.496H184.626V15.08H174.194V21.416H186.354V25H170.45V1.704H185.906ZM203.737 6.44C201.731 5.39467 199.95 4.872 198.393 4.872C197.241 4.872 196.323 5.128 195.641 5.64C194.979 6.152 194.649 6.856 194.649 7.752C194.649 8.62667 195.065 9.36267 195.897 9.96C196.75 10.536 197.934 11.112 199.449 11.688C200.601 12.0933 201.582 12.5627 202.393 13.096C203.225 13.608 203.907 14.312 204.441 15.208C204.974 16.104 205.241 17.2347 205.241 18.6C205.241 19.8373 204.931 20.9573 204.312 21.96C203.694 22.9627 202.798 23.7627 201.625 24.36C200.451 24.9573 199.065 25.256 197.465 25.256C196.057 25.256 194.67 25.0427 193.305 24.616C191.939 24.168 190.723 23.56 189.657 22.792L191.321 19.88C192.11 20.4773 193.038 20.9787 194.105 21.384C195.193 21.768 196.195 21.96 197.113 21.96C198.243 21.96 199.235 21.6933 200.089 21.16C200.942 20.6053 201.369 19.7627 201.369 18.632C201.369 17.736 201.006 16.9893 200.281 16.392C199.577 15.7947 198.585 15.2507 197.305 14.76C195.982 14.2693 194.883 13.7893 194.009 13.32C193.134 12.8293 192.377 12.1573 191.737 11.304C191.118 10.4293 190.809 9.34133 190.809 8.04C190.809 6.14133 191.449 4.616 192.729 3.464C194.03 2.29067 195.737 1.66133 197.849 1.576C199.385 1.576 200.729 1.75733 201.881 2.12C203.054 2.46133 204.142 2.952 205.145 3.592L203.737 6.44ZM224.132 1.704V25H220.388V1.704H224.132ZM251.12 1.704V25.832H251.024L234.224 9.544L234.32 25H230.544V0.903999H230.736L247.472 17.384L247.408 1.704H251.12Z" fill="#0066B3"/>
<path d="M51.2 98.44C49.4933 99.6667 47.12 100.84 44.08 101.96C41.0933 103.08 37.8133 103.64 34.24 103.64C28.2133 103.64 22.9333 102.333 18.4 99.72C13.92 97.0533 10.4533 93.5067 8 89.08C5.6 84.6 4.4 79.6933 4.4 74.36C4.4 68.5467 5.6 63.3467 8 58.76C10.4533 54.1733 13.84 50.6 18.16 48.04C22.5333 45.4267 27.4933 44.12 33.04 44.12C36.4533 44.12 39.6 44.5733 42.48 45.48C45.4133 46.3867 48 47.5333 50.24 48.92L46.56 57.64C42.24 54.6 37.84 53.08 33.36 53.08C29.9467 53.08 26.7467 54.0133 23.76 55.88C20.8267 57.6933 18.48 60.2 16.72 63.4C14.96 66.5467 14.08 70.0133 14.08 73.8C14.08 77.8 14.88 81.4 16.48 84.6C18.1333 87.7467 20.4533 90.2267 23.44 92.04C26.48 93.8 29.9733 94.68 33.92 94.68C36.7467 94.68 39.28 94.2533 41.52 93.4C43.8133 92.5467 45.7333 91.4533 47.28 90.12L51.2 98.44ZM95.465 103L82.345 82.76H81.385H72.985V103H63.625V44.76H80.025C86.5317 44.76 91.7317 46.4133 95.625 49.72C99.5717 53.0267 101.545 57.6133 101.545 63.48C101.545 67.0533 100.772 70.3867 99.225 73.48C97.7317 76.52 95.3583 78.8667 92.105 80.52L106.265 103H95.465ZM72.985 73.8H81.305C85.0383 73.8 87.7317 72.7867 89.385 70.76C91.0917 68.68 91.945 66.36 91.945 63.8C91.945 62.3067 91.625 60.8133 90.985 59.32C90.345 57.7733 89.2517 56.4667 87.705 55.4C86.1583 54.28 84.1317 53.72 81.625 53.72H72.985V73.8ZM155.859 44.76V53.72H126.579V69.24H152.659V78.2H126.579V94.04H156.979V103H117.219V44.76H155.859ZM199.795 89.32H178.595L172.995 103H163.795L189.555 42.36H190.115L215.875 103H205.155L199.795 89.32ZM196.675 81.32L189.395 62.92L181.875 81.32H196.675ZM256.003 44.76V53.72H240.963V103H231.683V53.72H217.043V44.76H256.003ZM277.204 44.76V103H267.844V44.76H277.204ZM289.634 73.96C289.634 68.6267 290.968 63.6933 293.634 59.16C296.301 54.5733 299.901 50.92 304.434 48.2C309.021 45.48 314.008 44.12 319.394 44.12C324.728 44.12 329.661 45.48 334.194 48.2C338.781 50.92 342.434 54.5733 345.154 59.16C347.874 63.7467 349.234 68.68 349.234 73.96C349.234 79.3467 347.874 84.3067 345.154 88.84C342.488 93.3733 338.861 96.9733 334.274 99.64C329.688 102.307 324.728 103.64 319.394 103.64C314.008 103.64 309.021 102.333 304.434 99.72C299.901 97.0533 296.301 93.4533 293.634 88.92C290.968 84.3867 289.634 79.4 289.634 73.96ZM299.234 73.96C299.234 77.7467 300.141 81.2133 301.954 84.36C303.768 87.5067 306.221 90.0133 309.314 91.88C312.461 93.7467 315.901 94.68 319.634 94.68C323.314 94.68 326.674 93.7733 329.714 91.96C332.754 90.0933 335.154 87.5867 336.914 84.44C338.728 81.24 339.634 77.7467 339.634 73.96C339.634 70.1733 338.728 66.68 336.914 63.48C335.101 60.28 332.648 57.7467 329.554 55.88C326.461 54.0133 323.074 53.08 319.394 53.08C315.661 53.08 312.248 54.0133 309.154 55.88C306.114 57.7467 303.688 60.28 301.874 63.48C300.114 66.68 299.234 70.1733 299.234 73.96ZM413.112 44.76V105.08H412.872L370.872 64.36L371.112 103H361.672V42.76H362.152L403.992 83.96L403.832 44.76H413.112Z" fill="#222D5B"/>
<circle cx="319" cy="74" r="15" fill="#FDB813"/>
<g filter="url(#filter0_b)">
<path d="M82.9363 387.028C82.9363 381.505 87.4134 377.028 92.9363 377.028H531C536.523 377.028 541 381.505 541 387.028V428.685C541 434.208 536.523 438.685 531 438.685H92.9363C87.4134 438.685 82.9363 434.208 82.9363 428.685V387.028Z" fill="#FDB717"/>
</g>
<path d="M182.056 392.119H188.68C191.602 392.119 194.013 392.695 195.912 393.847C197.832 394.999 199.229 396.482 200.104 398.295C200.978 400.108 201.416 402.039 201.416 404.087C201.416 406.348 200.882 408.343 199.816 410.071C198.77 411.778 197.362 413.1 195.592 414.039C193.821 414.956 191.89 415.415 189.8 415.415H182.056V392.119ZM189.128 411.831C190.792 411.831 192.253 411.522 193.512 410.903C194.792 410.284 195.784 409.378 196.488 408.183C197.213 406.967 197.576 405.516 197.576 403.831C197.576 401.996 197.181 400.471 196.392 399.255C195.624 398.018 194.632 397.111 193.416 396.535C192.221 395.959 190.984 395.671 189.704 395.671H185.8V411.831H189.128ZM212.191 412.695C213.194 412.695 214.207 412.343 215.231 411.639L216.863 414.295C216.138 414.743 215.359 415.106 214.527 415.383C213.695 415.639 212.895 415.767 212.127 415.767C210.57 415.767 209.215 415.458 208.063 414.839C206.933 414.22 206.058 413.367 205.439 412.279C204.842 411.191 204.543 409.943 204.543 408.535C204.543 407.212 204.885 405.996 205.567 404.887C206.25 403.778 207.178 402.903 208.351 402.263C209.525 401.602 210.805 401.271 212.191 401.271C214.026 401.271 215.551 401.815 216.767 402.903C217.983 403.97 218.794 405.484 219.199 407.447L208.767 410.967C209.13 411.522 209.61 411.948 210.207 412.247C210.805 412.546 211.466 412.695 212.191 412.695ZM211.903 404.087C210.773 404.087 209.845 404.482 209.119 405.271C208.415 406.06 208.063 407.084 208.063 408.343C208.063 408.578 208.074 408.759 208.095 408.887L215.199 406.359C214.922 405.698 214.517 405.154 213.983 404.727C213.45 404.3 212.757 404.087 211.903 404.087ZM226.79 415.703C225.745 415.703 224.753 415.522 223.814 415.159C222.897 414.775 222.139 414.242 221.542 413.559L223.046 411.543C224.177 412.652 225.329 413.207 226.502 413.207C227.142 413.207 227.665 413.09 228.07 412.855C228.497 412.599 228.71 412.226 228.71 411.735C228.71 411.223 228.497 410.839 228.07 410.583C227.643 410.327 227.163 410.124 226.63 409.975C226.118 409.804 225.787 409.698 225.638 409.655C224.465 409.292 223.59 408.77 223.014 408.087C222.438 407.383 222.15 406.562 222.15 405.623C222.15 404.876 222.331 404.183 222.694 403.543C223.078 402.882 223.643 402.348 224.39 401.943C225.158 401.538 226.086 401.335 227.174 401.335C228.198 401.335 229.083 401.452 229.83 401.687C230.598 401.922 231.313 402.295 231.974 402.807L230.598 404.951C230.214 404.588 229.745 404.3 229.19 404.087C228.657 403.874 228.166 403.767 227.718 403.767C227.163 403.767 226.705 403.895 226.342 404.151C225.979 404.407 225.798 404.738 225.798 405.143C225.777 405.634 225.958 406.007 226.342 406.263C226.726 406.498 227.345 406.754 228.198 407.031C228.561 407.138 228.795 407.212 228.902 407.255C229.969 407.596 230.801 408.076 231.398 408.695C231.995 409.292 232.294 410.082 232.294 411.063C232.294 412.386 231.814 413.495 230.854 414.391C229.915 415.266 228.561 415.703 226.79 415.703ZM241.409 409.271L239.841 410.487V415.415H236.257V390.455H239.841V406.775L246.625 401.559L248.801 403.479L243.873 407.319L249.377 415.415H245.217L241.409 409.271ZM257.716 395.927V401.879H261.236V404.695H257.716V415.415H254.132V404.695H251.796V401.879H254.132V395.927H257.716ZM263.637 408.503C263.637 407.159 263.957 405.932 264.597 404.823C265.258 403.714 266.165 402.85 267.317 402.231C268.469 401.591 269.781 401.271 271.253 401.271C272.725 401.271 274.026 401.591 275.157 402.231C276.309 402.85 277.194 403.714 277.813 404.823C278.432 405.911 278.741 407.138 278.741 408.503C278.741 409.868 278.432 411.106 277.813 412.215C277.194 413.303 276.309 414.167 275.157 414.807C274.026 415.447 272.714 415.767 271.221 415.767C269.77 415.767 268.469 415.479 267.317 414.903C266.165 414.306 265.258 413.463 264.597 412.375C263.957 411.266 263.637 409.975 263.637 408.503ZM267.253 408.535C267.253 409.751 267.626 410.775 268.373 411.607C269.12 412.418 270.048 412.823 271.157 412.823C272.309 412.823 273.248 412.418 273.973 411.607C274.72 410.796 275.093 409.772 275.093 408.535C275.093 407.298 274.72 406.274 273.973 405.463C273.248 404.631 272.309 404.215 271.157 404.215C270.048 404.215 269.12 404.642 268.373 405.495C267.626 406.327 267.253 407.34 267.253 408.535ZM291.403 401.271C292.662 401.271 293.803 401.57 294.827 402.167C295.851 402.764 296.651 403.618 297.227 404.727C297.803 405.836 298.091 407.127 298.091 408.599C298.091 410.05 297.771 411.319 297.131 412.407C296.512 413.495 295.638 414.327 294.507 414.903C293.398 415.479 292.139 415.767 290.731 415.767C289.835 415.767 288.971 415.586 288.139 415.223C287.307 414.86 286.624 414.37 286.091 413.751V421.911H282.507V401.623H285.611L285.931 403.639C286.635 402.914 287.446 402.338 288.363 401.911C289.302 401.484 290.315 401.271 291.403 401.271ZM290.027 412.919C290.816 412.919 291.542 412.738 292.203 412.375C292.886 411.991 293.43 411.479 293.835 410.839C294.24 410.199 294.443 409.474 294.443 408.663C294.443 407.404 294.038 406.37 293.227 405.559C292.438 404.727 291.456 404.311 290.283 404.311C289.238 404.311 288.352 404.567 287.627 405.079C286.923 405.591 286.411 406.306 286.091 407.223V409.943C286.304 410.818 286.763 411.532 287.467 412.087C288.192 412.642 289.046 412.919 290.027 412.919ZM324.836 409.943H316.356L314.116 415.415H310.436L320.74 391.159H320.964L331.268 415.415H326.98L324.836 409.943ZM323.588 406.743L320.676 399.383L317.668 406.743H323.588ZM343.403 401.271C344.662 401.271 345.803 401.57 346.827 402.167C347.851 402.764 348.651 403.618 349.227 404.727C349.803 405.836 350.091 407.127 350.091 408.599C350.091 410.05 349.771 411.319 349.131 412.407C348.512 413.495 347.638 414.327 346.507 414.903C345.398 415.479 344.139 415.767 342.731 415.767C341.835 415.767 340.971 415.586 340.139 415.223C339.307 414.86 338.624 414.37 338.091 413.751V421.911H334.507V401.623H337.611L337.931 403.639C338.635 402.914 339.446 402.338 340.363 401.911C341.302 401.484 342.315 401.271 343.403 401.271ZM342.027 412.919C342.816 412.919 343.542 412.738 344.203 412.375C344.886 411.991 345.43 411.479 345.835 410.839C346.24 410.199 346.443 409.474 346.443 408.663C346.443 407.404 346.038 406.37 345.227 405.559C344.438 404.727 343.456 404.311 342.283 404.311C341.238 404.311 340.352 404.567 339.627 405.079C338.923 405.591 338.411 406.306 338.091 407.223V409.943C338.304 410.818 338.763 411.532 339.467 412.087C340.192 412.642 341.046 412.919 342.027 412.919ZM362.778 401.271C364.037 401.271 365.178 401.57 366.202 402.167C367.226 402.764 368.026 403.618 368.602 404.727C369.178 405.836 369.466 407.127 369.466 408.599C369.466 410.05 369.146 411.319 368.506 412.407C367.887 413.495 367.013 414.327 365.882 414.903C364.773 415.479 363.514 415.767 362.106 415.767C361.21 415.767 360.346 415.586 359.514 415.223C358.682 414.86 357.999 414.37 357.466 413.751V421.911H353.882V401.623H356.986L357.306 403.639C358.01 402.914 358.821 402.338 359.738 401.911C360.677 401.484 361.69 401.271 362.778 401.271ZM361.402 412.919C362.191 412.919 362.917 412.738 363.578 412.375C364.261 411.991 364.805 411.479 365.21 410.839C365.615 410.199 365.818 409.474 365.818 408.663C365.818 407.404 365.413 406.37 364.602 405.559C363.813 404.727 362.831 404.311 361.658 404.311C360.613 404.311 359.727 404.567 359.002 405.079C358.298 405.591 357.786 406.306 357.466 407.223V409.943C357.679 410.818 358.138 411.532 358.842 412.087C359.567 412.642 360.421 412.919 361.402 412.919ZM376.841 390.455V415.415H373.257V390.455H376.841ZM385.341 401.879V415.415H381.757V401.879H385.341ZM381.597 397.047C381.597 396.514 381.81 396.066 382.237 395.703C382.664 395.319 383.144 395.127 383.677 395.127C384.189 395.127 384.648 395.319 385.053 395.703C385.48 396.066 385.693 396.514 385.693 397.047C385.693 397.58 385.48 398.028 385.053 398.391C384.648 398.754 384.189 398.935 383.677 398.935C383.144 398.935 382.664 398.754 382.237 398.391C381.81 398.028 381.597 397.58 381.597 397.047ZM401.457 414.167C400.86 414.658 400.124 415.052 399.249 415.351C398.396 415.628 397.532 415.767 396.657 415.767C395.164 415.767 393.841 415.479 392.689 414.903C391.558 414.327 390.684 413.506 390.065 412.439C389.446 411.351 389.137 410.082 389.137 408.631C389.137 407.202 389.468 405.954 390.129 404.887C390.79 403.799 391.665 402.967 392.753 402.391C393.862 401.815 395.046 401.527 396.305 401.527C398.438 401.527 400.198 402.103 401.585 403.255L399.793 405.591C399.388 405.271 398.908 405.004 398.353 404.791C397.82 404.556 397.244 404.439 396.625 404.439C395.537 404.439 394.609 404.844 393.841 405.655C393.094 406.444 392.721 407.436 392.721 408.631C392.721 409.826 393.116 410.828 393.905 411.639C394.716 412.428 395.74 412.823 396.977 412.823C398.044 412.823 398.94 412.524 399.665 411.927L401.457 414.167ZM419.308 401.879V415.415H415.724V413.463C415.233 414.039 414.572 414.572 413.74 415.063C412.908 415.532 411.937 415.767 410.828 415.767C409.527 415.767 408.364 415.5 407.34 414.967C406.316 414.412 405.505 413.602 404.908 412.535C404.311 411.468 404.012 410.178 404.012 408.663C404.012 407.191 404.321 405.9 404.94 404.791C405.559 403.66 406.38 402.796 407.404 402.199C408.449 401.58 409.591 401.271 410.828 401.271C413.025 401.271 414.668 402.082 415.756 403.703L416.012 401.879H419.308ZM411.82 412.823C412.801 412.823 413.623 412.578 414.284 412.087C414.967 411.575 415.447 410.86 415.724 409.943V406.999C415.468 406.167 414.967 405.495 414.22 404.983C413.495 404.471 412.652 404.215 411.692 404.215C410.561 404.215 409.601 404.62 408.812 405.431C408.023 406.22 407.628 407.234 407.628 408.471C407.628 409.282 407.82 410.018 408.204 410.679C408.588 411.34 409.1 411.863 409.74 412.247C410.38 412.631 411.073 412.823 411.82 412.823ZM429.153 395.927V401.879H432.673V404.695H429.153V415.415H425.569V404.695H423.233V401.879H425.569V395.927H429.153ZM439.779 401.879V415.415H436.195V401.879H439.779ZM436.035 397.047C436.035 396.514 436.248 396.066 436.675 395.703C437.101 395.319 437.581 395.127 438.115 395.127C438.627 395.127 439.085 395.319 439.491 395.703C439.917 396.066 440.131 396.514 440.131 397.047C440.131 397.58 439.917 398.028 439.491 398.391C439.085 398.754 438.627 398.935 438.115 398.935C437.581 398.935 437.101 398.754 436.675 398.391C436.248 398.028 436.035 397.58 436.035 397.047ZM443.575 408.503C443.575 407.159 443.895 405.932 444.535 404.823C445.196 403.714 446.103 402.85 447.255 402.231C448.407 401.591 449.719 401.271 451.191 401.271C452.663 401.271 453.964 401.591 455.095 402.231C456.247 402.85 457.132 403.714 457.751 404.823C458.369 405.911 458.679 407.138 458.679 408.503C458.679 409.868 458.369 411.106 457.751 412.215C457.132 413.303 456.247 414.167 455.095 414.807C453.964 415.447 452.652 415.767 451.159 415.767C449.708 415.767 448.407 415.479 447.255 414.903C446.103 414.306 445.196 413.463 444.535 412.375C443.895 411.266 443.575 409.975 443.575 408.503ZM447.191 408.535C447.191 409.751 447.564 410.775 448.311 411.607C449.057 412.418 449.985 412.823 451.095 412.823C452.247 412.823 453.185 412.418 453.911 411.607C454.657 410.796 455.031 409.772 455.031 408.535C455.031 407.298 454.657 406.274 453.911 405.463C453.185 404.631 452.247 404.215 451.095 404.215C449.985 404.215 449.057 404.642 448.311 405.495C447.564 406.327 447.191 407.34 447.191 408.535ZM471.277 401.303C472.535 401.303 473.581 401.687 474.413 402.455C475.266 403.202 475.703 404.172 475.725 405.367V415.415H472.141V406.647C472.098 405.943 471.885 405.388 471.501 404.983C471.138 404.578 470.583 404.364 469.837 404.343C468.727 404.343 467.81 404.823 467.085 405.783C466.381 406.722 466.029 407.927 466.029 409.399V415.415H462.445V401.879H465.677L465.933 404.279C466.423 403.34 467.127 402.615 468.045 402.103C468.983 401.57 470.061 401.303 471.277 401.303Z" fill="black"/>
<g filter="url(#filter1_b)">
<path d="M82.9363 200C82.9363 194.477 87.4134 190 92.9363 190H531C536.523 190 541 194.477 541 200V241.657C541 247.18 536.523 251.657 531 251.657H92.9363C87.4134 251.657 82.9363 247.18 82.9363 241.657V200Z" fill="#FDB717"/>
</g>
<g filter="url(#filter2_b)">
<path d="M82.9363 291.459C82.9363 285.936 87.4134 281.459 92.9363 281.459H531C536.523 281.459 541 285.936 541 291.459V333.116C541 338.639 536.523 343.116 531 343.116H92.9363C87.4134 343.116 82.9363 338.639 82.9363 333.116V291.459Z" fill="#FDB717"/>
</g>
<g filter="url(#filter3_b)">
<path d="M82.9363 479.514C82.9363 473.991 87.4134 469.514 92.9363 469.514H531C536.523 469.514 541 473.991 541 479.514V552C541 557.523 536.523 562 531 562H92.9363C87.4134 562 82.9363 557.523 82.9363 552V479.514Z" fill="#FDB717"/>
</g>
<path d="M201.032 230.439L195.528 216.551L189.352 230.503L180.04 206.247H184.392L189.832 221.799L193.704 211.879L191.464 206.247H195.144L201.128 221.351L206.12 206.247H210.12L201.032 230.439ZM217.348 226.695C218.35 226.695 219.364 226.343 220.388 225.639L222.02 228.295C221.294 228.743 220.516 229.106 219.684 229.383C218.852 229.639 218.052 229.767 217.284 229.767C215.726 229.767 214.372 229.458 213.22 228.839C212.089 228.22 211.214 227.367 210.596 226.279C209.998 225.191 209.7 223.943 209.7 222.535C209.7 221.212 210.041 219.996 210.724 218.887C211.406 217.778 212.334 216.903 213.508 216.263C214.681 215.602 215.961 215.271 217.348 215.271C219.182 215.271 220.708 215.815 221.924 216.903C223.14 217.97 223.95 219.484 224.356 221.447L213.924 224.967C214.286 225.522 214.766 225.948 215.364 226.247C215.961 226.546 216.622 226.695 217.348 226.695ZM217.06 218.087C215.929 218.087 215.001 218.482 214.276 219.271C213.572 220.06 213.22 221.084 213.22 222.343C213.22 222.578 213.23 222.759 213.252 222.887L220.356 220.359C220.078 219.698 219.673 219.154 219.14 218.727C218.606 218.3 217.913 218.087 217.06 218.087ZM236.906 215.271C238.101 215.271 239.199 215.559 240.202 216.135C241.205 216.711 241.994 217.543 242.57 218.631C243.167 219.698 243.466 220.956 243.466 222.407C243.466 223.9 243.146 225.202 242.506 226.311C241.866 227.42 241.002 228.274 239.914 228.871C238.847 229.468 237.685 229.767 236.426 229.767C235.359 229.767 234.41 229.575 233.578 229.191C232.746 228.807 232.042 228.284 231.466 227.623V229.415H227.882V204.455H231.466V217.319C232.042 216.7 232.799 216.21 233.738 215.847C234.698 215.463 235.754 215.271 236.906 215.271ZM235.658 226.727C236.831 226.727 237.813 226.311 238.602 225.479C239.413 224.647 239.818 223.612 239.818 222.375C239.818 221.586 239.626 220.86 239.242 220.199C238.879 219.538 238.378 219.026 237.738 218.663C237.119 218.279 236.426 218.087 235.658 218.087C234.655 218.087 233.77 218.343 233.002 218.855C232.255 219.367 231.743 220.05 231.466 220.903V223.911C231.786 224.786 232.309 225.479 233.034 225.991C233.759 226.482 234.634 226.727 235.658 226.727ZM251.321 229.703C250.276 229.703 249.284 229.522 248.345 229.159C247.428 228.775 246.67 228.242 246.073 227.559L247.577 225.543C248.708 226.652 249.86 227.207 251.033 227.207C251.673 227.207 252.196 227.09 252.601 226.855C253.028 226.599 253.241 226.226 253.241 225.735C253.241 225.223 253.028 224.839 252.601 224.583C252.174 224.327 251.694 224.124 251.161 223.975C250.649 223.804 250.318 223.698 250.169 223.655C248.996 223.292 248.121 222.77 247.545 222.087C246.969 221.383 246.681 220.562 246.681 219.623C246.681 218.876 246.862 218.183 247.225 217.543C247.609 216.882 248.174 216.348 248.921 215.943C249.689 215.538 250.617 215.335 251.705 215.335C252.729 215.335 253.614 215.452 254.361 215.687C255.129 215.922 255.844 216.295 256.505 216.807L255.129 218.951C254.745 218.588 254.276 218.3 253.721 218.087C253.188 217.874 252.697 217.767 252.249 217.767C251.694 217.767 251.236 217.895 250.873 218.151C250.51 218.407 250.329 218.738 250.329 219.143C250.308 219.634 250.489 220.007 250.873 220.263C251.257 220.498 251.876 220.754 252.729 221.031C253.092 221.138 253.326 221.212 253.433 221.255C254.5 221.596 255.332 222.076 255.929 222.695C256.526 223.292 256.825 224.082 256.825 225.063C256.825 226.386 256.345 227.495 255.385 228.391C254.446 229.266 253.092 229.703 251.321 229.703ZM264.372 215.879V229.415H260.788V215.879H264.372ZM260.628 211.047C260.628 210.514 260.842 210.066 261.268 209.703C261.695 209.319 262.175 209.127 262.708 209.127C263.22 209.127 263.679 209.319 264.084 209.703C264.511 210.066 264.724 210.514 264.724 211.047C264.724 211.58 264.511 212.028 264.084 212.391C263.679 212.754 263.22 212.935 262.708 212.935C262.175 212.935 261.695 212.754 261.268 212.391C260.842 212.028 260.628 211.58 260.628 211.047ZM274.184 209.927V215.879H277.704V218.695H274.184V229.415H270.6V218.695H268.264V215.879H270.6V209.927H274.184ZM287.754 226.695C288.757 226.695 289.77 226.343 290.794 225.639L292.426 228.295C291.701 228.743 290.922 229.106 290.09 229.383C289.258 229.639 288.458 229.767 287.69 229.767C286.133 229.767 284.778 229.458 283.626 228.839C282.495 228.22 281.621 227.367 281.002 226.279C280.405 225.191 280.106 223.943 280.106 222.535C280.106 221.212 280.447 219.996 281.13 218.887C281.813 217.778 282.741 216.903 283.914 216.263C285.087 215.602 286.367 215.271 287.754 215.271C289.589 215.271 291.114 215.815 292.33 216.903C293.546 217.97 294.357 219.484 294.762 221.447L284.33 224.967C284.693 225.522 285.173 225.948 285.77 226.247C286.367 226.546 287.029 226.695 287.754 226.695ZM287.466 218.087C286.335 218.087 285.407 218.482 284.682 219.271C283.978 220.06 283.626 221.084 283.626 222.343C283.626 222.578 283.637 222.759 283.658 222.887L290.762 220.359C290.485 219.698 290.079 219.154 289.546 218.727C289.013 218.3 288.319 218.087 287.466 218.087ZM309.274 206.119H315.898C318.821 206.119 321.232 206.695 323.13 207.847C325.05 208.999 326.448 210.482 327.322 212.295C328.197 214.108 328.634 216.039 328.634 218.087C328.634 220.348 328.101 222.343 327.034 224.071C325.989 225.778 324.581 227.1 322.81 228.039C321.04 228.956 319.109 229.415 317.018 229.415H309.274V206.119ZM316.346 225.831C318.01 225.831 319.472 225.522 320.73 224.903C322.01 224.284 323.002 223.378 323.706 222.183C324.432 220.967 324.794 219.516 324.794 217.831C324.794 215.996 324.4 214.471 323.61 213.255C322.842 212.018 321.85 211.111 320.634 210.535C319.44 209.959 318.202 209.671 316.922 209.671H313.018V225.831H316.346ZM339.41 226.695C340.413 226.695 341.426 226.343 342.45 225.639L344.082 228.295C343.357 228.743 342.578 229.106 341.746 229.383C340.914 229.639 340.114 229.767 339.346 229.767C337.789 229.767 336.434 229.458 335.282 228.839C334.151 228.22 333.277 227.367 332.658 226.279C332.061 225.191 331.762 223.943 331.762 222.535C331.762 221.212 332.103 219.996 332.786 218.887C333.469 217.778 334.397 216.903 335.57 216.263C336.743 215.602 338.023 215.271 339.41 215.271C341.245 215.271 342.77 215.815 343.986 216.903C345.202 217.97 346.013 219.484 346.418 221.447L335.986 224.967C336.349 225.522 336.829 225.948 337.426 226.247C338.023 226.546 338.685 226.695 339.41 226.695ZM339.122 218.087C337.991 218.087 337.063 218.482 336.338 219.271C335.634 220.06 335.282 221.084 335.282 222.343C335.282 222.578 335.293 222.759 335.314 222.887L342.418 220.359C342.141 219.698 341.735 219.154 341.202 218.727C340.669 218.3 339.975 218.087 339.122 218.087ZM354.009 229.703C352.963 229.703 351.971 229.522 351.033 229.159C350.115 228.775 349.358 228.242 348.761 227.559L350.265 225.543C351.395 226.652 352.547 227.207 353.721 227.207C354.361 227.207 354.883 227.09 355.289 226.855C355.715 226.599 355.929 226.226 355.929 225.735C355.929 225.223 355.715 224.839 355.289 224.583C354.862 224.327 354.382 224.124 353.849 223.975C353.337 223.804 353.006 223.698 352.857 223.655C351.683 223.292 350.809 222.77 350.233 222.087C349.657 221.383 349.369 220.562 349.369 219.623C349.369 218.876 349.55 218.183 349.913 217.543C350.297 216.882 350.862 216.348 351.609 215.943C352.377 215.538 353.305 215.335 354.393 215.335C355.417 215.335 356.302 215.452 357.049 215.687C357.817 215.922 358.531 216.295 359.193 216.807L357.817 218.951C357.433 218.588 356.963 218.3 356.409 218.087C355.875 217.874 355.385 217.767 354.937 217.767C354.382 217.767 353.923 217.895 353.561 218.151C353.198 218.407 353.017 218.738 353.017 219.143C352.995 219.634 353.177 220.007 353.561 220.263C353.945 220.498 354.563 220.754 355.417 221.031C355.779 221.138 356.014 221.212 356.121 221.255C357.187 221.596 358.019 222.076 358.617 222.695C359.214 223.292 359.513 224.082 359.513 225.063C359.513 226.386 359.033 227.495 358.073 228.391C357.134 229.266 355.779 229.703 354.009 229.703ZM367.06 215.879V229.415H363.476V215.879H367.06ZM363.316 211.047C363.316 210.514 363.529 210.066 363.956 209.703C364.383 209.319 364.863 209.127 365.396 209.127C365.908 209.127 366.367 209.319 366.772 209.703C367.199 210.066 367.412 210.514 367.412 211.047C367.412 211.58 367.199 212.028 366.772 212.391C366.367 212.754 365.908 212.935 365.396 212.935C364.863 212.935 364.383 212.754 363.956 212.391C363.529 212.028 363.316 211.58 363.316 211.047ZM386.632 215.879V229.479C386.632 230.738 386.291 231.868 385.608 232.871C384.947 233.895 384.008 234.695 382.792 235.271C381.597 235.868 380.243 236.167 378.728 236.167C377.256 236.167 376.029 235.932 375.048 235.463C374.067 235.015 373.075 234.354 372.072 233.479L374.184 231.015C374.867 231.655 375.56 232.146 376.264 232.487C376.968 232.85 377.768 233.031 378.664 233.031C379.987 233.031 381.043 232.7 381.832 232.039C382.621 231.399 383.027 230.524 383.048 229.415V227.143C382.579 227.932 381.875 228.572 380.936 229.063C380.019 229.532 378.941 229.767 377.704 229.767C376.467 229.767 375.325 229.458 374.28 228.839C373.235 228.199 372.403 227.335 371.784 226.247C371.165 225.138 370.856 223.911 370.856 222.567C370.856 221.202 371.176 219.964 371.816 218.855C372.477 217.724 373.341 216.85 374.408 216.231C375.496 215.591 376.648 215.271 377.864 215.271C378.995 215.271 380.019 215.474 380.936 215.879C381.875 216.263 382.579 216.775 383.048 217.415L383.336 215.879H386.632ZM378.76 226.823C379.805 226.823 380.701 226.567 381.448 226.055C382.216 225.543 382.749 224.85 383.048 223.975V221.031C382.749 220.178 382.216 219.495 381.448 218.983C380.68 218.471 379.784 218.215 378.76 218.215C377.544 218.215 376.52 218.62 375.688 219.431C374.877 220.22 374.472 221.234 374.472 222.471C374.472 223.282 374.664 224.018 375.048 224.679C375.432 225.34 375.944 225.863 376.584 226.247C377.245 226.631 377.971 226.823 378.76 226.823ZM400.402 215.303C401.66 215.303 402.706 215.687 403.538 216.455C404.391 217.202 404.828 218.172 404.85 219.367V229.415H401.266V220.647C401.223 219.943 401.01 219.388 400.626 218.983C400.263 218.578 399.708 218.364 398.962 218.343C397.852 218.343 396.935 218.823 396.21 219.783C395.506 220.722 395.154 221.927 395.154 223.399V229.415H391.57V215.879H394.802L395.058 218.279C395.548 217.34 396.252 216.615 397.17 216.103C398.108 215.57 399.186 215.303 400.402 215.303Z" fill="black"/>
<path d="M201.032 321.898L195.528 308.01L189.352 321.962L180.04 297.706H184.392L189.832 313.258L193.704 303.338L191.464 297.706H195.144L201.128 312.81L206.12 297.706H210.12L201.032 321.898ZM217.348 318.154C218.35 318.154 219.364 317.802 220.388 317.098L222.02 319.754C221.294 320.202 220.516 320.564 219.684 320.842C218.852 321.098 218.052 321.226 217.284 321.226C215.726 321.226 214.372 320.916 213.22 320.298C212.089 319.679 211.214 318.826 210.596 317.738C209.998 316.65 209.7 315.402 209.7 313.994C209.7 312.671 210.041 311.455 210.724 310.346C211.406 309.236 212.334 308.362 213.508 307.722C214.681 307.06 215.961 306.73 217.348 306.73C219.182 306.73 220.708 307.274 221.924 308.362C223.14 309.428 223.95 310.943 224.356 312.906L213.924 316.426C214.286 316.98 214.766 317.407 215.364 317.706C215.961 318.004 216.622 318.154 217.348 318.154ZM217.06 309.546C215.929 309.546 215.001 309.94 214.276 310.73C213.572 311.519 213.22 312.543 213.22 313.802C213.22 314.036 213.23 314.218 213.252 314.346L220.356 311.818C220.078 311.156 219.673 310.612 219.14 310.186C218.606 309.759 217.913 309.546 217.06 309.546ZM236.906 306.73C238.101 306.73 239.199 307.018 240.202 307.594C241.205 308.17 241.994 309.002 242.57 310.09C243.167 311.156 243.466 312.415 243.466 313.866C243.466 315.359 243.146 316.66 242.506 317.77C241.866 318.879 241.002 319.732 239.914 320.33C238.847 320.927 237.685 321.226 236.426 321.226C235.359 321.226 234.41 321.034 233.578 320.65C232.746 320.266 232.042 319.743 231.466 319.082V320.874H227.882V295.914H231.466V308.778C232.042 308.159 232.799 307.668 233.738 307.306C234.698 306.922 235.754 306.73 236.906 306.73ZM235.658 318.186C236.831 318.186 237.813 317.77 238.602 316.938C239.413 316.106 239.818 315.071 239.818 313.834C239.818 313.044 239.626 312.319 239.242 311.658C238.879 310.996 238.378 310.484 237.738 310.122C237.119 309.738 236.426 309.546 235.658 309.546C234.655 309.546 233.77 309.802 233.002 310.314C232.255 310.826 231.743 311.508 231.466 312.362V315.37C231.786 316.244 232.309 316.938 233.034 317.45C233.759 317.94 234.634 318.186 235.658 318.186ZM251.321 321.162C250.276 321.162 249.284 320.98 248.345 320.618C247.428 320.234 246.67 319.7 246.073 319.018L247.577 317.002C248.708 318.111 249.86 318.666 251.033 318.666C251.673 318.666 252.196 318.548 252.601 318.314C253.028 318.058 253.241 317.684 253.241 317.194C253.241 316.682 253.028 316.298 252.601 316.042C252.174 315.786 251.694 315.583 251.161 315.434C250.649 315.263 250.318 315.156 250.169 315.114C248.996 314.751 248.121 314.228 247.545 313.546C246.969 312.842 246.681 312.02 246.681 311.082C246.681 310.335 246.862 309.642 247.225 309.002C247.609 308.34 248.174 307.807 248.921 307.402C249.689 306.996 250.617 306.794 251.705 306.794C252.729 306.794 253.614 306.911 254.361 307.146C255.129 307.38 255.844 307.754 256.505 308.266L255.129 310.41C254.745 310.047 254.276 309.759 253.721 309.546C253.188 309.332 252.697 309.226 252.249 309.226C251.694 309.226 251.236 309.354 250.873 309.61C250.51 309.866 250.329 310.196 250.329 310.602C250.308 311.092 250.489 311.466 250.873 311.722C251.257 311.956 251.876 312.212 252.729 312.49C253.092 312.596 253.326 312.671 253.433 312.714C254.5 313.055 255.332 313.535 255.929 314.154C256.526 314.751 256.825 315.54 256.825 316.522C256.825 317.844 256.345 318.954 255.385 319.85C254.446 320.724 253.092 321.162 251.321 321.162ZM264.372 307.338V320.874H260.788V307.338H264.372ZM260.628 302.506C260.628 301.972 260.842 301.524 261.268 301.162C261.695 300.778 262.175 300.586 262.708 300.586C263.22 300.586 263.679 300.778 264.084 301.162C264.511 301.524 264.724 301.972 264.724 302.506C264.724 303.039 264.511 303.487 264.084 303.85C263.679 304.212 263.22 304.394 262.708 304.394C262.175 304.394 261.695 304.212 261.268 303.85C260.842 303.487 260.628 303.039 260.628 302.506ZM274.184 301.386V307.338H277.704V310.154H274.184V320.874H270.6V310.154H268.264V307.338H270.6V301.386H274.184ZM287.754 318.154C288.757 318.154 289.77 317.802 290.794 317.098L292.426 319.754C291.701 320.202 290.922 320.564 290.09 320.842C289.258 321.098 288.458 321.226 287.69 321.226C286.133 321.226 284.778 320.916 283.626 320.298C282.495 319.679 281.621 318.826 281.002 317.738C280.405 316.65 280.106 315.402 280.106 313.994C280.106 312.671 280.447 311.455 281.13 310.346C281.813 309.236 282.741 308.362 283.914 307.722C285.087 307.06 286.367 306.73 287.754 306.73C289.589 306.73 291.114 307.274 292.33 308.362C293.546 309.428 294.357 310.943 294.762 312.906L284.33 316.426C284.693 316.98 285.173 317.407 285.77 317.706C286.367 318.004 287.029 318.154 287.754 318.154ZM287.466 309.546C286.335 309.546 285.407 309.94 284.682 310.73C283.978 311.519 283.626 312.543 283.626 313.802C283.626 314.036 283.637 314.218 283.658 314.346L290.762 311.818C290.485 311.156 290.079 310.612 289.546 310.186C289.013 309.759 288.319 309.546 287.466 309.546ZM309.274 297.578H315.898C318.821 297.578 321.232 298.154 323.13 299.306C325.05 300.458 326.448 301.94 327.322 303.754C328.197 305.567 328.634 307.498 328.634 309.546C328.634 311.807 328.101 313.802 327.034 315.53C325.989 317.236 324.581 318.559 322.81 319.498C321.04 320.415 319.109 320.874 317.018 320.874H309.274V297.578ZM316.346 317.29C318.01 317.29 319.472 316.98 320.73 316.362C322.01 315.743 323.002 314.836 323.706 313.642C324.432 312.426 324.794 310.975 324.794 309.29C324.794 307.455 324.4 305.93 323.61 304.714C322.842 303.476 321.85 302.57 320.634 301.994C319.44 301.418 318.202 301.13 316.922 301.13H313.018V317.29H316.346ZM339.41 318.154C340.413 318.154 341.426 317.802 342.45 317.098L344.082 319.754C343.357 320.202 342.578 320.564 341.746 320.842C340.914 321.098 340.114 321.226 339.346 321.226C337.789 321.226 336.434 320.916 335.282 320.298C334.151 319.679 333.277 318.826 332.658 317.738C332.061 316.65 331.762 315.402 331.762 313.994C331.762 312.671 332.103 311.455 332.786 310.346C333.469 309.236 334.397 308.362 335.57 307.722C336.743 307.06 338.023 306.73 339.41 306.73C341.245 306.73 342.77 307.274 343.986 308.362C345.202 309.428 346.013 310.943 346.418 312.906L335.986 316.426C336.349 316.98 336.829 317.407 337.426 317.706C338.023 318.004 338.685 318.154 339.41 318.154ZM339.122 309.546C337.991 309.546 337.063 309.94 336.338 310.73C335.634 311.519 335.282 312.543 335.282 313.802C335.282 314.036 335.293 314.218 335.314 314.346L342.418 311.818C342.141 311.156 341.735 310.612 341.202 310.186C340.669 309.759 339.975 309.546 339.122 309.546ZM362.789 307.338L355.365 321.226H355.205L347.429 307.338H351.685L355.397 315.082L358.789 307.338H362.789ZM371.879 318.154C372.882 318.154 373.895 317.802 374.919 317.098L376.551 319.754C375.826 320.202 375.047 320.564 374.215 320.842C373.383 321.098 372.583 321.226 371.815 321.226C370.258 321.226 368.903 320.916 367.751 320.298C366.62 319.679 365.746 318.826 365.127 317.738C364.53 316.65 364.231 315.402 364.231 313.994C364.231 312.671 364.572 311.455 365.255 310.346C365.938 309.236 366.866 308.362 368.039 307.722C369.212 307.06 370.492 306.73 371.879 306.73C373.714 306.73 375.239 307.274 376.455 308.362C377.671 309.428 378.482 310.943 378.887 312.906L368.455 316.426C368.818 316.98 369.298 317.407 369.895 317.706C370.492 318.004 371.154 318.154 371.879 318.154ZM371.591 309.546C370.46 309.546 369.532 309.94 368.807 310.73C368.103 311.519 367.751 312.543 367.751 313.802C367.751 314.036 367.762 314.218 367.783 314.346L374.887 311.818C374.61 311.156 374.204 310.612 373.671 310.186C373.138 309.759 372.444 309.546 371.591 309.546ZM385.997 295.914V320.874H382.413V295.914H385.997ZM389.793 313.962C389.793 312.618 390.113 311.391 390.753 310.282C391.415 309.172 392.321 308.308 393.473 307.69C394.625 307.05 395.937 306.73 397.409 306.73C398.881 306.73 400.183 307.05 401.313 307.69C402.465 308.308 403.351 309.172 403.969 310.282C404.588 311.37 404.897 312.596 404.897 313.962C404.897 315.327 404.588 316.564 403.969 317.674C403.351 318.762 402.465 319.626 401.313 320.266C400.183 320.906 398.871 321.226 397.377 321.226C395.927 321.226 394.625 320.938 393.473 320.362C392.321 319.764 391.415 318.922 390.753 317.834C390.113 316.724 389.793 315.434 389.793 313.962ZM393.409 313.994C393.409 315.21 393.783 316.234 394.529 317.066C395.276 317.876 396.204 318.282 397.313 318.282C398.465 318.282 399.404 317.876 400.129 317.066C400.876 316.255 401.249 315.231 401.249 313.994C401.249 312.756 400.876 311.732 400.129 310.922C399.404 310.09 398.465 309.674 397.313 309.674C396.204 309.674 395.276 310.1 394.529 310.954C393.783 311.786 393.409 312.799 393.409 313.994ZM417.559 306.73C418.818 306.73 419.959 307.028 420.983 307.626C422.007 308.223 422.807 309.076 423.383 310.186C423.959 311.295 424.247 312.586 424.247 314.058C424.247 315.508 423.927 316.778 423.287 317.866C422.669 318.954 421.794 319.786 420.663 320.362C419.554 320.938 418.295 321.226 416.887 321.226C415.991 321.226 415.127 321.044 414.295 320.682C413.463 320.319 412.781 319.828 412.247 319.21V327.37H408.663V307.082H411.767L412.087 309.098C412.791 308.372 413.602 307.796 414.519 307.37C415.458 306.943 416.471 306.73 417.559 306.73ZM416.183 318.378C416.973 318.378 417.698 318.196 418.359 317.834C419.042 317.45 419.586 316.938 419.991 316.298C420.397 315.658 420.599 314.932 420.599 314.122C420.599 312.863 420.194 311.828 419.383 311.018C418.594 310.186 417.613 309.77 416.439 309.77C415.394 309.77 414.509 310.026 413.783 310.538C413.079 311.05 412.567 311.764 412.247 312.682V315.402C412.461 316.276 412.919 316.991 413.623 317.546C414.349 318.1 415.202 318.378 416.183 318.378ZM445.606 306.73C446.929 306.73 447.974 307.103 448.742 307.85C449.532 308.596 449.948 309.578 449.99 310.794V320.874H446.438V312.17C446.396 311.444 446.236 310.89 445.958 310.506C445.681 310.1 445.222 309.876 444.582 309.834C443.473 309.834 442.577 310.335 441.894 311.338C441.212 312.319 440.86 313.471 440.838 314.794V320.874H437.222V312.17C437.18 311.466 437.009 310.911 436.71 310.506C436.433 310.1 435.964 309.876 435.302 309.834C434.577 309.834 433.937 310.068 433.382 310.538C432.828 311.007 432.39 311.626 432.07 312.394C431.772 313.162 431.622 313.962 431.622 314.794V320.874H428.038V307.338H431.27L431.558 309.706C432.07 308.746 432.764 308.01 433.638 307.498C434.513 306.986 435.516 306.73 436.646 306.73C437.734 306.73 438.641 306.975 439.366 307.466C440.113 307.935 440.604 308.618 440.838 309.514C441.393 308.639 442.097 307.956 442.95 307.466C443.804 306.975 444.689 306.73 445.606 306.73ZM461.441 318.154C462.444 318.154 463.457 317.802 464.481 317.098L466.113 319.754C465.388 320.202 464.609 320.564 463.777 320.842C462.945 321.098 462.145 321.226 461.377 321.226C459.82 321.226 458.465 320.916 457.313 320.298C456.183 319.679 455.308 318.826 454.689 317.738C454.092 316.65 453.793 315.402 453.793 313.994C453.793 312.671 454.135 311.455 454.817 310.346C455.5 309.236 456.428 308.362 457.601 307.722C458.775 307.06 460.055 306.73 461.441 306.73C463.276 306.73 464.801 307.274 466.017 308.362C467.233 309.428 468.044 310.943 468.449 312.906L458.017 316.426C458.38 316.98 458.86 317.407 459.457 317.706C460.055 318.004 460.716 318.154 461.441 318.154ZM461.153 309.546C460.023 309.546 459.095 309.94 458.369 310.73C457.665 311.519 457.313 312.543 457.313 313.802C457.313 314.036 457.324 314.218 457.345 314.346L464.449 311.818C464.172 311.156 463.767 310.612 463.233 310.186C462.7 309.759 462.007 309.546 461.153 309.546ZM480.808 306.762C482.067 306.762 483.112 307.146 483.944 307.914C484.797 308.66 485.235 309.631 485.256 310.826V320.874H481.672V312.106C481.629 311.402 481.416 310.847 481.032 310.442C480.669 310.036 480.115 309.823 479.368 309.802C478.259 309.802 477.341 310.282 476.616 311.242C475.912 312.18 475.56 313.386 475.56 314.858V320.874H471.976V307.338H475.208L475.464 309.738C475.955 308.799 476.659 308.074 477.576 307.562C478.515 307.028 479.592 306.762 480.808 306.762ZM495.091 301.386V307.338H498.611V310.154H495.091V320.874H491.507V310.154H489.171V307.338H491.507V301.386H495.091Z" fill="black"/>
<path d="M205.576 483.773V507.901H201.864V494.429L193.704 506.013H193.64L185.672 494.973V507.901H182.056V483.773H182.088L193.704 500.221L205.512 483.773H205.576ZM210.106 500.989C210.106 499.645 210.426 498.419 211.066 497.309C211.727 496.2 212.634 495.336 213.786 494.717C214.938 494.077 216.25 493.757 217.722 493.757C219.194 493.757 220.495 494.077 221.626 494.717C222.778 495.336 223.663 496.2 224.282 497.309C224.901 498.397 225.21 499.624 225.21 500.989C225.21 502.355 224.901 503.592 224.282 504.701C223.663 505.789 222.778 506.653 221.626 507.293C220.495 507.933 219.183 508.253 217.69 508.253C216.239 508.253 214.938 507.965 213.786 507.389C212.634 506.792 211.727 505.949 211.066 504.861C210.426 503.752 210.106 502.461 210.106 500.989ZM213.722 501.021C213.722 502.237 214.095 503.261 214.842 504.093C215.589 504.904 216.517 505.309 217.626 505.309C218.778 505.309 219.717 504.904 220.442 504.093C221.189 503.283 221.562 502.259 221.562 501.021C221.562 499.784 221.189 498.76 220.442 497.949C219.717 497.117 218.778 496.701 217.626 496.701C216.517 496.701 215.589 497.128 214.842 497.981C214.095 498.813 213.722 499.827 213.722 501.021ZM238 493.757C239.195 493.757 240.293 494.045 241.296 494.621C242.299 495.197 243.088 496.029 243.664 497.117C244.261 498.184 244.56 499.443 244.56 500.893C244.56 502.387 244.24 503.688 243.6 504.797C242.96 505.907 242.096 506.76 241.008 507.357C239.941 507.955 238.779 508.253 237.52 508.253C236.453 508.253 235.504 508.061 234.672 507.677C233.84 507.293 233.136 506.771 232.56 506.109V507.901H228.976V482.941H232.56V495.805C233.136 495.187 233.893 494.696 234.832 494.333C235.792 493.949 236.848 493.757 238 493.757ZM236.752 505.213C237.925 505.213 238.907 504.797 239.696 503.965C240.507 503.133 240.912 502.099 240.912 500.861C240.912 500.072 240.72 499.347 240.336 498.685C239.973 498.024 239.472 497.512 238.832 497.149C238.213 496.765 237.52 496.573 236.752 496.573C235.749 496.573 234.864 496.829 234.096 497.341C233.349 497.853 232.837 498.536 232.56 499.389V502.397C232.88 503.272 233.403 503.965 234.128 504.477C234.853 504.968 235.728 505.213 236.752 505.213ZM251.935 494.365V507.901H248.351V494.365H251.935ZM248.191 489.533C248.191 489 248.404 488.552 248.831 488.189C249.258 487.805 249.738 487.613 250.271 487.613C250.783 487.613 251.242 487.805 251.647 488.189C252.074 488.552 252.287 489 252.287 489.533C252.287 490.067 252.074 490.515 251.647 490.877C251.242 491.24 250.783 491.421 250.271 491.421C249.738 491.421 249.258 491.24 248.831 490.877C248.404 490.515 248.191 490.067 248.191 489.533ZM260.435 482.941V507.901H256.851V482.941H260.435ZM271.879 505.181C272.882 505.181 273.895 504.829 274.919 504.125L276.551 506.781C275.826 507.229 275.047 507.592 274.215 507.869C273.383 508.125 272.583 508.253 271.815 508.253C270.258 508.253 268.903 507.944 267.751 507.325C266.62 506.707 265.746 505.853 265.127 504.765C264.53 503.677 264.231 502.429 264.231 501.021C264.231 499.699 264.572 498.483 265.255 497.373C265.938 496.264 266.866 495.389 268.039 494.749C269.212 494.088 270.492 493.757 271.879 493.757C273.714 493.757 275.239 494.301 276.455 495.389C277.671 496.456 278.482 497.971 278.887 499.933L268.455 503.453C268.818 504.008 269.298 504.435 269.895 504.733C270.492 505.032 271.154 505.181 271.879 505.181ZM271.591 496.573C270.46 496.573 269.532 496.968 268.807 497.757C268.103 498.547 267.751 499.571 267.751 500.829C267.751 501.064 267.762 501.245 267.783 501.373L274.887 498.845C274.61 498.184 274.204 497.64 273.671 497.213C273.138 496.787 272.444 496.573 271.591 496.573ZM305.367 502.429H296.887L294.647 507.901H290.967L301.271 483.645H301.495L311.799 507.901H307.511L305.367 502.429ZM304.119 499.229L301.207 491.869L298.199 499.229H304.119ZM323.934 493.757C325.193 493.757 326.334 494.056 327.358 494.653C328.382 495.251 329.182 496.104 329.758 497.213C330.334 498.323 330.622 499.613 330.622 501.085C330.622 502.536 330.302 503.805 329.662 504.893C329.044 505.981 328.169 506.813 327.038 507.389C325.929 507.965 324.67 508.253 323.262 508.253C322.366 508.253 321.502 508.072 320.67 507.709C319.838 507.347 319.156 506.856 318.622 506.237V514.397H315.038V494.109H318.142L318.462 496.125C319.166 495.4 319.977 494.824 320.894 494.397C321.833 493.971 322.846 493.757 323.934 493.757ZM322.558 505.405C323.348 505.405 324.073 505.224 324.734 504.861C325.417 504.477 325.961 503.965 326.366 503.325C326.772 502.685 326.974 501.96 326.974 501.149C326.974 499.891 326.569 498.856 325.758 498.045C324.969 497.213 323.988 496.797 322.814 496.797C321.769 496.797 320.884 497.053 320.158 497.565C319.454 498.077 318.942 498.792 318.622 499.709V502.429C318.836 503.304 319.294 504.019 319.998 504.573C320.724 505.128 321.577 505.405 322.558 505.405ZM343.309 493.757C344.568 493.757 345.709 494.056 346.733 494.653C347.757 495.251 348.557 496.104 349.133 497.213C349.709 498.323 349.997 499.613 349.997 501.085C349.997 502.536 349.677 503.805 349.037 504.893C348.419 505.981 347.544 506.813 346.413 507.389C345.304 507.965 344.045 508.253 342.637 508.253C341.741 508.253 340.877 508.072 340.045 507.709C339.213 507.347 338.531 506.856 337.997 506.237V514.397H334.413V494.109H337.517L337.837 496.125C338.541 495.4 339.352 494.824 340.269 494.397C341.208 493.971 342.221 493.757 343.309 493.757ZM341.933 505.405C342.723 505.405 343.448 505.224 344.109 504.861C344.792 504.477 345.336 503.965 345.741 503.325C346.147 502.685 346.349 501.96 346.349 501.149C346.349 499.891 345.944 498.856 345.133 498.045C344.344 497.213 343.363 496.797 342.189 496.797C341.144 496.797 340.259 497.053 339.533 497.565C338.829 498.077 338.317 498.792 337.997 499.709V502.429C338.211 503.304 338.669 504.019 339.373 504.573C340.099 505.128 340.952 505.405 341.933 505.405ZM357.372 482.941V507.901H353.788V482.941H357.372ZM365.872 494.365V507.901H362.288V494.365H365.872ZM362.128 489.533C362.128 489 362.342 488.552 362.768 488.189C363.195 487.805 363.675 487.613 364.208 487.613C364.72 487.613 365.179 487.805 365.584 488.189C366.011 488.552 366.224 489 366.224 489.533C366.224 490.067 366.011 490.515 365.584 490.877C365.179 491.24 364.72 491.421 364.208 491.421C363.675 491.421 363.195 491.24 362.768 490.877C362.342 490.515 362.128 490.067 362.128 489.533ZM381.988 506.653C381.391 507.144 380.655 507.539 379.78 507.837C378.927 508.115 378.063 508.253 377.188 508.253C375.695 508.253 374.372 507.965 373.22 507.389C372.09 506.813 371.215 505.992 370.596 504.925C369.978 503.837 369.668 502.568 369.668 501.117C369.668 499.688 369.999 498.44 370.66 497.373C371.322 496.285 372.196 495.453 373.284 494.877C374.394 494.301 375.578 494.013 376.836 494.013C378.97 494.013 380.73 494.589 382.116 495.741L380.324 498.077C379.919 497.757 379.439 497.491 378.884 497.277C378.351 497.043 377.775 496.925 377.156 496.925C376.068 496.925 375.14 497.331 374.372 498.141C373.626 498.931 373.252 499.923 373.252 501.117C373.252 502.312 373.647 503.315 374.436 504.125C375.247 504.915 376.271 505.309 377.508 505.309C378.575 505.309 379.471 505.011 380.196 504.413L381.988 506.653ZM399.839 494.365V507.901H396.255V505.949C395.765 506.525 395.103 507.059 394.271 507.549C393.439 508.019 392.469 508.253 391.359 508.253C390.058 508.253 388.895 507.987 387.871 507.453C386.847 506.899 386.037 506.088 385.439 505.021C384.842 503.955 384.543 502.664 384.543 501.149C384.543 499.677 384.853 498.387 385.471 497.277C386.09 496.147 386.911 495.283 387.935 494.685C388.981 494.067 390.122 493.757 391.359 493.757C393.557 493.757 395.199 494.568 396.287 496.189L396.543 494.365H399.839ZM392.351 505.309C393.333 505.309 394.154 505.064 394.815 504.573C395.498 504.061 395.978 503.347 396.255 502.429V499.485C395.999 498.653 395.498 497.981 394.751 497.469C394.026 496.957 393.183 496.701 392.223 496.701C391.093 496.701 390.133 497.107 389.343 497.917C388.554 498.707 388.159 499.72 388.159 500.957C388.159 501.768 388.351 502.504 388.735 503.165C389.119 503.827 389.631 504.349 390.271 504.733C390.911 505.117 391.605 505.309 392.351 505.309ZM409.684 488.413V494.365H413.204V497.181H409.684V507.901H406.1V497.181H403.764V494.365H406.1V488.413H409.684ZM420.31 494.365V507.901H416.726V494.365H420.31ZM416.566 489.533C416.566 489 416.779 488.552 417.206 488.189C417.633 487.805 418.113 487.613 418.646 487.613C419.158 487.613 419.617 487.805 420.022 488.189C420.449 488.552 420.662 489 420.662 489.533C420.662 490.067 420.449 490.515 420.022 490.877C419.617 491.24 419.158 491.421 418.646 491.421C418.113 491.421 417.633 491.24 417.206 490.877C416.779 490.515 416.566 490.067 416.566 489.533ZM424.106 500.989C424.106 499.645 424.426 498.419 425.066 497.309C425.727 496.2 426.634 495.336 427.786 494.717C428.938 494.077 430.25 493.757 431.722 493.757C433.194 493.757 434.495 494.077 435.626 494.717C436.778 495.336 437.663 496.2 438.282 497.309C438.901 498.397 439.21 499.624 439.21 500.989C439.21 502.355 438.901 503.592 438.282 504.701C437.663 505.789 436.778 506.653 435.626 507.293C434.495 507.933 433.183 508.253 431.69 508.253C430.239 508.253 428.938 507.965 427.786 507.389C426.634 506.792 425.727 505.949 425.066 504.861C424.426 503.752 424.106 502.461 424.106 500.989ZM427.722 501.021C427.722 502.237 428.095 503.261 428.842 504.093C429.589 504.904 430.517 505.309 431.626 505.309C432.778 505.309 433.717 504.904 434.442 504.093C435.189 503.283 435.562 502.259 435.562 501.021C435.562 499.784 435.189 498.76 434.442 497.949C433.717 497.117 432.778 496.701 431.626 496.701C430.517 496.701 429.589 497.128 428.842 497.981C428.095 498.813 427.722 499.827 427.722 501.021ZM451.808 493.789C453.067 493.789 454.112 494.173 454.944 494.941C455.797 495.688 456.235 496.659 456.256 497.853V507.901H452.672V499.133C452.629 498.429 452.416 497.875 452.032 497.469C451.669 497.064 451.115 496.851 450.368 496.829C449.259 496.829 448.341 497.309 447.616 498.269C446.912 499.208 446.56 500.413 446.56 501.885V507.901H442.976V494.365H446.208L446.464 496.765C446.955 495.827 447.659 495.101 448.576 494.589C449.515 494.056 450.592 493.789 451.808 493.789Z" fill="black"/>
<path d="M95.6807 201.325C94.6153 202.444 94.5592 203.268 94.5592 221.343C94.5592 239.417 94.6153 240.241 95.6807 241.36C96.7461 242.478 97.5312 242.537 114.746 242.537C131.961 242.537 132.746 242.478 133.812 241.36C134.877 240.241 134.933 239.417 134.933 221.343C134.933 203.268 134.877 202.444 133.812 201.325C132.746 200.207 131.961 200.148 114.746 200.148C97.5312 200.148 96.7461 200.207 95.6807 201.325ZM130.447 207.213V209.568H122.597H114.746V207.213V204.858H122.597H130.447V207.213ZM130.447 226.052V237.827H114.746H99.0452V226.052V214.278H114.746H130.447V226.052Z" fill="black"/>
<path d="M103.531 221.343V223.698H109.139H114.746V221.343V218.988H109.139H103.531V221.343Z" fill="black"/>
<path d="M119.232 226.052V233.117H122.597H125.961V226.052V218.988H122.597H119.232V226.052Z" fill="black"/>
<path d="M103.531 230.762V233.117H109.139H114.746V230.762V228.407H109.139H103.531V230.762Z" fill="black"/>
<path d="M95.6807 291.756C94.6153 292.875 94.5592 293.699 94.5592 311.773C94.5592 329.848 94.6153 330.672 95.6807 331.791C96.7461 332.909 97.5312 332.968 114.746 332.968C131.961 332.968 132.746 332.909 133.812 331.791C134.877 330.672 134.933 329.848 134.933 311.773C134.933 293.699 134.877 292.875 133.812 291.756C132.746 290.638 131.961 290.579 114.746 290.579C97.5312 290.579 96.7461 290.638 95.6807 291.756ZM130.447 314.128V328.258H114.746H99.0452V314.128V299.999H114.746H130.447V314.128Z" fill="black"/>
<path d="M106.335 310.302L102.69 314.128L106.447 318.073C110.148 321.959 110.204 322.018 111.382 320.899C112.896 319.427 112.84 318.956 110.429 316.366L108.354 314.128L110.429 311.891C111.55 310.655 112.503 309.36 112.503 309.065C112.503 308.476 110.709 306.475 110.204 306.475C110.036 306.475 108.298 308.182 106.335 310.302Z" fill="black"/>
<path d="M117.943 307.535C116.653 309.065 116.709 309.36 119.064 311.891L121.139 314.128L119.064 316.366C116.653 318.956 116.597 319.427 118.111 320.899C119.288 322.018 119.344 321.959 123.045 318.073L126.802 314.128L123.158 310.302C121.195 308.182 119.401 306.475 119.176 306.475C119.008 306.475 118.447 306.946 117.943 307.535Z" fill="black"/>
<path d="M92.8463 387.518C91.8778 388.535 91.8268 389.284 91.8268 403.575C91.8268 417.865 91.8778 418.614 92.8463 419.631C93.7639 420.595 94.5286 420.702 101.767 420.702C108.445 420.702 109.669 420.809 109.669 421.504C109.669 422.521 107.834 424.448 106.865 424.448C106.304 424.448 106.1 425.09 106.1 426.857V429.265H114.257H122.413V426.857C122.413 425.09 122.209 424.448 121.649 424.448C120.68 424.448 118.845 422.521 118.845 421.504C118.845 420.809 120.068 420.702 126.746 420.702C133.985 420.702 134.75 420.595 135.667 419.631C136.636 418.614 136.687 417.865 136.687 403.575C136.687 389.284 136.636 388.535 135.667 387.518C134.699 386.501 133.985 386.448 114.257 386.448C94.5286 386.448 93.8149 386.501 92.8463 387.518ZM132.609 401.434V412.138H114.257H95.905V401.434V390.729H114.257H132.609V401.434Z" fill="black"/>
<path d="M96.9001 485.545C95.6059 486.903 95.6059 544.61 96.9001 545.969C98.1942 547.328 130.32 547.328 131.614 545.969C132.908 544.61 132.908 486.903 131.614 485.545C130.32 484.186 98.1942 484.186 96.9001 485.545ZM127.96 514.558V539.735H123.316C120.271 539.735 118.368 540.134 117.606 540.934C116.084 542.452 112.43 542.452 110.907 540.934C110.146 540.134 108.243 539.735 105.198 539.735H100.554V514.558V489.381H114.257H127.96V514.558Z" fill="black"/>
<path d="M107.71 502.569C107.406 503.208 107.634 504.248 108.015 504.807C108.547 505.446 108.547 506.246 108.167 506.965C107.71 507.604 107.406 508.803 107.406 509.523C107.406 510.801 108.243 510.961 114.257 510.961C120.271 510.961 121.108 510.801 121.108 509.523C121.108 508.803 120.804 507.684 120.423 507.045C119.966 506.326 120.043 505.366 120.575 504.487C121.946 502.169 120.119 500.651 118.215 502.409C116.465 504.088 111.745 504.168 110.451 502.569C109.233 501.05 108.243 501.05 107.71 502.569Z" fill="black"/>
<path d="M105.122 516.956C105.122 519.593 105.426 520.552 106.264 520.552C106.873 520.552 107.405 521.112 107.405 521.751C107.405 522.391 107.938 522.95 108.547 522.95C109.309 522.95 109.689 523.75 109.689 525.348C109.689 526.947 110.07 527.746 110.831 527.746C111.592 527.746 111.973 526.947 111.973 525.348C111.973 523.19 112.201 522.95 114.257 522.95C116.312 522.95 116.541 523.19 116.541 525.348C116.541 526.947 116.921 527.746 117.683 527.746C118.444 527.746 118.824 526.947 118.824 525.348C118.824 523.75 119.205 522.95 119.966 522.95C120.575 522.95 121.108 522.391 121.108 521.751C121.108 521.112 121.641 520.552 122.25 520.552C123.088 520.552 123.392 519.593 123.392 516.956V513.359H114.257H105.122V516.956Z" fill="black"/>
<path d="M190.232 541.736H183.872L182.192 545.84H179.432L187.16 527.648H187.328L195.056 545.84H191.84L190.232 541.736ZM189.296 539.336L187.112 533.816L184.856 539.336H189.296ZM204.109 535.256C205.053 535.256 205.837 535.544 206.461 536.12C207.101 536.68 207.429 537.408 207.445 538.304V545.84H204.757V539.264C204.725 538.736 204.565 538.32 204.277 538.016C204.005 537.712 203.589 537.552 203.029 537.536C202.197 537.536 201.509 537.896 200.965 538.616C200.437 539.32 200.173 540.224 200.173 541.328V545.84H197.485V535.688H199.909L200.101 537.488C200.469 536.784 200.997 536.24 201.685 535.856C202.389 535.456 203.197 535.256 204.109 535.256ZM221.973 527.12V545.84H219.285V544.472C218.165 545.56 216.837 546.104 215.301 546.104C214.357 546.104 213.501 545.88 212.733 545.432C211.981 544.984 211.389 544.344 210.957 543.512C210.525 542.68 210.309 541.712 210.309 540.608C210.309 539.504 210.533 538.544 210.981 537.728C211.445 536.912 212.077 536.296 212.877 535.88C213.693 535.448 214.613 535.232 215.637 535.232C216.373 535.232 217.069 535.376 217.725 535.664C218.381 535.936 218.909 536.312 219.309 536.792V527.12H221.973ZM216.165 543.824C216.933 543.824 217.589 543.632 218.133 543.248C218.677 542.864 219.061 542.328 219.285 541.64V539.48C219.093 538.856 218.709 538.344 218.133 537.944C217.573 537.544 216.917 537.344 216.165 537.344C215.605 537.344 215.085 537.488 214.605 537.776C214.125 538.048 213.741 538.432 213.453 538.928C213.165 539.408 213.021 539.952 213.021 540.56C213.021 541.168 213.165 541.72 213.453 542.216C213.741 542.712 214.125 543.104 214.605 543.392C215.085 543.68 215.605 543.824 216.165 543.824ZM228.296 538.04C228.568 537.496 228.952 537.008 229.448 536.576C229.944 536.144 230.448 535.816 230.96 535.592C231.488 535.352 231.928 535.232 232.28 535.232L232.16 537.92C231.424 537.856 230.768 537.992 230.192 538.328C229.616 538.648 229.168 539.096 228.848 539.672C228.528 540.232 228.368 540.832 228.368 541.472V545.84H225.68V535.688H228.104L228.296 538.04ZM233.746 540.656C233.746 539.648 233.986 538.728 234.466 537.896C234.962 537.064 235.642 536.416 236.506 535.952C237.37 535.472 238.354 535.232 239.458 535.232C240.562 535.232 241.538 535.472 242.386 535.952C243.25 536.416 243.914 537.064 244.378 537.896C244.842 538.712 245.074 539.632 245.074 540.656C245.074 541.68 244.842 542.608 244.378 543.44C243.914 544.256 243.25 544.904 242.386 545.384C241.538 545.864 240.554 546.104 239.434 546.104C238.346 546.104 237.37 545.888 236.506 545.456C235.642 545.008 234.962 544.376 234.466 543.56C233.986 542.728 233.746 541.76 233.746 540.656ZM236.458 540.68C236.458 541.592 236.738 542.36 237.298 542.984C237.858 543.592 238.554 543.896 239.386 543.896C240.25 543.896 240.954 543.592 241.498 542.984C242.058 542.376 242.338 541.608 242.338 540.68C242.338 539.752 242.058 538.984 241.498 538.376C240.954 537.752 240.25 537.44 239.386 537.44C238.554 537.44 237.858 537.76 237.298 538.4C236.738 539.024 236.458 539.784 236.458 540.68ZM250.587 535.688V545.84H247.899V535.688H250.587ZM247.779 532.064C247.779 531.664 247.939 531.328 248.259 531.056C248.579 530.768 248.939 530.624 249.339 530.624C249.723 530.624 250.067 530.768 250.371 531.056C250.691 531.328 250.851 531.664 250.851 532.064C250.851 532.464 250.691 532.8 250.371 533.072C250.067 533.344 249.723 533.48 249.339 533.48C248.939 533.48 248.579 533.344 248.259 533.072C247.939 532.8 247.779 532.464 247.779 532.064ZM265.098 527.12V545.84H262.41V544.472C261.29 545.56 259.962 546.104 258.426 546.104C257.482 546.104 256.626 545.88 255.858 545.432C255.106 544.984 254.514 544.344 254.082 543.512C253.65 542.68 253.434 541.712 253.434 540.608C253.434 539.504 253.658 538.544 254.106 537.728C254.57 536.912 255.202 536.296 256.002 535.88C256.818 535.448 257.738 535.232 258.762 535.232C259.498 535.232 260.194 535.376 260.85 535.664C261.506 535.936 262.034 536.312 262.434 536.792V527.12H265.098ZM259.29 543.824C260.058 543.824 260.714 543.632 261.258 543.248C261.802 542.864 262.186 542.328 262.41 541.64V539.48C262.218 538.856 261.834 538.344 261.258 537.944C260.698 537.544 260.042 537.344 259.29 537.344C258.73 537.344 258.21 537.488 257.73 537.776C257.25 538.048 256.866 538.432 256.578 538.928C256.29 539.408 256.146 539.952 256.146 540.56C256.146 541.168 256.29 541.72 256.578 542.216C256.866 542.712 257.25 543.104 257.73 543.392C258.21 543.68 258.73 543.824 259.29 543.824ZM284.269 527.888C281.821 534.56 279.557 540.696 277.477 546.296H275.053C275.821 544.248 276.957 541.176 278.461 537.08L281.845 527.888H284.269ZM296.454 535.688V545.84H293.766V535.688H296.454ZM293.646 532.064C293.646 531.664 293.806 531.328 294.126 531.056C294.446 530.768 294.806 530.624 295.206 530.624C295.59 530.624 295.934 530.768 296.238 531.056C296.558 531.328 296.718 531.664 296.718 532.064C296.718 532.464 296.558 532.8 296.238 533.072C295.934 533.344 295.59 533.48 295.206 533.48C294.806 533.48 294.446 533.344 294.126 533.072C293.806 532.8 293.646 532.464 293.646 532.064ZM299.613 537.128C299.613 535.528 300.013 534.048 300.813 532.688C301.613 531.312 302.693 530.216 304.053 529.4C305.429 528.584 306.925 528.176 308.541 528.176C310.141 528.176 311.621 528.584 312.981 529.4C314.357 530.216 315.453 531.312 316.269 532.688C317.085 534.064 317.493 535.544 317.493 537.128C317.493 538.744 317.085 540.232 316.269 541.592C315.469 542.952 314.381 544.032 313.005 544.832C311.629 545.632 310.141 546.032 308.541 546.032C306.925 546.032 305.429 545.64 304.053 544.856C302.693 544.056 301.613 542.976 300.813 541.616C300.013 540.256 299.613 538.76 299.613 537.128ZM302.493 537.128C302.493 538.264 302.765 539.304 303.309 540.248C303.853 541.192 304.589 541.944 305.517 542.504C306.461 543.064 307.493 543.344 308.613 543.344C309.717 543.344 310.725 543.072 311.637 542.528C312.549 541.968 313.269 541.216 313.797 540.272C314.341 539.312 314.613 538.264 314.613 537.128C314.613 535.992 314.341 534.944 313.797 533.984C313.253 533.024 312.517 532.264 311.589 531.704C310.661 531.144 309.645 530.864 308.541 530.864C307.421 530.864 306.397 531.144 305.469 531.704C304.557 532.264 303.829 533.024 303.285 533.984C302.757 534.944 302.493 535.992 302.493 537.128ZM330.392 531.92C328.888 531.136 327.552 530.744 326.384 530.744C325.52 530.744 324.832 530.936 324.32 531.32C323.824 531.704 323.576 532.232 323.576 532.904C323.576 533.56 323.888 534.112 324.512 534.56C325.152 534.992 326.04 535.424 327.176 535.856C328.04 536.16 328.776 536.512 329.384 536.912C330.008 537.296 330.52 537.824 330.92 538.496C331.32 539.168 331.52 540.016 331.52 541.04C331.52 541.968 331.288 542.808 330.824 543.56C330.36 544.312 329.688 544.912 328.808 545.36C327.928 545.808 326.888 546.032 325.688 546.032C324.632 546.032 323.592 545.872 322.568 545.552C321.544 545.216 320.632 544.76 319.832 544.184L321.08 542C321.672 542.448 322.368 542.824 323.168 543.128C323.984 543.416 324.736 543.56 325.424 543.56C326.272 543.56 327.016 543.36 327.656 542.96C328.296 542.544 328.616 541.912 328.616 541.064C328.616 540.392 328.344 539.832 327.8 539.384C327.272 538.936 326.528 538.528 325.568 538.16C324.576 537.792 323.752 537.432 323.096 537.08C322.44 536.712 321.872 536.208 321.392 535.568C320.928 534.912 320.696 534.096 320.696 533.12C320.696 531.696 321.176 530.552 322.136 529.688C323.112 528.808 324.392 528.336 325.976 528.272C327.128 528.272 328.136 528.408 329 528.68C329.88 528.936 330.696 529.304 331.448 529.784L330.392 531.92Z" fill="black"/>
<defs>
<filter id="filter0_b" x="78.9363" y="373.028" width="466.064" height="69.6575" filterUnits="userSpaceOnUse" color-interpolation-filters="sRGB">
<feFlood flood-opacity="0" result="BackgroundImageFix"/>
<feGaussianBlur in="BackgroundImage" stdDeviation="2"/>
<feComposite in2="SourceAlpha" operator="in" result="effect1_backgroundBlur"/>
<feBlend mode="normal" in="SourceGraphic" in2="effect1_backgroundBlur" result="shape"/>
</filter>
<filter id="filter1_b" x="78.9363" y="186" width="466.064" height="69.6575" filterUnits="userSpaceOnUse" color-interpolation-filters="sRGB">
<feFlood flood-opacity="0" result="BackgroundImageFix"/>
<feGaussianBlur in="BackgroundImage" stdDeviation="2"/>
<feComposite in2="SourceAlpha" operator="in" result="effect1_backgroundBlur"/>
<feBlend mode="normal" in="SourceGraphic" in2="effect1_backgroundBlur" result="shape"/>
</filter>
<filter id="filter2_b" x="78.9363" y="277.459" width="466.064" height="69.6575" filterUnits="userSpaceOnUse" color-interpolation-filters="sRGB">
<feFlood flood-opacity="0" result="BackgroundImageFix"/>
<feGaussianBlur in="BackgroundImage" stdDeviation="2"/>
<feComposite in2="SourceAlpha" operator="in" result="effect1_backgroundBlur"/>
<feBlend mode="normal" in="SourceGraphic" in2="effect1_backgroundBlur" result="shape"/>
</filter>
<filter id="filter3_b" x="78.9363" y="465.514" width="466.064" height="100.486" filterUnits="userSpaceOnUse" color-interpolation-filters="sRGB">
<feFlood flood-opacity="0" result="BackgroundImageFix"/>
<feGaussianBlur in="BackgroundImage" stdDeviation="2"/>
<feComposite in2="SourceAlpha" operator="in" result="effect1_backgroundBlur"/>
<feBlend mode="normal" in="SourceGraphic" in2="effect1_backgroundBlur" result="shape"/>
</filter>
</defs>
</svg>

