<svg width="471" height="362" viewBox="0 0 471 362" fill="none" xmlns="http://www.w3.org/2000/svg">
<g filter="url(#filter0_b)">
<path d="M3 192C3 186.477 7.47715 182 13 182H461C466.523 182 471 186.477 471 192V232C471 237.523 466.523 242 461 242H13C7.47717 242 3 237.523 3 232V192Z" fill="#FDB717"/>
</g>
<path d="M104.2 196.705H110.824C113.747 196.705 116.157 197.281 118.056 198.433C119.976 199.585 121.373 201.067 122.248 202.881C123.123 204.694 123.56 206.625 123.56 208.673C123.56 210.934 123.027 212.929 121.96 214.657C120.915 216.363 119.507 217.686 117.736 218.625C115.965 219.542 114.035 220.001 111.944 220.001H104.2V196.705ZM111.272 216.417C112.936 216.417 114.397 216.107 115.656 215.489C116.936 214.87 117.928 213.963 118.632 212.769C119.357 211.553 119.72 210.102 119.72 208.417C119.72 206.582 119.325 205.057 118.536 203.841C117.768 202.603 116.776 201.697 115.56 201.121C114.365 200.545 113.128 200.257 111.848 200.257H107.944V216.417H111.272ZM134.336 217.281C135.338 217.281 136.352 216.929 137.376 216.225L139.008 218.881C138.282 219.329 137.504 219.691 136.672 219.969C135.84 220.225 135.04 220.353 134.272 220.353C132.714 220.353 131.36 220.043 130.208 219.425C129.077 218.806 128.202 217.953 127.584 216.865C126.986 215.777 126.688 214.529 126.688 213.121C126.688 211.798 127.029 210.582 127.712 209.473C128.394 208.363 129.322 207.489 130.496 206.849C131.669 206.187 132.949 205.857 134.336 205.857C136.17 205.857 137.696 206.401 138.912 207.489C140.128 208.555 140.938 210.07 141.344 212.033L130.912 215.553C131.274 216.107 131.754 216.534 132.352 216.833C132.949 217.131 133.61 217.281 134.336 217.281ZM134.048 208.673C132.917 208.673 131.989 209.067 131.264 209.857C130.56 210.646 130.208 211.67 130.208 212.929C130.208 213.163 130.218 213.345 130.24 213.473L137.344 210.945C137.066 210.283 136.661 209.739 136.128 209.313C135.594 208.886 134.901 208.673 134.048 208.673ZM148.934 220.289C147.889 220.289 146.897 220.107 145.958 219.745C145.041 219.361 144.284 218.827 143.686 218.145L145.19 216.129C146.321 217.238 147.473 217.793 148.646 217.793C149.286 217.793 149.809 217.675 150.214 217.441C150.641 217.185 150.854 216.811 150.854 216.321C150.854 215.809 150.641 215.425 150.214 215.169C149.788 214.913 149.308 214.71 148.774 214.561C148.262 214.39 147.932 214.283 147.782 214.241C146.609 213.878 145.734 213.355 145.158 212.673C144.582 211.969 144.294 211.147 144.294 210.209C144.294 209.462 144.476 208.769 144.838 208.129C145.222 207.467 145.788 206.934 146.534 206.529C147.302 206.123 148.23 205.921 149.318 205.921C150.342 205.921 151.228 206.038 151.974 206.273C152.742 206.507 153.457 206.881 154.118 207.393L152.742 209.537C152.358 209.174 151.889 208.886 151.334 208.673C150.801 208.459 150.31 208.353 149.862 208.353C149.308 208.353 148.849 208.481 148.486 208.737C148.124 208.993 147.942 209.323 147.942 209.729C147.921 210.219 148.102 210.593 148.486 210.849C148.87 211.083 149.489 211.339 150.342 211.617C150.705 211.723 150.94 211.798 151.046 211.841C152.113 212.182 152.945 212.662 153.542 213.281C154.14 213.878 154.438 214.667 154.438 215.649C154.438 216.971 153.958 218.081 152.998 218.977C152.06 219.851 150.705 220.289 148.934 220.289ZM163.554 213.857L161.986 215.073V220.001H158.402V195.041H161.986V211.361L168.77 206.145L170.946 208.065L166.018 211.905L171.522 220.001H167.362L163.554 213.857ZM179.86 200.513V206.465H183.38V209.281H179.86V220.001H176.276V209.281H173.94V206.465H176.276V200.513H179.86ZM185.782 213.089C185.782 211.745 186.102 210.518 186.742 209.409C187.403 208.299 188.31 207.435 189.462 206.817C190.614 206.177 191.926 205.857 193.398 205.857C194.87 205.857 196.171 206.177 197.302 206.817C198.454 207.435 199.339 208.299 199.958 209.409C200.576 210.497 200.885 211.723 200.885 213.089C200.885 214.454 200.576 215.691 199.958 216.801C199.339 217.889 198.454 218.753 197.302 219.393C196.171 220.033 194.859 220.353 193.366 220.353C191.915 220.353 190.614 220.065 189.462 219.489C188.31 218.891 187.403 218.049 186.742 216.961C186.102 215.851 185.782 214.561 185.782 213.089ZM189.398 213.121C189.398 214.337 189.771 215.361 190.518 216.193C191.264 217.003 192.192 217.409 193.302 217.409C194.454 217.409 195.392 217.003 196.118 216.193C196.864 215.382 197.238 214.358 197.238 213.121C197.238 211.883 196.864 210.859 196.118 210.049C195.392 209.217 194.454 208.801 193.302 208.801C192.192 208.801 191.264 209.227 190.518 210.081C189.771 210.913 189.398 211.926 189.398 213.121ZM213.548 205.857C214.806 205.857 215.948 206.155 216.972 206.753C217.996 207.35 218.796 208.203 219.372 209.313C219.948 210.422 220.236 211.713 220.236 213.185C220.236 214.635 219.916 215.905 219.276 216.993C218.657 218.081 217.782 218.913 216.652 219.489C215.542 220.065 214.284 220.353 212.876 220.353C211.98 220.353 211.116 220.171 210.284 219.809C209.452 219.446 208.769 218.955 208.236 218.337V226.497H204.652V206.209H207.756L208.076 208.225C208.78 207.499 209.59 206.923 210.508 206.497C211.446 206.07 212.46 205.857 213.548 205.857ZM212.172 217.505C212.961 217.505 213.686 217.323 214.348 216.961C215.03 216.577 215.574 216.065 215.98 215.425C216.385 214.785 216.588 214.059 216.588 213.249C216.588 211.99 216.182 210.955 215.372 210.145C214.582 209.313 213.601 208.897 212.428 208.897C211.382 208.897 210.497 209.153 209.772 209.665C209.068 210.177 208.556 210.891 208.236 211.809V214.529C208.449 215.403 208.908 216.118 209.612 216.673C210.337 217.227 211.19 217.505 212.172 217.505ZM246.981 214.529H238.501L236.261 220.001H232.581L242.885 195.745H243.109L253.413 220.001H249.125L246.981 214.529ZM245.733 211.329L242.821 203.969L239.812 211.329H245.733ZM265.548 205.857C266.806 205.857 267.948 206.155 268.972 206.753C269.996 207.35 270.796 208.203 271.372 209.313C271.948 210.422 272.236 211.713 272.236 213.185C272.236 214.635 271.916 215.905 271.276 216.993C270.657 218.081 269.782 218.913 268.652 219.489C267.542 220.065 266.284 220.353 264.876 220.353C263.98 220.353 263.116 220.171 262.284 219.809C261.452 219.446 260.769 218.955 260.236 218.337V226.497H256.652V206.209H259.756L260.076 208.225C260.78 207.499 261.59 206.923 262.508 206.497C263.446 206.07 264.46 205.857 265.548 205.857ZM264.172 217.505C264.961 217.505 265.686 217.323 266.348 216.961C267.03 216.577 267.574 216.065 267.98 215.425C268.385 214.785 268.588 214.059 268.588 213.249C268.588 211.99 268.182 210.955 267.372 210.145C266.582 209.313 265.601 208.897 264.428 208.897C263.382 208.897 262.497 209.153 261.772 209.665C261.068 210.177 260.556 210.891 260.236 211.809V214.529C260.449 215.403 260.908 216.118 261.612 216.673C262.337 217.227 263.19 217.505 264.172 217.505ZM284.923 205.857C286.181 205.857 287.323 206.155 288.347 206.753C289.371 207.35 290.171 208.203 290.747 209.313C291.323 210.422 291.611 211.713 291.611 213.185C291.611 214.635 291.291 215.905 290.651 216.993C290.032 218.081 289.157 218.913 288.027 219.489C286.917 220.065 285.659 220.353 284.251 220.353C283.355 220.353 282.491 220.171 281.659 219.809C280.827 219.446 280.144 218.955 279.611 218.337V226.497H276.027V206.209H279.131L279.451 208.225C280.155 207.499 280.965 206.923 281.883 206.497C282.821 206.07 283.835 205.857 284.923 205.857ZM283.547 217.505C284.336 217.505 285.061 217.323 285.723 216.961C286.405 216.577 286.949 216.065 287.355 215.425C287.76 214.785 287.963 214.059 287.963 213.249C287.963 211.99 287.557 210.955 286.747 210.145C285.957 209.313 284.976 208.897 283.803 208.897C282.757 208.897 281.872 209.153 281.147 209.665C280.443 210.177 279.931 210.891 279.611 211.809V214.529C279.824 215.403 280.283 216.118 280.987 216.673C281.712 217.227 282.565 217.505 283.547 217.505ZM298.986 195.041V220.001H295.402V195.041H298.986ZM307.486 206.465V220.001H303.902V206.465H307.486ZM303.742 201.633C303.742 201.099 303.955 200.651 304.382 200.289C304.808 199.905 305.288 199.713 305.822 199.713C306.334 199.713 306.792 199.905 307.198 200.289C307.624 200.651 307.838 201.099 307.838 201.633C307.838 202.166 307.624 202.614 307.198 202.977C306.792 203.339 306.334 203.521 305.822 203.521C305.288 203.521 304.808 203.339 304.382 202.977C303.955 202.614 303.742 202.166 303.742 201.633ZM323.602 218.753C323.004 219.243 322.268 219.638 321.394 219.937C320.54 220.214 319.676 220.353 318.802 220.353C317.308 220.353 315.986 220.065 314.834 219.489C313.703 218.913 312.828 218.091 312.21 217.025C311.591 215.937 311.282 214.667 311.282 213.217C311.282 211.787 311.612 210.539 312.274 209.473C312.935 208.385 313.81 207.553 314.898 206.977C316.007 206.401 317.191 206.113 318.45 206.113C320.583 206.113 322.343 206.689 323.73 207.841L321.938 210.177C321.532 209.857 321.052 209.59 320.498 209.377C319.964 209.142 319.388 209.025 318.77 209.025C317.682 209.025 316.754 209.43 315.986 210.241C315.239 211.03 314.866 212.022 314.866 213.217C314.866 214.411 315.26 215.414 316.05 216.225C316.86 217.014 317.884 217.409 319.122 217.409C320.188 217.409 321.084 217.11 321.81 216.513L323.602 218.753ZM341.453 206.465V220.001H337.869V218.049C337.378 218.625 336.717 219.158 335.885 219.649C335.053 220.118 334.082 220.353 332.973 220.353C331.671 220.353 330.509 220.086 329.485 219.553C328.461 218.998 327.65 218.187 327.053 217.121C326.455 216.054 326.157 214.763 326.157 213.249C326.157 211.777 326.466 210.486 327.085 209.377C327.703 208.246 328.525 207.382 329.549 206.785C330.594 206.166 331.735 205.857 332.973 205.857C335.17 205.857 336.813 206.667 337.901 208.289L338.157 206.465H341.453ZM333.965 217.409C334.946 217.409 335.767 217.163 336.429 216.673C337.111 216.161 337.591 215.446 337.869 214.529V211.585C337.613 210.753 337.111 210.081 336.365 209.569C335.639 209.057 334.797 208.801 333.837 208.801C332.706 208.801 331.746 209.206 330.957 210.017C330.167 210.806 329.773 211.819 329.773 213.057C329.773 213.867 329.965 214.603 330.349 215.265C330.733 215.926 331.245 216.449 331.885 216.833C332.525 217.217 333.218 217.409 333.965 217.409ZM351.298 200.513V206.465H354.818V209.281H351.298V220.001H347.714V209.281H345.378V206.465H347.714V200.513H351.298ZM361.923 206.465V220.001H358.339V206.465H361.923ZM358.179 201.633C358.179 201.099 358.392 200.651 358.819 200.289C359.246 199.905 359.726 199.713 360.259 199.713C360.771 199.713 361.23 199.905 361.635 200.289C362.062 200.651 362.275 201.099 362.275 201.633C362.275 202.166 362.062 202.614 361.635 202.977C361.23 203.339 360.771 203.521 360.259 203.521C359.726 203.521 359.246 203.339 358.819 202.977C358.392 202.614 358.179 202.166 358.179 201.633ZM365.719 213.089C365.719 211.745 366.039 210.518 366.679 209.409C367.34 208.299 368.247 207.435 369.399 206.817C370.551 206.177 371.863 205.857 373.335 205.857C374.807 205.857 376.108 206.177 377.239 206.817C378.391 207.435 379.276 208.299 379.895 209.409C380.514 210.497 380.823 211.723 380.823 213.089C380.823 214.454 380.514 215.691 379.895 216.801C379.276 217.889 378.391 218.753 377.239 219.393C376.108 220.033 374.796 220.353 373.303 220.353C371.852 220.353 370.551 220.065 369.399 219.489C368.247 218.891 367.34 218.049 366.679 216.961C366.039 215.851 365.719 214.561 365.719 213.089ZM369.335 213.121C369.335 214.337 369.708 215.361 370.455 216.193C371.202 217.003 372.13 217.409 373.239 217.409C374.391 217.409 375.33 217.003 376.055 216.193C376.802 215.382 377.175 214.358 377.175 213.121C377.175 211.883 376.802 210.859 376.055 210.049C375.33 209.217 374.391 208.801 373.239 208.801C372.13 208.801 371.202 209.227 370.455 210.081C369.708 210.913 369.335 211.926 369.335 213.121ZM393.421 205.889C394.68 205.889 395.725 206.273 396.557 207.041C397.41 207.787 397.848 208.758 397.869 209.953V220.001H394.285V211.233C394.242 210.529 394.029 209.974 393.645 209.569C393.282 209.163 392.728 208.95 391.981 208.929C390.872 208.929 389.954 209.409 389.229 210.369C388.525 211.307 388.173 212.513 388.173 213.985V220.001H384.589V206.465H387.821L388.077 208.865C388.568 207.926 389.272 207.201 390.189 206.689C391.128 206.155 392.205 205.889 393.421 205.889Z" fill="black"/>
<g filter="url(#filter1_b)">
<path d="M3 10C3 4.47715 7.47715 0 13 0H461C466.523 0 471 4.47715 471 10V50C471 55.5228 466.523 60 461 60H13C7.47717 60 3 55.5228 3 50V10Z" fill="#FDB717"/>
</g>
<g filter="url(#filter2_b)">
<path d="M3 99C3 93.4772 7.47715 89 13 89H461C466.523 89 471 93.4772 471 99V139C471 144.523 466.523 149 461 149H13C7.47717 149 3 144.523 3 139V99Z" fill="#FDB717"/>
</g>
<g filter="url(#filter3_b)">
<path d="M3 282C3 276.477 7.47715 272 13 272H461C466.523 272 471 276.477 471 282V352C471 357.523 466.523 362 461 362H13C7.47717 362 3 357.523 3 352V282Z" fill="#FDB717"/>
</g>
<path d="M123.176 40.0247L117.672 26.1367L111.496 40.0887L102.184 15.8327H106.536L111.976 31.3847L115.848 21.4647L113.608 15.8327H117.288L123.272 30.9367L128.264 15.8327H132.264L123.176 40.0247ZM139.492 36.2807C140.495 36.2807 141.508 35.9287 142.532 35.2247L144.164 37.8807C143.439 38.3287 142.66 38.6913 141.828 38.9687C140.996 39.2247 140.196 39.3527 139.428 39.3527C137.871 39.3527 136.516 39.0433 135.364 38.4247C134.233 37.806 133.359 36.9527 132.74 35.8647C132.143 34.7767 131.844 33.5287 131.844 32.1207C131.844 30.798 132.185 29.582 132.868 28.4727C133.551 27.3633 134.479 26.4887 135.652 25.8487C136.825 25.1873 138.105 24.8567 139.492 24.8567C141.327 24.8567 142.852 25.4007 144.068 26.4887C145.284 27.5553 146.095 29.07 146.5 31.0327L136.068 34.5527C136.431 35.1073 136.911 35.534 137.508 35.8327C138.105 36.1313 138.767 36.2807 139.492 36.2807ZM139.204 27.6727C138.073 27.6727 137.145 28.0673 136.42 28.8567C135.716 29.646 135.364 30.67 135.364 31.9287C135.364 32.1633 135.375 32.3447 135.396 32.4727L142.5 29.9447C142.223 29.2833 141.817 28.7393 141.284 28.3127C140.751 27.886 140.057 27.6727 139.204 27.6727ZM159.051 24.8567C160.245 24.8567 161.344 25.1447 162.347 25.7207C163.349 26.2967 164.139 27.1287 164.715 28.2167C165.312 29.2833 165.611 30.542 165.611 31.9927C165.611 33.486 165.291 34.7873 164.651 35.8967C164.011 37.006 163.147 37.8593 162.059 38.4567C160.992 39.054 159.829 39.3527 158.571 39.3527C157.504 39.3527 156.555 39.1607 155.723 38.7767C154.891 38.3927 154.187 37.87 153.611 37.2087V39.0007H150.027V14.0407H153.611V26.9047C154.187 26.286 154.944 25.7953 155.883 25.4327C156.843 25.0487 157.899 24.8567 159.051 24.8567ZM157.803 36.3127C158.976 36.3127 159.957 35.8967 160.747 35.0647C161.557 34.2327 161.963 33.198 161.963 31.9607C161.963 31.1713 161.771 30.446 161.387 29.7847C161.024 29.1233 160.523 28.6113 159.883 28.2487C159.264 27.8647 158.571 27.6727 157.803 27.6727C156.8 27.6727 155.915 27.9287 155.147 28.4407C154.4 28.9527 153.888 29.6353 153.611 30.4887V33.4967C153.931 34.3713 154.453 35.0647 155.179 35.5767C155.904 36.0673 156.779 36.3127 157.803 36.3127ZM173.466 39.2887C172.42 39.2887 171.428 39.1073 170.49 38.7447C169.572 38.3607 168.815 37.8273 168.218 37.1447L169.722 35.1287C170.852 36.238 172.004 36.7927 173.178 36.7927C173.818 36.7927 174.34 36.6753 174.746 36.4407C175.172 36.1847 175.385 35.8113 175.385 35.3207C175.385 34.8087 175.172 34.4247 174.746 34.1687C174.319 33.9127 173.839 33.71 173.306 33.5607C172.794 33.39 172.463 33.2833 172.314 33.2407C171.14 32.878 170.266 32.3553 169.69 31.6727C169.114 30.9687 168.826 30.1473 168.826 29.2087C168.826 28.462 169.007 27.7687 169.37 27.1287C169.754 26.4673 170.319 25.934 171.066 25.5287C171.834 25.1233 172.762 24.9207 173.85 24.9207C174.874 24.9207 175.759 25.038 176.506 25.2727C177.274 25.5073 177.988 25.8807 178.65 26.3927L177.274 28.5367C176.89 28.174 176.42 27.886 175.866 27.6727C175.332 27.4593 174.842 27.3527 174.394 27.3527C173.839 27.3527 173.38 27.4807 173.018 27.7367C172.655 27.9927 172.474 28.3233 172.474 28.7287C172.452 29.2193 172.634 29.5927 173.018 29.8487C173.402 30.0833 174.02 30.3393 174.874 30.6167C175.236 30.7233 175.471 30.798 175.578 30.8407C176.644 31.182 177.476 31.662 178.074 32.2807C178.671 32.878 178.97 33.6673 178.97 34.6487C178.97 35.9713 178.49 37.0807 177.53 37.9767C176.591 38.8513 175.236 39.2887 173.466 39.2887ZM186.517 25.4647V39.0007H182.933V25.4647H186.517ZM182.773 20.6327C182.773 20.0993 182.986 19.6513 183.413 19.2887C183.839 18.9047 184.319 18.7127 184.853 18.7127C185.365 18.7127 185.823 18.9047 186.229 19.2887C186.655 19.6513 186.869 20.0993 186.869 20.6327C186.869 21.166 186.655 21.614 186.229 21.9767C185.823 22.3393 185.365 22.5207 184.853 22.5207C184.319 22.5207 183.839 22.3393 183.413 21.9767C182.986 21.614 182.773 21.166 182.773 20.6327ZM196.329 19.5127V25.4647H199.849V28.2807H196.329V39.0007H192.745V28.2807H190.409V25.4647H192.745V19.5127H196.329ZM209.898 36.2807C210.901 36.2807 211.914 35.9287 212.938 35.2247L214.57 37.8807C213.845 38.3287 213.066 38.6913 212.234 38.9687C211.402 39.2247 210.602 39.3527 209.834 39.3527C208.277 39.3527 206.922 39.0433 205.77 38.4247C204.64 37.806 203.765 36.9527 203.146 35.8647C202.549 34.7767 202.25 33.5287 202.25 32.1207C202.25 30.798 202.592 29.582 203.274 28.4727C203.957 27.3633 204.885 26.4887 206.058 25.8487C207.232 25.1873 208.512 24.8567 209.898 24.8567C211.733 24.8567 213.258 25.4007 214.474 26.4887C215.69 27.5553 216.501 29.07 216.906 31.0327L206.474 34.5527C206.837 35.1073 207.317 35.534 207.914 35.8327C208.512 36.1313 209.173 36.2807 209.898 36.2807ZM209.61 27.6727C208.48 27.6727 207.552 28.0673 206.826 28.8567C206.122 29.646 205.77 30.67 205.77 31.9287C205.77 32.1633 205.781 32.3447 205.802 32.4727L212.906 29.9447C212.629 29.2833 212.224 28.7393 211.69 28.3127C211.157 27.886 210.464 27.6727 209.61 27.6727ZM231.419 15.7047H238.043C240.965 15.7047 243.376 16.2807 245.275 17.4327C247.195 18.5847 248.592 20.0673 249.467 21.8807C250.341 23.694 250.779 25.6247 250.779 27.6727C250.779 29.934 250.245 31.9287 249.179 33.6567C248.133 35.3633 246.725 36.686 244.955 37.6247C243.184 38.542 241.253 39.0007 239.163 39.0007H231.419V15.7047ZM238.491 35.4167C240.155 35.4167 241.616 35.1073 242.875 34.4887C244.155 33.87 245.147 32.9633 245.851 31.7687C246.576 30.5527 246.939 29.102 246.939 27.4167C246.939 25.582 246.544 24.0567 245.755 22.8407C244.987 21.6033 243.995 20.6967 242.779 20.1207C241.584 19.5447 240.347 19.2567 239.067 19.2567H235.163V35.4167H238.491ZM261.555 36.2807C262.557 36.2807 263.571 35.9287 264.595 35.2247L266.227 37.8807C265.501 38.3287 264.723 38.6913 263.891 38.9687C263.059 39.2247 262.259 39.3527 261.491 39.3527C259.933 39.3527 258.579 39.0433 257.427 38.4247C256.296 37.806 255.421 36.9527 254.803 35.8647C254.205 34.7767 253.907 33.5287 253.907 32.1207C253.907 30.798 254.248 29.582 254.931 28.4727C255.613 27.3633 256.541 26.4887 257.715 25.8487C258.888 25.1873 260.168 24.8567 261.555 24.8567C263.389 24.8567 264.915 25.4007 266.131 26.4887C267.347 27.5553 268.157 29.07 268.562 31.0327L258.131 34.5527C258.493 35.1073 258.973 35.534 259.571 35.8327C260.168 36.1313 260.829 36.2807 261.555 36.2807ZM261.267 27.6727C260.136 27.6727 259.208 28.0673 258.483 28.8567C257.779 29.646 257.427 30.67 257.427 31.9287C257.427 32.1633 257.437 32.3447 257.459 32.4727L264.563 29.9447C264.285 29.2833 263.88 28.7393 263.347 28.3127C262.813 27.886 262.12 27.6727 261.267 27.6727ZM276.153 39.2887C275.108 39.2887 274.116 39.1073 273.177 38.7447C272.26 38.3607 271.502 37.8273 270.905 37.1447L272.409 35.1287C273.54 36.238 274.692 36.7927 275.865 36.7927C276.505 36.7927 277.028 36.6753 277.433 36.4407C277.86 36.1847 278.073 35.8113 278.073 35.3207C278.073 34.8087 277.86 34.4247 277.433 34.1687C277.006 33.9127 276.526 33.71 275.993 33.5607C275.481 33.39 275.15 33.2833 275.001 33.2407C273.828 32.878 272.953 32.3553 272.377 31.6727C271.801 30.9687 271.513 30.1473 271.513 29.2087C271.513 28.462 271.694 27.7687 272.057 27.1287C272.441 26.4673 273.006 25.934 273.753 25.5287C274.521 25.1233 275.449 24.9207 276.537 24.9207C277.561 24.9207 278.446 25.038 279.193 25.2727C279.961 25.5073 280.676 25.8807 281.337 26.3927L279.961 28.5367C279.577 28.174 279.108 27.886 278.553 27.6727C278.02 27.4593 277.529 27.3527 277.081 27.3527C276.526 27.3527 276.068 27.4807 275.705 27.7367C275.342 27.9927 275.161 28.3233 275.161 28.7287C275.14 29.2193 275.321 29.5927 275.705 29.8487C276.089 30.0833 276.708 30.3393 277.561 30.6167C277.924 30.7233 278.158 30.798 278.265 30.8407C279.332 31.182 280.164 31.662 280.761 32.2807C281.358 32.878 281.657 33.6673 281.657 34.6487C281.657 35.9713 281.177 37.0807 280.217 37.9767C279.278 38.8513 277.924 39.2887 276.153 39.2887ZM289.204 25.4647V39.0007H285.62V25.4647H289.204ZM285.46 20.6327C285.46 20.0993 285.674 19.6513 286.1 19.2887C286.527 18.9047 287.007 18.7127 287.54 18.7127C288.052 18.7127 288.511 18.9047 288.916 19.2887C289.343 19.6513 289.556 20.0993 289.556 20.6327C289.556 21.166 289.343 21.614 288.916 21.9767C288.511 22.3393 288.052 22.5207 287.54 22.5207C287.007 22.5207 286.527 22.3393 286.1 21.9767C285.674 21.614 285.46 21.166 285.46 20.6327ZM308.776 25.4647V39.0647C308.776 40.3233 308.435 41.454 307.752 42.4567C307.091 43.4807 306.152 44.2807 304.936 44.8567C303.742 45.454 302.387 45.7527 300.872 45.7527C299.4 45.7527 298.174 45.518 297.192 45.0487C296.211 44.6007 295.219 43.9393 294.216 43.0647L296.328 40.6007C297.011 41.2407 297.704 41.7313 298.408 42.0727C299.112 42.4353 299.912 42.6167 300.808 42.6167C302.131 42.6167 303.187 42.286 303.976 41.6247C304.766 40.9847 305.171 40.11 305.192 39.0007V36.7287C304.723 37.518 304.019 38.158 303.08 38.6487C302.163 39.118 301.086 39.3527 299.848 39.3527C298.611 39.3527 297.47 39.0433 296.424 38.4247C295.379 37.7847 294.547 36.9207 293.928 35.8327C293.31 34.7233 293 33.4967 293 32.1527C293 30.7873 293.32 29.55 293.96 28.4407C294.622 27.31 295.486 26.4353 296.552 25.8167C297.64 25.1767 298.792 24.8567 300.008 24.8567C301.139 24.8567 302.163 25.0593 303.08 25.4647C304.019 25.8487 304.723 26.3607 305.192 27.0007L305.48 25.4647H308.776ZM300.904 36.4087C301.95 36.4087 302.846 36.1527 303.592 35.6407C304.36 35.1287 304.894 34.4353 305.192 33.5607V30.6167C304.894 29.7633 304.36 29.0807 303.592 28.5687C302.824 28.0567 301.928 27.8007 300.904 27.8007C299.688 27.8007 298.664 28.206 297.832 29.0167C297.022 29.806 296.616 30.8193 296.616 32.0567C296.616 32.8673 296.808 33.6033 297.192 34.2647C297.576 34.926 298.088 35.4487 298.728 35.8327C299.39 36.2167 300.115 36.4087 300.904 36.4087ZM322.546 24.8887C323.805 24.8887 324.85 25.2727 325.682 26.0407C326.535 26.7873 326.973 27.758 326.994 28.9527V39.0007H323.41V30.2327C323.367 29.5287 323.154 28.974 322.77 28.5687C322.407 28.1633 321.853 27.95 321.106 27.9287C319.997 27.9287 319.079 28.4087 318.354 29.3687C317.65 30.3073 317.298 31.5127 317.298 32.9847V39.0007H313.714V25.4647H316.946L317.202 27.8647C317.693 26.926 318.397 26.2007 319.314 25.6887C320.253 25.1553 321.33 24.8887 322.546 24.8887Z" fill="black"/>
<path d="M123.176 129.025L117.672 115.137L111.496 129.089L102.184 104.833H106.536L111.976 120.385L115.848 110.465L113.608 104.833H117.288L123.272 119.937L128.264 104.833H132.264L123.176 129.025ZM139.492 125.281C140.495 125.281 141.508 124.929 142.532 124.225L144.164 126.881C143.439 127.329 142.66 127.691 141.828 127.969C140.996 128.225 140.196 128.353 139.428 128.353C137.871 128.353 136.516 128.043 135.364 127.425C134.233 126.806 133.359 125.953 132.74 124.865C132.143 123.777 131.844 122.529 131.844 121.121C131.844 119.798 132.185 118.582 132.868 117.473C133.551 116.363 134.479 115.489 135.652 114.849C136.825 114.187 138.105 113.857 139.492 113.857C141.327 113.857 142.852 114.401 144.068 115.489C145.284 116.555 146.095 118.07 146.5 120.033L136.068 123.553C136.431 124.107 136.911 124.534 137.508 124.833C138.105 125.131 138.767 125.281 139.492 125.281ZM139.204 116.673C138.073 116.673 137.145 117.067 136.42 117.857C135.716 118.646 135.364 119.67 135.364 120.929C135.364 121.163 135.375 121.345 135.396 121.473L142.5 118.945C142.223 118.283 141.817 117.739 141.284 117.313C140.751 116.886 140.057 116.673 139.204 116.673ZM159.051 113.857C160.245 113.857 161.344 114.145 162.347 114.721C163.349 115.297 164.139 116.129 164.715 117.217C165.312 118.283 165.611 119.542 165.611 120.993C165.611 122.486 165.291 123.787 164.651 124.897C164.011 126.006 163.147 126.859 162.059 127.457C160.992 128.054 159.829 128.353 158.571 128.353C157.504 128.353 156.555 128.161 155.723 127.777C154.891 127.393 154.187 126.87 153.611 126.209V128.001H150.027V103.041H153.611V115.905C154.187 115.286 154.944 114.795 155.883 114.433C156.843 114.049 157.899 113.857 159.051 113.857ZM157.803 125.313C158.976 125.313 159.957 124.897 160.747 124.065C161.557 123.233 161.963 122.198 161.963 120.961C161.963 120.171 161.771 119.446 161.387 118.785C161.024 118.123 160.523 117.611 159.883 117.249C159.264 116.865 158.571 116.673 157.803 116.673C156.8 116.673 155.915 116.929 155.147 117.441C154.4 117.953 153.888 118.635 153.611 119.489V122.497C153.931 123.371 154.453 124.065 155.179 124.577C155.904 125.067 156.779 125.313 157.803 125.313ZM173.466 128.289C172.42 128.289 171.428 128.107 170.49 127.745C169.572 127.361 168.815 126.827 168.218 126.145L169.722 124.129C170.852 125.238 172.004 125.793 173.178 125.793C173.818 125.793 174.34 125.675 174.746 125.441C175.172 125.185 175.385 124.811 175.385 124.321C175.385 123.809 175.172 123.425 174.746 123.169C174.319 122.913 173.839 122.71 173.306 122.561C172.794 122.39 172.463 122.283 172.314 122.241C171.14 121.878 170.266 121.355 169.69 120.673C169.114 119.969 168.826 119.147 168.826 118.209C168.826 117.462 169.007 116.769 169.37 116.129C169.754 115.467 170.319 114.934 171.066 114.529C171.834 114.123 172.762 113.921 173.85 113.921C174.874 113.921 175.759 114.038 176.506 114.273C177.274 114.507 177.988 114.881 178.65 115.393L177.274 117.537C176.89 117.174 176.42 116.886 175.866 116.673C175.332 116.459 174.842 116.353 174.394 116.353C173.839 116.353 173.38 116.481 173.018 116.737C172.655 116.993 172.474 117.323 172.474 117.729C172.452 118.219 172.634 118.593 173.018 118.849C173.402 119.083 174.02 119.339 174.874 119.617C175.236 119.723 175.471 119.798 175.578 119.841C176.644 120.182 177.476 120.662 178.074 121.281C178.671 121.878 178.97 122.667 178.97 123.649C178.97 124.971 178.49 126.081 177.53 126.977C176.591 127.851 175.236 128.289 173.466 128.289ZM186.517 114.465V128.001H182.933V114.465H186.517ZM182.773 109.633C182.773 109.099 182.986 108.651 183.413 108.289C183.839 107.905 184.319 107.713 184.853 107.713C185.365 107.713 185.823 107.905 186.229 108.289C186.655 108.651 186.869 109.099 186.869 109.633C186.869 110.166 186.655 110.614 186.229 110.977C185.823 111.339 185.365 111.521 184.853 111.521C184.319 111.521 183.839 111.339 183.413 110.977C182.986 110.614 182.773 110.166 182.773 109.633ZM196.329 108.513V114.465H199.849V117.281H196.329V128.001H192.745V117.281H190.409V114.465H192.745V108.513H196.329ZM209.898 125.281C210.901 125.281 211.914 124.929 212.938 124.225L214.57 126.881C213.845 127.329 213.066 127.691 212.234 127.969C211.402 128.225 210.602 128.353 209.834 128.353C208.277 128.353 206.922 128.043 205.77 127.425C204.64 126.806 203.765 125.953 203.146 124.865C202.549 123.777 202.25 122.529 202.25 121.121C202.25 119.798 202.592 118.582 203.274 117.473C203.957 116.363 204.885 115.489 206.058 114.849C207.232 114.187 208.512 113.857 209.898 113.857C211.733 113.857 213.258 114.401 214.474 115.489C215.69 116.555 216.501 118.07 216.906 120.033L206.474 123.553C206.837 124.107 207.317 124.534 207.914 124.833C208.512 125.131 209.173 125.281 209.898 125.281ZM209.61 116.673C208.48 116.673 207.552 117.067 206.826 117.857C206.122 118.646 205.77 119.67 205.77 120.929C205.77 121.163 205.781 121.345 205.802 121.473L212.906 118.945C212.629 118.283 212.224 117.739 211.69 117.313C211.157 116.886 210.464 116.673 209.61 116.673ZM231.419 104.705H238.043C240.965 104.705 243.376 105.281 245.275 106.433C247.195 107.585 248.592 109.067 249.467 110.881C250.341 112.694 250.779 114.625 250.779 116.673C250.779 118.934 250.245 120.929 249.179 122.657C248.133 124.363 246.725 125.686 244.955 126.625C243.184 127.542 241.253 128.001 239.163 128.001H231.419V104.705ZM238.491 124.417C240.155 124.417 241.616 124.107 242.875 123.489C244.155 122.87 245.147 121.963 245.851 120.769C246.576 119.553 246.939 118.102 246.939 116.417C246.939 114.582 246.544 113.057 245.755 111.841C244.987 110.603 243.995 109.697 242.779 109.121C241.584 108.545 240.347 108.257 239.067 108.257H235.163V124.417H238.491ZM261.555 125.281C262.557 125.281 263.571 124.929 264.595 124.225L266.227 126.881C265.501 127.329 264.723 127.691 263.891 127.969C263.059 128.225 262.259 128.353 261.491 128.353C259.933 128.353 258.579 128.043 257.427 127.425C256.296 126.806 255.421 125.953 254.803 124.865C254.205 123.777 253.907 122.529 253.907 121.121C253.907 119.798 254.248 118.582 254.931 117.473C255.613 116.363 256.541 115.489 257.715 114.849C258.888 114.187 260.168 113.857 261.555 113.857C263.389 113.857 264.915 114.401 266.131 115.489C267.347 116.555 268.157 118.07 268.562 120.033L258.131 123.553C258.493 124.107 258.973 124.534 259.571 124.833C260.168 125.131 260.829 125.281 261.555 125.281ZM261.267 116.673C260.136 116.673 259.208 117.067 258.483 117.857C257.779 118.646 257.427 119.67 257.427 120.929C257.427 121.163 257.437 121.345 257.459 121.473L264.563 118.945C264.285 118.283 263.88 117.739 263.347 117.313C262.813 116.886 262.12 116.673 261.267 116.673ZM284.934 114.465L277.51 128.353H277.35L269.574 114.465H273.83L277.542 122.209L280.934 114.465H284.934ZM294.023 125.281C295.026 125.281 296.039 124.929 297.063 124.225L298.695 126.881C297.97 127.329 297.191 127.691 296.359 127.969C295.527 128.225 294.727 128.353 293.959 128.353C292.402 128.353 291.047 128.043 289.895 127.425C288.765 126.806 287.89 125.953 287.271 124.865C286.674 123.777 286.375 122.529 286.375 121.121C286.375 119.798 286.717 118.582 287.399 117.473C288.082 116.363 289.01 115.489 290.183 114.849C291.357 114.187 292.637 113.857 294.023 113.857C295.858 113.857 297.383 114.401 298.599 115.489C299.815 116.555 300.626 118.07 301.031 120.033L290.599 123.553C290.962 124.107 291.442 124.534 292.039 124.833C292.637 125.131 293.298 125.281 294.023 125.281ZM293.735 116.673C292.605 116.673 291.677 117.067 290.951 117.857C290.247 118.646 289.895 119.67 289.895 120.929C289.895 121.163 289.906 121.345 289.927 121.473L297.031 118.945C296.754 118.283 296.349 117.739 295.815 117.313C295.282 116.886 294.589 116.673 293.735 116.673ZM308.142 103.041V128.001H304.558V103.041H308.142ZM311.938 121.089C311.938 119.745 312.258 118.518 312.898 117.409C313.559 116.299 314.466 115.435 315.618 114.817C316.77 114.177 318.082 113.857 319.554 113.857C321.026 113.857 322.327 114.177 323.458 114.817C324.61 115.435 325.495 116.299 326.114 117.409C326.732 118.497 327.042 119.723 327.042 121.089C327.042 122.454 326.732 123.691 326.114 124.801C325.495 125.889 324.61 126.753 323.458 127.393C322.327 128.033 321.015 128.353 319.522 128.353C318.071 128.353 316.77 128.065 315.618 127.489C314.466 126.891 313.559 126.049 312.898 124.961C312.258 123.851 311.938 122.561 311.938 121.089ZM315.554 121.121C315.554 122.337 315.927 123.361 316.674 124.193C317.42 125.003 318.348 125.409 319.458 125.409C320.61 125.409 321.548 125.003 322.274 124.193C323.02 123.382 323.394 122.358 323.394 121.121C323.394 119.883 323.02 118.859 322.274 118.049C321.548 117.217 320.61 116.801 319.458 116.801C318.348 116.801 317.42 117.227 316.674 118.081C315.927 118.913 315.554 119.926 315.554 121.121ZM339.704 113.857C340.962 113.857 342.104 114.155 343.128 114.753C344.152 115.35 344.952 116.203 345.528 117.313C346.104 118.422 346.392 119.713 346.392 121.185C346.392 122.635 346.072 123.905 345.432 124.993C344.813 126.081 343.938 126.913 342.808 127.489C341.698 128.065 340.44 128.353 339.032 128.353C338.136 128.353 337.272 128.171 336.44 127.809C335.608 127.446 334.925 126.955 334.392 126.337V134.497H330.808V114.209H333.912L334.232 116.225C334.936 115.499 335.746 114.923 336.664 114.497C337.602 114.07 338.616 113.857 339.704 113.857ZM338.328 125.505C339.117 125.505 339.842 125.323 340.504 124.961C341.186 124.577 341.73 124.065 342.136 123.425C342.541 122.785 342.744 122.059 342.744 121.249C342.744 119.99 342.338 118.955 341.528 118.145C340.738 117.313 339.757 116.897 338.584 116.897C337.538 116.897 336.653 117.153 335.928 117.665C335.224 118.177 334.712 118.891 334.392 119.809V122.529C334.605 123.403 335.064 124.118 335.768 124.673C336.493 125.227 337.346 125.505 338.328 125.505ZM367.751 113.857C369.073 113.857 370.119 114.23 370.887 114.977C371.676 115.723 372.092 116.705 372.135 117.921V128.001H368.583V119.297C368.54 118.571 368.38 118.017 368.103 117.633C367.825 117.227 367.367 117.003 366.727 116.961C365.617 116.961 364.721 117.462 364.039 118.465C363.356 119.446 363.004 120.598 362.983 121.921V128.001H359.367V119.297C359.324 118.593 359.153 118.038 358.855 117.633C358.577 117.227 358.108 117.003 357.447 116.961C356.721 116.961 356.081 117.195 355.527 117.665C354.972 118.134 354.535 118.753 354.215 119.521C353.916 120.289 353.767 121.089 353.767 121.921V128.001H350.183V114.465H353.415L353.703 116.833C354.215 115.873 354.908 115.137 355.783 114.625C356.657 114.113 357.66 113.857 358.791 113.857C359.879 113.857 360.785 114.102 361.511 114.593C362.257 115.062 362.748 115.745 362.983 116.641C363.537 115.766 364.241 115.083 365.095 114.593C365.948 114.102 366.833 113.857 367.751 113.857ZM383.586 125.281C384.588 125.281 385.602 124.929 386.626 124.225L388.258 126.881C387.532 127.329 386.754 127.691 385.922 127.969C385.09 128.225 384.29 128.353 383.522 128.353C381.964 128.353 380.61 128.043 379.458 127.425C378.327 126.806 377.452 125.953 376.834 124.865C376.236 123.777 375.938 122.529 375.938 121.121C375.938 119.798 376.279 118.582 376.962 117.473C377.644 116.363 378.572 115.489 379.746 114.849C380.919 114.187 382.199 113.857 383.586 113.857C385.42 113.857 386.946 114.401 388.162 115.489C389.378 116.555 390.188 118.07 390.594 120.033L380.162 123.553C380.524 124.107 381.004 124.534 381.602 124.833C382.199 125.131 382.86 125.281 383.586 125.281ZM383.298 116.673C382.167 116.673 381.239 117.067 380.514 117.857C379.81 118.646 379.458 119.67 379.458 120.929C379.458 121.163 379.468 121.345 379.49 121.473L386.594 118.945C386.316 118.283 385.911 117.739 385.378 117.313C384.844 116.886 384.151 116.673 383.298 116.673ZM402.952 113.889C404.211 113.889 405.256 114.273 406.088 115.041C406.942 115.787 407.379 116.758 407.4 117.953V128.001H403.816V119.233C403.774 118.529 403.56 117.974 403.176 117.569C402.814 117.163 402.259 116.95 401.512 116.929C400.403 116.929 399.486 117.409 398.76 118.369C398.056 119.307 397.704 120.513 397.704 121.985V128.001H394.12V114.465H397.352L397.608 116.865C398.099 115.926 398.803 115.201 399.72 114.689C400.659 114.155 401.736 113.889 402.952 113.889ZM417.235 108.513V114.465H420.755V117.281H417.235V128.001H413.651V117.281H411.315V114.465H413.651V108.513H417.235Z" fill="black"/>
<path d="M127.72 285.873V310.001H124.008V296.529L115.848 308.113H115.784L107.816 297.073V310.001H104.2V285.873H104.232L115.848 302.321L127.656 285.873H127.72ZM132.25 303.089C132.25 301.745 132.57 300.518 133.21 299.409C133.872 298.299 134.778 297.435 135.93 296.817C137.082 296.177 138.394 295.857 139.866 295.857C141.338 295.857 142.64 296.177 143.77 296.817C144.922 297.435 145.808 298.299 146.426 299.409C147.045 300.497 147.354 301.723 147.354 303.089C147.354 304.454 147.045 305.691 146.426 306.801C145.808 307.889 144.922 308.753 143.77 309.393C142.64 310.033 141.328 310.353 139.834 310.353C138.384 310.353 137.082 310.065 135.93 309.489C134.778 308.891 133.872 308.049 133.21 306.961C132.57 305.851 132.25 304.561 132.25 303.089ZM135.866 303.121C135.866 304.337 136.24 305.361 136.986 306.193C137.733 307.003 138.661 307.409 139.77 307.409C140.922 307.409 141.861 307.003 142.586 306.193C143.333 305.382 143.706 304.358 143.706 303.121C143.706 301.883 143.333 300.859 142.586 300.049C141.861 299.217 140.922 298.801 139.77 298.801C138.661 298.801 137.733 299.227 136.986 300.081C136.24 300.913 135.866 301.926 135.866 303.121ZM160.144 295.857C161.339 295.857 162.438 296.145 163.44 296.721C164.443 297.297 165.232 298.129 165.808 299.217C166.406 300.283 166.704 301.542 166.704 302.993C166.704 304.486 166.384 305.787 165.744 306.897C165.104 308.006 164.24 308.859 163.152 309.457C162.086 310.054 160.923 310.353 159.664 310.353C158.598 310.353 157.648 310.161 156.816 309.777C155.984 309.393 155.28 308.87 154.704 308.209V310.001H151.12V285.041H154.704V297.905C155.28 297.286 156.038 296.795 156.976 296.433C157.936 296.049 158.992 295.857 160.144 295.857ZM158.896 307.313C160.07 307.313 161.051 306.897 161.84 306.065C162.651 305.233 163.056 304.198 163.056 302.961C163.056 302.171 162.864 301.446 162.48 300.785C162.118 300.123 161.616 299.611 160.976 299.249C160.358 298.865 159.664 298.673 158.896 298.673C157.894 298.673 157.008 298.929 156.24 299.441C155.494 299.953 154.982 300.635 154.704 301.489V304.497C155.024 305.371 155.547 306.065 156.272 306.577C156.998 307.067 157.872 307.313 158.896 307.313ZM174.079 296.465V310.001H170.495V296.465H174.079ZM170.335 291.633C170.335 291.099 170.549 290.651 170.975 290.289C171.402 289.905 171.882 289.713 172.415 289.713C172.927 289.713 173.386 289.905 173.791 290.289C174.218 290.651 174.431 291.099 174.431 291.633C174.431 292.166 174.218 292.614 173.791 292.977C173.386 293.339 172.927 293.521 172.415 293.521C171.882 293.521 171.402 293.339 170.975 292.977C170.549 292.614 170.335 292.166 170.335 291.633ZM182.579 285.041V310.001H178.995V285.041H182.579ZM194.023 307.281C195.026 307.281 196.039 306.929 197.063 306.225L198.695 308.881C197.97 309.329 197.191 309.691 196.359 309.969C195.527 310.225 194.727 310.353 193.959 310.353C192.402 310.353 191.047 310.043 189.895 309.425C188.765 308.806 187.89 307.953 187.271 306.865C186.674 305.777 186.375 304.529 186.375 303.121C186.375 301.798 186.717 300.582 187.399 299.473C188.082 298.363 189.01 297.489 190.183 296.849C191.357 296.187 192.637 295.857 194.023 295.857C195.858 295.857 197.383 296.401 198.599 297.489C199.815 298.555 200.626 300.07 201.031 302.033L190.599 305.553C190.962 306.107 191.442 306.534 192.039 306.833C192.637 307.131 193.298 307.281 194.023 307.281ZM193.735 298.673C192.605 298.673 191.677 299.067 190.951 299.857C190.247 300.646 189.895 301.67 189.895 302.929C189.895 303.163 189.906 303.345 189.927 303.473L197.031 300.945C196.754 300.283 196.349 299.739 195.815 299.313C195.282 298.886 194.589 298.673 193.735 298.673ZM227.512 304.529H219.032L216.792 310.001H213.112L223.416 285.745H223.64L233.944 310.001H229.656L227.512 304.529ZM226.264 301.329L223.352 293.969L220.344 301.329H226.264ZM246.079 295.857C247.337 295.857 248.479 296.155 249.503 296.753C250.527 297.35 251.327 298.203 251.903 299.313C252.479 300.422 252.767 301.713 252.767 303.185C252.767 304.635 252.447 305.905 251.807 306.993C251.188 308.081 250.313 308.913 249.183 309.489C248.073 310.065 246.815 310.353 245.407 310.353C244.511 310.353 243.647 310.171 242.815 309.809C241.983 309.446 241.3 308.955 240.767 308.337V316.497H237.183V296.209H240.287L240.607 298.225C241.311 297.499 242.121 296.923 243.039 296.497C243.977 296.07 244.991 295.857 246.079 295.857ZM244.703 307.505C245.492 307.505 246.217 307.323 246.879 306.961C247.561 306.577 248.105 306.065 248.511 305.425C248.916 304.785 249.119 304.059 249.119 303.249C249.119 301.99 248.713 300.955 247.903 300.145C247.113 299.313 246.132 298.897 244.959 298.897C243.913 298.897 243.028 299.153 242.303 299.665C241.599 300.177 241.087 300.891 240.767 301.809V304.529C240.98 305.403 241.439 306.118 242.143 306.673C242.868 307.227 243.721 307.505 244.703 307.505ZM265.454 295.857C266.712 295.857 267.854 296.155 268.878 296.753C269.902 297.35 270.702 298.203 271.278 299.313C271.854 300.422 272.142 301.713 272.142 303.185C272.142 304.635 271.822 305.905 271.182 306.993C270.563 308.081 269.688 308.913 268.558 309.489C267.448 310.065 266.19 310.353 264.782 310.353C263.886 310.353 263.022 310.171 262.19 309.809C261.358 309.446 260.675 308.955 260.142 308.337V316.497H256.558V296.209H259.662L259.982 298.225C260.686 297.499 261.496 296.923 262.414 296.497C263.352 296.07 264.366 295.857 265.454 295.857ZM264.078 307.505C264.867 307.505 265.592 307.323 266.254 306.961C266.936 306.577 267.48 306.065 267.886 305.425C268.291 304.785 268.494 304.059 268.494 303.249C268.494 301.99 268.088 300.955 267.278 300.145C266.488 299.313 265.507 298.897 264.334 298.897C263.288 298.897 262.403 299.153 261.678 299.665C260.974 300.177 260.462 300.891 260.142 301.809V304.529C260.355 305.403 260.814 306.118 261.518 306.673C262.243 307.227 263.096 307.505 264.078 307.505ZM279.517 285.041V310.001H275.933V285.041H279.517ZM288.017 296.465V310.001H284.433V296.465H288.017ZM284.273 291.633C284.273 291.099 284.486 290.651 284.913 290.289C285.339 289.905 285.819 289.713 286.353 289.713C286.865 289.713 287.323 289.905 287.729 290.289C288.155 290.651 288.369 291.099 288.369 291.633C288.369 292.166 288.155 292.614 287.729 292.977C287.323 293.339 286.865 293.521 286.353 293.521C285.819 293.521 285.339 293.339 284.913 292.977C284.486 292.614 284.273 292.166 284.273 291.633ZM304.133 308.753C303.535 309.243 302.799 309.638 301.925 309.937C301.071 310.214 300.207 310.353 299.333 310.353C297.839 310.353 296.517 310.065 295.365 309.489C294.234 308.913 293.359 308.091 292.741 307.025C292.122 305.937 291.813 304.667 291.813 303.217C291.813 301.787 292.143 300.539 292.805 299.473C293.466 298.385 294.341 297.553 295.429 296.977C296.538 296.401 297.722 296.113 298.981 296.113C301.114 296.113 302.874 296.689 304.261 297.841L302.469 300.177C302.063 299.857 301.583 299.59 301.029 299.377C300.495 299.142 299.919 299.025 299.301 299.025C298.213 299.025 297.285 299.43 296.517 300.241C295.77 301.03 295.397 302.022 295.397 303.217C295.397 304.411 295.791 305.414 296.581 306.225C297.391 307.014 298.415 307.409 299.653 307.409C300.719 307.409 301.615 307.11 302.341 306.513L304.133 308.753ZM321.984 296.465V310.001H318.4V308.049C317.909 308.625 317.248 309.158 316.416 309.649C315.584 310.118 314.613 310.353 313.504 310.353C312.202 310.353 311.04 310.086 310.016 309.553C308.992 308.998 308.181 308.187 307.584 307.121C306.986 306.054 306.688 304.763 306.688 303.249C306.688 301.777 306.997 300.486 307.616 299.377C308.234 298.246 309.056 297.382 310.08 296.785C311.125 296.166 312.266 295.857 313.504 295.857C315.701 295.857 317.344 296.667 318.432 298.289L318.688 296.465H321.984ZM314.496 307.409C315.477 307.409 316.298 307.163 316.96 306.673C317.642 306.161 318.122 305.446 318.4 304.529V301.585C318.144 300.753 317.642 300.081 316.896 299.569C316.17 299.057 315.328 298.801 314.368 298.801C313.237 298.801 312.277 299.206 311.488 300.017C310.698 300.806 310.304 301.819 310.304 303.057C310.304 303.867 310.496 304.603 310.88 305.265C311.264 305.926 311.776 306.449 312.416 306.833C313.056 307.217 313.749 307.409 314.496 307.409ZM331.829 290.513V296.465H335.349V299.281H331.829V310.001H328.245V299.281H325.909V296.465H328.245V290.513H331.829ZM342.454 296.465V310.001H338.87V296.465H342.454ZM338.71 291.633C338.71 291.099 338.924 290.651 339.35 290.289C339.777 289.905 340.257 289.713 340.79 289.713C341.302 289.713 341.761 289.905 342.166 290.289C342.593 290.651 342.806 291.099 342.806 291.633C342.806 292.166 342.593 292.614 342.166 292.977C341.761 293.339 341.302 293.521 340.79 293.521C340.257 293.521 339.777 293.339 339.35 292.977C338.924 292.614 338.71 292.166 338.71 291.633ZM346.25 303.089C346.25 301.745 346.57 300.518 347.21 299.409C347.872 298.299 348.778 297.435 349.93 296.817C351.082 296.177 352.394 295.857 353.866 295.857C355.338 295.857 356.64 296.177 357.77 296.817C358.922 297.435 359.808 298.299 360.426 299.409C361.045 300.497 361.354 301.723 361.354 303.089C361.354 304.454 361.045 305.691 360.426 306.801C359.808 307.889 358.922 308.753 357.77 309.393C356.64 310.033 355.328 310.353 353.834 310.353C352.384 310.353 351.082 310.065 349.93 309.489C348.778 308.891 347.872 308.049 347.21 306.961C346.57 305.851 346.25 304.561 346.25 303.089ZM349.866 303.121C349.866 304.337 350.24 305.361 350.986 306.193C351.733 307.003 352.661 307.409 353.77 307.409C354.922 307.409 355.861 307.003 356.586 306.193C357.333 305.382 357.706 304.358 357.706 303.121C357.706 301.883 357.333 300.859 356.586 300.049C355.861 299.217 354.922 298.801 353.77 298.801C352.661 298.801 351.733 299.227 350.986 300.081C350.24 300.913 349.866 301.926 349.866 303.121ZM373.952 295.889C375.211 295.889 376.256 296.273 377.088 297.041C377.942 297.787 378.379 298.758 378.4 299.953V310.001H374.816V301.233C374.774 300.529 374.56 299.974 374.176 299.569C373.814 299.163 373.259 298.95 372.512 298.929C371.403 298.929 370.486 299.409 369.76 300.369C369.056 301.307 368.704 302.513 368.704 303.985V310.001H365.12V296.465H368.352L368.608 298.865C369.099 297.926 369.803 297.201 370.72 296.689C371.659 296.155 372.736 295.889 373.952 295.889Z" fill="black"/>
<path d="M16.0208 11.0208C14.9323 12.1094 14.875 12.9115 14.875 30.5C14.875 48.0885 14.9323 48.8906 16.0208 49.9792C17.1094 51.0677 17.9115 51.125 35.5 51.125C53.0885 51.125 53.8906 51.0677 54.9792 49.9792C56.0677 48.8906 56.125 48.0885 56.125 30.5C56.125 12.9115 56.0677 12.1094 54.9792 11.0208C53.8906 9.93229 53.0885 9.875 35.5 9.875C17.9115 9.875 17.1094 9.93229 16.0208 11.0208ZM51.5417 16.75V19.0417H43.5208H35.5V16.75V14.4583H43.5208H51.5417V16.75ZM51.5417 35.0833V46.5417H35.5H19.4583V35.0833V23.625H35.5H51.5417V35.0833Z" fill="black"/>
<path d="M24.0417 30.5V32.7917H29.7709H35.5V30.5V28.2083H29.7709H24.0417V30.5Z" fill="black"/>
<path d="M40.0833 35.0833V41.9583H43.5208H46.9583V35.0833V28.2083H43.5208H40.0833V35.0833Z" fill="black"/>
<path d="M24.0417 39.6667V41.9583H29.7709H35.5V39.6667V37.375H29.7709H24.0417V39.6667Z" fill="black"/>
<path d="M16.0208 99.0208C14.9323 100.109 14.875 100.911 14.875 118.5C14.875 136.089 14.9323 136.891 16.0208 137.979C17.1094 139.068 17.9115 139.125 35.5 139.125C53.0885 139.125 53.8906 139.068 54.9792 137.979C56.0677 136.891 56.125 136.089 56.125 118.5C56.125 100.911 56.0677 100.109 54.9792 99.0208C53.8906 97.9323 53.0885 97.875 35.5 97.875C17.9115 97.875 17.1094 97.9323 16.0208 99.0208ZM51.5417 120.792V134.542H35.5H19.4583V120.792V107.042H35.5H51.5417V120.792Z" fill="black"/>
<path d="M26.9063 117.068L23.1823 120.792L27.0209 124.63C30.8021 128.411 30.8594 128.469 32.0625 127.38C33.6094 125.948 33.5521 125.49 31.0886 122.969L28.9688 120.792L31.0886 118.615C32.2344 117.411 33.2084 116.151 33.2084 115.865C33.2084 115.292 31.375 113.344 30.8594 113.344C30.6875 113.344 28.9115 115.005 26.9063 117.068Z" fill="black"/>
<path d="M38.7656 114.375C37.4479 115.865 37.5052 116.151 39.9115 118.615L42.0313 120.792L39.9115 122.969C37.4479 125.49 37.3906 125.948 38.9375 127.38C40.1406 128.469 40.1979 128.411 43.9792 124.63L47.8177 120.792L44.0938 117.068C42.0886 115.005 40.2552 113.344 40.0261 113.344C39.8542 113.344 39.2813 113.802 38.7656 114.375Z" fill="black"/>
<path d="M13.125 192.208C12.1354 193.198 12.0833 193.927 12.0833 207.833C12.0833 221.74 12.1354 222.469 13.125 223.458C14.0625 224.396 14.8437 224.5 22.2396 224.5C29.0625 224.5 30.3125 224.604 30.3125 225.281C30.3125 226.271 28.4375 228.146 27.4479 228.146C26.875 228.146 26.6666 228.771 26.6666 230.49V232.833H35H43.3333V230.49C43.3333 228.771 43.125 228.146 42.5521 228.146C41.5625 228.146 39.6875 226.271 39.6875 225.281C39.6875 224.604 40.9375 224.5 47.7604 224.5C55.1562 224.5 55.9375 224.396 56.875 223.458C57.8646 222.469 57.9166 221.74 57.9166 207.833C57.9166 193.927 57.8646 193.198 56.875 192.208C55.8854 191.219 55.1562 191.167 35 191.167C14.8437 191.167 14.1146 191.219 13.125 192.208ZM53.75 205.75V216.167H35H16.25V205.75V195.333H35H53.75V205.75Z" fill="black"/>
<path d="M17.2667 287.6C15.9445 288.922 15.9445 345.078 17.2667 346.4C18.5889 347.722 51.4111 347.722 52.7334 346.4C54.0556 345.078 54.0556 288.922 52.7334 287.6C51.4111 286.278 18.5889 286.278 17.2667 287.6ZM49 315.833V340.333H44.2556C41.1445 340.333 39.2 340.722 38.4222 341.5C36.8667 342.978 33.1334 342.978 31.5778 341.5C30.8 340.722 28.8556 340.333 25.7445 340.333H21V315.833V291.333H35H49V315.833Z" fill="black"/>
<path d="M28.3111 304.167C28 304.789 28.2333 305.8 28.6222 306.344C29.1667 306.967 29.1667 307.744 28.7778 308.444C28.3111 309.067 28 310.233 28 310.933C28 312.178 28.8556 312.333 35 312.333C41.1444 312.333 42 312.178 42 310.933C42 310.233 41.6889 309.144 41.3 308.522C40.8333 307.822 40.9111 306.889 41.4556 306.033C42.8556 303.778 40.9889 302.3 39.0444 304.011C37.2556 305.644 32.4333 305.722 31.1111 304.167C29.8667 302.689 28.8556 302.689 28.3111 304.167Z" fill="black"/>
<path d="M25.6667 318.167C25.6667 320.733 25.9778 321.667 26.8334 321.667C27.4556 321.667 28 322.211 28 322.833C28 323.456 28.5445 324 29.1667 324C29.9445 324 30.3334 324.778 30.3334 326.333C30.3334 327.889 30.7222 328.667 31.5 328.667C32.2778 328.667 32.6667 327.889 32.6667 326.333C32.6667 324.233 32.9 324 35 324C37.1 324 37.3334 324.233 37.3334 326.333C37.3334 327.889 37.7222 328.667 38.5 328.667C39.2778 328.667 39.6667 327.889 39.6667 326.333C39.6667 324.778 40.0556 324 40.8334 324C41.4556 324 42 323.456 42 322.833C42 322.211 42.5445 321.667 43.1667 321.667C44.0222 321.667 44.3334 320.733 44.3334 318.167V314.667H35H25.6667V318.167Z" fill="black"/>
<path d="M112.376 341.896H106.016L104.336 346H101.576L109.304 327.808H109.472L117.2 346H113.984L112.376 341.896ZM111.44 339.496L109.256 333.976L107 339.496H111.44ZM126.253 335.416C127.197 335.416 127.981 335.704 128.605 336.28C129.245 336.84 129.573 337.568 129.589 338.464V346H126.901V339.424C126.869 338.896 126.709 338.48 126.421 338.176C126.149 337.872 125.733 337.712 125.173 337.696C124.341 337.696 123.653 338.056 123.109 338.776C122.581 339.48 122.317 340.384 122.317 341.488V346H119.629V335.848H122.053L122.245 337.648C122.613 336.944 123.141 336.4 123.829 336.016C124.533 335.616 125.341 335.416 126.253 335.416ZM144.117 327.28V346H141.429V344.632C140.309 345.72 138.981 346.264 137.445 346.264C136.501 346.264 135.645 346.04 134.877 345.592C134.125 345.144 133.533 344.504 133.101 343.672C132.669 342.84 132.453 341.872 132.453 340.768C132.453 339.664 132.677 338.704 133.125 337.888C133.589 337.072 134.221 336.456 135.021 336.04C135.837 335.608 136.757 335.392 137.781 335.392C138.517 335.392 139.213 335.536 139.869 335.824C140.525 336.096 141.053 336.472 141.453 336.952V327.28H144.117ZM138.309 343.984C139.077 343.984 139.733 343.792 140.277 343.408C140.821 343.024 141.205 342.488 141.429 341.8V339.64C141.237 339.016 140.853 338.504 140.277 338.104C139.717 337.704 139.061 337.504 138.309 337.504C137.749 337.504 137.229 337.648 136.749 337.936C136.269 338.208 135.885 338.592 135.597 339.088C135.309 339.568 135.165 340.112 135.165 340.72C135.165 341.328 135.309 341.88 135.597 342.376C135.885 342.872 136.269 343.264 136.749 343.552C137.229 343.84 137.749 343.984 138.309 343.984ZM150.441 338.2C150.713 337.656 151.097 337.168 151.593 336.736C152.089 336.304 152.593 335.976 153.105 335.752C153.633 335.512 154.073 335.392 154.425 335.392L154.305 338.08C153.569 338.016 152.913 338.152 152.337 338.488C151.761 338.808 151.313 339.256 150.993 339.832C150.673 340.392 150.513 340.992 150.513 341.632V346H147.825V335.848H150.249L150.441 338.2ZM155.891 340.816C155.891 339.808 156.131 338.888 156.611 338.056C157.107 337.224 157.787 336.576 158.651 336.112C159.515 335.632 160.499 335.392 161.603 335.392C162.707 335.392 163.683 335.632 164.531 336.112C165.395 336.576 166.059 337.224 166.523 338.056C166.987 338.872 167.219 339.792 167.219 340.816C167.219 341.84 166.987 342.768 166.523 343.6C166.059 344.416 165.395 345.064 164.531 345.544C163.683 346.024 162.699 346.264 161.579 346.264C160.491 346.264 159.515 346.048 158.651 345.616C157.787 345.168 157.107 344.536 156.611 343.72C156.131 342.888 155.891 341.92 155.891 340.816ZM158.603 340.84C158.603 341.752 158.883 342.52 159.443 343.144C160.003 343.752 160.699 344.056 161.531 344.056C162.395 344.056 163.099 343.752 163.643 343.144C164.203 342.536 164.483 341.768 164.483 340.84C164.483 339.912 164.203 339.144 163.643 338.536C163.099 337.912 162.395 337.6 161.531 337.6C160.699 337.6 160.003 337.92 159.443 338.56C158.883 339.184 158.603 339.944 158.603 340.84ZM172.731 335.848V346H170.043V335.848H172.731ZM169.923 332.224C169.923 331.824 170.083 331.488 170.403 331.216C170.723 330.928 171.083 330.784 171.483 330.784C171.867 330.784 172.211 330.928 172.515 331.216C172.835 331.488 172.995 331.824 172.995 332.224C172.995 332.624 172.835 332.96 172.515 333.232C172.211 333.504 171.867 333.64 171.483 333.64C171.083 333.64 170.723 333.504 170.403 333.232C170.083 332.96 169.923 332.624 169.923 332.224ZM187.242 327.28V346H184.554V344.632C183.434 345.72 182.106 346.264 180.57 346.264C179.626 346.264 178.77 346.04 178.002 345.592C177.25 345.144 176.658 344.504 176.226 343.672C175.794 342.84 175.578 341.872 175.578 340.768C175.578 339.664 175.802 338.704 176.25 337.888C176.714 337.072 177.346 336.456 178.146 336.04C178.962 335.608 179.882 335.392 180.906 335.392C181.642 335.392 182.338 335.536 182.994 335.824C183.65 336.096 184.178 336.472 184.578 336.952V327.28H187.242ZM181.434 343.984C182.202 343.984 182.858 343.792 183.402 343.408C183.946 343.024 184.33 342.488 184.554 341.8V339.64C184.362 339.016 183.978 338.504 183.402 338.104C182.842 337.704 182.186 337.504 181.434 337.504C180.874 337.504 180.354 337.648 179.874 337.936C179.394 338.208 179.01 338.592 178.722 339.088C178.434 339.568 178.29 340.112 178.29 340.72C178.29 341.328 178.434 341.88 178.722 342.376C179.01 342.872 179.394 343.264 179.874 343.552C180.354 343.84 180.874 343.984 181.434 343.984ZM206.413 328.048C203.965 334.72 201.701 340.856 199.621 346.456H197.197C197.965 344.408 199.101 341.336 200.605 337.24L203.989 328.048H206.413ZM218.599 335.848V346H215.911V335.848H218.599ZM215.791 332.224C215.791 331.824 215.951 331.488 216.271 331.216C216.591 330.928 216.951 330.784 217.351 330.784C217.735 330.784 218.079 330.928 218.383 331.216C218.703 331.488 218.863 331.824 218.863 332.224C218.863 332.624 218.703 332.96 218.383 333.232C218.079 333.504 217.735 333.64 217.351 333.64C216.951 333.64 216.591 333.504 216.271 333.232C215.951 332.96 215.791 332.624 215.791 332.224ZM221.758 337.288C221.758 335.688 222.158 334.208 222.958 332.848C223.758 331.472 224.838 330.376 226.198 329.56C227.574 328.744 229.07 328.336 230.686 328.336C232.286 328.336 233.766 328.744 235.126 329.56C236.502 330.376 237.598 331.472 238.414 332.848C239.23 334.224 239.638 335.704 239.638 337.288C239.638 338.904 239.23 340.392 238.414 341.752C237.614 343.112 236.526 344.192 235.15 344.992C233.774 345.792 232.286 346.192 230.686 346.192C229.07 346.192 227.574 345.8 226.198 345.016C224.838 344.216 223.758 343.136 222.958 341.776C222.158 340.416 221.758 338.92 221.758 337.288ZM224.638 337.288C224.638 338.424 224.91 339.464 225.454 340.408C225.998 341.352 226.734 342.104 227.662 342.664C228.606 343.224 229.638 343.504 230.758 343.504C231.862 343.504 232.87 343.232 233.782 342.688C234.694 342.128 235.414 341.376 235.942 340.432C236.486 339.472 236.758 338.424 236.758 337.288C236.758 336.152 236.486 335.104 235.942 334.144C235.398 333.184 234.662 332.424 233.734 331.864C232.806 331.304 231.79 331.024 230.686 331.024C229.566 331.024 228.542 331.304 227.614 331.864C226.702 332.424 225.974 333.184 225.43 334.144C224.902 335.104 224.638 336.152 224.638 337.288ZM252.537 332.08C251.033 331.296 249.697 330.904 248.529 330.904C247.665 330.904 246.977 331.096 246.465 331.48C245.969 331.864 245.721 332.392 245.721 333.064C245.721 333.72 246.033 334.272 246.657 334.72C247.297 335.152 248.185 335.584 249.321 336.016C250.185 336.32 250.921 336.672 251.529 337.072C252.153 337.456 252.665 337.984 253.065 338.656C253.465 339.328 253.665 340.176 253.665 341.2C253.665 342.128 253.433 342.968 252.969 343.72C252.505 344.472 251.833 345.072 250.953 345.52C250.073 345.968 249.033 346.192 247.833 346.192C246.777 346.192 245.737 346.032 244.713 345.712C243.689 345.376 242.777 344.92 241.977 344.344L243.225 342.16C243.817 342.608 244.513 342.984 245.313 343.288C246.129 343.576 246.881 343.72 247.569 343.72C248.417 343.72 249.161 343.52 249.801 343.12C250.441 342.704 250.761 342.072 250.761 341.224C250.761 340.552 250.489 339.992 249.945 339.544C249.417 339.096 248.673 338.688 247.713 338.32C246.721 337.952 245.897 337.592 245.241 337.24C244.585 336.872 244.017 336.368 243.537 335.728C243.073 335.072 242.841 334.256 242.841 333.28C242.841 331.856 243.321 330.712 244.281 329.848C245.257 328.968 246.537 328.496 248.121 328.432C249.273 328.432 250.281 328.568 251.145 328.84C252.025 329.096 252.841 329.464 253.593 329.944L252.537 332.08Z" fill="black"/>
<defs>
<filter id="filter0_b" x="-1" y="178" width="476" height="68" filterUnits="userSpaceOnUse" color-interpolation-filters="sRGB">
<feFlood flood-opacity="0" result="BackgroundImageFix"/>
<feGaussianBlur in="BackgroundImage" stdDeviation="2"/>
<feComposite in2="SourceAlpha" operator="in" result="effect1_backgroundBlur"/>
<feBlend mode="normal" in="SourceGraphic" in2="effect1_backgroundBlur" result="shape"/>
</filter>
<filter id="filter1_b" x="-1" y="-4" width="476" height="68" filterUnits="userSpaceOnUse" color-interpolation-filters="sRGB">
<feFlood flood-opacity="0" result="BackgroundImageFix"/>
<feGaussianBlur in="BackgroundImage" stdDeviation="2"/>
<feComposite in2="SourceAlpha" operator="in" result="effect1_backgroundBlur"/>
<feBlend mode="normal" in="SourceGraphic" in2="effect1_backgroundBlur" result="shape"/>
</filter>
<filter id="filter2_b" x="-1" y="85" width="476" height="68" filterUnits="userSpaceOnUse" color-interpolation-filters="sRGB">
<feFlood flood-opacity="0" result="BackgroundImageFix"/>
<feGaussianBlur in="BackgroundImage" stdDeviation="2"/>
<feComposite in2="SourceAlpha" operator="in" result="effect1_backgroundBlur"/>
<feBlend mode="normal" in="SourceGraphic" in2="effect1_backgroundBlur" result="shape"/>
</filter>
<filter id="filter3_b" x="-1" y="268" width="476" height="98" filterUnits="userSpaceOnUse" color-interpolation-filters="sRGB">
<feFlood flood-opacity="0" result="BackgroundImageFix"/>
<feGaussianBlur in="BackgroundImage" stdDeviation="2"/>
<feComposite in2="SourceAlpha" operator="in" result="effect1_backgroundBlur"/>
<feBlend mode="normal" in="SourceGraphic" in2="effect1_backgroundBlur" result="shape"/>
</filter>
</defs>
</svg>

