<?xml version="1.0" standalone="no"?>
<!DOCTYPE svg PUBLIC "-//W3C//DTD SVG 20010904//EN"
 "http://www.w3.org/TR/2001/REC-SVG-20010904/DTD/svg10.dtd">
<svg version="1.0" xmlns="http://www.w3.org/2000/svg"
 width="96.000000pt" height="96.000000pt" viewBox="0 0 96.000000 96.000000"
 preserveAspectRatio="xMidYMid meet">
<metadata>
Created by potrace 1.16, written by Peter Selinger 2001-2019
</metadata>
<g transform="translate(0.000000,96.000000) scale(0.100000,-0.100000)"
fill="#000000" stroke="none">
<path d="M127 833 c-13 -12 -7 -138 8 -198 22 -83 73 -189 129 -262 112 -148
333 -258 503 -251 l68 3 3 100 c3 113 -3 125 -69 125 -21 0 -60 5 -89 12 l-51
12 -52 -52 -52 -51 -45 31 c-62 42 -135 113 -175 173 l-34 50 52 52 51 52 -12
51 c-7 29 -12 67 -12 86 0 68 -9 74 -119 74 -54 0 -101 -3 -104 -7z"/>
<path d="M680 782 l0 -62 -100 0 -100 0 0 -40 0 -40 100 0 100 0 0 -62 0 -63
82 83 83 82 -83 82 -82 83 0 -63z"/>
</g>
</svg>
