<svg width="552" height="575" viewBox="0 0 552 575" fill="none" xmlns="http://www.w3.org/2000/svg">
<path fill-rule="evenodd" clip-rule="evenodd" d="M10 0C4.47715 0 0 4.47715 0 10V53V83V126C0 131.523 4.47715 136 10 136H433C438.523 136 443 131.523 443 126V53C443 47.4772 438.523 43 433 43H276V10C276 4.47715 271.523 0 266 0H10Z" fill="white"/>
<path d="M26.424 19.44C24.4187 18.3947 22.6373 17.872 21.08 17.872C19.928 17.872 19.0107 18.128 18.328 18.64C17.6667 19.152 17.336 19.856 17.336 20.752C17.336 21.6267 17.752 22.3627 18.584 22.96C19.4373 23.536 20.6213 24.112 22.136 24.688C23.288 25.0933 24.2693 25.5627 25.08 26.096C25.912 26.608 26.5947 27.312 27.128 28.208C27.6613 29.104 27.928 30.2347 27.928 31.6C27.928 32.8373 27.6187 33.9573 27 34.96C26.3813 35.9627 25.4853 36.7627 24.312 37.36C23.1387 37.9573 21.752 38.256 20.152 38.256C18.744 38.256 17.3573 38.0427 15.992 37.616C14.6267 37.168 13.4107 36.56 12.344 35.792L14.008 32.88C14.7973 33.4773 15.7253 33.9787 16.792 34.384C17.88 34.768 18.8827 34.96 19.8 34.96C20.9307 34.96 21.9227 34.6933 22.776 34.16C23.6293 33.6053 24.056 32.7627 24.056 31.632C24.056 30.736 23.6933 29.9893 22.968 29.392C22.264 28.7947 21.272 28.2507 19.992 27.76C18.6693 27.2693 17.5707 26.7893 16.696 26.32C15.8213 25.8293 15.064 25.1573 14.424 24.304C13.8053 23.4293 13.496 22.3413 13.496 21.04C13.496 19.1413 14.136 17.616 15.416 16.464C16.7173 15.2907 18.424 14.6613 20.536 14.576C22.072 14.576 23.416 14.7573 24.568 15.12C25.7413 15.4613 26.8293 15.952 27.832 16.592L26.424 19.44ZM39.417 14.704C42.0623 14.704 44.1317 15.3653 45.625 16.688C47.1183 18.0107 47.865 19.8453 47.865 22.192C47.865 23.536 47.5983 24.7947 47.065 25.968C46.5317 27.12 45.6677 28.0693 44.473 28.816C43.2997 29.5413 41.785 29.904 39.929 29.904H36.569V38H32.825V14.704H39.417ZM39.929 26.32C40.953 26.32 41.7743 26.1067 42.393 25.68C43.033 25.232 43.481 24.6987 43.737 24.08C44.0143 23.44 44.153 22.832 44.153 22.256C44.153 21.2747 43.833 20.368 43.193 19.536C42.5743 18.704 41.5183 18.288 40.025 18.288H36.569V26.32H39.929ZM67.8435 14.704V18.288H56.1315V24.496H66.5635V28.08H56.1315V34.416H68.2915V38H52.3875V14.704H67.8435ZM90.73 36.176C90.0473 36.6667 89.098 37.136 87.882 37.584C86.6873 38.032 85.3753 38.256 83.946 38.256C81.5353 38.256 79.4233 37.7333 77.61 36.688C75.818 35.6213 74.4313 34.2027 73.45 32.432C72.49 30.64 72.01 28.6773 72.01 26.544C72.01 24.2187 72.49 22.1387 73.45 20.304C74.4313 18.4693 75.786 17.04 77.514 16.016C79.2633 14.9707 81.2473 14.448 83.466 14.448C84.8313 14.448 86.09 14.6293 87.242 14.992C88.4153 15.3547 89.45 15.8133 90.346 16.368L88.874 19.856C87.146 18.64 85.386 18.032 83.594 18.032C82.2287 18.032 80.9487 18.4053 79.754 19.152C78.5807 19.8773 77.642 20.88 76.938 22.16C76.234 23.4187 75.882 24.8053 75.882 26.32C75.882 27.92 76.202 29.36 76.842 30.64C77.5033 31.8987 78.4313 32.8907 79.626 33.616C80.842 34.32 82.2393 34.672 83.818 34.672C84.9487 34.672 85.962 34.5013 86.858 34.16C87.7753 33.8187 88.5433 33.3813 89.162 32.848L90.73 36.176ZM99.444 14.704V38H95.7V14.704H99.444ZM117.824 32.528H109.344L107.104 38H103.424L113.728 13.744H113.952L124.256 38H119.968L117.824 32.528ZM116.576 29.328L113.664 21.968L110.656 29.328H116.576ZM131.975 14.704V34.416H143.463V38H128.231V14.704H131.975ZM152.132 14.704V38H148.388V14.704H152.132ZM176.56 34.416V38H156.88C157.114 37.6587 159.184 34.512 163.088 28.56C166.33 23.5467 168.57 20.1227 169.808 18.288H161.168C160.464 18.288 159.813 18.0853 159.216 17.68C158.64 17.2747 158.352 16.7733 158.352 16.176V13.52H161.808V13.968C161.808 14.3307 161.861 14.544 161.968 14.608C162.096 14.672 162.373 14.704 162.8 14.704H176.368L163.28 34.416H176.56ZM196.906 14.704V18.288H185.194V24.496H195.626V28.08H185.194V34.416H197.354V38H181.45V14.704H196.906ZM214.737 19.44C212.731 18.3947 210.95 17.872 209.393 17.872C208.241 17.872 207.323 18.128 206.641 18.64C205.979 19.152 205.649 19.856 205.649 20.752C205.649 21.6267 206.065 22.3627 206.897 22.96C207.75 23.536 208.934 24.112 210.449 24.688C211.601 25.0933 212.582 25.5627 213.393 26.096C214.225 26.608 214.907 27.312 215.441 28.208C215.974 29.104 216.241 30.2347 216.241 31.6C216.241 32.8373 215.931 33.9573 215.312 34.96C214.694 35.9627 213.798 36.7627 212.625 37.36C211.451 37.9573 210.065 38.256 208.465 38.256C207.057 38.256 205.67 38.0427 204.305 37.616C202.939 37.168 201.723 36.56 200.657 35.792L202.321 32.88C203.11 33.4773 204.038 33.9787 205.105 34.384C206.193 34.768 207.195 34.96 208.113 34.96C209.243 34.96 210.235 34.6933 211.089 34.16C211.942 33.6053 212.369 32.7627 212.369 31.632C212.369 30.736 212.006 29.9893 211.281 29.392C210.577 28.7947 209.585 28.2507 208.305 27.76C206.982 27.2693 205.883 26.7893 205.009 26.32C204.134 25.8293 203.377 25.1573 202.737 24.304C202.118 23.4293 201.809 22.3413 201.809 21.04C201.809 19.1413 202.449 17.616 203.729 16.464C205.03 15.2907 206.737 14.6613 208.849 14.576C210.385 14.576 211.729 14.7573 212.881 15.12C214.054 15.4613 215.142 15.952 216.145 16.592L214.737 19.44ZM235.132 14.704V38H231.388V14.704H235.132ZM262.12 14.704V38.832H262.024L245.224 22.544L245.32 38H241.544V13.904H241.736L258.472 30.384L258.408 14.704H262.12Z" fill="#0066B3"/>
<path d="M62.2 111.44C60.4933 112.667 58.12 113.84 55.08 114.96C52.0933 116.08 48.8133 116.64 45.24 116.64C39.2133 116.64 33.9333 115.333 29.4 112.72C24.92 110.053 21.4533 106.507 19 102.08C16.6 97.6 15.4 92.6933 15.4 87.36C15.4 81.5467 16.6 76.3467 19 71.76C21.4533 67.1733 24.84 63.6 29.16 61.04C33.5333 58.4267 38.4933 57.12 44.04 57.12C47.4533 57.12 50.6 57.5733 53.48 58.48C56.4133 59.3867 59 60.5333 61.24 61.92L57.56 70.64C53.24 67.6 48.84 66.08 44.36 66.08C40.9467 66.08 37.7467 67.0133 34.76 68.88C31.8267 70.6933 29.48 73.2 27.72 76.4C25.96 79.5467 25.08 83.0133 25.08 86.8C25.08 90.8 25.88 94.4 27.48 97.6C29.1333 100.747 31.4533 103.227 34.44 105.04C37.48 106.8 40.9733 107.68 44.92 107.68C47.7467 107.68 50.28 107.253 52.52 106.4C54.8133 105.547 56.7333 104.453 58.28 103.12L62.2 111.44ZM106.465 116L93.345 95.76H92.385H83.985V116H74.625V57.76H91.025C97.5317 57.76 102.732 59.4133 106.625 62.72C110.572 66.0267 112.545 70.6133 112.545 76.48C112.545 80.0533 111.772 83.3867 110.225 86.48C108.732 89.52 106.358 91.8667 103.105 93.52L117.265 116H106.465ZM83.985 86.8H92.305C96.0383 86.8 98.7317 85.7867 100.385 83.76C102.092 81.68 102.945 79.36 102.945 76.8C102.945 75.3067 102.625 73.8133 101.985 72.32C101.345 70.7733 100.252 69.4667 98.705 68.4C97.1583 67.28 95.1317 66.72 92.625 66.72H83.985V86.8ZM166.859 57.76V66.72H137.579V82.24H163.659V91.2H137.579V107.04H167.979V116H128.219V57.76H166.859ZM210.795 102.32H189.595L183.995 116H174.795L200.555 55.36H201.115L226.875 116H216.155L210.795 102.32ZM207.675 94.32L200.395 75.92L192.875 94.32H207.675ZM267.003 57.76V66.72H251.963V116H242.683V66.72H228.043V57.76H267.003ZM288.204 57.76V116H278.844V57.76H288.204ZM300.634 86.96C300.634 81.6267 301.968 76.6933 304.634 72.16C307.301 67.5733 310.901 63.92 315.434 61.2C320.021 58.48 325.008 57.12 330.394 57.12C335.728 57.12 340.661 58.48 345.194 61.2C349.781 63.92 353.434 67.5733 356.154 72.16C358.874 76.7467 360.234 81.68 360.234 86.96C360.234 92.3467 358.874 97.3067 356.154 101.84C353.488 106.373 349.861 109.973 345.274 112.64C340.688 115.307 335.728 116.64 330.394 116.64C325.008 116.64 320.021 115.333 315.434 112.72C310.901 110.053 307.301 106.453 304.634 101.92C301.968 97.3867 300.634 92.4 300.634 86.96ZM310.234 86.96C310.234 90.7467 311.141 94.2133 312.954 97.36C314.768 100.507 317.221 103.013 320.314 104.88C323.461 106.747 326.901 107.68 330.634 107.68C334.314 107.68 337.674 106.773 340.714 104.96C343.754 103.093 346.154 100.587 347.914 97.44C349.728 94.24 350.634 90.7467 350.634 86.96C350.634 83.1733 349.728 79.68 347.914 76.48C346.101 73.28 343.648 70.7467 340.554 68.88C337.461 67.0133 334.074 66.08 330.394 66.08C326.661 66.08 323.248 67.0133 320.154 68.88C317.114 70.7467 314.688 73.28 312.874 76.48C311.114 79.68 310.234 83.1733 310.234 86.96ZM424.112 57.76V118.08H423.872L381.872 77.36L382.112 116H372.672V55.76H373.152L414.992 96.96L414.832 57.76H424.112Z" fill="#222D5B"/>
<circle cx="330" cy="87" r="15" fill="#FDB813"/>
<g filter="url(#filter0_b)">
<path d="M93.9363 400.028C93.9363 394.505 98.4134 390.028 103.936 390.028H542C547.523 390.028 552 394.505 552 400.028V441.685C552 447.208 547.523 451.685 542 451.685H103.936C98.4134 451.685 93.9363 447.208 93.9363 441.685V400.028Z" fill="#FDB717"/>
</g>
<path d="M193.056 405.119H199.68C202.602 405.119 205.013 405.695 206.912 406.847C208.832 407.999 210.229 409.482 211.104 411.295C211.978 413.108 212.416 415.039 212.416 417.087C212.416 419.348 211.882 421.343 210.816 423.071C209.77 424.778 208.362 426.1 206.592 427.039C204.821 427.956 202.89 428.415 200.8 428.415H193.056V405.119ZM200.128 424.831C201.792 424.831 203.253 424.522 204.512 423.903C205.792 423.284 206.784 422.378 207.488 421.183C208.213 419.967 208.576 418.516 208.576 416.831C208.576 414.996 208.181 413.471 207.392 412.255C206.624 411.018 205.632 410.111 204.416 409.535C203.221 408.959 201.984 408.671 200.704 408.671H196.8V424.831H200.128ZM223.191 425.695C224.194 425.695 225.207 425.343 226.231 424.639L227.863 427.295C227.138 427.743 226.359 428.106 225.527 428.383C224.695 428.639 223.895 428.767 223.127 428.767C221.57 428.767 220.215 428.458 219.063 427.839C217.933 427.22 217.058 426.367 216.439 425.279C215.842 424.191 215.543 422.943 215.543 421.535C215.543 420.212 215.885 418.996 216.567 417.887C217.25 416.778 218.178 415.903 219.351 415.263C220.525 414.602 221.805 414.271 223.191 414.271C225.026 414.271 226.551 414.815 227.767 415.903C228.983 416.97 229.794 418.484 230.199 420.447L219.767 423.967C220.13 424.522 220.61 424.948 221.207 425.247C221.805 425.546 222.466 425.695 223.191 425.695ZM222.903 417.087C221.773 417.087 220.845 417.482 220.119 418.271C219.415 419.06 219.063 420.084 219.063 421.343C219.063 421.578 219.074 421.759 219.095 421.887L226.199 419.359C225.922 418.698 225.517 418.154 224.983 417.727C224.45 417.3 223.757 417.087 222.903 417.087ZM237.79 428.703C236.745 428.703 235.753 428.522 234.814 428.159C233.897 427.775 233.139 427.242 232.542 426.559L234.046 424.543C235.177 425.652 236.329 426.207 237.502 426.207C238.142 426.207 238.665 426.09 239.07 425.855C239.497 425.599 239.71 425.226 239.71 424.735C239.71 424.223 239.497 423.839 239.07 423.583C238.643 423.327 238.163 423.124 237.63 422.975C237.118 422.804 236.787 422.698 236.638 422.655C235.465 422.292 234.59 421.77 234.014 421.087C233.438 420.383 233.15 419.562 233.15 418.623C233.15 417.876 233.331 417.183 233.694 416.543C234.078 415.882 234.643 415.348 235.39 414.943C236.158 414.538 237.086 414.335 238.174 414.335C239.198 414.335 240.083 414.452 240.83 414.687C241.598 414.922 242.313 415.295 242.974 415.807L241.598 417.951C241.214 417.588 240.745 417.3 240.19 417.087C239.657 416.874 239.166 416.767 238.718 416.767C238.163 416.767 237.705 416.895 237.342 417.151C236.979 417.407 236.798 417.738 236.798 418.143C236.777 418.634 236.958 419.007 237.342 419.263C237.726 419.498 238.345 419.754 239.198 420.031C239.561 420.138 239.795 420.212 239.902 420.255C240.969 420.596 241.801 421.076 242.398 421.695C242.995 422.292 243.294 423.082 243.294 424.063C243.294 425.386 242.814 426.495 241.854 427.391C240.915 428.266 239.561 428.703 237.79 428.703ZM252.409 422.271L250.841 423.487V428.415H247.257V403.455H250.841V419.775L257.625 414.559L259.801 416.479L254.873 420.319L260.377 428.415H256.217L252.409 422.271ZM268.716 408.927V414.879H272.236V417.695H268.716V428.415H265.132V417.695H262.796V414.879H265.132V408.927H268.716ZM274.637 421.503C274.637 420.159 274.957 418.932 275.597 417.823C276.258 416.714 277.165 415.85 278.317 415.231C279.469 414.591 280.781 414.271 282.253 414.271C283.725 414.271 285.026 414.591 286.157 415.231C287.309 415.85 288.194 416.714 288.813 417.823C289.432 418.911 289.741 420.138 289.741 421.503C289.741 422.868 289.432 424.106 288.813 425.215C288.194 426.303 287.309 427.167 286.157 427.807C285.026 428.447 283.714 428.767 282.221 428.767C280.77 428.767 279.469 428.479 278.317 427.903C277.165 427.306 276.258 426.463 275.597 425.375C274.957 424.266 274.637 422.975 274.637 421.503ZM278.253 421.535C278.253 422.751 278.626 423.775 279.373 424.607C280.12 425.418 281.048 425.823 282.157 425.823C283.309 425.823 284.248 425.418 284.973 424.607C285.72 423.796 286.093 422.772 286.093 421.535C286.093 420.298 285.72 419.274 284.973 418.463C284.248 417.631 283.309 417.215 282.157 417.215C281.048 417.215 280.12 417.642 279.373 418.495C278.626 419.327 278.253 420.34 278.253 421.535ZM302.403 414.271C303.662 414.271 304.803 414.57 305.827 415.167C306.851 415.764 307.651 416.618 308.227 417.727C308.803 418.836 309.091 420.127 309.091 421.599C309.091 423.05 308.771 424.319 308.131 425.407C307.512 426.495 306.638 427.327 305.507 427.903C304.398 428.479 303.139 428.767 301.731 428.767C300.835 428.767 299.971 428.586 299.139 428.223C298.307 427.86 297.624 427.37 297.091 426.751V434.911H293.507V414.623H296.611L296.931 416.639C297.635 415.914 298.446 415.338 299.363 414.911C300.302 414.484 301.315 414.271 302.403 414.271ZM301.027 425.919C301.816 425.919 302.542 425.738 303.203 425.375C303.886 424.991 304.43 424.479 304.835 423.839C305.24 423.199 305.443 422.474 305.443 421.663C305.443 420.404 305.038 419.37 304.227 418.559C303.438 417.727 302.456 417.311 301.283 417.311C300.238 417.311 299.352 417.567 298.627 418.079C297.923 418.591 297.411 419.306 297.091 420.223V422.943C297.304 423.818 297.763 424.532 298.467 425.087C299.192 425.642 300.046 425.919 301.027 425.919ZM335.836 422.943H327.356L325.116 428.415H321.436L331.74 404.159H331.964L342.268 428.415H337.98L335.836 422.943ZM334.588 419.743L331.676 412.383L328.668 419.743H334.588ZM354.403 414.271C355.662 414.271 356.803 414.57 357.827 415.167C358.851 415.764 359.651 416.618 360.227 417.727C360.803 418.836 361.091 420.127 361.091 421.599C361.091 423.05 360.771 424.319 360.131 425.407C359.512 426.495 358.638 427.327 357.507 427.903C356.398 428.479 355.139 428.767 353.731 428.767C352.835 428.767 351.971 428.586 351.139 428.223C350.307 427.86 349.624 427.37 349.091 426.751V434.911H345.507V414.623H348.611L348.931 416.639C349.635 415.914 350.446 415.338 351.363 414.911C352.302 414.484 353.315 414.271 354.403 414.271ZM353.027 425.919C353.816 425.919 354.542 425.738 355.203 425.375C355.886 424.991 356.43 424.479 356.835 423.839C357.24 423.199 357.443 422.474 357.443 421.663C357.443 420.404 357.038 419.37 356.227 418.559C355.438 417.727 354.456 417.311 353.283 417.311C352.238 417.311 351.352 417.567 350.627 418.079C349.923 418.591 349.411 419.306 349.091 420.223V422.943C349.304 423.818 349.763 424.532 350.467 425.087C351.192 425.642 352.046 425.919 353.027 425.919ZM373.778 414.271C375.037 414.271 376.178 414.57 377.202 415.167C378.226 415.764 379.026 416.618 379.602 417.727C380.178 418.836 380.466 420.127 380.466 421.599C380.466 423.05 380.146 424.319 379.506 425.407C378.887 426.495 378.013 427.327 376.882 427.903C375.773 428.479 374.514 428.767 373.106 428.767C372.21 428.767 371.346 428.586 370.514 428.223C369.682 427.86 368.999 427.37 368.466 426.751V434.911H364.882V414.623H367.986L368.306 416.639C369.01 415.914 369.821 415.338 370.738 414.911C371.677 414.484 372.69 414.271 373.778 414.271ZM372.402 425.919C373.191 425.919 373.917 425.738 374.578 425.375C375.261 424.991 375.805 424.479 376.21 423.839C376.615 423.199 376.818 422.474 376.818 421.663C376.818 420.404 376.413 419.37 375.602 418.559C374.813 417.727 373.831 417.311 372.658 417.311C371.613 417.311 370.727 417.567 370.002 418.079C369.298 418.591 368.786 419.306 368.466 420.223V422.943C368.679 423.818 369.138 424.532 369.842 425.087C370.567 425.642 371.421 425.919 372.402 425.919ZM387.841 403.455V428.415H384.257V403.455H387.841ZM396.341 414.879V428.415H392.757V414.879H396.341ZM392.597 410.047C392.597 409.514 392.81 409.066 393.237 408.703C393.664 408.319 394.144 408.127 394.677 408.127C395.189 408.127 395.648 408.319 396.053 408.703C396.48 409.066 396.693 409.514 396.693 410.047C396.693 410.58 396.48 411.028 396.053 411.391C395.648 411.754 395.189 411.935 394.677 411.935C394.144 411.935 393.664 411.754 393.237 411.391C392.81 411.028 392.597 410.58 392.597 410.047ZM412.457 427.167C411.86 427.658 411.124 428.052 410.249 428.351C409.396 428.628 408.532 428.767 407.657 428.767C406.164 428.767 404.841 428.479 403.689 427.903C402.558 427.327 401.684 426.506 401.065 425.439C400.446 424.351 400.137 423.082 400.137 421.631C400.137 420.202 400.468 418.954 401.129 417.887C401.79 416.799 402.665 415.967 403.753 415.391C404.862 414.815 406.046 414.527 407.305 414.527C409.438 414.527 411.198 415.103 412.585 416.255L410.793 418.591C410.388 418.271 409.908 418.004 409.353 417.791C408.82 417.556 408.244 417.439 407.625 417.439C406.537 417.439 405.609 417.844 404.841 418.655C404.094 419.444 403.721 420.436 403.721 421.631C403.721 422.826 404.116 423.828 404.905 424.639C405.716 425.428 406.74 425.823 407.977 425.823C409.044 425.823 409.94 425.524 410.665 424.927L412.457 427.167ZM430.308 414.879V428.415H426.724V426.463C426.233 427.039 425.572 427.572 424.74 428.063C423.908 428.532 422.937 428.767 421.828 428.767C420.527 428.767 419.364 428.5 418.34 427.967C417.316 427.412 416.505 426.602 415.908 425.535C415.311 424.468 415.012 423.178 415.012 421.663C415.012 420.191 415.321 418.9 415.94 417.791C416.559 416.66 417.38 415.796 418.404 415.199C419.449 414.58 420.591 414.271 421.828 414.271C424.025 414.271 425.668 415.082 426.756 416.703L427.012 414.879H430.308ZM422.82 425.823C423.801 425.823 424.623 425.578 425.284 425.087C425.967 424.575 426.447 423.86 426.724 422.943V419.999C426.468 419.167 425.967 418.495 425.22 417.983C424.495 417.471 423.652 417.215 422.692 417.215C421.561 417.215 420.601 417.62 419.812 418.431C419.023 419.22 418.628 420.234 418.628 421.471C418.628 422.282 418.82 423.018 419.204 423.679C419.588 424.34 420.1 424.863 420.74 425.247C421.38 425.631 422.073 425.823 422.82 425.823ZM440.153 408.927V414.879H443.673V417.695H440.153V428.415H436.569V417.695H434.233V414.879H436.569V408.927H440.153ZM450.779 414.879V428.415H447.195V414.879H450.779ZM447.035 410.047C447.035 409.514 447.248 409.066 447.675 408.703C448.101 408.319 448.581 408.127 449.115 408.127C449.627 408.127 450.085 408.319 450.491 408.703C450.917 409.066 451.131 409.514 451.131 410.047C451.131 410.58 450.917 411.028 450.491 411.391C450.085 411.754 449.627 411.935 449.115 411.935C448.581 411.935 448.101 411.754 447.675 411.391C447.248 411.028 447.035 410.58 447.035 410.047ZM454.575 421.503C454.575 420.159 454.895 418.932 455.535 417.823C456.196 416.714 457.103 415.85 458.255 415.231C459.407 414.591 460.719 414.271 462.191 414.271C463.663 414.271 464.964 414.591 466.095 415.231C467.247 415.85 468.132 416.714 468.751 417.823C469.369 418.911 469.679 420.138 469.679 421.503C469.679 422.868 469.369 424.106 468.751 425.215C468.132 426.303 467.247 427.167 466.095 427.807C464.964 428.447 463.652 428.767 462.159 428.767C460.708 428.767 459.407 428.479 458.255 427.903C457.103 427.306 456.196 426.463 455.535 425.375C454.895 424.266 454.575 422.975 454.575 421.503ZM458.191 421.535C458.191 422.751 458.564 423.775 459.311 424.607C460.057 425.418 460.985 425.823 462.095 425.823C463.247 425.823 464.185 425.418 464.911 424.607C465.657 423.796 466.031 422.772 466.031 421.535C466.031 420.298 465.657 419.274 464.911 418.463C464.185 417.631 463.247 417.215 462.095 417.215C460.985 417.215 460.057 417.642 459.311 418.495C458.564 419.327 458.191 420.34 458.191 421.535ZM482.277 414.303C483.535 414.303 484.581 414.687 485.413 415.455C486.266 416.202 486.703 417.172 486.725 418.367V428.415H483.141V419.647C483.098 418.943 482.885 418.388 482.501 417.983C482.138 417.578 481.583 417.364 480.837 417.343C479.727 417.343 478.81 417.823 478.085 418.783C477.381 419.722 477.029 420.927 477.029 422.399V428.415H473.445V414.879H476.677L476.933 417.279C477.423 416.34 478.127 415.615 479.045 415.103C479.983 414.57 481.061 414.303 482.277 414.303Z" fill="black"/>
<g filter="url(#filter1_b)">
<path d="M93.9363 213C93.9363 207.477 98.4134 203 103.936 203H542C547.523 203 552 207.477 552 213V254.657C552 260.18 547.523 264.657 542 264.657H103.936C98.4134 264.657 93.9363 260.18 93.9363 254.657V213Z" fill="#FDB717"/>
</g>
<g filter="url(#filter2_b)">
<path d="M93.9363 304.459C93.9363 298.936 98.4134 294.459 103.936 294.459H542C547.523 294.459 552 298.936 552 304.459V346.116C552 351.639 547.523 356.116 542 356.116H103.936C98.4134 356.116 93.9363 351.639 93.9363 346.116V304.459Z" fill="#FDB717"/>
</g>
<g filter="url(#filter3_b)">
<path d="M93.9363 492.514C93.9363 486.991 98.4134 482.514 103.936 482.514H542C547.523 482.514 552 486.991 552 492.514V565C552 570.523 547.523 575 542 575H103.936C98.4134 575 93.9363 570.523 93.9363 565V492.514Z" fill="#FDB717"/>
</g>
<path d="M212.032 243.439L206.528 229.551L200.352 243.503L191.04 219.247H195.392L200.832 234.799L204.704 224.879L202.464 219.247H206.144L212.128 234.351L217.12 219.247H221.12L212.032 243.439ZM228.348 239.695C229.35 239.695 230.364 239.343 231.388 238.639L233.02 241.295C232.294 241.743 231.516 242.106 230.684 242.383C229.852 242.639 229.052 242.767 228.284 242.767C226.726 242.767 225.372 242.458 224.22 241.839C223.089 241.22 222.214 240.367 221.596 239.279C220.998 238.191 220.7 236.943 220.7 235.535C220.7 234.212 221.041 232.996 221.724 231.887C222.406 230.778 223.334 229.903 224.508 229.263C225.681 228.602 226.961 228.271 228.348 228.271C230.182 228.271 231.708 228.815 232.924 229.903C234.14 230.97 234.95 232.484 235.356 234.447L224.924 237.967C225.286 238.522 225.766 238.948 226.364 239.247C226.961 239.546 227.622 239.695 228.348 239.695ZM228.06 231.087C226.929 231.087 226.001 231.482 225.276 232.271C224.572 233.06 224.22 234.084 224.22 235.343C224.22 235.578 224.23 235.759 224.252 235.887L231.356 233.359C231.078 232.698 230.673 232.154 230.14 231.727C229.606 231.3 228.913 231.087 228.06 231.087ZM247.906 228.271C249.101 228.271 250.199 228.559 251.202 229.135C252.205 229.711 252.994 230.543 253.57 231.631C254.167 232.698 254.466 233.956 254.466 235.407C254.466 236.9 254.146 238.202 253.506 239.311C252.866 240.42 252.002 241.274 250.914 241.871C249.847 242.468 248.685 242.767 247.426 242.767C246.359 242.767 245.41 242.575 244.578 242.191C243.746 241.807 243.042 241.284 242.466 240.623V242.415H238.882V217.455H242.466V230.319C243.042 229.7 243.799 229.21 244.738 228.847C245.698 228.463 246.754 228.271 247.906 228.271ZM246.658 239.727C247.831 239.727 248.813 239.311 249.602 238.479C250.413 237.647 250.818 236.612 250.818 235.375C250.818 234.586 250.626 233.86 250.242 233.199C249.879 232.538 249.378 232.026 248.738 231.663C248.119 231.279 247.426 231.087 246.658 231.087C245.655 231.087 244.77 231.343 244.002 231.855C243.255 232.367 242.743 233.05 242.466 233.903V236.911C242.786 237.786 243.309 238.479 244.034 238.991C244.759 239.482 245.634 239.727 246.658 239.727ZM262.321 242.703C261.276 242.703 260.284 242.522 259.345 242.159C258.428 241.775 257.67 241.242 257.073 240.559L258.577 238.543C259.708 239.652 260.86 240.207 262.033 240.207C262.673 240.207 263.196 240.09 263.601 239.855C264.028 239.599 264.241 239.226 264.241 238.735C264.241 238.223 264.028 237.839 263.601 237.583C263.174 237.327 262.694 237.124 262.161 236.975C261.649 236.804 261.318 236.698 261.169 236.655C259.996 236.292 259.121 235.77 258.545 235.087C257.969 234.383 257.681 233.562 257.681 232.623C257.681 231.876 257.862 231.183 258.225 230.543C258.609 229.882 259.174 229.348 259.921 228.943C260.689 228.538 261.617 228.335 262.705 228.335C263.729 228.335 264.614 228.452 265.361 228.687C266.129 228.922 266.844 229.295 267.505 229.807L266.129 231.951C265.745 231.588 265.276 231.3 264.721 231.087C264.188 230.874 263.697 230.767 263.249 230.767C262.694 230.767 262.236 230.895 261.873 231.151C261.51 231.407 261.329 231.738 261.329 232.143C261.308 232.634 261.489 233.007 261.873 233.263C262.257 233.498 262.876 233.754 263.729 234.031C264.092 234.138 264.326 234.212 264.433 234.255C265.5 234.596 266.332 235.076 266.929 235.695C267.526 236.292 267.825 237.082 267.825 238.063C267.825 239.386 267.345 240.495 266.385 241.391C265.446 242.266 264.092 242.703 262.321 242.703ZM275.372 228.879V242.415H271.788V228.879H275.372ZM271.628 224.047C271.628 223.514 271.842 223.066 272.268 222.703C272.695 222.319 273.175 222.127 273.708 222.127C274.22 222.127 274.679 222.319 275.084 222.703C275.511 223.066 275.724 223.514 275.724 224.047C275.724 224.58 275.511 225.028 275.084 225.391C274.679 225.754 274.22 225.935 273.708 225.935C273.175 225.935 272.695 225.754 272.268 225.391C271.842 225.028 271.628 224.58 271.628 224.047ZM285.184 222.927V228.879H288.704V231.695H285.184V242.415H281.6V231.695H279.264V228.879H281.6V222.927H285.184ZM298.754 239.695C299.757 239.695 300.77 239.343 301.794 238.639L303.426 241.295C302.701 241.743 301.922 242.106 301.09 242.383C300.258 242.639 299.458 242.767 298.69 242.767C297.133 242.767 295.778 242.458 294.626 241.839C293.495 241.22 292.621 240.367 292.002 239.279C291.405 238.191 291.106 236.943 291.106 235.535C291.106 234.212 291.447 232.996 292.13 231.887C292.813 230.778 293.741 229.903 294.914 229.263C296.087 228.602 297.367 228.271 298.754 228.271C300.589 228.271 302.114 228.815 303.33 229.903C304.546 230.97 305.357 232.484 305.762 234.447L295.33 237.967C295.693 238.522 296.173 238.948 296.77 239.247C297.367 239.546 298.029 239.695 298.754 239.695ZM298.466 231.087C297.335 231.087 296.407 231.482 295.682 232.271C294.978 233.06 294.626 234.084 294.626 235.343C294.626 235.578 294.637 235.759 294.658 235.887L301.762 233.359C301.485 232.698 301.079 232.154 300.546 231.727C300.013 231.3 299.319 231.087 298.466 231.087ZM320.274 219.119H326.898C329.821 219.119 332.232 219.695 334.13 220.847C336.05 221.999 337.448 223.482 338.322 225.295C339.197 227.108 339.634 229.039 339.634 231.087C339.634 233.348 339.101 235.343 338.034 237.071C336.989 238.778 335.581 240.1 333.81 241.039C332.04 241.956 330.109 242.415 328.018 242.415H320.274V219.119ZM327.346 238.831C329.01 238.831 330.472 238.522 331.73 237.903C333.01 237.284 334.002 236.378 334.706 235.183C335.432 233.967 335.794 232.516 335.794 230.831C335.794 228.996 335.4 227.471 334.61 226.255C333.842 225.018 332.85 224.111 331.634 223.535C330.44 222.959 329.202 222.671 327.922 222.671H324.018V238.831H327.346ZM350.41 239.695C351.413 239.695 352.426 239.343 353.45 238.639L355.082 241.295C354.357 241.743 353.578 242.106 352.746 242.383C351.914 242.639 351.114 242.767 350.346 242.767C348.789 242.767 347.434 242.458 346.282 241.839C345.151 241.22 344.277 240.367 343.658 239.279C343.061 238.191 342.762 236.943 342.762 235.535C342.762 234.212 343.103 232.996 343.786 231.887C344.469 230.778 345.397 229.903 346.57 229.263C347.743 228.602 349.023 228.271 350.41 228.271C352.245 228.271 353.77 228.815 354.986 229.903C356.202 230.97 357.013 232.484 357.418 234.447L346.986 237.967C347.349 238.522 347.829 238.948 348.426 239.247C349.023 239.546 349.685 239.695 350.41 239.695ZM350.122 231.087C348.991 231.087 348.063 231.482 347.338 232.271C346.634 233.06 346.282 234.084 346.282 235.343C346.282 235.578 346.293 235.759 346.314 235.887L353.418 233.359C353.141 232.698 352.735 232.154 352.202 231.727C351.669 231.3 350.975 231.087 350.122 231.087ZM365.009 242.703C363.963 242.703 362.971 242.522 362.033 242.159C361.115 241.775 360.358 241.242 359.761 240.559L361.265 238.543C362.395 239.652 363.547 240.207 364.721 240.207C365.361 240.207 365.883 240.09 366.289 239.855C366.715 239.599 366.929 239.226 366.929 238.735C366.929 238.223 366.715 237.839 366.289 237.583C365.862 237.327 365.382 237.124 364.849 236.975C364.337 236.804 364.006 236.698 363.857 236.655C362.683 236.292 361.809 235.77 361.233 235.087C360.657 234.383 360.369 233.562 360.369 232.623C360.369 231.876 360.55 231.183 360.913 230.543C361.297 229.882 361.862 229.348 362.609 228.943C363.377 228.538 364.305 228.335 365.393 228.335C366.417 228.335 367.302 228.452 368.049 228.687C368.817 228.922 369.531 229.295 370.193 229.807L368.817 231.951C368.433 231.588 367.963 231.3 367.409 231.087C366.875 230.874 366.385 230.767 365.937 230.767C365.382 230.767 364.923 230.895 364.561 231.151C364.198 231.407 364.017 231.738 364.017 232.143C363.995 232.634 364.177 233.007 364.561 233.263C364.945 233.498 365.563 233.754 366.417 234.031C366.779 234.138 367.014 234.212 367.121 234.255C368.187 234.596 369.019 235.076 369.617 235.695C370.214 236.292 370.513 237.082 370.513 238.063C370.513 239.386 370.033 240.495 369.073 241.391C368.134 242.266 366.779 242.703 365.009 242.703ZM378.06 228.879V242.415H374.476V228.879H378.06ZM374.316 224.047C374.316 223.514 374.529 223.066 374.956 222.703C375.383 222.319 375.863 222.127 376.396 222.127C376.908 222.127 377.367 222.319 377.772 222.703C378.199 223.066 378.412 223.514 378.412 224.047C378.412 224.58 378.199 225.028 377.772 225.391C377.367 225.754 376.908 225.935 376.396 225.935C375.863 225.935 375.383 225.754 374.956 225.391C374.529 225.028 374.316 224.58 374.316 224.047ZM397.632 228.879V242.479C397.632 243.738 397.291 244.868 396.608 245.871C395.947 246.895 395.008 247.695 393.792 248.271C392.597 248.868 391.243 249.167 389.728 249.167C388.256 249.167 387.029 248.932 386.048 248.463C385.067 248.015 384.075 247.354 383.072 246.479L385.184 244.015C385.867 244.655 386.56 245.146 387.264 245.487C387.968 245.85 388.768 246.031 389.664 246.031C390.987 246.031 392.043 245.7 392.832 245.039C393.621 244.399 394.027 243.524 394.048 242.415V240.143C393.579 240.932 392.875 241.572 391.936 242.063C391.019 242.532 389.941 242.767 388.704 242.767C387.467 242.767 386.325 242.458 385.28 241.839C384.235 241.199 383.403 240.335 382.784 239.247C382.165 238.138 381.856 236.911 381.856 235.567C381.856 234.202 382.176 232.964 382.816 231.855C383.477 230.724 384.341 229.85 385.408 229.231C386.496 228.591 387.648 228.271 388.864 228.271C389.995 228.271 391.019 228.474 391.936 228.879C392.875 229.263 393.579 229.775 394.048 230.415L394.336 228.879H397.632ZM389.76 239.823C390.805 239.823 391.701 239.567 392.448 239.055C393.216 238.543 393.749 237.85 394.048 236.975V234.031C393.749 233.178 393.216 232.495 392.448 231.983C391.68 231.471 390.784 231.215 389.76 231.215C388.544 231.215 387.52 231.62 386.688 232.431C385.877 233.22 385.472 234.234 385.472 235.471C385.472 236.282 385.664 237.018 386.048 237.679C386.432 238.34 386.944 238.863 387.584 239.247C388.245 239.631 388.971 239.823 389.76 239.823ZM411.402 228.303C412.66 228.303 413.706 228.687 414.538 229.455C415.391 230.202 415.828 231.172 415.85 232.367V242.415H412.266V233.647C412.223 232.943 412.01 232.388 411.626 231.983C411.263 231.578 410.708 231.364 409.962 231.343C408.852 231.343 407.935 231.823 407.21 232.783C406.506 233.722 406.154 234.927 406.154 236.399V242.415H402.57V228.879H405.802L406.058 231.279C406.548 230.34 407.252 229.615 408.17 229.103C409.108 228.57 410.186 228.303 411.402 228.303Z" fill="black"/>
<path d="M212.032 334.898L206.528 321.01L200.352 334.962L191.04 310.706H195.392L200.832 326.258L204.704 316.338L202.464 310.706H206.144L212.128 325.81L217.12 310.706H221.12L212.032 334.898ZM228.348 331.154C229.35 331.154 230.364 330.802 231.388 330.098L233.02 332.754C232.294 333.202 231.516 333.564 230.684 333.842C229.852 334.098 229.052 334.226 228.284 334.226C226.726 334.226 225.372 333.916 224.22 333.298C223.089 332.679 222.214 331.826 221.596 330.738C220.998 329.65 220.7 328.402 220.7 326.994C220.7 325.671 221.041 324.455 221.724 323.346C222.406 322.236 223.334 321.362 224.508 320.722C225.681 320.06 226.961 319.73 228.348 319.73C230.182 319.73 231.708 320.274 232.924 321.362C234.14 322.428 234.95 323.943 235.356 325.906L224.924 329.426C225.286 329.98 225.766 330.407 226.364 330.706C226.961 331.004 227.622 331.154 228.348 331.154ZM228.06 322.546C226.929 322.546 226.001 322.94 225.276 323.73C224.572 324.519 224.22 325.543 224.22 326.802C224.22 327.036 224.23 327.218 224.252 327.346L231.356 324.818C231.078 324.156 230.673 323.612 230.14 323.186C229.606 322.759 228.913 322.546 228.06 322.546ZM247.906 319.73C249.101 319.73 250.199 320.018 251.202 320.594C252.205 321.17 252.994 322.002 253.57 323.09C254.167 324.156 254.466 325.415 254.466 326.866C254.466 328.359 254.146 329.66 253.506 330.77C252.866 331.879 252.002 332.732 250.914 333.33C249.847 333.927 248.685 334.226 247.426 334.226C246.359 334.226 245.41 334.034 244.578 333.65C243.746 333.266 243.042 332.743 242.466 332.082V333.874H238.882V308.914H242.466V321.778C243.042 321.159 243.799 320.668 244.738 320.306C245.698 319.922 246.754 319.73 247.906 319.73ZM246.658 331.186C247.831 331.186 248.813 330.77 249.602 329.938C250.413 329.106 250.818 328.071 250.818 326.834C250.818 326.044 250.626 325.319 250.242 324.658C249.879 323.996 249.378 323.484 248.738 323.122C248.119 322.738 247.426 322.546 246.658 322.546C245.655 322.546 244.77 322.802 244.002 323.314C243.255 323.826 242.743 324.508 242.466 325.362V328.37C242.786 329.244 243.309 329.938 244.034 330.45C244.759 330.94 245.634 331.186 246.658 331.186ZM262.321 334.162C261.276 334.162 260.284 333.98 259.345 333.618C258.428 333.234 257.67 332.7 257.073 332.018L258.577 330.002C259.708 331.111 260.86 331.666 262.033 331.666C262.673 331.666 263.196 331.548 263.601 331.314C264.028 331.058 264.241 330.684 264.241 330.194C264.241 329.682 264.028 329.298 263.601 329.042C263.174 328.786 262.694 328.583 262.161 328.434C261.649 328.263 261.318 328.156 261.169 328.114C259.996 327.751 259.121 327.228 258.545 326.546C257.969 325.842 257.681 325.02 257.681 324.082C257.681 323.335 257.862 322.642 258.225 322.002C258.609 321.34 259.174 320.807 259.921 320.402C260.689 319.996 261.617 319.794 262.705 319.794C263.729 319.794 264.614 319.911 265.361 320.146C266.129 320.38 266.844 320.754 267.505 321.266L266.129 323.41C265.745 323.047 265.276 322.759 264.721 322.546C264.188 322.332 263.697 322.226 263.249 322.226C262.694 322.226 262.236 322.354 261.873 322.61C261.51 322.866 261.329 323.196 261.329 323.602C261.308 324.092 261.489 324.466 261.873 324.722C262.257 324.956 262.876 325.212 263.729 325.49C264.092 325.596 264.326 325.671 264.433 325.714C265.5 326.055 266.332 326.535 266.929 327.154C267.526 327.751 267.825 328.54 267.825 329.522C267.825 330.844 267.345 331.954 266.385 332.85C265.446 333.724 264.092 334.162 262.321 334.162ZM275.372 320.338V333.874H271.788V320.338H275.372ZM271.628 315.506C271.628 314.972 271.842 314.524 272.268 314.162C272.695 313.778 273.175 313.586 273.708 313.586C274.22 313.586 274.679 313.778 275.084 314.162C275.511 314.524 275.724 314.972 275.724 315.506C275.724 316.039 275.511 316.487 275.084 316.85C274.679 317.212 274.22 317.394 273.708 317.394C273.175 317.394 272.695 317.212 272.268 316.85C271.842 316.487 271.628 316.039 271.628 315.506ZM285.184 314.386V320.338H288.704V323.154H285.184V333.874H281.6V323.154H279.264V320.338H281.6V314.386H285.184ZM298.754 331.154C299.757 331.154 300.77 330.802 301.794 330.098L303.426 332.754C302.701 333.202 301.922 333.564 301.09 333.842C300.258 334.098 299.458 334.226 298.69 334.226C297.133 334.226 295.778 333.916 294.626 333.298C293.495 332.679 292.621 331.826 292.002 330.738C291.405 329.65 291.106 328.402 291.106 326.994C291.106 325.671 291.447 324.455 292.13 323.346C292.813 322.236 293.741 321.362 294.914 320.722C296.087 320.06 297.367 319.73 298.754 319.73C300.589 319.73 302.114 320.274 303.33 321.362C304.546 322.428 305.357 323.943 305.762 325.906L295.33 329.426C295.693 329.98 296.173 330.407 296.77 330.706C297.367 331.004 298.029 331.154 298.754 331.154ZM298.466 322.546C297.335 322.546 296.407 322.94 295.682 323.73C294.978 324.519 294.626 325.543 294.626 326.802C294.626 327.036 294.637 327.218 294.658 327.346L301.762 324.818C301.485 324.156 301.079 323.612 300.546 323.186C300.013 322.759 299.319 322.546 298.466 322.546ZM320.274 310.578H326.898C329.821 310.578 332.232 311.154 334.13 312.306C336.05 313.458 337.448 314.94 338.322 316.754C339.197 318.567 339.634 320.498 339.634 322.546C339.634 324.807 339.101 326.802 338.034 328.53C336.989 330.236 335.581 331.559 333.81 332.498C332.04 333.415 330.109 333.874 328.018 333.874H320.274V310.578ZM327.346 330.29C329.01 330.29 330.472 329.98 331.73 329.362C333.01 328.743 334.002 327.836 334.706 326.642C335.432 325.426 335.794 323.975 335.794 322.29C335.794 320.455 335.4 318.93 334.61 317.714C333.842 316.476 332.85 315.57 331.634 314.994C330.44 314.418 329.202 314.13 327.922 314.13H324.018V330.29H327.346ZM350.41 331.154C351.413 331.154 352.426 330.802 353.45 330.098L355.082 332.754C354.357 333.202 353.578 333.564 352.746 333.842C351.914 334.098 351.114 334.226 350.346 334.226C348.789 334.226 347.434 333.916 346.282 333.298C345.151 332.679 344.277 331.826 343.658 330.738C343.061 329.65 342.762 328.402 342.762 326.994C342.762 325.671 343.103 324.455 343.786 323.346C344.469 322.236 345.397 321.362 346.57 320.722C347.743 320.06 349.023 319.73 350.41 319.73C352.245 319.73 353.77 320.274 354.986 321.362C356.202 322.428 357.013 323.943 357.418 325.906L346.986 329.426C347.349 329.98 347.829 330.407 348.426 330.706C349.023 331.004 349.685 331.154 350.41 331.154ZM350.122 322.546C348.991 322.546 348.063 322.94 347.338 323.73C346.634 324.519 346.282 325.543 346.282 326.802C346.282 327.036 346.293 327.218 346.314 327.346L353.418 324.818C353.141 324.156 352.735 323.612 352.202 323.186C351.669 322.759 350.975 322.546 350.122 322.546ZM373.789 320.338L366.365 334.226H366.205L358.429 320.338H362.685L366.397 328.082L369.789 320.338H373.789ZM382.879 331.154C383.882 331.154 384.895 330.802 385.919 330.098L387.551 332.754C386.826 333.202 386.047 333.564 385.215 333.842C384.383 334.098 383.583 334.226 382.815 334.226C381.258 334.226 379.903 333.916 378.751 333.298C377.62 332.679 376.746 331.826 376.127 330.738C375.53 329.65 375.231 328.402 375.231 326.994C375.231 325.671 375.572 324.455 376.255 323.346C376.938 322.236 377.866 321.362 379.039 320.722C380.212 320.06 381.492 319.73 382.879 319.73C384.714 319.73 386.239 320.274 387.455 321.362C388.671 322.428 389.482 323.943 389.887 325.906L379.455 329.426C379.818 329.98 380.298 330.407 380.895 330.706C381.492 331.004 382.154 331.154 382.879 331.154ZM382.591 322.546C381.46 322.546 380.532 322.94 379.807 323.73C379.103 324.519 378.751 325.543 378.751 326.802C378.751 327.036 378.762 327.218 378.783 327.346L385.887 324.818C385.61 324.156 385.204 323.612 384.671 323.186C384.138 322.759 383.444 322.546 382.591 322.546ZM396.997 308.914V333.874H393.413V308.914H396.997ZM400.793 326.962C400.793 325.618 401.113 324.391 401.753 323.282C402.415 322.172 403.321 321.308 404.473 320.69C405.625 320.05 406.937 319.73 408.409 319.73C409.881 319.73 411.183 320.05 412.313 320.69C413.465 321.308 414.351 322.172 414.969 323.282C415.588 324.37 415.897 325.596 415.897 326.962C415.897 328.327 415.588 329.564 414.969 330.674C414.351 331.762 413.465 332.626 412.313 333.266C411.183 333.906 409.871 334.226 408.377 334.226C406.927 334.226 405.625 333.938 404.473 333.362C403.321 332.764 402.415 331.922 401.753 330.834C401.113 329.724 400.793 328.434 400.793 326.962ZM404.409 326.994C404.409 328.21 404.783 329.234 405.529 330.066C406.276 330.876 407.204 331.282 408.313 331.282C409.465 331.282 410.404 330.876 411.129 330.066C411.876 329.255 412.249 328.231 412.249 326.994C412.249 325.756 411.876 324.732 411.129 323.922C410.404 323.09 409.465 322.674 408.313 322.674C407.204 322.674 406.276 323.1 405.529 323.954C404.783 324.786 404.409 325.799 404.409 326.994ZM428.559 319.73C429.818 319.73 430.959 320.028 431.983 320.626C433.007 321.223 433.807 322.076 434.383 323.186C434.959 324.295 435.247 325.586 435.247 327.058C435.247 328.508 434.927 329.778 434.287 330.866C433.669 331.954 432.794 332.786 431.663 333.362C430.554 333.938 429.295 334.226 427.887 334.226C426.991 334.226 426.127 334.044 425.295 333.682C424.463 333.319 423.781 332.828 423.247 332.21V340.37H419.663V320.082H422.767L423.087 322.098C423.791 321.372 424.602 320.796 425.519 320.37C426.458 319.943 427.471 319.73 428.559 319.73ZM427.183 331.378C427.973 331.378 428.698 331.196 429.359 330.834C430.042 330.45 430.586 329.938 430.991 329.298C431.397 328.658 431.599 327.932 431.599 327.122C431.599 325.863 431.194 324.828 430.383 324.018C429.594 323.186 428.613 322.77 427.439 322.77C426.394 322.77 425.509 323.026 424.783 323.538C424.079 324.05 423.567 324.764 423.247 325.682V328.402C423.461 329.276 423.919 329.991 424.623 330.546C425.349 331.1 426.202 331.378 427.183 331.378ZM456.606 319.73C457.929 319.73 458.974 320.103 459.742 320.85C460.532 321.596 460.948 322.578 460.99 323.794V333.874H457.438V325.17C457.396 324.444 457.236 323.89 456.958 323.506C456.681 323.1 456.222 322.876 455.582 322.834C454.473 322.834 453.577 323.335 452.894 324.338C452.212 325.319 451.86 326.471 451.838 327.794V333.874H448.222V325.17C448.18 324.466 448.009 323.911 447.71 323.506C447.433 323.1 446.964 322.876 446.302 322.834C445.577 322.834 444.937 323.068 444.382 323.538C443.828 324.007 443.39 324.626 443.07 325.394C442.772 326.162 442.622 326.962 442.622 327.794V333.874H439.038V320.338H442.27L442.558 322.706C443.07 321.746 443.764 321.01 444.638 320.498C445.513 319.986 446.516 319.73 447.646 319.73C448.734 319.73 449.641 319.975 450.366 320.466C451.113 320.935 451.604 321.618 451.838 322.514C452.393 321.639 453.097 320.956 453.95 320.466C454.804 319.975 455.689 319.73 456.606 319.73ZM472.441 331.154C473.444 331.154 474.457 330.802 475.481 330.098L477.113 332.754C476.388 333.202 475.609 333.564 474.777 333.842C473.945 334.098 473.145 334.226 472.377 334.226C470.82 334.226 469.465 333.916 468.313 333.298C467.183 332.679 466.308 331.826 465.689 330.738C465.092 329.65 464.793 328.402 464.793 326.994C464.793 325.671 465.135 324.455 465.817 323.346C466.5 322.236 467.428 321.362 468.601 320.722C469.775 320.06 471.055 319.73 472.441 319.73C474.276 319.73 475.801 320.274 477.017 321.362C478.233 322.428 479.044 323.943 479.449 325.906L469.017 329.426C469.38 329.98 469.86 330.407 470.457 330.706C471.055 331.004 471.716 331.154 472.441 331.154ZM472.153 322.546C471.023 322.546 470.095 322.94 469.369 323.73C468.665 324.519 468.313 325.543 468.313 326.802C468.313 327.036 468.324 327.218 468.345 327.346L475.449 324.818C475.172 324.156 474.767 323.612 474.233 323.186C473.7 322.759 473.007 322.546 472.153 322.546ZM491.808 319.762C493.067 319.762 494.112 320.146 494.944 320.914C495.797 321.66 496.235 322.631 496.256 323.826V333.874H492.672V325.106C492.629 324.402 492.416 323.847 492.032 323.442C491.669 323.036 491.115 322.823 490.368 322.802C489.259 322.802 488.341 323.282 487.616 324.242C486.912 325.18 486.56 326.386 486.56 327.858V333.874H482.976V320.338H486.208L486.464 322.738C486.955 321.799 487.659 321.074 488.576 320.562C489.515 320.028 490.592 319.762 491.808 319.762ZM506.091 314.386V320.338H509.611V323.154H506.091V333.874H502.507V323.154H500.171V320.338H502.507V314.386H506.091Z" fill="black"/>
<path d="M216.576 496.773V520.901H212.864V507.429L204.704 519.013H204.64L196.672 507.973V520.901H193.056V496.773H193.088L204.704 513.221L216.512 496.773H216.576ZM221.106 513.989C221.106 512.645 221.426 511.419 222.066 510.309C222.727 509.2 223.634 508.336 224.786 507.717C225.938 507.077 227.25 506.757 228.722 506.757C230.194 506.757 231.495 507.077 232.626 507.717C233.778 508.336 234.663 509.2 235.282 510.309C235.901 511.397 236.21 512.624 236.21 513.989C236.21 515.355 235.901 516.592 235.282 517.701C234.663 518.789 233.778 519.653 232.626 520.293C231.495 520.933 230.183 521.253 228.69 521.253C227.239 521.253 225.938 520.965 224.786 520.389C223.634 519.792 222.727 518.949 222.066 517.861C221.426 516.752 221.106 515.461 221.106 513.989ZM224.722 514.021C224.722 515.237 225.095 516.261 225.842 517.093C226.589 517.904 227.517 518.309 228.626 518.309C229.778 518.309 230.717 517.904 231.442 517.093C232.189 516.283 232.562 515.259 232.562 514.021C232.562 512.784 232.189 511.76 231.442 510.949C230.717 510.117 229.778 509.701 228.626 509.701C227.517 509.701 226.589 510.128 225.842 510.981C225.095 511.813 224.722 512.827 224.722 514.021ZM249 506.757C250.195 506.757 251.293 507.045 252.296 507.621C253.299 508.197 254.088 509.029 254.664 510.117C255.261 511.184 255.56 512.443 255.56 513.893C255.56 515.387 255.24 516.688 254.6 517.797C253.96 518.907 253.096 519.76 252.008 520.357C250.941 520.955 249.779 521.253 248.52 521.253C247.453 521.253 246.504 521.061 245.672 520.677C244.84 520.293 244.136 519.771 243.56 519.109V520.901H239.976V495.941H243.56V508.805C244.136 508.187 244.893 507.696 245.832 507.333C246.792 506.949 247.848 506.757 249 506.757ZM247.752 518.213C248.925 518.213 249.907 517.797 250.696 516.965C251.507 516.133 251.912 515.099 251.912 513.861C251.912 513.072 251.72 512.347 251.336 511.685C250.973 511.024 250.472 510.512 249.832 510.149C249.213 509.765 248.52 509.573 247.752 509.573C246.749 509.573 245.864 509.829 245.096 510.341C244.349 510.853 243.837 511.536 243.56 512.389V515.397C243.88 516.272 244.403 516.965 245.128 517.477C245.853 517.968 246.728 518.213 247.752 518.213ZM262.935 507.365V520.901H259.351V507.365H262.935ZM259.191 502.533C259.191 502 259.404 501.552 259.831 501.189C260.258 500.805 260.738 500.613 261.271 500.613C261.783 500.613 262.242 500.805 262.647 501.189C263.074 501.552 263.287 502 263.287 502.533C263.287 503.067 263.074 503.515 262.647 503.877C262.242 504.24 261.783 504.421 261.271 504.421C260.738 504.421 260.258 504.24 259.831 503.877C259.404 503.515 259.191 503.067 259.191 502.533ZM271.435 495.941V520.901H267.851V495.941H271.435ZM282.879 518.181C283.882 518.181 284.895 517.829 285.919 517.125L287.551 519.781C286.826 520.229 286.047 520.592 285.215 520.869C284.383 521.125 283.583 521.253 282.815 521.253C281.258 521.253 279.903 520.944 278.751 520.325C277.62 519.707 276.746 518.853 276.127 517.765C275.53 516.677 275.231 515.429 275.231 514.021C275.231 512.699 275.572 511.483 276.255 510.373C276.938 509.264 277.866 508.389 279.039 507.749C280.212 507.088 281.492 506.757 282.879 506.757C284.714 506.757 286.239 507.301 287.455 508.389C288.671 509.456 289.482 510.971 289.887 512.933L279.455 516.453C279.818 517.008 280.298 517.435 280.895 517.733C281.492 518.032 282.154 518.181 282.879 518.181ZM282.591 509.573C281.46 509.573 280.532 509.968 279.807 510.757C279.103 511.547 278.751 512.571 278.751 513.829C278.751 514.064 278.762 514.245 278.783 514.373L285.887 511.845C285.61 511.184 285.204 510.64 284.671 510.213C284.138 509.787 283.444 509.573 282.591 509.573ZM316.367 515.429H307.887L305.647 520.901H301.967L312.271 496.645H312.495L322.799 520.901H318.511L316.367 515.429ZM315.119 512.229L312.207 504.869L309.199 512.229H315.119ZM334.934 506.757C336.193 506.757 337.334 507.056 338.358 507.653C339.382 508.251 340.182 509.104 340.758 510.213C341.334 511.323 341.622 512.613 341.622 514.085C341.622 515.536 341.302 516.805 340.662 517.893C340.044 518.981 339.169 519.813 338.038 520.389C336.929 520.965 335.67 521.253 334.262 521.253C333.366 521.253 332.502 521.072 331.67 520.709C330.838 520.347 330.156 519.856 329.622 519.237V527.397H326.038V507.109H329.142L329.462 509.125C330.166 508.4 330.977 507.824 331.894 507.397C332.833 506.971 333.846 506.757 334.934 506.757ZM333.558 518.405C334.348 518.405 335.073 518.224 335.734 517.861C336.417 517.477 336.961 516.965 337.366 516.325C337.772 515.685 337.974 514.96 337.974 514.149C337.974 512.891 337.569 511.856 336.758 511.045C335.969 510.213 334.988 509.797 333.814 509.797C332.769 509.797 331.884 510.053 331.158 510.565C330.454 511.077 329.942 511.792 329.622 512.709V515.429C329.836 516.304 330.294 517.019 330.998 517.573C331.724 518.128 332.577 518.405 333.558 518.405ZM354.309 506.757C355.568 506.757 356.709 507.056 357.733 507.653C358.757 508.251 359.557 509.104 360.133 510.213C360.709 511.323 360.997 512.613 360.997 514.085C360.997 515.536 360.677 516.805 360.037 517.893C359.419 518.981 358.544 519.813 357.413 520.389C356.304 520.965 355.045 521.253 353.637 521.253C352.741 521.253 351.877 521.072 351.045 520.709C350.213 520.347 349.531 519.856 348.997 519.237V527.397H345.413V507.109H348.517L348.837 509.125C349.541 508.4 350.352 507.824 351.269 507.397C352.208 506.971 353.221 506.757 354.309 506.757ZM352.933 518.405C353.723 518.405 354.448 518.224 355.109 517.861C355.792 517.477 356.336 516.965 356.741 516.325C357.147 515.685 357.349 514.96 357.349 514.149C357.349 512.891 356.944 511.856 356.133 511.045C355.344 510.213 354.363 509.797 353.189 509.797C352.144 509.797 351.259 510.053 350.533 510.565C349.829 511.077 349.317 511.792 348.997 512.709V515.429C349.211 516.304 349.669 517.019 350.373 517.573C351.099 518.128 351.952 518.405 352.933 518.405ZM368.372 495.941V520.901H364.788V495.941H368.372ZM376.872 507.365V520.901H373.288V507.365H376.872ZM373.128 502.533C373.128 502 373.342 501.552 373.768 501.189C374.195 500.805 374.675 500.613 375.208 500.613C375.72 500.613 376.179 500.805 376.584 501.189C377.011 501.552 377.224 502 377.224 502.533C377.224 503.067 377.011 503.515 376.584 503.877C376.179 504.24 375.72 504.421 375.208 504.421C374.675 504.421 374.195 504.24 373.768 503.877C373.342 503.515 373.128 503.067 373.128 502.533ZM392.988 519.653C392.391 520.144 391.655 520.539 390.78 520.837C389.927 521.115 389.063 521.253 388.188 521.253C386.695 521.253 385.372 520.965 384.22 520.389C383.09 519.813 382.215 518.992 381.596 517.925C380.978 516.837 380.668 515.568 380.668 514.117C380.668 512.688 380.999 511.44 381.66 510.373C382.322 509.285 383.196 508.453 384.284 507.877C385.394 507.301 386.578 507.013 387.836 507.013C389.97 507.013 391.73 507.589 393.116 508.741L391.324 511.077C390.919 510.757 390.439 510.491 389.884 510.277C389.351 510.043 388.775 509.925 388.156 509.925C387.068 509.925 386.14 510.331 385.372 511.141C384.626 511.931 384.252 512.923 384.252 514.117C384.252 515.312 384.647 516.315 385.436 517.125C386.247 517.915 387.271 518.309 388.508 518.309C389.575 518.309 390.471 518.011 391.196 517.413L392.988 519.653ZM410.839 507.365V520.901H407.255V518.949C406.765 519.525 406.103 520.059 405.271 520.549C404.439 521.019 403.469 521.253 402.359 521.253C401.058 521.253 399.895 520.987 398.871 520.453C397.847 519.899 397.037 519.088 396.439 518.021C395.842 516.955 395.543 515.664 395.543 514.149C395.543 512.677 395.853 511.387 396.471 510.277C397.09 509.147 397.911 508.283 398.935 507.685C399.981 507.067 401.122 506.757 402.359 506.757C404.557 506.757 406.199 507.568 407.287 509.189L407.543 507.365H410.839ZM403.351 518.309C404.333 518.309 405.154 518.064 405.815 517.573C406.498 517.061 406.978 516.347 407.255 515.429V512.485C406.999 511.653 406.498 510.981 405.751 510.469C405.026 509.957 404.183 509.701 403.223 509.701C402.093 509.701 401.133 510.107 400.343 510.917C399.554 511.707 399.159 512.72 399.159 513.957C399.159 514.768 399.351 515.504 399.735 516.165C400.119 516.827 400.631 517.349 401.271 517.733C401.911 518.117 402.605 518.309 403.351 518.309ZM420.684 501.413V507.365H424.204V510.181H420.684V520.901H417.1V510.181H414.764V507.365H417.1V501.413H420.684ZM431.31 507.365V520.901H427.726V507.365H431.31ZM427.566 502.533C427.566 502 427.779 501.552 428.206 501.189C428.633 500.805 429.113 500.613 429.646 500.613C430.158 500.613 430.617 500.805 431.022 501.189C431.449 501.552 431.662 502 431.662 502.533C431.662 503.067 431.449 503.515 431.022 503.877C430.617 504.24 430.158 504.421 429.646 504.421C429.113 504.421 428.633 504.24 428.206 503.877C427.779 503.515 427.566 503.067 427.566 502.533ZM435.106 513.989C435.106 512.645 435.426 511.419 436.066 510.309C436.727 509.2 437.634 508.336 438.786 507.717C439.938 507.077 441.25 506.757 442.722 506.757C444.194 506.757 445.495 507.077 446.626 507.717C447.778 508.336 448.663 509.2 449.282 510.309C449.901 511.397 450.21 512.624 450.21 513.989C450.21 515.355 449.901 516.592 449.282 517.701C448.663 518.789 447.778 519.653 446.626 520.293C445.495 520.933 444.183 521.253 442.69 521.253C441.239 521.253 439.938 520.965 438.786 520.389C437.634 519.792 436.727 518.949 436.066 517.861C435.426 516.752 435.106 515.461 435.106 513.989ZM438.722 514.021C438.722 515.237 439.095 516.261 439.842 517.093C440.589 517.904 441.517 518.309 442.626 518.309C443.778 518.309 444.717 517.904 445.442 517.093C446.189 516.283 446.562 515.259 446.562 514.021C446.562 512.784 446.189 511.76 445.442 510.949C444.717 510.117 443.778 509.701 442.626 509.701C441.517 509.701 440.589 510.128 439.842 510.981C439.095 511.813 438.722 512.827 438.722 514.021ZM462.808 506.789C464.067 506.789 465.112 507.173 465.944 507.941C466.797 508.688 467.235 509.659 467.256 510.853V520.901H463.672V512.133C463.629 511.429 463.416 510.875 463.032 510.469C462.669 510.064 462.115 509.851 461.368 509.829C460.259 509.829 459.341 510.309 458.616 511.269C457.912 512.208 457.56 513.413 457.56 514.885V520.901H453.976V507.365H457.208L457.464 509.765C457.955 508.827 458.659 508.101 459.576 507.589C460.515 507.056 461.592 506.789 462.808 506.789Z" fill="black"/>
<path d="M106.681 214.325C105.615 215.444 105.559 216.268 105.559 234.343C105.559 252.417 105.615 253.241 106.681 254.36C107.746 255.478 108.531 255.537 125.746 255.537C142.961 255.537 143.746 255.478 144.812 254.36C145.877 253.241 145.933 252.417 145.933 234.343C145.933 216.268 145.877 215.444 144.812 214.325C143.746 213.207 142.961 213.148 125.746 213.148C108.531 213.148 107.746 213.207 106.681 214.325ZM141.447 220.213V222.568H133.597H125.746V220.213V217.858H133.597H141.447V220.213ZM141.447 239.052V250.827H125.746H110.045V239.052V227.278H125.746H141.447V239.052Z" fill="black"/>
<path d="M114.531 234.343V236.698H120.139H125.746V234.343V231.988H120.139H114.531V234.343Z" fill="black"/>
<path d="M130.232 239.052V246.117H133.597H136.961V239.052V231.988H133.597H130.232V239.052Z" fill="black"/>
<path d="M114.531 243.762V246.117H120.139H125.746V243.762V241.407H120.139H114.531V243.762Z" fill="black"/>
<path d="M106.681 304.756C105.615 305.875 105.559 306.699 105.559 324.773C105.559 342.848 105.615 343.672 106.681 344.791C107.746 345.909 108.531 345.968 125.746 345.968C142.961 345.968 143.746 345.909 144.812 344.791C145.877 343.672 145.933 342.848 145.933 324.773C145.933 306.699 145.877 305.875 144.812 304.756C143.746 303.638 142.961 303.579 125.746 303.579C108.531 303.579 107.746 303.638 106.681 304.756ZM141.447 327.128V341.258H125.746H110.045V327.128V312.999H125.746H141.447V327.128Z" fill="black"/>
<path d="M117.335 323.302L113.69 327.128L117.447 331.073C121.148 334.959 121.204 335.018 122.382 333.899C123.896 332.427 123.84 331.956 121.428 329.366L119.354 327.128L121.428 324.891C122.55 323.655 123.503 322.36 123.503 322.065C123.503 321.476 121.709 319.475 121.204 319.475C121.036 319.475 119.298 321.182 117.335 323.302Z" fill="black"/>
<path d="M128.943 320.535C127.653 322.065 127.709 322.36 130.064 324.891L132.139 327.128L130.064 329.366C127.653 331.956 127.597 332.427 129.111 333.899C130.288 335.018 130.344 334.959 134.045 331.073L137.802 327.128L134.158 323.302C132.195 321.182 130.401 319.475 130.176 319.475C130.008 319.475 129.447 319.946 128.943 320.535Z" fill="black"/>
<path d="M103.846 400.518C102.878 401.535 102.827 402.284 102.827 416.575C102.827 430.865 102.878 431.614 103.846 432.631C104.764 433.595 105.529 433.702 112.767 433.702C119.445 433.702 120.669 433.809 120.669 434.504C120.669 435.521 118.834 437.448 117.865 437.448C117.304 437.448 117.1 438.09 117.1 439.857V442.265H125.257H133.413V439.857C133.413 438.09 133.209 437.448 132.649 437.448C131.68 437.448 129.845 435.521 129.845 434.504C129.845 433.809 131.068 433.702 137.746 433.702C144.985 433.702 145.75 433.595 146.667 432.631C147.636 431.614 147.687 430.865 147.687 416.575C147.687 402.284 147.636 401.535 146.667 400.518C145.699 399.501 144.985 399.448 125.257 399.448C105.529 399.448 104.815 399.501 103.846 400.518ZM143.609 414.434V425.138H125.257H106.905V414.434V403.729H125.257H143.609V414.434Z" fill="black"/>
<path d="M107.9 498.545C106.606 499.903 106.606 557.61 107.9 558.969C109.194 560.328 141.32 560.328 142.614 558.969C143.908 557.61 143.908 499.903 142.614 498.545C141.32 497.186 109.194 497.186 107.9 498.545ZM138.96 527.558V552.735H134.316C131.271 552.735 129.368 553.134 128.606 553.934C127.084 555.452 123.43 555.452 121.907 553.934C121.146 553.134 119.243 552.735 116.198 552.735H111.554V527.558V502.381H125.257H138.96V527.558Z" fill="black"/>
<path d="M118.71 515.569C118.406 516.208 118.634 517.248 119.015 517.807C119.547 518.446 119.547 519.246 119.167 519.965C118.71 520.604 118.406 521.803 118.406 522.523C118.406 523.801 119.243 523.961 125.257 523.961C131.271 523.961 132.108 523.801 132.108 522.523C132.108 521.803 131.804 520.684 131.423 520.045C130.966 519.326 131.043 518.366 131.575 517.487C132.946 515.169 131.119 513.651 129.215 515.409C127.465 517.088 122.745 517.168 121.451 515.569C120.233 514.05 119.243 514.05 118.71 515.569Z" fill="black"/>
<path d="M116.122 529.956C116.122 532.593 116.426 533.552 117.264 533.552C117.873 533.552 118.405 534.112 118.405 534.751C118.405 535.391 118.938 535.95 119.547 535.95C120.309 535.95 120.689 536.75 120.689 538.348C120.689 539.947 121.07 540.746 121.831 540.746C122.592 540.746 122.973 539.947 122.973 538.348C122.973 536.19 123.201 535.95 125.257 535.95C127.312 535.95 127.541 536.19 127.541 538.348C127.541 539.947 127.921 540.746 128.683 540.746C129.444 540.746 129.824 539.947 129.824 538.348C129.824 536.75 130.205 535.95 130.966 535.95C131.575 535.95 132.108 535.391 132.108 534.751C132.108 534.112 132.641 533.552 133.25 533.552C134.088 533.552 134.392 532.593 134.392 529.956V526.359H125.257H116.122V529.956Z" fill="black"/>
<path d="M201.232 554.736H194.872L193.192 558.84H190.432L198.16 540.648H198.328L206.056 558.84H202.84L201.232 554.736ZM200.296 552.336L198.112 546.816L195.856 552.336H200.296ZM215.109 548.256C216.053 548.256 216.837 548.544 217.461 549.12C218.101 549.68 218.429 550.408 218.445 551.304V558.84H215.757V552.264C215.725 551.736 215.565 551.32 215.277 551.016C215.005 550.712 214.589 550.552 214.029 550.536C213.197 550.536 212.509 550.896 211.965 551.616C211.437 552.32 211.173 553.224 211.173 554.328V558.84H208.485V548.688H210.909L211.101 550.488C211.469 549.784 211.997 549.24 212.685 548.856C213.389 548.456 214.197 548.256 215.109 548.256ZM232.973 540.12V558.84H230.285V557.472C229.165 558.56 227.837 559.104 226.301 559.104C225.357 559.104 224.501 558.88 223.733 558.432C222.981 557.984 222.389 557.344 221.957 556.512C221.525 555.68 221.309 554.712 221.309 553.608C221.309 552.504 221.533 551.544 221.981 550.728C222.445 549.912 223.077 549.296 223.877 548.88C224.693 548.448 225.613 548.232 226.637 548.232C227.373 548.232 228.069 548.376 228.725 548.664C229.381 548.936 229.909 549.312 230.309 549.792V540.12H232.973ZM227.165 556.824C227.933 556.824 228.589 556.632 229.133 556.248C229.677 555.864 230.061 555.328 230.285 554.64V552.48C230.093 551.856 229.709 551.344 229.133 550.944C228.573 550.544 227.917 550.344 227.165 550.344C226.605 550.344 226.085 550.488 225.605 550.776C225.125 551.048 224.741 551.432 224.453 551.928C224.165 552.408 224.021 552.952 224.021 553.56C224.021 554.168 224.165 554.72 224.453 555.216C224.741 555.712 225.125 556.104 225.605 556.392C226.085 556.68 226.605 556.824 227.165 556.824ZM239.296 551.04C239.568 550.496 239.952 550.008 240.448 549.576C240.944 549.144 241.448 548.816 241.96 548.592C242.488 548.352 242.928 548.232 243.28 548.232L243.16 550.92C242.424 550.856 241.768 550.992 241.192 551.328C240.616 551.648 240.168 552.096 239.848 552.672C239.528 553.232 239.368 553.832 239.368 554.472V558.84H236.68V548.688H239.104L239.296 551.04ZM244.746 553.656C244.746 552.648 244.986 551.728 245.466 550.896C245.962 550.064 246.642 549.416 247.506 548.952C248.37 548.472 249.354 548.232 250.458 548.232C251.562 548.232 252.538 548.472 253.386 548.952C254.25 549.416 254.914 550.064 255.378 550.896C255.842 551.712 256.074 552.632 256.074 553.656C256.074 554.68 255.842 555.608 255.378 556.44C254.914 557.256 254.25 557.904 253.386 558.384C252.538 558.864 251.554 559.104 250.434 559.104C249.346 559.104 248.37 558.888 247.506 558.456C246.642 558.008 245.962 557.376 245.466 556.56C244.986 555.728 244.746 554.76 244.746 553.656ZM247.458 553.68C247.458 554.592 247.738 555.36 248.298 555.984C248.858 556.592 249.554 556.896 250.386 556.896C251.25 556.896 251.954 556.592 252.498 555.984C253.058 555.376 253.338 554.608 253.338 553.68C253.338 552.752 253.058 551.984 252.498 551.376C251.954 550.752 251.25 550.44 250.386 550.44C249.554 550.44 248.858 550.76 248.298 551.4C247.738 552.024 247.458 552.784 247.458 553.68ZM261.587 548.688V558.84H258.899V548.688H261.587ZM258.779 545.064C258.779 544.664 258.939 544.328 259.259 544.056C259.579 543.768 259.939 543.624 260.339 543.624C260.723 543.624 261.067 543.768 261.371 544.056C261.691 544.328 261.851 544.664 261.851 545.064C261.851 545.464 261.691 545.8 261.371 546.072C261.067 546.344 260.723 546.48 260.339 546.48C259.939 546.48 259.579 546.344 259.259 546.072C258.939 545.8 258.779 545.464 258.779 545.064ZM276.098 540.12V558.84H273.41V557.472C272.29 558.56 270.962 559.104 269.426 559.104C268.482 559.104 267.626 558.88 266.858 558.432C266.106 557.984 265.514 557.344 265.082 556.512C264.65 555.68 264.434 554.712 264.434 553.608C264.434 552.504 264.658 551.544 265.106 550.728C265.57 549.912 266.202 549.296 267.002 548.88C267.818 548.448 268.738 548.232 269.762 548.232C270.498 548.232 271.194 548.376 271.85 548.664C272.506 548.936 273.034 549.312 273.434 549.792V540.12H276.098ZM270.29 556.824C271.058 556.824 271.714 556.632 272.258 556.248C272.802 555.864 273.186 555.328 273.41 554.64V552.48C273.218 551.856 272.834 551.344 272.258 550.944C271.698 550.544 271.042 550.344 270.29 550.344C269.73 550.344 269.21 550.488 268.73 550.776C268.25 551.048 267.866 551.432 267.578 551.928C267.29 552.408 267.146 552.952 267.146 553.56C267.146 554.168 267.29 554.72 267.578 555.216C267.866 555.712 268.25 556.104 268.73 556.392C269.21 556.68 269.73 556.824 270.29 556.824ZM295.269 540.888C292.821 547.56 290.557 553.696 288.477 559.296H286.053C286.821 557.248 287.957 554.176 289.461 550.08L292.845 540.888H295.269ZM307.454 548.688V558.84H304.766V548.688H307.454ZM304.646 545.064C304.646 544.664 304.806 544.328 305.126 544.056C305.446 543.768 305.806 543.624 306.206 543.624C306.59 543.624 306.934 543.768 307.238 544.056C307.558 544.328 307.718 544.664 307.718 545.064C307.718 545.464 307.558 545.8 307.238 546.072C306.934 546.344 306.59 546.48 306.206 546.48C305.806 546.48 305.446 546.344 305.126 546.072C304.806 545.8 304.646 545.464 304.646 545.064ZM310.613 550.128C310.613 548.528 311.013 547.048 311.813 545.688C312.613 544.312 313.693 543.216 315.053 542.4C316.429 541.584 317.925 541.176 319.541 541.176C321.141 541.176 322.621 541.584 323.981 542.4C325.357 543.216 326.453 544.312 327.269 545.688C328.085 547.064 328.493 548.544 328.493 550.128C328.493 551.744 328.085 553.232 327.269 554.592C326.469 555.952 325.381 557.032 324.005 557.832C322.629 558.632 321.141 559.032 319.541 559.032C317.925 559.032 316.429 558.64 315.053 557.856C313.693 557.056 312.613 555.976 311.813 554.616C311.013 553.256 310.613 551.76 310.613 550.128ZM313.493 550.128C313.493 551.264 313.765 552.304 314.309 553.248C314.853 554.192 315.589 554.944 316.517 555.504C317.461 556.064 318.493 556.344 319.613 556.344C320.717 556.344 321.725 556.072 322.637 555.528C323.549 554.968 324.269 554.216 324.797 553.272C325.341 552.312 325.613 551.264 325.613 550.128C325.613 548.992 325.341 547.944 324.797 546.984C324.253 546.024 323.517 545.264 322.589 544.704C321.661 544.144 320.645 543.864 319.541 543.864C318.421 543.864 317.397 544.144 316.469 544.704C315.557 545.264 314.829 546.024 314.285 546.984C313.757 547.944 313.493 548.992 313.493 550.128ZM341.392 544.92C339.888 544.136 338.552 543.744 337.384 543.744C336.52 543.744 335.832 543.936 335.32 544.32C334.824 544.704 334.576 545.232 334.576 545.904C334.576 546.56 334.888 547.112 335.512 547.56C336.152 547.992 337.04 548.424 338.176 548.856C339.04 549.16 339.776 549.512 340.384 549.912C341.008 550.296 341.52 550.824 341.92 551.496C342.32 552.168 342.52 553.016 342.52 554.04C342.52 554.968 342.288 555.808 341.824 556.56C341.36 557.312 340.688 557.912 339.808 558.36C338.928 558.808 337.888 559.032 336.688 559.032C335.632 559.032 334.592 558.872 333.568 558.552C332.544 558.216 331.632 557.76 330.832 557.184L332.08 555C332.672 555.448 333.368 555.824 334.168 556.128C334.984 556.416 335.736 556.56 336.424 556.56C337.272 556.56 338.016 556.36 338.656 555.96C339.296 555.544 339.616 554.912 339.616 554.064C339.616 553.392 339.344 552.832 338.8 552.384C338.272 551.936 337.528 551.528 336.568 551.16C335.576 550.792 334.752 550.432 334.096 550.08C333.44 549.712 332.872 549.208 332.392 548.568C331.928 547.912 331.696 547.096 331.696 546.12C331.696 544.696 332.176 543.552 333.136 542.688C334.112 541.808 335.392 541.336 336.976 541.272C338.128 541.272 339.136 541.408 340 541.68C340.88 541.936 341.696 542.304 342.448 542.784L341.392 544.92Z" fill="black"/>
<defs>
<filter id="filter0_b" x="89.9363" y="386.028" width="466.064" height="69.6575" filterUnits="userSpaceOnUse" color-interpolation-filters="sRGB">
<feFlood flood-opacity="0" result="BackgroundImageFix"/>
<feGaussianBlur in="BackgroundImage" stdDeviation="2"/>
<feComposite in2="SourceAlpha" operator="in" result="effect1_backgroundBlur"/>
<feBlend mode="normal" in="SourceGraphic" in2="effect1_backgroundBlur" result="shape"/>
</filter>
<filter id="filter1_b" x="89.9363" y="199" width="466.064" height="69.6575" filterUnits="userSpaceOnUse" color-interpolation-filters="sRGB">
<feFlood flood-opacity="0" result="BackgroundImageFix"/>
<feGaussianBlur in="BackgroundImage" stdDeviation="2"/>
<feComposite in2="SourceAlpha" operator="in" result="effect1_backgroundBlur"/>
<feBlend mode="normal" in="SourceGraphic" in2="effect1_backgroundBlur" result="shape"/>
</filter>
<filter id="filter2_b" x="89.9363" y="290.459" width="466.064" height="69.6575" filterUnits="userSpaceOnUse" color-interpolation-filters="sRGB">
<feFlood flood-opacity="0" result="BackgroundImageFix"/>
<feGaussianBlur in="BackgroundImage" stdDeviation="2"/>
<feComposite in2="SourceAlpha" operator="in" result="effect1_backgroundBlur"/>
<feBlend mode="normal" in="SourceGraphic" in2="effect1_backgroundBlur" result="shape"/>
</filter>
<filter id="filter3_b" x="89.9363" y="478.514" width="466.064" height="100.486" filterUnits="userSpaceOnUse" color-interpolation-filters="sRGB">
<feFlood flood-opacity="0" result="BackgroundImageFix"/>
<feGaussianBlur in="BackgroundImage" stdDeviation="2"/>
<feComposite in2="SourceAlpha" operator="in" result="effect1_backgroundBlur"/>
<feBlend mode="normal" in="SourceGraphic" in2="effect1_backgroundBlur" result="shape"/>
</filter>
</defs>
</svg>

