<svg width="598" height="606" viewBox="0 0 598 606" fill="none" xmlns="http://www.w3.org/2000/svg">
<rect width="495" height="182" fill="white"/>
<path d="M88.424 73.44C86.4187 72.3947 84.6373 71.872 83.08 71.872C81.928 71.872 81.0107 72.128 80.328 72.64C79.6667 73.152 79.336 73.856 79.336 74.752C79.336 75.6267 79.752 76.3627 80.584 76.96C81.4373 77.536 82.6213 78.112 84.136 78.688C85.288 79.0933 86.2693 79.5627 87.08 80.096C87.912 80.608 88.5947 81.312 89.128 82.208C89.6613 83.104 89.928 84.2347 89.928 85.6C89.928 86.8373 89.6187 87.9573 89 88.96C88.3813 89.9627 87.4853 90.7627 86.312 91.36C85.1387 91.9573 83.752 92.256 82.152 92.256C80.744 92.256 79.3573 92.0427 77.992 91.616C76.6267 91.168 75.4107 90.56 74.344 89.792L76.008 86.88C76.7973 87.4773 77.7253 87.9787 78.792 88.384C79.88 88.768 80.8827 88.96 81.8 88.96C82.9307 88.96 83.9227 88.6933 84.776 88.16C85.6293 87.6053 86.056 86.7627 86.056 85.632C86.056 84.736 85.6933 83.9893 84.968 83.392C84.264 82.7947 83.272 82.2507 81.992 81.76C80.6693 81.2693 79.5707 80.7893 78.696 80.32C77.8213 79.8293 77.064 79.1573 76.424 78.304C75.8053 77.4293 75.496 76.3413 75.496 75.04C75.496 73.1413 76.136 71.616 77.416 70.464C78.7173 69.2907 80.424 68.6613 82.536 68.576C84.072 68.576 85.416 68.7573 86.568 69.12C87.7413 69.4613 88.8293 69.952 89.832 70.592L88.424 73.44ZM101.417 68.704C104.062 68.704 106.132 69.3653 107.625 70.688C109.118 72.0107 109.865 73.8453 109.865 76.192C109.865 77.536 109.598 78.7947 109.065 79.968C108.532 81.12 107.668 82.0693 106.473 82.816C105.3 83.5413 103.785 83.904 101.929 83.904H98.569V92H94.825V68.704H101.417ZM101.929 80.32C102.953 80.32 103.774 80.1067 104.393 79.68C105.033 79.232 105.481 78.6987 105.737 78.08C106.014 77.44 106.153 76.832 106.153 76.256C106.153 75.2747 105.833 74.368 105.193 73.536C104.574 72.704 103.518 72.288 102.025 72.288H98.569V80.32H101.929ZM129.844 68.704V72.288H118.132V78.496H128.564V82.08H118.132V88.416H130.292V92H114.388V68.704H129.844ZM152.73 90.176C152.047 90.6667 151.098 91.136 149.882 91.584C148.687 92.032 147.375 92.256 145.946 92.256C143.535 92.256 141.423 91.7333 139.61 90.688C137.818 89.6213 136.431 88.2027 135.45 86.432C134.49 84.64 134.01 82.6773 134.01 80.544C134.01 78.2187 134.49 76.1387 135.45 74.304C136.431 72.4693 137.786 71.04 139.514 70.016C141.263 68.9707 143.247 68.448 145.466 68.448C146.831 68.448 148.09 68.6293 149.242 68.992C150.415 69.3547 151.45 69.8133 152.346 70.368L150.874 73.856C149.146 72.64 147.386 72.032 145.594 72.032C144.229 72.032 142.949 72.4053 141.754 73.152C140.581 73.8773 139.642 74.88 138.938 76.16C138.234 77.4187 137.882 78.8053 137.882 80.32C137.882 81.92 138.202 83.36 138.842 84.64C139.503 85.8987 140.431 86.8907 141.626 87.616C142.842 88.32 144.239 88.672 145.818 88.672C146.949 88.672 147.962 88.5013 148.858 88.16C149.775 87.8187 150.543 87.3813 151.162 86.848L152.73 90.176ZM161.444 68.704V92H157.7V68.704H161.444ZM179.824 86.528H171.344L169.104 92H165.424L175.728 67.744H175.952L186.256 92H181.968L179.824 86.528ZM178.576 83.328L175.664 75.968L172.656 83.328H178.576ZM193.975 68.704V88.416H205.463V92H190.231V68.704H193.975ZM214.132 68.704V92H210.388V68.704H214.132ZM238.56 88.416V92H218.88C219.114 91.6587 221.184 88.512 225.088 82.56C228.33 77.5467 230.57 74.1227 231.808 72.288H223.168C222.464 72.288 221.813 72.0853 221.216 71.68C220.64 71.2747 220.352 70.7733 220.352 70.176V67.52H223.808V67.968C223.808 68.3307 223.861 68.544 223.968 68.608C224.096 68.672 224.373 68.704 224.8 68.704H238.368L225.28 88.416H238.56ZM258.906 68.704V72.288H247.194V78.496H257.626V82.08H247.194V88.416H259.354V92H243.45V68.704H258.906ZM276.737 73.44C274.731 72.3947 272.95 71.872 271.393 71.872C270.241 71.872 269.323 72.128 268.641 72.64C267.979 73.152 267.649 73.856 267.649 74.752C267.649 75.6267 268.065 76.3627 268.897 76.96C269.75 77.536 270.934 78.112 272.449 78.688C273.601 79.0933 274.582 79.5627 275.393 80.096C276.225 80.608 276.907 81.312 277.441 82.208C277.974 83.104 278.241 84.2347 278.241 85.6C278.241 86.8373 277.931 87.9573 277.312 88.96C276.694 89.9627 275.798 90.7627 274.625 91.36C273.451 91.9573 272.065 92.256 270.465 92.256C269.057 92.256 267.67 92.0427 266.305 91.616C264.939 91.168 263.723 90.56 262.657 89.792L264.321 86.88C265.11 87.4773 266.038 87.9787 267.105 88.384C268.193 88.768 269.195 88.96 270.113 88.96C271.243 88.96 272.235 88.6933 273.089 88.16C273.942 87.6053 274.369 86.7627 274.369 85.632C274.369 84.736 274.006 83.9893 273.281 83.392C272.577 82.7947 271.585 82.2507 270.305 81.76C268.982 81.2693 267.883 80.7893 267.009 80.32C266.134 79.8293 265.377 79.1573 264.737 78.304C264.118 77.4293 263.809 76.3413 263.809 75.04C263.809 73.1413 264.449 71.616 265.729 70.464C267.03 69.2907 268.737 68.6613 270.849 68.576C272.385 68.576 273.729 68.7573 274.881 69.12C276.054 69.4613 277.142 69.952 278.145 70.592L276.737 73.44ZM297.132 68.704V92H293.388V68.704H297.132ZM324.12 68.704V92.832H324.024L307.224 76.544L307.32 92H303.544V67.904H303.736L320.472 84.384L320.408 68.704H324.12Z" fill="#0066B3"/>
<path d="M124.2 165.44C122.493 166.667 120.12 167.84 117.08 168.96C114.093 170.08 110.813 170.64 107.24 170.64C101.213 170.64 95.9333 169.333 91.4 166.72C86.92 164.053 83.4533 160.507 81 156.08C78.6 151.6 77.4 146.693 77.4 141.36C77.4 135.547 78.6 130.347 81 125.76C83.4533 121.173 86.84 117.6 91.16 115.04C95.5333 112.427 100.493 111.12 106.04 111.12C109.453 111.12 112.6 111.573 115.48 112.48C118.413 113.387 121 114.533 123.24 115.92L119.56 124.64C115.24 121.6 110.84 120.08 106.36 120.08C102.947 120.08 99.7467 121.013 96.76 122.88C93.8267 124.693 91.48 127.2 89.72 130.4C87.96 133.547 87.08 137.013 87.08 140.8C87.08 144.8 87.88 148.4 89.48 151.6C91.1333 154.747 93.4533 157.227 96.44 159.04C99.48 160.8 102.973 161.68 106.92 161.68C109.747 161.68 112.28 161.253 114.52 160.4C116.813 159.547 118.733 158.453 120.28 157.12L124.2 165.44ZM168.465 170L155.345 149.76H154.385H145.985V170H136.625V111.76H153.025C159.532 111.76 164.732 113.413 168.625 116.72C172.572 120.027 174.545 124.613 174.545 130.48C174.545 134.053 173.772 137.387 172.225 140.48C170.732 143.52 168.358 145.867 165.105 147.52L179.265 170H168.465ZM145.985 140.8H154.305C158.038 140.8 160.732 139.787 162.385 137.76C164.092 135.68 164.945 133.36 164.945 130.8C164.945 129.307 164.625 127.813 163.985 126.32C163.345 124.773 162.252 123.467 160.705 122.4C159.158 121.28 157.132 120.72 154.625 120.72H145.985V140.8ZM228.859 111.76V120.72H199.579V136.24H225.659V145.2H199.579V161.04H229.979V170H190.219V111.76H228.859ZM272.795 156.32H251.595L245.995 170H236.795L262.555 109.36H263.115L288.875 170H278.155L272.795 156.32ZM269.675 148.32L262.395 129.92L254.875 148.32H269.675ZM329.003 111.76V120.72H313.963V170H304.683V120.72H290.043V111.76H329.003ZM350.204 111.76V170H340.844V111.76H350.204ZM362.634 140.96C362.634 135.627 363.968 130.693 366.634 126.16C369.301 121.573 372.901 117.92 377.434 115.2C382.021 112.48 387.008 111.12 392.394 111.12C397.728 111.12 402.661 112.48 407.194 115.2C411.781 117.92 415.434 121.573 418.154 126.16C420.874 130.747 422.234 135.68 422.234 140.96C422.234 146.347 420.874 151.307 418.154 155.84C415.488 160.373 411.861 163.973 407.274 166.64C402.688 169.307 397.728 170.64 392.394 170.64C387.008 170.64 382.021 169.333 377.434 166.72C372.901 164.053 369.301 160.453 366.634 155.92C363.968 151.387 362.634 146.4 362.634 140.96ZM372.234 140.96C372.234 144.747 373.141 148.213 374.954 151.36C376.768 154.507 379.221 157.013 382.314 158.88C385.461 160.747 388.901 161.68 392.634 161.68C396.314 161.68 399.674 160.773 402.714 158.96C405.754 157.093 408.154 154.587 409.914 151.44C411.728 148.24 412.634 144.747 412.634 140.96C412.634 137.173 411.728 133.68 409.914 130.48C408.101 127.28 405.648 124.747 402.554 122.88C399.461 121.013 396.074 120.08 392.394 120.08C388.661 120.08 385.248 121.013 382.154 122.88C379.114 124.747 376.688 127.28 374.874 130.48C373.114 133.68 372.234 137.173 372.234 140.96ZM486.112 111.76V172.08H485.872L443.872 131.36L444.112 170H434.672V109.76H435.152L476.992 150.96L476.832 111.76H486.112Z" fill="#222D5B"/>
<circle cx="392" cy="141" r="15" fill="#FDB813"/>
<g filter="url(#filter0_b)">
<path d="M130 436C130 430.477 134.477 426 140 426H588C593.523 426 598 430.477 598 436V476C598 481.523 593.523 486 588 486H140C134.477 486 130 481.523 130 476V436Z" fill="#FDB717"/>
</g>
<path d="M231.2 440.705H237.824C240.747 440.705 243.157 441.281 245.056 442.433C246.976 443.585 248.373 445.067 249.248 446.881C250.123 448.694 250.56 450.625 250.56 452.673C250.56 454.934 250.027 456.929 248.96 458.657C247.915 460.363 246.507 461.686 244.736 462.625C242.965 463.542 241.035 464.001 238.944 464.001H231.2V440.705ZM238.272 460.417C239.936 460.417 241.397 460.107 242.656 459.489C243.936 458.87 244.928 457.963 245.632 456.769C246.357 455.553 246.72 454.102 246.72 452.417C246.72 450.582 246.325 449.057 245.536 447.841C244.768 446.603 243.776 445.697 242.56 445.121C241.365 444.545 240.128 444.257 238.848 444.257H234.944V460.417H238.272ZM261.336 461.281C262.338 461.281 263.352 460.929 264.376 460.225L266.008 462.881C265.282 463.329 264.504 463.691 263.672 463.969C262.84 464.225 262.04 464.353 261.272 464.353C259.714 464.353 258.36 464.043 257.208 463.425C256.077 462.806 255.202 461.953 254.584 460.865C253.986 459.777 253.688 458.529 253.688 457.121C253.688 455.798 254.029 454.582 254.712 453.473C255.394 452.363 256.322 451.489 257.496 450.849C258.669 450.187 259.949 449.857 261.336 449.857C263.17 449.857 264.696 450.401 265.912 451.489C267.128 452.555 267.938 454.07 268.344 456.033L257.912 459.553C258.274 460.107 258.754 460.534 259.352 460.833C259.949 461.131 260.61 461.281 261.336 461.281ZM261.048 452.673C259.917 452.673 258.989 453.067 258.264 453.857C257.56 454.646 257.208 455.67 257.208 456.929C257.208 457.163 257.218 457.345 257.24 457.473L264.344 454.945C264.066 454.283 263.661 453.739 263.128 453.313C262.594 452.886 261.901 452.673 261.048 452.673ZM275.934 464.289C274.889 464.289 273.897 464.107 272.958 463.745C272.041 463.361 271.284 462.827 270.686 462.145L272.19 460.129C273.321 461.238 274.473 461.793 275.646 461.793C276.286 461.793 276.809 461.675 277.214 461.441C277.641 461.185 277.854 460.811 277.854 460.321C277.854 459.809 277.641 459.425 277.214 459.169C276.788 458.913 276.308 458.71 275.774 458.561C275.262 458.39 274.932 458.283 274.782 458.241C273.609 457.878 272.734 457.355 272.158 456.673C271.582 455.969 271.294 455.147 271.294 454.209C271.294 453.462 271.476 452.769 271.838 452.129C272.222 451.467 272.788 450.934 273.534 450.529C274.302 450.123 275.23 449.921 276.318 449.921C277.342 449.921 278.228 450.038 278.974 450.273C279.742 450.507 280.457 450.881 281.118 451.393L279.742 453.537C279.358 453.174 278.889 452.886 278.334 452.673C277.801 452.459 277.31 452.353 276.862 452.353C276.308 452.353 275.849 452.481 275.486 452.737C275.124 452.993 274.942 453.323 274.942 453.729C274.921 454.219 275.102 454.593 275.486 454.849C275.87 455.083 276.489 455.339 277.342 455.617C277.705 455.723 277.94 455.798 278.046 455.841C279.113 456.182 279.945 456.662 280.542 457.281C281.14 457.878 281.438 458.667 281.438 459.649C281.438 460.971 280.958 462.081 279.998 462.977C279.06 463.851 277.705 464.289 275.934 464.289ZM290.554 457.857L288.986 459.073V464.001H285.402V439.041H288.986V455.361L295.77 450.145L297.946 452.065L293.018 455.905L298.522 464.001H294.362L290.554 457.857ZM306.86 444.513V450.465H310.38V453.281H306.86V464.001H303.276V453.281H300.94V450.465H303.276V444.513H306.86ZM312.782 457.089C312.782 455.745 313.102 454.518 313.742 453.409C314.403 452.299 315.31 451.435 316.462 450.817C317.614 450.177 318.926 449.857 320.398 449.857C321.87 449.857 323.171 450.177 324.302 450.817C325.454 451.435 326.339 452.299 326.958 453.409C327.576 454.497 327.885 455.723 327.885 457.089C327.885 458.454 327.576 459.691 326.958 460.801C326.339 461.889 325.454 462.753 324.302 463.393C323.171 464.033 321.859 464.353 320.366 464.353C318.915 464.353 317.614 464.065 316.462 463.489C315.31 462.891 314.403 462.049 313.742 460.961C313.102 459.851 312.782 458.561 312.782 457.089ZM316.398 457.121C316.398 458.337 316.771 459.361 317.518 460.193C318.264 461.003 319.192 461.409 320.302 461.409C321.454 461.409 322.392 461.003 323.118 460.193C323.864 459.382 324.238 458.358 324.238 457.121C324.238 455.883 323.864 454.859 323.118 454.049C322.392 453.217 321.454 452.801 320.302 452.801C319.192 452.801 318.264 453.227 317.518 454.081C316.771 454.913 316.398 455.926 316.398 457.121ZM340.548 449.857C341.806 449.857 342.948 450.155 343.972 450.753C344.996 451.35 345.796 452.203 346.372 453.313C346.948 454.422 347.236 455.713 347.236 457.185C347.236 458.635 346.916 459.905 346.276 460.993C345.657 462.081 344.782 462.913 343.652 463.489C342.542 464.065 341.284 464.353 339.876 464.353C338.98 464.353 338.116 464.171 337.284 463.809C336.452 463.446 335.769 462.955 335.236 462.337V470.497H331.652V450.209H334.756L335.076 452.225C335.78 451.499 336.59 450.923 337.508 450.497C338.446 450.07 339.46 449.857 340.548 449.857ZM339.172 461.505C339.961 461.505 340.686 461.323 341.348 460.961C342.03 460.577 342.574 460.065 342.98 459.425C343.385 458.785 343.588 458.059 343.588 457.249C343.588 455.99 343.182 454.955 342.372 454.145C341.582 453.313 340.601 452.897 339.428 452.897C338.382 452.897 337.497 453.153 336.772 453.665C336.068 454.177 335.556 454.891 335.236 455.809V458.529C335.449 459.403 335.908 460.118 336.612 460.673C337.337 461.227 338.19 461.505 339.172 461.505ZM373.981 458.529H365.501L363.261 464.001H359.581L369.885 439.745H370.109L380.413 464.001H376.125L373.981 458.529ZM372.733 455.329L369.821 447.969L366.812 455.329H372.733ZM392.548 449.857C393.806 449.857 394.948 450.155 395.972 450.753C396.996 451.35 397.796 452.203 398.372 453.313C398.948 454.422 399.236 455.713 399.236 457.185C399.236 458.635 398.916 459.905 398.276 460.993C397.657 462.081 396.782 462.913 395.652 463.489C394.542 464.065 393.284 464.353 391.876 464.353C390.98 464.353 390.116 464.171 389.284 463.809C388.452 463.446 387.769 462.955 387.236 462.337V470.497H383.652V450.209H386.756L387.076 452.225C387.78 451.499 388.59 450.923 389.508 450.497C390.446 450.07 391.46 449.857 392.548 449.857ZM391.172 461.505C391.961 461.505 392.686 461.323 393.348 460.961C394.03 460.577 394.574 460.065 394.98 459.425C395.385 458.785 395.588 458.059 395.588 457.249C395.588 455.99 395.182 454.955 394.372 454.145C393.582 453.313 392.601 452.897 391.428 452.897C390.382 452.897 389.497 453.153 388.772 453.665C388.068 454.177 387.556 454.891 387.236 455.809V458.529C387.449 459.403 387.908 460.118 388.612 460.673C389.337 461.227 390.19 461.505 391.172 461.505ZM411.923 449.857C413.181 449.857 414.323 450.155 415.347 450.753C416.371 451.35 417.171 452.203 417.747 453.313C418.323 454.422 418.611 455.713 418.611 457.185C418.611 458.635 418.291 459.905 417.651 460.993C417.032 462.081 416.157 462.913 415.027 463.489C413.917 464.065 412.659 464.353 411.251 464.353C410.355 464.353 409.491 464.171 408.659 463.809C407.827 463.446 407.144 462.955 406.611 462.337V470.497H403.027V450.209H406.131L406.451 452.225C407.155 451.499 407.965 450.923 408.883 450.497C409.821 450.07 410.835 449.857 411.923 449.857ZM410.547 461.505C411.336 461.505 412.061 461.323 412.723 460.961C413.405 460.577 413.949 460.065 414.355 459.425C414.76 458.785 414.963 458.059 414.963 457.249C414.963 455.99 414.557 454.955 413.747 454.145C412.957 453.313 411.976 452.897 410.803 452.897C409.757 452.897 408.872 453.153 408.147 453.665C407.443 454.177 406.931 454.891 406.611 455.809V458.529C406.824 459.403 407.283 460.118 407.987 460.673C408.712 461.227 409.565 461.505 410.547 461.505ZM425.986 439.041V464.001H422.402V439.041H425.986ZM434.486 450.465V464.001H430.902V450.465H434.486ZM430.742 445.633C430.742 445.099 430.955 444.651 431.382 444.289C431.808 443.905 432.288 443.713 432.822 443.713C433.334 443.713 433.792 443.905 434.198 444.289C434.624 444.651 434.838 445.099 434.838 445.633C434.838 446.166 434.624 446.614 434.198 446.977C433.792 447.339 433.334 447.521 432.822 447.521C432.288 447.521 431.808 447.339 431.382 446.977C430.955 446.614 430.742 446.166 430.742 445.633ZM450.602 462.753C450.004 463.243 449.268 463.638 448.394 463.937C447.54 464.214 446.676 464.353 445.802 464.353C444.308 464.353 442.986 464.065 441.834 463.489C440.703 462.913 439.828 462.091 439.21 461.025C438.591 459.937 438.282 458.667 438.282 457.217C438.282 455.787 438.612 454.539 439.274 453.473C439.935 452.385 440.81 451.553 441.898 450.977C443.007 450.401 444.191 450.113 445.45 450.113C447.583 450.113 449.343 450.689 450.73 451.841L448.938 454.177C448.532 453.857 448.052 453.59 447.498 453.377C446.964 453.142 446.388 453.025 445.77 453.025C444.682 453.025 443.754 453.43 442.986 454.241C442.239 455.03 441.866 456.022 441.866 457.217C441.866 458.411 442.26 459.414 443.05 460.225C443.86 461.014 444.884 461.409 446.122 461.409C447.188 461.409 448.084 461.11 448.81 460.513L450.602 462.753ZM468.453 450.465V464.001H464.869V462.049C464.378 462.625 463.717 463.158 462.885 463.649C462.053 464.118 461.082 464.353 459.973 464.353C458.671 464.353 457.509 464.086 456.485 463.553C455.461 462.998 454.65 462.187 454.053 461.121C453.455 460.054 453.157 458.763 453.157 457.249C453.157 455.777 453.466 454.486 454.085 453.377C454.703 452.246 455.525 451.382 456.549 450.785C457.594 450.166 458.735 449.857 459.973 449.857C462.17 449.857 463.813 450.667 464.901 452.289L465.157 450.465H468.453ZM460.965 461.409C461.946 461.409 462.767 461.163 463.429 460.673C464.111 460.161 464.591 459.446 464.869 458.529V455.585C464.613 454.753 464.111 454.081 463.365 453.569C462.639 453.057 461.797 452.801 460.837 452.801C459.706 452.801 458.746 453.206 457.957 454.017C457.167 454.806 456.773 455.819 456.773 457.057C456.773 457.867 456.965 458.603 457.349 459.265C457.733 459.926 458.245 460.449 458.885 460.833C459.525 461.217 460.218 461.409 460.965 461.409ZM478.298 444.513V450.465H481.818V453.281H478.298V464.001H474.714V453.281H472.378V450.465H474.714V444.513H478.298ZM488.923 450.465V464.001H485.339V450.465H488.923ZM485.179 445.633C485.179 445.099 485.392 444.651 485.819 444.289C486.246 443.905 486.726 443.713 487.259 443.713C487.771 443.713 488.23 443.905 488.635 444.289C489.062 444.651 489.275 445.099 489.275 445.633C489.275 446.166 489.062 446.614 488.635 446.977C488.23 447.339 487.771 447.521 487.259 447.521C486.726 447.521 486.246 447.339 485.819 446.977C485.392 446.614 485.179 446.166 485.179 445.633ZM492.719 457.089C492.719 455.745 493.039 454.518 493.679 453.409C494.34 452.299 495.247 451.435 496.399 450.817C497.551 450.177 498.863 449.857 500.335 449.857C501.807 449.857 503.108 450.177 504.239 450.817C505.391 451.435 506.276 452.299 506.895 453.409C507.514 454.497 507.823 455.723 507.823 457.089C507.823 458.454 507.514 459.691 506.895 460.801C506.276 461.889 505.391 462.753 504.239 463.393C503.108 464.033 501.796 464.353 500.303 464.353C498.852 464.353 497.551 464.065 496.399 463.489C495.247 462.891 494.34 462.049 493.679 460.961C493.039 459.851 492.719 458.561 492.719 457.089ZM496.335 457.121C496.335 458.337 496.708 459.361 497.455 460.193C498.202 461.003 499.13 461.409 500.239 461.409C501.391 461.409 502.33 461.003 503.055 460.193C503.802 459.382 504.175 458.358 504.175 457.121C504.175 455.883 503.802 454.859 503.055 454.049C502.33 453.217 501.391 452.801 500.239 452.801C499.13 452.801 498.202 453.227 497.455 454.081C496.708 454.913 496.335 455.926 496.335 457.121ZM520.421 449.889C521.68 449.889 522.725 450.273 523.557 451.041C524.41 451.787 524.848 452.758 524.869 453.953V464.001H521.285V455.233C521.242 454.529 521.029 453.974 520.645 453.569C520.282 453.163 519.728 452.95 518.981 452.929C517.872 452.929 516.954 453.409 516.229 454.369C515.525 455.307 515.173 456.513 515.173 457.985V464.001H511.589V450.465H514.821L515.077 452.865C515.568 451.926 516.272 451.201 517.189 450.689C518.128 450.155 519.205 449.889 520.421 449.889Z" fill="black"/>
<g filter="url(#filter1_b)">
<path d="M130 254C130 248.477 134.477 244 140 244H588C593.523 244 598 248.477 598 254V294C598 299.523 593.523 304 588 304H140C134.477 304 130 299.523 130 294V254Z" fill="#FDB717"/>
</g>
<g filter="url(#filter2_b)">
<path d="M130 343C130 337.477 134.477 333 140 333H588C593.523 333 598 337.477 598 343V383C598 388.523 593.523 393 588 393H140C134.477 393 130 388.523 130 383V343Z" fill="#FDB717"/>
</g>
<g filter="url(#filter3_b)">
<path d="M130 526C130 520.477 134.477 516 140 516H588C593.523 516 598 520.477 598 526V596C598 601.523 593.523 606 588 606H140C134.477 606 130 601.523 130 596V526Z" fill="#FDB717"/>
</g>
<path d="M250.176 284.025L244.672 270.137L238.496 284.089L229.184 259.833H233.536L238.976 275.385L242.848 265.465L240.608 259.833H244.288L250.272 274.937L255.264 259.833H259.264L250.176 284.025ZM266.492 280.281C267.495 280.281 268.508 279.929 269.532 279.225L271.164 281.881C270.439 282.329 269.66 282.691 268.828 282.969C267.996 283.225 267.196 283.353 266.428 283.353C264.871 283.353 263.516 283.043 262.364 282.425C261.233 281.806 260.359 280.953 259.74 279.865C259.143 278.777 258.844 277.529 258.844 276.121C258.844 274.798 259.185 273.582 259.868 272.473C260.551 271.363 261.479 270.489 262.652 269.849C263.825 269.187 265.105 268.857 266.492 268.857C268.327 268.857 269.852 269.401 271.068 270.489C272.284 271.555 273.095 273.07 273.5 275.033L263.068 278.553C263.431 279.107 263.911 279.534 264.508 279.833C265.105 280.131 265.767 280.281 266.492 280.281ZM266.204 271.673C265.073 271.673 264.145 272.067 263.42 272.857C262.716 273.646 262.364 274.67 262.364 275.929C262.364 276.163 262.375 276.345 262.396 276.473L269.5 273.945C269.223 273.283 268.817 272.739 268.284 272.313C267.751 271.886 267.057 271.673 266.204 271.673ZM286.051 268.857C287.245 268.857 288.344 269.145 289.347 269.721C290.349 270.297 291.139 271.129 291.715 272.217C292.312 273.283 292.611 274.542 292.611 275.993C292.611 277.486 292.291 278.787 291.651 279.897C291.011 281.006 290.147 281.859 289.059 282.457C287.992 283.054 286.829 283.353 285.571 283.353C284.504 283.353 283.555 283.161 282.723 282.777C281.891 282.393 281.187 281.87 280.611 281.209V283.001H277.027V258.041H280.611V270.905C281.187 270.286 281.944 269.795 282.883 269.433C283.843 269.049 284.899 268.857 286.051 268.857ZM284.803 280.313C285.976 280.313 286.957 279.897 287.747 279.065C288.557 278.233 288.963 277.198 288.963 275.961C288.963 275.171 288.771 274.446 288.387 273.785C288.024 273.123 287.523 272.611 286.883 272.249C286.264 271.865 285.571 271.673 284.803 271.673C283.8 271.673 282.915 271.929 282.147 272.441C281.4 272.953 280.888 273.635 280.611 274.489V277.497C280.931 278.371 281.453 279.065 282.179 279.577C282.904 280.067 283.779 280.313 284.803 280.313ZM300.466 283.289C299.42 283.289 298.428 283.107 297.49 282.745C296.572 282.361 295.815 281.827 295.218 281.145L296.722 279.129C297.852 280.238 299.004 280.793 300.178 280.793C300.818 280.793 301.34 280.675 301.746 280.441C302.172 280.185 302.385 279.811 302.385 279.321C302.385 278.809 302.172 278.425 301.746 278.169C301.319 277.913 300.839 277.71 300.306 277.561C299.794 277.39 299.463 277.283 299.314 277.241C298.14 276.878 297.266 276.355 296.69 275.673C296.114 274.969 295.826 274.147 295.826 273.209C295.826 272.462 296.007 271.769 296.37 271.129C296.754 270.467 297.319 269.934 298.066 269.529C298.834 269.123 299.762 268.921 300.85 268.921C301.874 268.921 302.759 269.038 303.506 269.273C304.274 269.507 304.988 269.881 305.65 270.393L304.274 272.537C303.89 272.174 303.42 271.886 302.866 271.673C302.332 271.459 301.842 271.353 301.394 271.353C300.839 271.353 300.38 271.481 300.018 271.737C299.655 271.993 299.474 272.323 299.474 272.729C299.452 273.219 299.634 273.593 300.018 273.849C300.402 274.083 301.02 274.339 301.874 274.617C302.236 274.723 302.471 274.798 302.578 274.841C303.644 275.182 304.476 275.662 305.074 276.281C305.671 276.878 305.97 277.667 305.97 278.649C305.97 279.971 305.49 281.081 304.53 281.977C303.591 282.851 302.236 283.289 300.466 283.289ZM313.517 269.465V283.001H309.933V269.465H313.517ZM309.773 264.633C309.773 264.099 309.986 263.651 310.413 263.289C310.839 262.905 311.319 262.713 311.853 262.713C312.365 262.713 312.823 262.905 313.229 263.289C313.655 263.651 313.869 264.099 313.869 264.633C313.869 265.166 313.655 265.614 313.229 265.977C312.823 266.339 312.365 266.521 311.853 266.521C311.319 266.521 310.839 266.339 310.413 265.977C309.986 265.614 309.773 265.166 309.773 264.633ZM323.329 263.513V269.465H326.849V272.281H323.329V283.001H319.745V272.281H317.409V269.465H319.745V263.513H323.329ZM336.898 280.281C337.901 280.281 338.914 279.929 339.938 279.225L341.57 281.881C340.845 282.329 340.066 282.691 339.234 282.969C338.402 283.225 337.602 283.353 336.834 283.353C335.277 283.353 333.922 283.043 332.77 282.425C331.64 281.806 330.765 280.953 330.146 279.865C329.549 278.777 329.25 277.529 329.25 276.121C329.25 274.798 329.592 273.582 330.274 272.473C330.957 271.363 331.885 270.489 333.058 269.849C334.232 269.187 335.512 268.857 336.898 268.857C338.733 268.857 340.258 269.401 341.474 270.489C342.69 271.555 343.501 273.07 343.906 275.033L333.474 278.553C333.837 279.107 334.317 279.534 334.914 279.833C335.512 280.131 336.173 280.281 336.898 280.281ZM336.61 271.673C335.48 271.673 334.552 272.067 333.826 272.857C333.122 273.646 332.77 274.67 332.77 275.929C332.77 276.163 332.781 276.345 332.802 276.473L339.906 273.945C339.629 273.283 339.224 272.739 338.69 272.313C338.157 271.886 337.464 271.673 336.61 271.673ZM358.419 259.705H365.043C367.965 259.705 370.376 260.281 372.275 261.433C374.195 262.585 375.592 264.067 376.467 265.881C377.341 267.694 377.779 269.625 377.779 271.673C377.779 273.934 377.245 275.929 376.179 277.657C375.133 279.363 373.725 280.686 371.955 281.625C370.184 282.542 368.253 283.001 366.163 283.001H358.419V259.705ZM365.491 279.417C367.155 279.417 368.616 279.107 369.875 278.489C371.155 277.87 372.147 276.963 372.851 275.769C373.576 274.553 373.939 273.102 373.939 271.417C373.939 269.582 373.544 268.057 372.755 266.841C371.987 265.603 370.995 264.697 369.779 264.121C368.584 263.545 367.347 263.257 366.067 263.257H362.163V279.417H365.491ZM388.555 280.281C389.557 280.281 390.571 279.929 391.595 279.225L393.227 281.881C392.501 282.329 391.723 282.691 390.891 282.969C390.059 283.225 389.259 283.353 388.491 283.353C386.933 283.353 385.579 283.043 384.427 282.425C383.296 281.806 382.421 280.953 381.803 279.865C381.205 278.777 380.907 277.529 380.907 276.121C380.907 274.798 381.248 273.582 381.931 272.473C382.613 271.363 383.541 270.489 384.715 269.849C385.888 269.187 387.168 268.857 388.555 268.857C390.389 268.857 391.915 269.401 393.131 270.489C394.347 271.555 395.157 273.07 395.562 275.033L385.131 278.553C385.493 279.107 385.973 279.534 386.571 279.833C387.168 280.131 387.829 280.281 388.555 280.281ZM388.267 271.673C387.136 271.673 386.208 272.067 385.483 272.857C384.779 273.646 384.427 274.67 384.427 275.929C384.427 276.163 384.437 276.345 384.459 276.473L391.563 273.945C391.285 273.283 390.88 272.739 390.347 272.313C389.813 271.886 389.12 271.673 388.267 271.673ZM403.153 283.289C402.108 283.289 401.116 283.107 400.177 282.745C399.26 282.361 398.502 281.827 397.905 281.145L399.409 279.129C400.54 280.238 401.692 280.793 402.865 280.793C403.505 280.793 404.028 280.675 404.433 280.441C404.86 280.185 405.073 279.811 405.073 279.321C405.073 278.809 404.86 278.425 404.433 278.169C404.006 277.913 403.526 277.71 402.993 277.561C402.481 277.39 402.15 277.283 402.001 277.241C400.828 276.878 399.953 276.355 399.377 275.673C398.801 274.969 398.513 274.147 398.513 273.209C398.513 272.462 398.694 271.769 399.057 271.129C399.441 270.467 400.006 269.934 400.753 269.529C401.521 269.123 402.449 268.921 403.537 268.921C404.561 268.921 405.446 269.038 406.193 269.273C406.961 269.507 407.676 269.881 408.337 270.393L406.961 272.537C406.577 272.174 406.108 271.886 405.553 271.673C405.02 271.459 404.529 271.353 404.081 271.353C403.526 271.353 403.068 271.481 402.705 271.737C402.342 271.993 402.161 272.323 402.161 272.729C402.14 273.219 402.321 273.593 402.705 273.849C403.089 274.083 403.708 274.339 404.561 274.617C404.924 274.723 405.158 274.798 405.265 274.841C406.332 275.182 407.164 275.662 407.761 276.281C408.358 276.878 408.657 277.667 408.657 278.649C408.657 279.971 408.177 281.081 407.217 281.977C406.278 282.851 404.924 283.289 403.153 283.289ZM416.204 269.465V283.001H412.62V269.465H416.204ZM412.46 264.633C412.46 264.099 412.674 263.651 413.1 263.289C413.527 262.905 414.007 262.713 414.54 262.713C415.052 262.713 415.511 262.905 415.916 263.289C416.343 263.651 416.556 264.099 416.556 264.633C416.556 265.166 416.343 265.614 415.916 265.977C415.511 266.339 415.052 266.521 414.54 266.521C414.007 266.521 413.527 266.339 413.1 265.977C412.674 265.614 412.46 265.166 412.46 264.633ZM435.776 269.465V283.065C435.776 284.323 435.435 285.454 434.752 286.457C434.091 287.481 433.152 288.281 431.936 288.857C430.742 289.454 429.387 289.753 427.872 289.753C426.4 289.753 425.174 289.518 424.192 289.049C423.211 288.601 422.219 287.939 421.216 287.065L423.328 284.601C424.011 285.241 424.704 285.731 425.408 286.073C426.112 286.435 426.912 286.617 427.808 286.617C429.131 286.617 430.187 286.286 430.976 285.625C431.766 284.985 432.171 284.11 432.192 283.001V280.729C431.723 281.518 431.019 282.158 430.08 282.649C429.163 283.118 428.086 283.353 426.848 283.353C425.611 283.353 424.47 283.043 423.424 282.425C422.379 281.785 421.547 280.921 420.928 279.833C420.31 278.723 420 277.497 420 276.153C420 274.787 420.32 273.55 420.96 272.441C421.622 271.31 422.486 270.435 423.552 269.817C424.64 269.177 425.792 268.857 427.008 268.857C428.139 268.857 429.163 269.059 430.08 269.465C431.019 269.849 431.723 270.361 432.192 271.001L432.48 269.465H435.776ZM427.904 280.409C428.95 280.409 429.846 280.153 430.592 279.641C431.36 279.129 431.894 278.435 432.192 277.561V274.617C431.894 273.763 431.36 273.081 430.592 272.569C429.824 272.057 428.928 271.801 427.904 271.801C426.688 271.801 425.664 272.206 424.832 273.017C424.022 273.806 423.616 274.819 423.616 276.057C423.616 276.867 423.808 277.603 424.192 278.265C424.576 278.926 425.088 279.449 425.728 279.833C426.39 280.217 427.115 280.409 427.904 280.409ZM449.546 268.889C450.805 268.889 451.85 269.273 452.682 270.041C453.535 270.787 453.973 271.758 453.994 272.953V283.001H450.41V274.233C450.367 273.529 450.154 272.974 449.77 272.569C449.407 272.163 448.853 271.95 448.106 271.929C446.997 271.929 446.079 272.409 445.354 273.369C444.65 274.307 444.298 275.513 444.298 276.985V283.001H440.714V269.465H443.946L444.202 271.865C444.693 270.926 445.397 270.201 446.314 269.689C447.253 269.155 448.33 268.889 449.546 268.889Z" fill="black"/>
<path d="M250.176 373.025L244.672 359.137L238.496 373.089L229.184 348.833H233.536L238.976 364.385L242.848 354.465L240.608 348.833H244.288L250.272 363.937L255.264 348.833H259.264L250.176 373.025ZM266.492 369.281C267.495 369.281 268.508 368.929 269.532 368.225L271.164 370.881C270.439 371.329 269.66 371.691 268.828 371.969C267.996 372.225 267.196 372.353 266.428 372.353C264.871 372.353 263.516 372.043 262.364 371.425C261.233 370.806 260.359 369.953 259.74 368.865C259.143 367.777 258.844 366.529 258.844 365.121C258.844 363.798 259.185 362.582 259.868 361.473C260.551 360.363 261.479 359.489 262.652 358.849C263.825 358.187 265.105 357.857 266.492 357.857C268.327 357.857 269.852 358.401 271.068 359.489C272.284 360.555 273.095 362.07 273.5 364.033L263.068 367.553C263.431 368.107 263.911 368.534 264.508 368.833C265.105 369.131 265.767 369.281 266.492 369.281ZM266.204 360.673C265.073 360.673 264.145 361.067 263.42 361.857C262.716 362.646 262.364 363.67 262.364 364.929C262.364 365.163 262.375 365.345 262.396 365.473L269.5 362.945C269.223 362.283 268.817 361.739 268.284 361.313C267.751 360.886 267.057 360.673 266.204 360.673ZM286.051 357.857C287.245 357.857 288.344 358.145 289.347 358.721C290.349 359.297 291.139 360.129 291.715 361.217C292.312 362.283 292.611 363.542 292.611 364.993C292.611 366.486 292.291 367.787 291.651 368.897C291.011 370.006 290.147 370.859 289.059 371.457C287.992 372.054 286.829 372.353 285.571 372.353C284.504 372.353 283.555 372.161 282.723 371.777C281.891 371.393 281.187 370.87 280.611 370.209V372.001H277.027V347.041H280.611V359.905C281.187 359.286 281.944 358.795 282.883 358.433C283.843 358.049 284.899 357.857 286.051 357.857ZM284.803 369.313C285.976 369.313 286.957 368.897 287.747 368.065C288.557 367.233 288.963 366.198 288.963 364.961C288.963 364.171 288.771 363.446 288.387 362.785C288.024 362.123 287.523 361.611 286.883 361.249C286.264 360.865 285.571 360.673 284.803 360.673C283.8 360.673 282.915 360.929 282.147 361.441C281.4 361.953 280.888 362.635 280.611 363.489V366.497C280.931 367.371 281.453 368.065 282.179 368.577C282.904 369.067 283.779 369.313 284.803 369.313ZM300.466 372.289C299.42 372.289 298.428 372.107 297.49 371.745C296.572 371.361 295.815 370.827 295.218 370.145L296.722 368.129C297.852 369.238 299.004 369.793 300.178 369.793C300.818 369.793 301.34 369.675 301.746 369.441C302.172 369.185 302.385 368.811 302.385 368.321C302.385 367.809 302.172 367.425 301.746 367.169C301.319 366.913 300.839 366.71 300.306 366.561C299.794 366.39 299.463 366.283 299.314 366.241C298.14 365.878 297.266 365.355 296.69 364.673C296.114 363.969 295.826 363.147 295.826 362.209C295.826 361.462 296.007 360.769 296.37 360.129C296.754 359.467 297.319 358.934 298.066 358.529C298.834 358.123 299.762 357.921 300.85 357.921C301.874 357.921 302.759 358.038 303.506 358.273C304.274 358.507 304.988 358.881 305.65 359.393L304.274 361.537C303.89 361.174 303.42 360.886 302.866 360.673C302.332 360.459 301.842 360.353 301.394 360.353C300.839 360.353 300.38 360.481 300.018 360.737C299.655 360.993 299.474 361.323 299.474 361.729C299.452 362.219 299.634 362.593 300.018 362.849C300.402 363.083 301.02 363.339 301.874 363.617C302.236 363.723 302.471 363.798 302.578 363.841C303.644 364.182 304.476 364.662 305.074 365.281C305.671 365.878 305.97 366.667 305.97 367.649C305.97 368.971 305.49 370.081 304.53 370.977C303.591 371.851 302.236 372.289 300.466 372.289ZM313.517 358.465V372.001H309.933V358.465H313.517ZM309.773 353.633C309.773 353.099 309.986 352.651 310.413 352.289C310.839 351.905 311.319 351.713 311.853 351.713C312.365 351.713 312.823 351.905 313.229 352.289C313.655 352.651 313.869 353.099 313.869 353.633C313.869 354.166 313.655 354.614 313.229 354.977C312.823 355.339 312.365 355.521 311.853 355.521C311.319 355.521 310.839 355.339 310.413 354.977C309.986 354.614 309.773 354.166 309.773 353.633ZM323.329 352.513V358.465H326.849V361.281H323.329V372.001H319.745V361.281H317.409V358.465H319.745V352.513H323.329ZM336.898 369.281C337.901 369.281 338.914 368.929 339.938 368.225L341.57 370.881C340.845 371.329 340.066 371.691 339.234 371.969C338.402 372.225 337.602 372.353 336.834 372.353C335.277 372.353 333.922 372.043 332.77 371.425C331.64 370.806 330.765 369.953 330.146 368.865C329.549 367.777 329.25 366.529 329.25 365.121C329.25 363.798 329.592 362.582 330.274 361.473C330.957 360.363 331.885 359.489 333.058 358.849C334.232 358.187 335.512 357.857 336.898 357.857C338.733 357.857 340.258 358.401 341.474 359.489C342.69 360.555 343.501 362.07 343.906 364.033L333.474 367.553C333.837 368.107 334.317 368.534 334.914 368.833C335.512 369.131 336.173 369.281 336.898 369.281ZM336.61 360.673C335.48 360.673 334.552 361.067 333.826 361.857C333.122 362.646 332.77 363.67 332.77 364.929C332.77 365.163 332.781 365.345 332.802 365.473L339.906 362.945C339.629 362.283 339.224 361.739 338.69 361.313C338.157 360.886 337.464 360.673 336.61 360.673ZM358.419 348.705H365.043C367.965 348.705 370.376 349.281 372.275 350.433C374.195 351.585 375.592 353.067 376.467 354.881C377.341 356.694 377.779 358.625 377.779 360.673C377.779 362.934 377.245 364.929 376.179 366.657C375.133 368.363 373.725 369.686 371.955 370.625C370.184 371.542 368.253 372.001 366.163 372.001H358.419V348.705ZM365.491 368.417C367.155 368.417 368.616 368.107 369.875 367.489C371.155 366.87 372.147 365.963 372.851 364.769C373.576 363.553 373.939 362.102 373.939 360.417C373.939 358.582 373.544 357.057 372.755 355.841C371.987 354.603 370.995 353.697 369.779 353.121C368.584 352.545 367.347 352.257 366.067 352.257H362.163V368.417H365.491ZM388.555 369.281C389.557 369.281 390.571 368.929 391.595 368.225L393.227 370.881C392.501 371.329 391.723 371.691 390.891 371.969C390.059 372.225 389.259 372.353 388.491 372.353C386.933 372.353 385.579 372.043 384.427 371.425C383.296 370.806 382.421 369.953 381.803 368.865C381.205 367.777 380.907 366.529 380.907 365.121C380.907 363.798 381.248 362.582 381.931 361.473C382.613 360.363 383.541 359.489 384.715 358.849C385.888 358.187 387.168 357.857 388.555 357.857C390.389 357.857 391.915 358.401 393.131 359.489C394.347 360.555 395.157 362.07 395.562 364.033L385.131 367.553C385.493 368.107 385.973 368.534 386.571 368.833C387.168 369.131 387.829 369.281 388.555 369.281ZM388.267 360.673C387.136 360.673 386.208 361.067 385.483 361.857C384.779 362.646 384.427 363.67 384.427 364.929C384.427 365.163 384.437 365.345 384.459 365.473L391.563 362.945C391.285 362.283 390.88 361.739 390.347 361.313C389.813 360.886 389.12 360.673 388.267 360.673ZM411.934 358.465L404.51 372.353H404.35L396.574 358.465H400.83L404.542 366.209L407.934 358.465H411.934ZM421.023 369.281C422.026 369.281 423.039 368.929 424.063 368.225L425.695 370.881C424.97 371.329 424.191 371.691 423.359 371.969C422.527 372.225 421.727 372.353 420.959 372.353C419.402 372.353 418.047 372.043 416.895 371.425C415.765 370.806 414.89 369.953 414.271 368.865C413.674 367.777 413.375 366.529 413.375 365.121C413.375 363.798 413.717 362.582 414.399 361.473C415.082 360.363 416.01 359.489 417.183 358.849C418.357 358.187 419.637 357.857 421.023 357.857C422.858 357.857 424.383 358.401 425.599 359.489C426.815 360.555 427.626 362.07 428.031 364.033L417.599 367.553C417.962 368.107 418.442 368.534 419.039 368.833C419.637 369.131 420.298 369.281 421.023 369.281ZM420.735 360.673C419.605 360.673 418.677 361.067 417.951 361.857C417.247 362.646 416.895 363.67 416.895 364.929C416.895 365.163 416.906 365.345 416.927 365.473L424.031 362.945C423.754 362.283 423.349 361.739 422.815 361.313C422.282 360.886 421.589 360.673 420.735 360.673ZM435.142 347.041V372.001H431.558V347.041H435.142ZM438.938 365.089C438.938 363.745 439.258 362.518 439.898 361.409C440.559 360.299 441.466 359.435 442.618 358.817C443.77 358.177 445.082 357.857 446.554 357.857C448.026 357.857 449.327 358.177 450.458 358.817C451.61 359.435 452.495 360.299 453.114 361.409C453.732 362.497 454.042 363.723 454.042 365.089C454.042 366.454 453.732 367.691 453.114 368.801C452.495 369.889 451.61 370.753 450.458 371.393C449.327 372.033 448.015 372.353 446.522 372.353C445.071 372.353 443.77 372.065 442.618 371.489C441.466 370.891 440.559 370.049 439.898 368.961C439.258 367.851 438.938 366.561 438.938 365.089ZM442.554 365.121C442.554 366.337 442.927 367.361 443.674 368.193C444.42 369.003 445.348 369.409 446.458 369.409C447.61 369.409 448.548 369.003 449.274 368.193C450.02 367.382 450.394 366.358 450.394 365.121C450.394 363.883 450.02 362.859 449.274 362.049C448.548 361.217 447.61 360.801 446.458 360.801C445.348 360.801 444.42 361.227 443.674 362.081C442.927 362.913 442.554 363.926 442.554 365.121ZM466.704 357.857C467.962 357.857 469.104 358.155 470.128 358.753C471.152 359.35 471.952 360.203 472.528 361.313C473.104 362.422 473.392 363.713 473.392 365.185C473.392 366.635 473.072 367.905 472.432 368.993C471.813 370.081 470.938 370.913 469.808 371.489C468.698 372.065 467.44 372.353 466.032 372.353C465.136 372.353 464.272 372.171 463.44 371.809C462.608 371.446 461.925 370.955 461.392 370.337V378.497H457.808V358.209H460.912L461.232 360.225C461.936 359.499 462.746 358.923 463.664 358.497C464.602 358.07 465.616 357.857 466.704 357.857ZM465.328 369.505C466.117 369.505 466.842 369.323 467.504 368.961C468.186 368.577 468.73 368.065 469.136 367.425C469.541 366.785 469.744 366.059 469.744 365.249C469.744 363.99 469.338 362.955 468.528 362.145C467.738 361.313 466.757 360.897 465.584 360.897C464.538 360.897 463.653 361.153 462.928 361.665C462.224 362.177 461.712 362.891 461.392 363.809V366.529C461.605 367.403 462.064 368.118 462.768 368.673C463.493 369.227 464.346 369.505 465.328 369.505ZM494.751 357.857C496.073 357.857 497.119 358.23 497.887 358.977C498.676 359.723 499.092 360.705 499.135 361.921V372.001H495.583V363.297C495.54 362.571 495.38 362.017 495.103 361.633C494.825 361.227 494.367 361.003 493.727 360.961C492.617 360.961 491.721 361.462 491.039 362.465C490.356 363.446 490.004 364.598 489.983 365.921V372.001H486.367V363.297C486.324 362.593 486.153 362.038 485.855 361.633C485.577 361.227 485.108 361.003 484.447 360.961C483.721 360.961 483.081 361.195 482.527 361.665C481.972 362.134 481.535 362.753 481.215 363.521C480.916 364.289 480.767 365.089 480.767 365.921V372.001H477.183V358.465H480.415L480.703 360.833C481.215 359.873 481.908 359.137 482.783 358.625C483.657 358.113 484.66 357.857 485.791 357.857C486.879 357.857 487.785 358.102 488.511 358.593C489.257 359.062 489.748 359.745 489.983 360.641C490.537 359.766 491.241 359.083 492.095 358.593C492.948 358.102 493.833 357.857 494.751 357.857ZM510.586 369.281C511.588 369.281 512.602 368.929 513.626 368.225L515.258 370.881C514.532 371.329 513.754 371.691 512.922 371.969C512.09 372.225 511.29 372.353 510.522 372.353C508.964 372.353 507.61 372.043 506.458 371.425C505.327 370.806 504.452 369.953 503.834 368.865C503.236 367.777 502.938 366.529 502.938 365.121C502.938 363.798 503.279 362.582 503.962 361.473C504.644 360.363 505.572 359.489 506.746 358.849C507.919 358.187 509.199 357.857 510.586 357.857C512.42 357.857 513.946 358.401 515.162 359.489C516.378 360.555 517.188 362.07 517.594 364.033L507.162 367.553C507.524 368.107 508.004 368.534 508.602 368.833C509.199 369.131 509.86 369.281 510.586 369.281ZM510.298 360.673C509.167 360.673 508.239 361.067 507.514 361.857C506.81 362.646 506.458 363.67 506.458 364.929C506.458 365.163 506.468 365.345 506.49 365.473L513.594 362.945C513.316 362.283 512.911 361.739 512.378 361.313C511.844 360.886 511.151 360.673 510.298 360.673ZM529.952 357.889C531.211 357.889 532.256 358.273 533.088 359.041C533.942 359.787 534.379 360.758 534.4 361.953V372.001H530.816V363.233C530.774 362.529 530.56 361.974 530.176 361.569C529.814 361.163 529.259 360.95 528.512 360.929C527.403 360.929 526.486 361.409 525.76 362.369C525.056 363.307 524.704 364.513 524.704 365.985V372.001H521.12V358.465H524.352L524.608 360.865C525.099 359.926 525.803 359.201 526.72 358.689C527.659 358.155 528.736 357.889 529.952 357.889ZM544.235 352.513V358.465H547.755V361.281H544.235V372.001H540.651V361.281H538.315V358.465H540.651V352.513H544.235Z" fill="black"/>
<path d="M254.72 529.873V554.001H251.008V540.529L242.848 552.113H242.784L234.816 541.073V554.001H231.2V529.873H231.232L242.848 546.321L254.656 529.873H254.72ZM259.25 547.089C259.25 545.745 259.57 544.518 260.21 543.409C260.872 542.299 261.778 541.435 262.93 540.817C264.082 540.177 265.394 539.857 266.866 539.857C268.338 539.857 269.64 540.177 270.77 540.817C271.922 541.435 272.808 542.299 273.426 543.409C274.045 544.497 274.354 545.723 274.354 547.089C274.354 548.454 274.045 549.691 273.426 550.801C272.808 551.889 271.922 552.753 270.77 553.393C269.64 554.033 268.328 554.353 266.834 554.353C265.384 554.353 264.082 554.065 262.93 553.489C261.778 552.891 260.872 552.049 260.21 550.961C259.57 549.851 259.25 548.561 259.25 547.089ZM262.866 547.121C262.866 548.337 263.24 549.361 263.986 550.193C264.733 551.003 265.661 551.409 266.77 551.409C267.922 551.409 268.861 551.003 269.586 550.193C270.333 549.382 270.706 548.358 270.706 547.121C270.706 545.883 270.333 544.859 269.586 544.049C268.861 543.217 267.922 542.801 266.77 542.801C265.661 542.801 264.733 543.227 263.986 544.081C263.24 544.913 262.866 545.926 262.866 547.121ZM287.144 539.857C288.339 539.857 289.438 540.145 290.44 540.721C291.443 541.297 292.232 542.129 292.808 543.217C293.406 544.283 293.704 545.542 293.704 546.993C293.704 548.486 293.384 549.787 292.744 550.897C292.104 552.006 291.24 552.859 290.152 553.457C289.086 554.054 287.923 554.353 286.664 554.353C285.598 554.353 284.648 554.161 283.816 553.777C282.984 553.393 282.28 552.87 281.704 552.209V554.001H278.12V529.041H281.704V541.905C282.28 541.286 283.038 540.795 283.976 540.433C284.936 540.049 285.992 539.857 287.144 539.857ZM285.896 551.313C287.07 551.313 288.051 550.897 288.84 550.065C289.651 549.233 290.056 548.198 290.056 546.961C290.056 546.171 289.864 545.446 289.48 544.785C289.118 544.123 288.616 543.611 287.976 543.249C287.358 542.865 286.664 542.673 285.896 542.673C284.894 542.673 284.008 542.929 283.24 543.441C282.494 543.953 281.982 544.635 281.704 545.489V548.497C282.024 549.371 282.547 550.065 283.272 550.577C283.998 551.067 284.872 551.313 285.896 551.313ZM301.079 540.465V554.001H297.495V540.465H301.079ZM297.335 535.633C297.335 535.099 297.549 534.651 297.975 534.289C298.402 533.905 298.882 533.713 299.415 533.713C299.927 533.713 300.386 533.905 300.791 534.289C301.218 534.651 301.431 535.099 301.431 535.633C301.431 536.166 301.218 536.614 300.791 536.977C300.386 537.339 299.927 537.521 299.415 537.521C298.882 537.521 298.402 537.339 297.975 536.977C297.549 536.614 297.335 536.166 297.335 535.633ZM309.579 529.041V554.001H305.995V529.041H309.579ZM321.023 551.281C322.026 551.281 323.039 550.929 324.063 550.225L325.695 552.881C324.97 553.329 324.191 553.691 323.359 553.969C322.527 554.225 321.727 554.353 320.959 554.353C319.402 554.353 318.047 554.043 316.895 553.425C315.765 552.806 314.89 551.953 314.271 550.865C313.674 549.777 313.375 548.529 313.375 547.121C313.375 545.798 313.717 544.582 314.399 543.473C315.082 542.363 316.01 541.489 317.183 540.849C318.357 540.187 319.637 539.857 321.023 539.857C322.858 539.857 324.383 540.401 325.599 541.489C326.815 542.555 327.626 544.07 328.031 546.033L317.599 549.553C317.962 550.107 318.442 550.534 319.039 550.833C319.637 551.131 320.298 551.281 321.023 551.281ZM320.735 542.673C319.605 542.673 318.677 543.067 317.951 543.857C317.247 544.646 316.895 545.67 316.895 546.929C316.895 547.163 316.906 547.345 316.927 547.473L324.031 544.945C323.754 544.283 323.349 543.739 322.815 543.313C322.282 542.886 321.589 542.673 320.735 542.673ZM354.512 548.529H346.032L343.792 554.001H340.112L350.416 529.745H350.64L360.944 554.001H356.656L354.512 548.529ZM353.264 545.329L350.352 537.969L347.344 545.329H353.264ZM373.079 539.857C374.337 539.857 375.479 540.155 376.503 540.753C377.527 541.35 378.327 542.203 378.903 543.313C379.479 544.422 379.767 545.713 379.767 547.185C379.767 548.635 379.447 549.905 378.807 550.993C378.188 552.081 377.313 552.913 376.183 553.489C375.073 554.065 373.815 554.353 372.407 554.353C371.511 554.353 370.647 554.171 369.815 553.809C368.983 553.446 368.3 552.955 367.767 552.337V560.497H364.183V540.209H367.287L367.607 542.225C368.311 541.499 369.121 540.923 370.039 540.497C370.977 540.07 371.991 539.857 373.079 539.857ZM371.703 551.505C372.492 551.505 373.217 551.323 373.879 550.961C374.561 550.577 375.105 550.065 375.511 549.425C375.916 548.785 376.119 548.059 376.119 547.249C376.119 545.99 375.713 544.955 374.903 544.145C374.113 543.313 373.132 542.897 371.959 542.897C370.913 542.897 370.028 543.153 369.303 543.665C368.599 544.177 368.087 544.891 367.767 545.809V548.529C367.98 549.403 368.439 550.118 369.143 550.673C369.868 551.227 370.721 551.505 371.703 551.505ZM392.454 539.857C393.712 539.857 394.854 540.155 395.878 540.753C396.902 541.35 397.702 542.203 398.278 543.313C398.854 544.422 399.142 545.713 399.142 547.185C399.142 548.635 398.822 549.905 398.182 550.993C397.563 552.081 396.688 552.913 395.558 553.489C394.448 554.065 393.19 554.353 391.782 554.353C390.886 554.353 390.022 554.171 389.19 553.809C388.358 553.446 387.675 552.955 387.142 552.337V560.497H383.558V540.209H386.662L386.982 542.225C387.686 541.499 388.496 540.923 389.414 540.497C390.352 540.07 391.366 539.857 392.454 539.857ZM391.078 551.505C391.867 551.505 392.592 551.323 393.254 550.961C393.936 550.577 394.48 550.065 394.886 549.425C395.291 548.785 395.494 548.059 395.494 547.249C395.494 545.99 395.088 544.955 394.278 544.145C393.488 543.313 392.507 542.897 391.334 542.897C390.288 542.897 389.403 543.153 388.678 543.665C387.974 544.177 387.462 544.891 387.142 545.809V548.529C387.355 549.403 387.814 550.118 388.518 550.673C389.243 551.227 390.096 551.505 391.078 551.505ZM406.517 529.041V554.001H402.933V529.041H406.517ZM415.017 540.465V554.001H411.433V540.465H415.017ZM411.273 535.633C411.273 535.099 411.486 534.651 411.913 534.289C412.339 533.905 412.819 533.713 413.353 533.713C413.865 533.713 414.323 533.905 414.729 534.289C415.155 534.651 415.369 535.099 415.369 535.633C415.369 536.166 415.155 536.614 414.729 536.977C414.323 537.339 413.865 537.521 413.353 537.521C412.819 537.521 412.339 537.339 411.913 536.977C411.486 536.614 411.273 536.166 411.273 535.633ZM431.133 552.753C430.535 553.243 429.799 553.638 428.925 553.937C428.071 554.214 427.207 554.353 426.333 554.353C424.839 554.353 423.517 554.065 422.365 553.489C421.234 552.913 420.359 552.091 419.741 551.025C419.122 549.937 418.813 548.667 418.813 547.217C418.813 545.787 419.143 544.539 419.805 543.473C420.466 542.385 421.341 541.553 422.429 540.977C423.538 540.401 424.722 540.113 425.981 540.113C428.114 540.113 429.874 540.689 431.261 541.841L429.469 544.177C429.063 543.857 428.583 543.59 428.029 543.377C427.495 543.142 426.919 543.025 426.301 543.025C425.213 543.025 424.285 543.43 423.517 544.241C422.77 545.03 422.397 546.022 422.397 547.217C422.397 548.411 422.791 549.414 423.581 550.225C424.391 551.014 425.415 551.409 426.653 551.409C427.719 551.409 428.615 551.11 429.341 550.513L431.133 552.753ZM448.984 540.465V554.001H445.4V552.049C444.909 552.625 444.248 553.158 443.416 553.649C442.584 554.118 441.613 554.353 440.504 554.353C439.202 554.353 438.04 554.086 437.016 553.553C435.992 552.998 435.181 552.187 434.584 551.121C433.986 550.054 433.688 548.763 433.688 547.249C433.688 545.777 433.997 544.486 434.616 543.377C435.234 542.246 436.056 541.382 437.08 540.785C438.125 540.166 439.266 539.857 440.504 539.857C442.701 539.857 444.344 540.667 445.432 542.289L445.688 540.465H448.984ZM441.496 551.409C442.477 551.409 443.298 551.163 443.96 550.673C444.642 550.161 445.122 549.446 445.4 548.529V545.585C445.144 544.753 444.642 544.081 443.896 543.569C443.17 543.057 442.328 542.801 441.368 542.801C440.237 542.801 439.277 543.206 438.488 544.017C437.698 544.806 437.304 545.819 437.304 547.057C437.304 547.867 437.496 548.603 437.88 549.265C438.264 549.926 438.776 550.449 439.416 550.833C440.056 551.217 440.749 551.409 441.496 551.409ZM458.829 534.513V540.465H462.349V543.281H458.829V554.001H455.245V543.281H452.909V540.465H455.245V534.513H458.829ZM469.454 540.465V554.001H465.87V540.465H469.454ZM465.71 535.633C465.71 535.099 465.924 534.651 466.35 534.289C466.777 533.905 467.257 533.713 467.79 533.713C468.302 533.713 468.761 533.905 469.166 534.289C469.593 534.651 469.806 535.099 469.806 535.633C469.806 536.166 469.593 536.614 469.166 536.977C468.761 537.339 468.302 537.521 467.79 537.521C467.257 537.521 466.777 537.339 466.35 536.977C465.924 536.614 465.71 536.166 465.71 535.633ZM473.25 547.089C473.25 545.745 473.57 544.518 474.21 543.409C474.872 542.299 475.778 541.435 476.93 540.817C478.082 540.177 479.394 539.857 480.866 539.857C482.338 539.857 483.64 540.177 484.77 540.817C485.922 541.435 486.808 542.299 487.426 543.409C488.045 544.497 488.354 545.723 488.354 547.089C488.354 548.454 488.045 549.691 487.426 550.801C486.808 551.889 485.922 552.753 484.77 553.393C483.64 554.033 482.328 554.353 480.834 554.353C479.384 554.353 478.082 554.065 476.93 553.489C475.778 552.891 474.872 552.049 474.21 550.961C473.57 549.851 473.25 548.561 473.25 547.089ZM476.866 547.121C476.866 548.337 477.24 549.361 477.986 550.193C478.733 551.003 479.661 551.409 480.77 551.409C481.922 551.409 482.861 551.003 483.586 550.193C484.333 549.382 484.706 548.358 484.706 547.121C484.706 545.883 484.333 544.859 483.586 544.049C482.861 543.217 481.922 542.801 480.77 542.801C479.661 542.801 478.733 543.227 477.986 544.081C477.24 544.913 476.866 545.926 476.866 547.121ZM500.952 539.889C502.211 539.889 503.256 540.273 504.088 541.041C504.942 541.787 505.379 542.758 505.4 543.953V554.001H501.816V545.233C501.774 544.529 501.56 543.974 501.176 543.569C500.814 543.163 500.259 542.95 499.512 542.929C498.403 542.929 497.486 543.409 496.76 544.369C496.056 545.307 495.704 546.513 495.704 547.985V554.001H492.12V540.465H495.352L495.608 542.865C496.099 541.926 496.803 541.201 497.72 540.689C498.659 540.155 499.736 539.889 500.952 539.889Z" fill="black"/>
<path d="M143.021 255.021C141.932 256.109 141.875 256.911 141.875 274.5C141.875 292.089 141.932 292.891 143.021 293.979C144.109 295.068 144.911 295.125 162.5 295.125C180.089 295.125 180.891 295.068 181.979 293.979C183.068 292.891 183.125 292.089 183.125 274.5C183.125 256.911 183.068 256.109 181.979 255.021C180.891 253.932 180.089 253.875 162.5 253.875C144.911 253.875 144.109 253.932 143.021 255.021ZM178.542 260.75V263.042H170.521H162.5V260.75V258.458H170.521H178.542V260.75ZM178.542 279.083V290.542H162.5H146.458V279.083V267.625H162.5H178.542V279.083Z" fill="black"/>
<path d="M151.042 274.5V276.792H156.771H162.5V274.5V272.208H156.771H151.042V274.5Z" fill="black"/>
<path d="M167.083 279.083V285.958H170.521H173.958V279.083V272.208H170.521H167.083V279.083Z" fill="black"/>
<path d="M151.042 283.667V285.958H156.771H162.5V283.667V281.375H156.771H151.042V283.667Z" fill="black"/>
<path d="M143.021 343.021C141.932 344.109 141.875 344.911 141.875 362.5C141.875 380.089 141.932 380.891 143.021 381.979C144.109 383.068 144.911 383.125 162.5 383.125C180.089 383.125 180.891 383.068 181.979 381.979C183.068 380.891 183.125 380.089 183.125 362.5C183.125 344.911 183.068 344.109 181.979 343.021C180.891 341.932 180.089 341.875 162.5 341.875C144.911 341.875 144.109 341.932 143.021 343.021ZM178.542 364.792V378.542H162.5H146.458V364.792V351.042H162.5H178.542V364.792Z" fill="black"/>
<path d="M153.906 361.068L150.182 364.792L154.021 368.63C157.802 372.411 157.859 372.469 159.063 371.38C160.609 369.948 160.552 369.49 158.089 366.969L155.969 364.792L158.089 362.615C159.234 361.411 160.208 360.151 160.208 359.865C160.208 359.292 158.375 357.344 157.859 357.344C157.688 357.344 155.911 359.005 153.906 361.068Z" fill="black"/>
<path d="M165.766 358.375C164.448 359.865 164.505 360.151 166.911 362.615L169.031 364.792L166.911 366.969C164.448 369.49 164.391 369.948 165.938 371.38C167.141 372.469 167.198 372.411 170.979 368.63L174.818 364.792L171.094 361.068C169.089 359.005 167.255 357.344 167.026 357.344C166.854 357.344 166.281 357.802 165.766 358.375Z" fill="black"/>
<path d="M140.125 436.208C139.135 437.198 139.083 437.927 139.083 451.833C139.083 465.74 139.135 466.469 140.125 467.458C141.062 468.396 141.844 468.5 149.24 468.5C156.062 468.5 157.312 468.604 157.312 469.281C157.312 470.271 155.437 472.146 154.448 472.146C153.875 472.146 153.667 472.771 153.667 474.49V476.833H162H170.333V474.49C170.333 472.771 170.125 472.146 169.552 472.146C168.562 472.146 166.687 470.271 166.687 469.281C166.687 468.604 167.937 468.5 174.76 468.5C182.156 468.5 182.937 468.396 183.875 467.458C184.865 466.469 184.917 465.74 184.917 451.833C184.917 437.927 184.865 437.198 183.875 436.208C182.885 435.219 182.156 435.167 162 435.167C141.844 435.167 141.115 435.219 140.125 436.208ZM180.75 449.75V460.167H162H143.25V449.75V439.333H162H180.75V449.75Z" fill="black"/>
<path d="M144.267 531.6C142.944 532.922 142.944 589.078 144.267 590.4C145.589 591.722 178.411 591.722 179.733 590.4C181.056 589.078 181.056 532.922 179.733 531.6C178.411 530.278 145.589 530.278 144.267 531.6ZM176 559.833V584.333H171.256C168.144 584.333 166.2 584.722 165.422 585.5C163.867 586.978 160.133 586.978 158.578 585.5C157.8 584.722 155.856 584.333 152.744 584.333H148V559.833V535.333H162H176V559.833Z" fill="black"/>
<path d="M155.311 548.167C155 548.789 155.233 549.8 155.622 550.344C156.167 550.967 156.167 551.744 155.778 552.444C155.311 553.067 155 554.233 155 554.933C155 556.178 155.856 556.333 162 556.333C168.144 556.333 169 556.178 169 554.933C169 554.233 168.689 553.144 168.3 552.522C167.833 551.822 167.911 550.889 168.456 550.033C169.856 547.778 167.989 546.3 166.044 548.011C164.256 549.644 159.433 549.722 158.111 548.167C156.867 546.689 155.856 546.689 155.311 548.167Z" fill="black"/>
<path d="M152.667 562.167C152.667 564.733 152.978 565.667 153.833 565.667C154.456 565.667 155 566.211 155 566.833C155 567.456 155.544 568 156.167 568C156.944 568 157.333 568.778 157.333 570.333C157.333 571.889 157.722 572.667 158.5 572.667C159.278 572.667 159.667 571.889 159.667 570.333C159.667 568.233 159.9 568 162 568C164.1 568 164.333 568.233 164.333 570.333C164.333 571.889 164.722 572.667 165.5 572.667C166.278 572.667 166.667 571.889 166.667 570.333C166.667 568.778 167.056 568 167.833 568C168.456 568 169 567.456 169 566.833C169 566.211 169.544 565.667 170.167 565.667C171.022 565.667 171.333 564.733 171.333 562.167V558.667H162H152.667V562.167Z" fill="black"/>
<path d="M239.376 585.896H233.016L231.336 590H228.576L236.304 571.808H236.472L244.2 590H240.984L239.376 585.896ZM238.44 583.496L236.256 577.976L234 583.496H238.44ZM253.253 579.416C254.197 579.416 254.981 579.704 255.605 580.28C256.245 580.84 256.573 581.568 256.589 582.464V590H253.901V583.424C253.869 582.896 253.709 582.48 253.421 582.176C253.149 581.872 252.733 581.712 252.173 581.696C251.341 581.696 250.653 582.056 250.109 582.776C249.581 583.48 249.317 584.384 249.317 585.488V590H246.629V579.848H249.053L249.245 581.648C249.613 580.944 250.141 580.4 250.829 580.016C251.533 579.616 252.341 579.416 253.253 579.416ZM271.117 571.28V590H268.429V588.632C267.309 589.72 265.981 590.264 264.445 590.264C263.501 590.264 262.645 590.04 261.877 589.592C261.125 589.144 260.533 588.504 260.101 587.672C259.669 586.84 259.453 585.872 259.453 584.768C259.453 583.664 259.677 582.704 260.125 581.888C260.589 581.072 261.221 580.456 262.021 580.04C262.837 579.608 263.757 579.392 264.781 579.392C265.517 579.392 266.213 579.536 266.869 579.824C267.525 580.096 268.053 580.472 268.453 580.952V571.28H271.117ZM265.309 587.984C266.077 587.984 266.733 587.792 267.277 587.408C267.821 587.024 268.205 586.488 268.429 585.8V583.64C268.237 583.016 267.853 582.504 267.277 582.104C266.717 581.704 266.061 581.504 265.309 581.504C264.749 581.504 264.229 581.648 263.749 581.936C263.269 582.208 262.885 582.592 262.597 583.088C262.309 583.568 262.165 584.112 262.165 584.72C262.165 585.328 262.309 585.88 262.597 586.376C262.885 586.872 263.269 587.264 263.749 587.552C264.229 587.84 264.749 587.984 265.309 587.984ZM277.441 582.2C277.713 581.656 278.097 581.168 278.593 580.736C279.089 580.304 279.593 579.976 280.105 579.752C280.633 579.512 281.073 579.392 281.425 579.392L281.305 582.08C280.569 582.016 279.913 582.152 279.337 582.488C278.761 582.808 278.313 583.256 277.993 583.832C277.673 584.392 277.513 584.992 277.513 585.632V590H274.825V579.848H277.249L277.441 582.2ZM282.891 584.816C282.891 583.808 283.131 582.888 283.611 582.056C284.107 581.224 284.787 580.576 285.651 580.112C286.515 579.632 287.499 579.392 288.603 579.392C289.707 579.392 290.683 579.632 291.531 580.112C292.395 580.576 293.059 581.224 293.523 582.056C293.987 582.872 294.219 583.792 294.219 584.816C294.219 585.84 293.987 586.768 293.523 587.6C293.059 588.416 292.395 589.064 291.531 589.544C290.683 590.024 289.699 590.264 288.579 590.264C287.491 590.264 286.515 590.048 285.651 589.616C284.787 589.168 284.107 588.536 283.611 587.72C283.131 586.888 282.891 585.92 282.891 584.816ZM285.603 584.84C285.603 585.752 285.883 586.52 286.443 587.144C287.003 587.752 287.699 588.056 288.531 588.056C289.395 588.056 290.099 587.752 290.643 587.144C291.203 586.536 291.483 585.768 291.483 584.84C291.483 583.912 291.203 583.144 290.643 582.536C290.099 581.912 289.395 581.6 288.531 581.6C287.699 581.6 287.003 581.92 286.443 582.56C285.883 583.184 285.603 583.944 285.603 584.84ZM299.731 579.848V590H297.043V579.848H299.731ZM296.923 576.224C296.923 575.824 297.083 575.488 297.403 575.216C297.723 574.928 298.083 574.784 298.483 574.784C298.867 574.784 299.211 574.928 299.515 575.216C299.835 575.488 299.995 575.824 299.995 576.224C299.995 576.624 299.835 576.96 299.515 577.232C299.211 577.504 298.867 577.64 298.483 577.64C298.083 577.64 297.723 577.504 297.403 577.232C297.083 576.96 296.923 576.624 296.923 576.224ZM314.242 571.28V590H311.554V588.632C310.434 589.72 309.106 590.264 307.57 590.264C306.626 590.264 305.77 590.04 305.002 589.592C304.25 589.144 303.658 588.504 303.226 587.672C302.794 586.84 302.578 585.872 302.578 584.768C302.578 583.664 302.802 582.704 303.25 581.888C303.714 581.072 304.346 580.456 305.146 580.04C305.962 579.608 306.882 579.392 307.906 579.392C308.642 579.392 309.338 579.536 309.994 579.824C310.65 580.096 311.178 580.472 311.578 580.952V571.28H314.242ZM308.434 587.984C309.202 587.984 309.858 587.792 310.402 587.408C310.946 587.024 311.33 586.488 311.554 585.8V583.64C311.362 583.016 310.978 582.504 310.402 582.104C309.842 581.704 309.186 581.504 308.434 581.504C307.874 581.504 307.354 581.648 306.874 581.936C306.394 582.208 306.01 582.592 305.722 583.088C305.434 583.568 305.29 584.112 305.29 584.72C305.29 585.328 305.434 585.88 305.722 586.376C306.01 586.872 306.394 587.264 306.874 587.552C307.354 587.84 307.874 587.984 308.434 587.984ZM333.413 572.048C330.965 578.72 328.701 584.856 326.621 590.456H324.197C324.965 588.408 326.101 585.336 327.605 581.24L330.989 572.048H333.413ZM345.599 579.848V590H342.911V579.848H345.599ZM342.791 576.224C342.791 575.824 342.951 575.488 343.271 575.216C343.591 574.928 343.951 574.784 344.351 574.784C344.735 574.784 345.079 574.928 345.383 575.216C345.703 575.488 345.863 575.824 345.863 576.224C345.863 576.624 345.703 576.96 345.383 577.232C345.079 577.504 344.735 577.64 344.351 577.64C343.951 577.64 343.591 577.504 343.271 577.232C342.951 576.96 342.791 576.624 342.791 576.224ZM348.758 581.288C348.758 579.688 349.158 578.208 349.958 576.848C350.758 575.472 351.838 574.376 353.198 573.56C354.574 572.744 356.07 572.336 357.686 572.336C359.286 572.336 360.766 572.744 362.126 573.56C363.502 574.376 364.598 575.472 365.414 576.848C366.23 578.224 366.638 579.704 366.638 581.288C366.638 582.904 366.23 584.392 365.414 585.752C364.614 587.112 363.526 588.192 362.15 588.992C360.774 589.792 359.286 590.192 357.686 590.192C356.07 590.192 354.574 589.8 353.198 589.016C351.838 588.216 350.758 587.136 349.958 585.776C349.158 584.416 348.758 582.92 348.758 581.288ZM351.638 581.288C351.638 582.424 351.91 583.464 352.454 584.408C352.998 585.352 353.734 586.104 354.662 586.664C355.606 587.224 356.638 587.504 357.758 587.504C358.862 587.504 359.87 587.232 360.782 586.688C361.694 586.128 362.414 585.376 362.942 584.432C363.486 583.472 363.758 582.424 363.758 581.288C363.758 580.152 363.486 579.104 362.942 578.144C362.398 577.184 361.662 576.424 360.734 575.864C359.806 575.304 358.79 575.024 357.686 575.024C356.566 575.024 355.542 575.304 354.614 575.864C353.702 576.424 352.974 577.184 352.43 578.144C351.902 579.104 351.638 580.152 351.638 581.288ZM379.537 576.08C378.033 575.296 376.697 574.904 375.529 574.904C374.665 574.904 373.977 575.096 373.465 575.48C372.969 575.864 372.721 576.392 372.721 577.064C372.721 577.72 373.033 578.272 373.657 578.72C374.297 579.152 375.185 579.584 376.321 580.016C377.185 580.32 377.921 580.672 378.529 581.072C379.153 581.456 379.665 581.984 380.065 582.656C380.465 583.328 380.665 584.176 380.665 585.2C380.665 586.128 380.433 586.968 379.969 587.72C379.505 588.472 378.833 589.072 377.953 589.52C377.073 589.968 376.033 590.192 374.833 590.192C373.777 590.192 372.737 590.032 371.713 589.712C370.689 589.376 369.777 588.92 368.977 588.344L370.225 586.16C370.817 586.608 371.513 586.984 372.313 587.288C373.129 587.576 373.881 587.72 374.569 587.72C375.417 587.72 376.161 587.52 376.801 587.12C377.441 586.704 377.761 586.072 377.761 585.224C377.761 584.552 377.489 583.992 376.945 583.544C376.417 583.096 375.673 582.688 374.713 582.32C373.721 581.952 372.897 581.592 372.241 581.24C371.585 580.872 371.017 580.368 370.537 579.728C370.073 579.072 369.841 578.256 369.841 577.28C369.841 575.856 370.321 574.712 371.281 573.848C372.257 572.968 373.537 572.496 375.121 572.432C376.273 572.432 377.281 572.568 378.145 572.84C379.025 573.096 379.841 573.464 380.593 573.944L379.537 576.08Z" fill="black"/>
<defs>
<filter id="filter0_b" x="126" y="422" width="476" height="68" filterUnits="userSpaceOnUse" color-interpolation-filters="sRGB">
<feFlood flood-opacity="0" result="BackgroundImageFix"/>
<feGaussianBlur in="BackgroundImage" stdDeviation="2"/>
<feComposite in2="SourceAlpha" operator="in" result="effect1_backgroundBlur"/>
<feBlend mode="normal" in="SourceGraphic" in2="effect1_backgroundBlur" result="shape"/>
</filter>
<filter id="filter1_b" x="126" y="240" width="476" height="68" filterUnits="userSpaceOnUse" color-interpolation-filters="sRGB">
<feFlood flood-opacity="0" result="BackgroundImageFix"/>
<feGaussianBlur in="BackgroundImage" stdDeviation="2"/>
<feComposite in2="SourceAlpha" operator="in" result="effect1_backgroundBlur"/>
<feBlend mode="normal" in="SourceGraphic" in2="effect1_backgroundBlur" result="shape"/>
</filter>
<filter id="filter2_b" x="126" y="329" width="476" height="68" filterUnits="userSpaceOnUse" color-interpolation-filters="sRGB">
<feFlood flood-opacity="0" result="BackgroundImageFix"/>
<feGaussianBlur in="BackgroundImage" stdDeviation="2"/>
<feComposite in2="SourceAlpha" operator="in" result="effect1_backgroundBlur"/>
<feBlend mode="normal" in="SourceGraphic" in2="effect1_backgroundBlur" result="shape"/>
</filter>
<filter id="filter3_b" x="126" y="512" width="476" height="98" filterUnits="userSpaceOnUse" color-interpolation-filters="sRGB">
<feFlood flood-opacity="0" result="BackgroundImageFix"/>
<feGaussianBlur in="BackgroundImage" stdDeviation="2"/>
<feComposite in2="SourceAlpha" operator="in" result="effect1_backgroundBlur"/>
<feBlend mode="normal" in="SourceGraphic" in2="effect1_backgroundBlur" result="shape"/>
</filter>
</defs>
</svg>
