<svg width="500" height="310" viewBox="0 0 500 310" fill="none" xmlns="http://www.w3.org/2000/svg">
<path d="M72.7961 58.672V65.392H64.2041V94H57.2441V65.392H48.9881V58.672H72.7961ZM96.1879 73.024V94H89.4679V91.408C87.4519 93.52 85.1159 94.576 82.4599 94.576C79.3559 94.576 76.8279 93.648 74.8759 91.792C72.9559 89.936 71.9959 87.184 71.9959 83.536C71.9959 81.232 72.4599 79.216 73.3879 77.488C74.3479 75.728 75.6119 74.368 77.1799 73.408C78.7479 72.448 80.4279 71.968 82.2199 71.968C84.0759 71.968 85.5479 72.256 86.6359 72.832C87.7239 73.376 88.6839 74.16 89.5159 75.184L89.9479 73.024H96.1879ZM84.3799 89.104C86.7159 89.104 88.4119 88.048 89.4679 85.936V80.8C89.0839 79.776 88.4119 78.96 87.4519 78.352C86.5239 77.744 85.4199 77.44 84.1399 77.44C82.6679 77.44 81.4039 77.984 80.3479 79.072C79.3239 80.16 78.8119 81.536 78.8119 83.2C78.8119 84.288 79.0679 85.296 79.5799 86.224C80.0919 87.12 80.7639 87.824 81.5959 88.336C82.4599 88.848 83.3879 89.104 84.3799 89.104ZM111.704 85.264L109.832 86.656V94H103.112V56.128H109.832V79.84L119.816 72.496L123.896 76.096L116.456 81.712L124.664 94H116.84L111.704 85.264ZM139.311 88.864C140.655 88.864 142.047 88.4 143.487 87.472L146.463 92.464C145.311 93.104 144.095 93.616 142.815 94C141.535 94.384 140.319 94.576 139.167 94.576C136.671 94.576 134.511 94.112 132.687 93.184C130.895 92.224 129.535 90.896 128.607 89.2C127.679 87.472 127.215 85.504 127.215 83.296C127.215 81.248 127.743 79.36 128.799 77.632C129.887 75.904 131.359 74.544 133.215 73.552C135.071 72.528 137.103 72.016 139.311 72.016C142.319 72.016 144.783 72.896 146.703 74.656C148.655 76.416 149.919 78.928 150.495 82.192L135.135 87.088C136.159 88.272 137.551 88.864 139.311 88.864ZM138.783 77.248C137.279 77.248 136.079 77.76 135.183 78.784C134.287 79.808 133.839 81.184 133.839 82.912V83.344L143.055 80.224C142.383 78.24 140.959 77.248 138.783 77.248ZM193.547 73.024V94H186.827V91.408C184.811 93.52 182.475 94.576 179.819 94.576C176.715 94.576 174.187 93.648 172.235 91.792C170.315 89.936 169.355 87.184 169.355 83.536C169.355 81.232 169.819 79.216 170.747 77.488C171.707 75.728 172.971 74.368 174.539 73.408C176.107 72.448 177.787 71.968 179.579 71.968C181.435 71.968 182.907 72.256 183.995 72.832C185.083 73.376 186.043 74.16 186.875 75.184L187.307 73.024H193.547ZM181.739 89.104C184.075 89.104 185.771 88.048 186.827 85.936V80.8C186.443 79.776 185.771 78.96 184.811 78.352C183.883 77.744 182.779 77.44 181.499 77.44C180.027 77.44 178.763 77.984 177.707 79.072C176.683 80.16 176.171 81.536 176.171 83.2C176.171 84.288 176.427 85.296 176.939 86.224C177.451 87.12 178.123 87.824 178.955 88.336C179.819 88.848 180.747 89.104 181.739 89.104ZM224.145 58.672V87.28H240.753V94H217.185V58.672H224.145ZM245.199 83.248C245.199 81.104 245.695 79.184 246.687 77.488C247.711 75.792 249.135 74.464 250.959 73.504C252.815 72.512 254.911 72.016 257.247 72.016C259.583 72.016 261.631 72.512 263.391 73.504C265.183 74.464 266.559 75.792 267.519 77.488C268.479 79.184 268.959 81.104 268.959 83.248C268.959 85.392 268.479 87.328 267.519 89.056C266.559 90.784 265.183 92.144 263.391 93.136C261.631 94.096 259.551 94.576 257.151 94.576C254.815 94.576 252.735 94.128 250.911 93.232C249.119 92.304 247.711 90.992 246.687 89.296C245.695 87.6 245.199 85.584 245.199 83.248ZM251.967 83.296C251.967 84.96 252.447 86.352 253.407 87.472C254.367 88.56 255.583 89.104 257.055 89.104C258.591 89.104 259.823 88.56 260.751 87.472C261.711 86.384 262.191 84.992 262.191 83.296C262.191 81.6 261.711 80.208 260.751 79.12C259.823 78.032 258.591 77.488 257.055 77.488C255.583 77.488 254.367 78.048 253.407 79.168C252.447 80.256 251.967 81.632 251.967 83.296ZM272.621 83.248C272.621 81.104 273.117 79.184 274.109 77.488C275.133 75.792 276.557 74.464 278.381 73.504C280.237 72.512 282.333 72.016 284.669 72.016C287.005 72.016 289.053 72.512 290.813 73.504C292.605 74.464 293.981 75.792 294.941 77.488C295.901 79.184 296.381 81.104 296.381 83.248C296.381 85.392 295.901 87.328 294.941 89.056C293.981 90.784 292.605 92.144 290.813 93.136C289.053 94.096 286.973 94.576 284.573 94.576C282.237 94.576 280.157 94.128 278.333 93.232C276.541 92.304 275.133 90.992 274.109 89.296C273.117 87.6 272.621 85.584 272.621 83.248ZM279.389 83.296C279.389 84.96 279.869 86.352 280.829 87.472C281.789 88.56 283.005 89.104 284.477 89.104C286.013 89.104 287.245 88.56 288.173 87.472C289.133 86.384 289.613 84.992 289.613 83.296C289.613 81.6 289.133 80.208 288.173 79.12C287.245 78.032 286.013 77.488 284.477 77.488C283.005 77.488 281.789 78.048 280.829 79.168C279.869 80.256 279.389 81.632 279.389 83.296ZM310.267 85.264L308.395 86.656V94H301.675V56.128H308.395V79.84L318.379 72.496L322.459 76.096L315.019 81.712L323.227 94H315.403L310.267 85.264ZM366.047 73.024V94H359.327V91.408C357.311 93.52 354.975 94.576 352.319 94.576C349.215 94.576 346.687 93.648 344.735 91.792C342.815 89.936 341.855 87.184 341.855 83.536C341.855 81.232 342.319 79.216 343.247 77.488C344.207 75.728 345.471 74.368 347.039 73.408C348.607 72.448 350.287 71.968 352.079 71.968C353.935 71.968 355.407 72.256 356.495 72.832C357.583 73.376 358.543 74.16 359.375 75.184L359.807 73.024H366.047ZM354.239 89.104C356.575 89.104 358.271 88.048 359.327 85.936V80.8C358.943 79.776 358.271 78.96 357.311 78.352C356.383 77.744 355.279 77.44 353.999 77.44C352.527 77.44 351.263 77.984 350.207 79.072C349.183 80.16 348.671 81.536 348.671 83.2C348.671 84.288 348.927 85.296 349.439 86.224C349.951 87.12 350.623 87.824 351.455 88.336C352.319 88.848 353.247 89.104 354.239 89.104ZM381.66 63.808V72.928H386.748V78.16H381.66V94H374.94V78.16H371.676V72.928H374.94V63.808H381.66ZM49.2281 143.384C49.2281 140.184 50.0281 137.192 51.6281 134.408C53.2601 131.624 55.4521 129.416 58.2041 127.784C60.9881 126.12 63.9961 125.288 67.2281 125.288C70.4601 125.288 73.4521 126.12 76.2041 127.784C78.9881 129.416 81.1961 131.624 82.8281 134.408C84.4921 137.192 85.3241 140.184 85.3241 143.384C85.3241 146.648 84.4921 149.656 82.8281 152.408C81.1961 155.16 78.9881 157.352 76.2041 158.984C73.4521 160.584 70.4601 161.384 67.2281 161.384C63.9641 161.384 60.9561 160.584 58.2041 158.984C55.4521 157.352 53.2601 155.16 51.6281 152.408C50.0281 149.656 49.2281 146.648 49.2281 143.384ZM56.4281 143.384C56.4281 145.432 56.9081 147.32 57.8681 149.048C58.8601 150.776 60.1881 152.152 61.8521 153.176C63.5481 154.168 65.4201 154.664 67.4681 154.664C69.4521 154.664 71.2601 154.168 72.8921 153.176C74.5241 152.152 75.8041 150.792 76.7321 149.096C77.6601 147.368 78.1241 145.464 78.1241 143.384C78.1241 141.272 77.6441 139.352 76.6841 137.624C75.7241 135.896 74.4121 134.536 72.7481 133.544C71.1161 132.52 69.2921 132.008 67.2761 132.008C65.2601 132.008 63.4201 132.52 61.7561 133.544C60.1241 134.536 58.8281 135.896 57.8681 137.624C56.9081 139.352 56.4281 141.272 56.4281 143.384ZM112.279 140.024V161H106.183L105.703 157.64C104.967 158.984 103.927 160.056 102.583 160.856C101.271 161.624 99.7191 162.008 97.9271 162.008C96.0071 162.008 94.4071 161.416 93.1271 160.232C91.8471 159.048 91.1911 157.544 91.1591 155.72V140.024H97.8791V153.224C97.9751 155.272 98.9191 156.296 100.711 156.296C102.183 156.296 103.351 155.576 104.215 154.136C105.111 152.696 105.559 150.84 105.559 148.568V140.024H112.279ZM125.766 144.824C126.342 143.704 127.126 142.696 128.118 141.8C129.142 140.904 130.182 140.216 131.238 139.736C132.294 139.224 133.126 138.968 133.734 138.968L133.398 145.688C133.206 145.656 132.934 145.64 132.582 145.64C131.238 145.64 130.054 145.992 129.03 146.696C128.006 147.4 127.222 148.312 126.678 149.432C126.134 150.52 125.862 151.64 125.862 152.792V161H119.19V140.024H125.238L125.766 144.824ZM174.647 161L167.207 149.768H162.551V161H155.591V125.672H166.295C170.679 125.672 174.071 126.744 176.471 128.888C178.903 131 180.119 133.896 180.119 137.576C180.119 139.752 179.655 141.8 178.727 143.72C177.831 145.608 176.439 147.096 174.551 148.184L182.759 161H174.647ZM162.551 143.048H167.495C169.383 143.048 170.759 142.504 171.623 141.416C172.487 140.296 172.919 139.096 172.919 137.816C172.919 136.536 172.551 135.32 171.815 134.168C171.079 132.984 169.655 132.392 167.543 132.392H162.551V143.048ZM196.92 155.864C198.264 155.864 199.656 155.4 201.096 154.472L204.072 159.464C202.92 160.104 201.704 160.616 200.424 161C199.144 161.384 197.928 161.576 196.776 161.576C194.28 161.576 192.12 161.112 190.296 160.184C188.504 159.224 187.144 157.896 186.216 156.2C185.288 154.472 184.824 152.504 184.824 150.296C184.824 148.248 185.352 146.36 186.408 144.632C187.496 142.904 188.968 141.544 190.824 140.552C192.68 139.528 194.712 139.016 196.92 139.016C199.928 139.016 202.392 139.896 204.312 141.656C206.264 143.416 207.528 145.928 208.104 149.192L192.744 154.088C193.768 155.272 195.16 155.864 196.92 155.864ZM196.392 144.248C194.888 144.248 193.688 144.76 192.792 145.784C191.896 146.808 191.448 148.184 191.448 149.912V150.344L200.664 147.224C199.992 145.24 198.568 144.248 196.392 144.248ZM230.795 159.128C229.867 159.864 228.699 160.456 227.291 160.904C225.915 161.352 224.555 161.576 223.211 161.576C219.563 161.576 216.667 160.6 214.523 158.648C212.411 156.664 211.355 153.944 211.355 150.488C211.355 148.248 211.867 146.296 212.891 144.632C213.947 142.936 215.323 141.656 217.019 140.792C218.715 139.896 220.539 139.448 222.491 139.448C225.979 139.448 228.811 140.376 230.987 142.232L227.723 146.552C226.347 145.464 224.811 144.92 223.115 144.92C221.707 144.92 220.507 145.448 219.515 146.504C218.555 147.56 218.075 148.888 218.075 150.488C218.075 152.088 218.603 153.432 219.659 154.52C220.715 155.576 222.091 156.104 223.787 156.104C225.259 156.104 226.475 155.704 227.435 154.904L230.795 159.128ZM246.42 155.864C247.764 155.864 249.156 155.4 250.596 154.472L253.572 159.464C252.42 160.104 251.204 160.616 249.924 161C248.644 161.384 247.428 161.576 246.276 161.576C243.78 161.576 241.62 161.112 239.796 160.184C238.004 159.224 236.644 157.896 235.716 156.2C234.788 154.472 234.324 152.504 234.324 150.296C234.324 148.248 234.852 146.36 235.908 144.632C236.996 142.904 238.468 141.544 240.324 140.552C242.18 139.528 244.212 139.016 246.42 139.016C249.428 139.016 251.892 139.896 253.812 141.656C255.764 143.416 257.028 145.928 257.604 149.192L242.244 154.088C243.268 155.272 244.66 155.864 246.42 155.864ZM245.892 144.248C244.388 144.248 243.188 144.76 242.292 145.784C241.396 146.808 240.948 148.184 240.948 149.912V150.344L250.164 147.224C249.492 145.24 248.068 144.248 245.892 144.248ZM277.079 139.016C279.063 139.016 280.711 139.608 282.023 140.792C283.367 141.976 284.055 143.48 284.087 145.304V161H277.367V147.8C277.271 145.752 276.247 144.728 274.295 144.728C272.759 144.728 271.527 145.448 270.599 146.888C269.671 148.328 269.207 150.184 269.207 152.456V161H262.487V140.024H268.583L269.063 143.384C269.831 142.008 270.887 140.936 272.231 140.168C273.607 139.4 275.223 139.016 277.079 139.016ZM299.675 130.808V139.928H304.763V145.16H299.675V161H292.955V145.16H289.691V139.928H292.955V130.808H299.675ZM62.0921 192.672C66.4121 192.672 69.7561 193.744 72.1241 195.888C74.4921 198 75.6761 200.896 75.6761 204.576C75.6761 206.688 75.2601 208.672 74.4281 210.528C73.6281 212.352 72.3001 213.856 70.4441 215.04C68.6201 216.224 66.2521 216.816 63.3401 216.816H58.3481V228H51.3881V192.672H62.0921ZM63.2921 210.048C64.6041 210.048 65.6601 209.76 66.4601 209.184C67.2601 208.576 67.8361 207.872 68.1881 207.072C68.5401 206.272 68.7161 205.504 68.7161 204.768C68.7161 203.52 68.3481 202.32 67.6121 201.168C66.8761 199.984 65.4521 199.392 63.3401 199.392H58.3481V210.048H63.2921ZM87.3758 211.824C87.9518 210.704 88.7358 209.696 89.7278 208.8C90.7518 207.904 91.7918 207.216 92.8478 206.736C93.9038 206.224 94.7358 205.968 95.3438 205.968L95.0078 212.688C94.8158 212.656 94.5438 212.64 94.1918 212.64C92.8478 212.64 91.6638 212.992 90.6398 213.696C89.6158 214.4 88.8318 215.312 88.2878 216.432C87.7438 217.52 87.4718 218.64 87.4718 219.792V228H80.7998V207.024H86.8478L87.3758 211.824ZM97.9178 217.248C97.9178 215.104 98.4138 213.184 99.4058 211.488C100.43 209.792 101.854 208.464 103.678 207.504C105.534 206.512 107.63 206.016 109.966 206.016C112.302 206.016 114.35 206.512 116.11 207.504C117.902 208.464 119.278 209.792 120.238 211.488C121.198 213.184 121.678 215.104 121.678 217.248C121.678 219.392 121.198 221.328 120.238 223.056C119.278 224.784 117.902 226.144 116.11 227.136C114.35 228.096 112.27 228.576 109.87 228.576C107.534 228.576 105.454 228.128 103.63 227.232C101.838 226.304 100.43 224.992 99.4058 223.296C98.4138 221.6 97.9178 219.584 97.9178 217.248ZM104.686 217.296C104.686 218.96 105.166 220.352 106.126 221.472C107.086 222.56 108.302 223.104 109.774 223.104C111.31 223.104 112.542 222.56 113.47 221.472C114.43 220.384 114.91 218.992 114.91 217.296C114.91 215.6 114.43 214.208 113.47 213.12C112.542 212.032 111.31 211.488 109.774 211.488C108.302 211.488 107.086 212.048 106.126 213.168C105.166 214.256 104.686 215.632 104.686 217.296ZM124.476 233.952C126.492 232.48 127.5 230.368 127.5 227.616V207.024H134.22V228C134.22 230.56 133.756 232.656 132.828 234.288C131.932 235.92 130.444 237.2 128.364 238.128L124.476 233.952ZM127.26 199.584C127.26 198.624 127.628 197.824 128.364 197.184C129.132 196.512 129.996 196.176 130.956 196.176C131.884 196.176 132.716 196.512 133.452 197.184C134.188 197.824 134.556 198.624 134.556 199.584C134.556 200.544 134.188 201.344 133.452 201.984C132.716 202.624 131.884 202.944 130.956 202.944C129.996 202.944 129.132 202.624 128.364 201.984C127.628 201.344 127.26 200.544 127.26 199.584ZM151.592 222.864C152.936 222.864 154.328 222.4 155.768 221.472L158.744 226.464C157.592 227.104 156.376 227.616 155.096 228C153.816 228.384 152.6 228.576 151.448 228.576C148.952 228.576 146.792 228.112 144.968 227.184C143.176 226.224 141.816 224.896 140.888 223.2C139.96 221.472 139.496 219.504 139.496 217.296C139.496 215.248 140.024 213.36 141.08 211.632C142.168 209.904 143.64 208.544 145.496 207.552C147.352 206.528 149.384 206.016 151.592 206.016C154.6 206.016 157.064 206.896 158.984 208.656C160.936 210.416 162.2 212.928 162.776 216.192L147.416 221.088C148.44 222.272 149.832 222.864 151.592 222.864ZM151.064 211.248C149.56 211.248 148.36 211.76 147.464 212.784C146.568 213.808 146.12 215.184 146.12 216.912V217.344L155.336 214.224C154.664 212.24 153.24 211.248 151.064 211.248ZM185.467 226.128C184.539 226.864 183.371 227.456 181.963 227.904C180.587 228.352 179.227 228.576 177.883 228.576C174.235 228.576 171.339 227.6 169.195 225.648C167.083 223.664 166.027 220.944 166.027 217.488C166.027 215.248 166.539 213.296 167.563 211.632C168.619 209.936 169.995 208.656 171.691 207.792C173.387 206.896 175.211 206.448 177.163 206.448C180.651 206.448 183.483 207.376 185.659 209.232L182.395 213.552C181.019 212.464 179.483 211.92 177.787 211.92C176.379 211.92 175.179 212.448 174.187 213.504C173.227 214.56 172.747 215.888 172.747 217.488C172.747 219.088 173.275 220.432 174.331 221.52C175.387 222.576 176.763 223.104 178.459 223.104C179.931 223.104 181.147 222.704 182.107 221.904L185.467 226.128ZM199.316 197.808V206.928H204.404V212.16H199.316V228H192.596V212.16H189.332V206.928H192.596V197.808H199.316ZM216.335 228.432C214.607 228.432 212.991 228.128 211.487 227.52C209.983 226.912 208.734 226.064 207.743 224.976L210.527 221.28C212.383 223.008 214.127 223.872 215.759 223.872C216.623 223.872 217.311 223.744 217.823 223.488C218.367 223.2 218.639 222.784 218.639 222.24C218.639 221.6 218.335 221.12 217.727 220.8C217.119 220.448 216.431 220.16 215.663 219.936C214.927 219.712 214.431 219.568 214.175 219.504C212.351 218.928 210.991 218.08 210.095 216.96C209.199 215.808 208.751 214.496 208.751 213.024C208.751 211.904 209.039 210.816 209.615 209.76C210.223 208.672 211.151 207.792 212.398 207.12C213.647 206.416 215.199 206.064 217.055 206.064C218.783 206.064 220.255 206.24 221.471 206.592C222.687 206.944 223.855 207.52 224.975 208.32L222.431 212.256C221.791 211.744 221.071 211.328 220.271 211.008C219.503 210.656 218.799 210.48 218.159 210.48C217.391 210.48 216.767 210.64 216.287 210.96C215.807 211.28 215.567 211.664 215.567 212.112C215.535 212.784 215.807 213.296 216.383 213.648C216.991 213.968 217.919 214.304 219.167 214.656C219.359 214.72 219.551 214.784 219.743 214.848C219.967 214.912 220.191 214.976 220.415 215.04C223.711 216.128 225.359 218.112 225.359 220.992C225.359 222.336 225.023 223.568 224.351 224.688C223.679 225.808 222.655 226.72 221.279 227.424C219.935 228.096 218.287 228.432 216.335 228.432Z" fill="#222D5B"/>
</svg>
