<svg width="474" height="426" viewBox="0 0 474 426" fill="none" xmlns="http://www.w3.org/2000/svg">
<path d="M104.015 122.672V129.392H95.4229V158H88.4629V129.392H80.2069V122.672H104.015ZM127.407 137.024V158H120.687V155.408C118.671 157.52 116.335 158.576 113.679 158.576C110.575 158.576 108.047 157.648 106.095 155.792C104.175 153.936 103.215 151.184 103.215 147.536C103.215 145.232 103.679 143.216 104.607 141.488C105.567 139.728 106.831 138.368 108.399 137.408C109.967 136.448 111.647 135.968 113.439 135.968C115.295 135.968 116.767 136.256 117.855 136.832C118.943 137.376 119.903 138.16 120.735 139.184L121.167 137.024H127.407ZM115.599 153.104C117.935 153.104 119.631 152.048 120.687 149.936V144.8C120.303 143.776 119.631 142.96 118.671 142.352C117.743 141.744 116.639 141.44 115.359 141.44C113.887 141.44 112.623 141.984 111.567 143.072C110.543 144.16 110.031 145.536 110.031 147.2C110.031 148.288 110.287 149.296 110.799 150.224C111.311 151.12 111.983 151.824 112.815 152.336C113.679 152.848 114.607 153.104 115.599 153.104ZM142.923 149.264L141.051 150.656V158H134.331V120.128H141.051V143.84L151.035 136.496L155.115 140.096L147.675 145.712L155.883 158H148.059L142.923 149.264ZM170.529 152.864C171.873 152.864 173.265 152.4 174.705 151.472L177.681 156.464C176.529 157.104 175.313 157.616 174.033 158C172.753 158.384 171.537 158.576 170.385 158.576C167.889 158.576 165.729 158.112 163.905 157.184C162.113 156.224 160.753 154.896 159.825 153.2C158.897 151.472 158.433 149.504 158.433 147.296C158.433 145.248 158.961 143.36 160.017 141.632C161.105 139.904 162.577 138.544 164.433 137.552C166.289 136.528 168.321 136.016 170.529 136.016C173.537 136.016 176.001 136.896 177.921 138.656C179.873 140.416 181.137 142.928 181.713 146.192L166.353 151.088C167.377 152.272 168.769 152.864 170.529 152.864ZM170.001 141.248C168.497 141.248 167.297 141.76 166.401 142.784C165.505 143.808 165.057 145.184 165.057 146.912V147.344L174.273 144.224C173.601 142.24 172.177 141.248 170.001 141.248ZM224.766 137.024V158H218.046V155.408C216.03 157.52 213.694 158.576 211.038 158.576C207.934 158.576 205.406 157.648 203.454 155.792C201.534 153.936 200.574 151.184 200.574 147.536C200.574 145.232 201.038 143.216 201.966 141.488C202.926 139.728 204.19 138.368 205.758 137.408C207.326 136.448 209.006 135.968 210.798 135.968C212.654 135.968 214.126 136.256 215.214 136.832C216.302 137.376 217.262 138.16 218.094 139.184L218.526 137.024H224.766ZM212.958 153.104C215.294 153.104 216.99 152.048 218.046 149.936V144.8C217.662 143.776 216.99 142.96 216.03 142.352C215.102 141.744 213.998 141.44 212.718 141.44C211.246 141.44 209.982 141.984 208.926 143.072C207.902 144.16 207.39 145.536 207.39 147.2C207.39 148.288 207.646 149.296 208.158 150.224C208.67 151.12 209.342 151.824 210.174 152.336C211.038 152.848 211.966 153.104 212.958 153.104ZM255.364 122.672V151.28H271.972V158H248.404V122.672H255.364ZM276.418 147.248C276.418 145.104 276.914 143.184 277.906 141.488C278.93 139.792 280.354 138.464 282.178 137.504C284.034 136.512 286.13 136.016 288.466 136.016C290.802 136.016 292.85 136.512 294.61 137.504C296.402 138.464 297.778 139.792 298.738 141.488C299.698 143.184 300.178 145.104 300.178 147.248C300.178 149.392 299.698 151.328 298.738 153.056C297.778 154.784 296.402 156.144 294.61 157.136C292.85 158.096 290.77 158.576 288.37 158.576C286.034 158.576 283.954 158.128 282.13 157.232C280.338 156.304 278.93 154.992 277.906 153.296C276.914 151.6 276.418 149.584 276.418 147.248ZM283.186 147.296C283.186 148.96 283.666 150.352 284.626 151.472C285.586 152.56 286.802 153.104 288.274 153.104C289.81 153.104 291.042 152.56 291.97 151.472C292.93 150.384 293.41 148.992 293.41 147.296C293.41 145.6 292.93 144.208 291.97 143.12C291.042 142.032 289.81 141.488 288.274 141.488C286.802 141.488 285.586 142.048 284.626 143.168C283.666 144.256 283.186 145.632 283.186 147.296ZM303.84 147.248C303.84 145.104 304.336 143.184 305.328 141.488C306.352 139.792 307.776 138.464 309.6 137.504C311.456 136.512 313.552 136.016 315.888 136.016C318.224 136.016 320.272 136.512 322.032 137.504C323.824 138.464 325.2 139.792 326.16 141.488C327.12 143.184 327.6 145.104 327.6 147.248C327.6 149.392 327.12 151.328 326.16 153.056C325.2 154.784 323.824 156.144 322.032 157.136C320.272 158.096 318.192 158.576 315.792 158.576C313.456 158.576 311.376 158.128 309.552 157.232C307.76 156.304 306.352 154.992 305.328 153.296C304.336 151.6 303.84 149.584 303.84 147.248ZM310.608 147.296C310.608 148.96 311.088 150.352 312.048 151.472C313.008 152.56 314.224 153.104 315.696 153.104C317.232 153.104 318.464 152.56 319.392 151.472C320.352 150.384 320.832 148.992 320.832 147.296C320.832 145.6 320.352 144.208 319.392 143.12C318.464 142.032 317.232 141.488 315.696 141.488C314.224 141.488 313.008 142.048 312.048 143.168C311.088 144.256 310.608 145.632 310.608 147.296ZM341.486 149.264L339.614 150.656V158H332.894V120.128H339.614V143.84L349.598 136.496L353.677 140.096L346.238 145.712L354.446 158H346.622L341.486 149.264ZM397.266 137.024V158H390.546V155.408C388.53 157.52 386.194 158.576 383.538 158.576C380.434 158.576 377.906 157.648 375.954 155.792C374.034 153.936 373.074 151.184 373.074 147.536C373.074 145.232 373.538 143.216 374.466 141.488C375.426 139.728 376.69 138.368 378.258 137.408C379.826 136.448 381.506 135.968 383.298 135.968C385.154 135.968 386.626 136.256 387.714 136.832C388.802 137.376 389.762 138.16 390.594 139.184L391.026 137.024H397.266ZM385.458 153.104C387.794 153.104 389.49 152.048 390.546 149.936V144.8C390.162 143.776 389.49 142.96 388.53 142.352C387.602 141.744 386.498 141.44 385.218 141.44C383.746 141.44 382.482 141.984 381.426 143.072C380.402 144.16 379.89 145.536 379.89 147.2C379.89 148.288 380.146 149.296 380.658 150.224C381.17 151.12 381.842 151.824 382.674 152.336C383.538 152.848 384.466 153.104 385.458 153.104ZM412.878 127.808V136.928H417.966V142.16H412.878V158H406.158V142.16H402.894V136.928H406.158V127.808H412.878ZM80.4469 207.384C80.4469 204.184 81.2469 201.192 82.8469 198.408C84.4789 195.624 86.6709 193.416 89.4229 191.784C92.2069 190.12 95.2149 189.288 98.4469 189.288C101.679 189.288 104.671 190.12 107.423 191.784C110.207 193.416 112.415 195.624 114.047 198.408C115.711 201.192 116.543 204.184 116.543 207.384C116.543 210.648 115.711 213.656 114.047 216.408C112.415 219.16 110.207 221.352 107.423 222.984C104.671 224.584 101.679 225.384 98.4469 225.384C95.1829 225.384 92.1749 224.584 89.4229 222.984C86.6709 221.352 84.4789 219.16 82.8469 216.408C81.2469 213.656 80.4469 210.648 80.4469 207.384ZM87.6469 207.384C87.6469 209.432 88.1269 211.32 89.0869 213.048C90.0789 214.776 91.4069 216.152 93.0709 217.176C94.7669 218.168 96.6389 218.664 98.6869 218.664C100.671 218.664 102.479 218.168 104.111 217.176C105.743 216.152 107.023 214.792 107.951 213.096C108.879 211.368 109.343 209.464 109.343 207.384C109.343 205.272 108.863 203.352 107.903 201.624C106.943 199.896 105.631 198.536 103.967 197.544C102.335 196.52 100.511 196.008 98.4949 196.008C96.4789 196.008 94.6389 196.52 92.9749 197.544C91.3429 198.536 90.0469 199.896 89.0869 201.624C88.1269 203.352 87.6469 205.272 87.6469 207.384ZM143.498 204.024V225H137.402L136.922 221.64C136.186 222.984 135.146 224.056 133.802 224.856C132.49 225.624 130.938 226.008 129.146 226.008C127.226 226.008 125.626 225.416 124.346 224.232C123.066 223.048 122.41 221.544 122.378 219.72V204.024H129.098V217.224C129.194 219.272 130.138 220.296 131.93 220.296C133.402 220.296 134.57 219.576 135.434 218.136C136.33 216.696 136.778 214.84 136.778 212.568V204.024H143.498ZM156.985 208.824C157.561 207.704 158.345 206.696 159.337 205.8C160.361 204.904 161.401 204.216 162.457 203.736C163.513 203.224 164.345 202.968 164.953 202.968L164.617 209.688C164.425 209.656 164.153 209.64 163.801 209.64C162.457 209.64 161.273 209.992 160.249 210.696C159.225 211.4 158.441 212.312 157.897 213.432C157.353 214.52 157.081 215.64 157.081 216.792V225H150.409V204.024H156.457L156.985 208.824ZM205.866 225L198.426 213.768H193.77V225H186.81V189.672H197.514C201.898 189.672 205.29 190.744 207.69 192.888C210.122 195 211.338 197.896 211.338 201.576C211.338 203.752 210.874 205.8 209.946 207.72C209.05 209.608 207.658 211.096 205.77 212.184L213.978 225H205.866ZM193.77 207.048H198.714C200.602 207.048 201.978 206.504 202.842 205.416C203.706 204.296 204.138 203.096 204.138 201.816C204.138 200.536 203.77 199.32 203.034 198.168C202.298 196.984 200.874 196.392 198.762 196.392H193.77V207.048ZM228.139 219.864C229.483 219.864 230.875 219.4 232.315 218.472L235.291 223.464C234.139 224.104 232.923 224.616 231.643 225C230.363 225.384 229.147 225.576 227.995 225.576C225.499 225.576 223.339 225.112 221.515 224.184C219.723 223.224 218.363 221.896 217.435 220.2C216.507 218.472 216.043 216.504 216.043 214.296C216.043 212.248 216.571 210.36 217.627 208.632C218.715 206.904 220.187 205.544 222.043 204.552C223.899 203.528 225.931 203.016 228.139 203.016C231.147 203.016 233.611 203.896 235.531 205.656C237.483 207.416 238.747 209.928 239.323 213.192L223.963 218.088C224.987 219.272 226.379 219.864 228.139 219.864ZM227.611 208.248C226.107 208.248 224.907 208.76 224.011 209.784C223.115 210.808 222.667 212.184 222.667 213.912V214.344L231.883 211.224C231.211 209.24 229.787 208.248 227.611 208.248ZM262.014 223.128C261.086 223.864 259.918 224.456 258.51 224.904C257.134 225.352 255.774 225.576 254.43 225.576C250.782 225.576 247.886 224.6 245.742 222.648C243.63 220.664 242.574 217.944 242.574 214.488C242.574 212.248 243.086 210.296 244.11 208.632C245.166 206.936 246.542 205.656 248.238 204.792C249.934 203.896 251.758 203.448 253.71 203.448C257.198 203.448 260.03 204.376 262.206 206.232L258.942 210.552C257.566 209.464 256.03 208.92 254.334 208.92C252.926 208.92 251.726 209.448 250.734 210.504C249.774 211.56 249.294 212.888 249.294 214.488C249.294 216.088 249.822 217.432 250.878 218.52C251.934 219.576 253.31 220.104 255.006 220.104C256.478 220.104 257.694 219.704 258.654 218.904L262.014 223.128ZM277.639 219.864C278.983 219.864 280.375 219.4 281.815 218.472L284.791 223.464C283.639 224.104 282.423 224.616 281.143 225C279.863 225.384 278.647 225.576 277.495 225.576C274.999 225.576 272.839 225.112 271.015 224.184C269.223 223.224 267.863 221.896 266.935 220.2C266.007 218.472 265.543 216.504 265.543 214.296C265.543 212.248 266.071 210.36 267.127 208.632C268.215 206.904 269.687 205.544 271.543 204.552C273.399 203.528 275.431 203.016 277.639 203.016C280.647 203.016 283.111 203.896 285.031 205.656C286.983 207.416 288.247 209.928 288.823 213.192L273.463 218.088C274.487 219.272 275.879 219.864 277.639 219.864ZM277.111 208.248C275.607 208.248 274.407 208.76 273.511 209.784C272.615 210.808 272.167 212.184 272.167 213.912V214.344L281.383 211.224C280.711 209.24 279.287 208.248 277.111 208.248ZM308.298 203.016C310.282 203.016 311.93 203.608 313.242 204.792C314.586 205.976 315.274 207.48 315.306 209.304V225H308.586V211.8C308.49 209.752 307.466 208.728 305.514 208.728C303.978 208.728 302.746 209.448 301.818 210.888C300.89 212.328 300.426 214.184 300.426 216.456V225H293.706V204.024H299.802L300.282 207.384C301.05 206.008 302.106 204.936 303.45 204.168C304.826 203.4 306.442 203.016 308.298 203.016ZM330.894 194.808V203.928H335.982V209.16H330.894V225H324.174V209.16H320.91V203.928H324.174V194.808H330.894ZM93.3109 256.672C97.6309 256.672 100.975 257.744 103.343 259.888C105.711 262 106.895 264.896 106.895 268.576C106.895 270.688 106.479 272.672 105.647 274.528C104.847 276.352 103.519 277.856 101.663 279.04C99.8389 280.224 97.4709 280.816 94.5589 280.816H89.5669V292H82.6069V256.672H93.3109ZM94.5109 274.048C95.8229 274.048 96.8789 273.76 97.6789 273.184C98.4789 272.576 99.0549 271.872 99.4069 271.072C99.7589 270.272 99.9349 269.504 99.9349 268.768C99.9349 267.52 99.5669 266.32 98.8309 265.168C98.0949 263.984 96.6709 263.392 94.5589 263.392H89.5669V274.048H94.5109ZM118.595 275.824C119.171 274.704 119.955 273.696 120.947 272.8C121.971 271.904 123.011 271.216 124.067 270.736C125.123 270.224 125.955 269.968 126.563 269.968L126.227 276.688C126.035 276.656 125.763 276.64 125.411 276.64C124.067 276.64 122.883 276.992 121.859 277.696C120.835 278.4 120.051 279.312 119.507 280.432C118.963 281.52 118.691 282.64 118.691 283.792V292H112.019V271.024H118.067L118.595 275.824ZM129.137 281.248C129.137 279.104 129.633 277.184 130.625 275.488C131.649 273.792 133.073 272.464 134.897 271.504C136.753 270.512 138.849 270.016 141.185 270.016C143.521 270.016 145.569 270.512 147.329 271.504C149.121 272.464 150.497 273.792 151.457 275.488C152.417 277.184 152.897 279.104 152.897 281.248C152.897 283.392 152.417 285.328 151.457 287.056C150.497 288.784 149.121 290.144 147.329 291.136C145.569 292.096 143.489 292.576 141.089 292.576C138.753 292.576 136.673 292.128 134.849 291.232C133.057 290.304 131.649 288.992 130.625 287.296C129.633 285.6 129.137 283.584 129.137 281.248ZM135.905 281.296C135.905 282.96 136.385 284.352 137.345 285.472C138.305 286.56 139.521 287.104 140.993 287.104C142.529 287.104 143.761 286.56 144.689 285.472C145.649 284.384 146.129 282.992 146.129 281.296C146.129 279.6 145.649 278.208 144.689 277.12C143.761 276.032 142.529 275.488 140.993 275.488C139.521 275.488 138.305 276.048 137.345 277.168C136.385 278.256 135.905 279.632 135.905 281.296ZM155.694 297.952C157.71 296.48 158.718 294.368 158.718 291.616V271.024H165.438V292C165.438 294.56 164.974 296.656 164.046 298.288C163.15 299.92 161.662 301.2 159.582 302.128L155.694 297.952ZM158.478 263.584C158.478 262.624 158.846 261.824 159.582 261.184C160.35 260.512 161.214 260.176 162.174 260.176C163.102 260.176 163.934 260.512 164.67 261.184C165.406 261.824 165.774 262.624 165.774 263.584C165.774 264.544 165.406 265.344 164.67 265.984C163.934 266.624 163.102 266.944 162.174 266.944C161.214 266.944 160.35 266.624 159.582 265.984C158.846 265.344 158.478 264.544 158.478 263.584ZM182.811 286.864C184.155 286.864 185.547 286.4 186.987 285.472L189.963 290.464C188.811 291.104 187.595 291.616 186.315 292C185.035 292.384 183.819 292.576 182.667 292.576C180.171 292.576 178.011 292.112 176.187 291.184C174.395 290.224 173.035 288.896 172.107 287.2C171.179 285.472 170.715 283.504 170.715 281.296C170.715 279.248 171.243 277.36 172.299 275.632C173.387 273.904 174.859 272.544 176.715 271.552C178.571 270.528 180.603 270.016 182.811 270.016C185.819 270.016 188.283 270.896 190.203 272.656C192.155 274.416 193.419 276.928 193.995 280.192L178.635 285.088C179.659 286.272 181.051 286.864 182.811 286.864ZM182.283 275.248C180.779 275.248 179.579 275.76 178.683 276.784C177.787 277.808 177.339 279.184 177.339 280.912V281.344L186.555 278.224C185.883 276.24 184.459 275.248 182.283 275.248ZM216.686 290.128C215.758 290.864 214.59 291.456 213.182 291.904C211.806 292.352 210.446 292.576 209.102 292.576C205.454 292.576 202.558 291.6 200.414 289.648C198.302 287.664 197.246 284.944 197.246 281.488C197.246 279.248 197.758 277.296 198.782 275.632C199.838 273.936 201.214 272.656 202.91 271.792C204.606 270.896 206.43 270.448 208.382 270.448C211.87 270.448 214.702 271.376 216.878 273.232L213.614 277.552C212.238 276.464 210.702 275.92 209.006 275.92C207.598 275.92 206.398 276.448 205.406 277.504C204.446 278.56 203.966 279.888 203.966 281.488C203.966 283.088 204.494 284.432 205.55 285.52C206.606 286.576 207.982 287.104 209.678 287.104C211.15 287.104 212.366 286.704 213.326 285.904L216.686 290.128ZM230.535 261.808V270.928H235.623V276.16H230.535V292H223.815V276.16H220.551V270.928H223.815V261.808H230.535ZM247.553 292.432C245.825 292.432 244.209 292.128 242.705 291.52C241.201 290.912 239.953 290.064 238.961 288.976L241.745 285.28C243.601 287.008 245.345 287.872 246.977 287.872C247.841 287.872 248.529 287.744 249.041 287.488C249.585 287.2 249.857 286.784 249.857 286.24C249.857 285.6 249.553 285.12 248.945 284.8C248.337 284.448 247.649 284.16 246.881 283.936C246.145 283.712 245.649 283.568 245.393 283.504C243.569 282.928 242.209 282.08 241.313 280.96C240.417 279.808 239.969 278.496 239.969 277.024C239.969 275.904 240.257 274.816 240.833 273.76C241.441 272.672 242.369 271.792 243.617 271.12C244.865 270.416 246.417 270.064 248.273 270.064C250.001 270.064 251.473 270.24 252.689 270.592C253.905 270.944 255.073 271.52 256.193 272.32L253.649 276.256C253.009 275.744 252.289 275.328 251.489 275.008C250.721 274.656 250.017 274.48 249.377 274.48C248.609 274.48 247.985 274.64 247.505 274.96C247.025 275.28 246.785 275.664 246.785 276.112C246.753 276.784 247.025 277.296 247.601 277.648C248.209 277.968 249.137 278.304 250.385 278.656C250.577 278.72 250.769 278.784 250.961 278.848C251.185 278.912 251.409 278.976 251.633 279.04C254.929 280.128 256.577 282.112 256.577 284.992C256.577 286.336 256.241 287.568 255.569 288.688C254.897 289.808 253.873 290.72 252.497 291.424C251.153 292.096 249.505 292.432 247.553 292.432Z" fill="#222D5B"/>
</svg>
