<svg width="495" height="190" viewBox="0 0 495 190" fill="none" xmlns="http://www.w3.org/2000/svg">
<rect width="495" height="182" fill="white"/>
<path d="M88.424 73.44C86.4187 72.3947 84.6373 71.872 83.08 71.872C81.928 71.872 81.0107 72.128 80.328 72.64C79.6667 73.152 79.336 73.856 79.336 74.752C79.336 75.6267 79.752 76.3627 80.584 76.96C81.4373 77.536 82.6213 78.112 84.136 78.688C85.288 79.0933 86.2693 79.5627 87.08 80.096C87.912 80.608 88.5947 81.312 89.128 82.208C89.6613 83.104 89.928 84.2347 89.928 85.6C89.928 86.8373 89.6187 87.9573 89 88.96C88.3813 89.9627 87.4853 90.7627 86.312 91.36C85.1387 91.9573 83.752 92.256 82.152 92.256C80.744 92.256 79.3573 92.0427 77.992 91.616C76.6267 91.168 75.4107 90.56 74.344 89.792L76.008 86.88C76.7973 87.4773 77.7253 87.9787 78.792 88.384C79.88 88.768 80.8827 88.96 81.8 88.96C82.9307 88.96 83.9227 88.6933 84.776 88.16C85.6293 87.6053 86.056 86.7627 86.056 85.632C86.056 84.736 85.6933 83.9893 84.968 83.392C84.264 82.7947 83.272 82.2507 81.992 81.76C80.6693 81.2693 79.5707 80.7893 78.696 80.32C77.8213 79.8293 77.064 79.1573 76.424 78.304C75.8053 77.4293 75.496 76.3413 75.496 75.04C75.496 73.1413 76.136 71.616 77.416 70.464C78.7173 69.2907 80.424 68.6613 82.536 68.576C84.072 68.576 85.416 68.7573 86.568 69.12C87.7413 69.4613 88.8293 69.952 89.832 70.592L88.424 73.44ZM101.417 68.704C104.062 68.704 106.132 69.3653 107.625 70.688C109.118 72.0107 109.865 73.8453 109.865 76.192C109.865 77.536 109.598 78.7947 109.065 79.968C108.532 81.12 107.668 82.0693 106.473 82.816C105.3 83.5413 103.785 83.904 101.929 83.904H98.569V92H94.825V68.704H101.417ZM101.929 80.32C102.953 80.32 103.774 80.1067 104.393 79.68C105.033 79.232 105.481 78.6987 105.737 78.08C106.014 77.44 106.153 76.832 106.153 76.256C106.153 75.2747 105.833 74.368 105.193 73.536C104.574 72.704 103.518 72.288 102.025 72.288H98.569V80.32H101.929ZM129.844 68.704V72.288H118.132V78.496H128.564V82.08H118.132V88.416H130.292V92H114.388V68.704H129.844ZM152.73 90.176C152.047 90.6667 151.098 91.136 149.882 91.584C148.687 92.032 147.375 92.256 145.946 92.256C143.535 92.256 141.423 91.7333 139.61 90.688C137.818 89.6213 136.431 88.2027 135.45 86.432C134.49 84.64 134.01 82.6773 134.01 80.544C134.01 78.2187 134.49 76.1387 135.45 74.304C136.431 72.4693 137.786 71.04 139.514 70.016C141.263 68.9707 143.247 68.448 145.466 68.448C146.831 68.448 148.09 68.6293 149.242 68.992C150.415 69.3547 151.45 69.8133 152.346 70.368L150.874 73.856C149.146 72.64 147.386 72.032 145.594 72.032C144.229 72.032 142.949 72.4053 141.754 73.152C140.581 73.8773 139.642 74.88 138.938 76.16C138.234 77.4187 137.882 78.8053 137.882 80.32C137.882 81.92 138.202 83.36 138.842 84.64C139.503 85.8987 140.431 86.8907 141.626 87.616C142.842 88.32 144.239 88.672 145.818 88.672C146.949 88.672 147.962 88.5013 148.858 88.16C149.775 87.8187 150.543 87.3813 151.162 86.848L152.73 90.176ZM161.444 68.704V92H157.7V68.704H161.444ZM179.824 86.528H171.344L169.104 92H165.424L175.728 67.744H175.952L186.256 92H181.968L179.824 86.528ZM178.576 83.328L175.664 75.968L172.656 83.328H178.576ZM193.975 68.704V88.416H205.463V92H190.231V68.704H193.975ZM214.132 68.704V92H210.388V68.704H214.132ZM238.56 88.416V92H218.88C219.114 91.6587 221.184 88.512 225.088 82.56C228.33 77.5467 230.57 74.1227 231.808 72.288H223.168C222.464 72.288 221.813 72.0853 221.216 71.68C220.64 71.2747 220.352 70.7733 220.352 70.176V67.52H223.808V67.968C223.808 68.3307 223.861 68.544 223.968 68.608C224.096 68.672 224.373 68.704 224.8 68.704H238.368L225.28 88.416H238.56ZM258.906 68.704V72.288H247.194V78.496H257.626V82.08H247.194V88.416H259.354V92H243.45V68.704H258.906ZM276.737 73.44C274.731 72.3947 272.95 71.872 271.393 71.872C270.241 71.872 269.323 72.128 268.641 72.64C267.979 73.152 267.649 73.856 267.649 74.752C267.649 75.6267 268.065 76.3627 268.897 76.96C269.75 77.536 270.934 78.112 272.449 78.688C273.601 79.0933 274.582 79.5627 275.393 80.096C276.225 80.608 276.907 81.312 277.441 82.208C277.974 83.104 278.241 84.2347 278.241 85.6C278.241 86.8373 277.931 87.9573 277.312 88.96C276.694 89.9627 275.798 90.7627 274.625 91.36C273.451 91.9573 272.065 92.256 270.465 92.256C269.057 92.256 267.67 92.0427 266.305 91.616C264.939 91.168 263.723 90.56 262.657 89.792L264.321 86.88C265.11 87.4773 266.038 87.9787 267.105 88.384C268.193 88.768 269.195 88.96 270.113 88.96C271.243 88.96 272.235 88.6933 273.089 88.16C273.942 87.6053 274.369 86.7627 274.369 85.632C274.369 84.736 274.006 83.9893 273.281 83.392C272.577 82.7947 271.585 82.2507 270.305 81.76C268.982 81.2693 267.883 80.7893 267.009 80.32C266.134 79.8293 265.377 79.1573 264.737 78.304C264.118 77.4293 263.809 76.3413 263.809 75.04C263.809 73.1413 264.449 71.616 265.729 70.464C267.03 69.2907 268.737 68.6613 270.849 68.576C272.385 68.576 273.729 68.7573 274.881 69.12C276.054 69.4613 277.142 69.952 278.145 70.592L276.737 73.44ZM297.132 68.704V92H293.388V68.704H297.132ZM324.12 68.704V92.832H324.024L307.224 76.544L307.32 92H303.544V67.904H303.736L320.472 84.384L320.408 68.704H324.12Z" fill="#0066B3"/>
<path d="M124.2 165.44C122.493 166.667 120.12 167.84 117.08 168.96C114.093 170.08 110.813 170.64 107.24 170.64C101.213 170.64 95.9333 169.333 91.4 166.72C86.92 164.053 83.4533 160.507 81 156.08C78.6 151.6 77.4 146.693 77.4 141.36C77.4 135.547 78.6 130.347 81 125.76C83.4533 121.173 86.84 117.6 91.16 115.04C95.5333 112.427 100.493 111.12 106.04 111.12C109.453 111.12 112.6 111.573 115.48 112.48C118.413 113.387 121 114.533 123.24 115.92L119.56 124.64C115.24 121.6 110.84 120.08 106.36 120.08C102.947 120.08 99.7467 121.013 96.76 122.88C93.8267 124.693 91.48 127.2 89.72 130.4C87.96 133.547 87.08 137.013 87.08 140.8C87.08 144.8 87.88 148.4 89.48 151.6C91.1333 154.747 93.4533 157.227 96.44 159.04C99.48 160.8 102.973 161.68 106.92 161.68C109.747 161.68 112.28 161.253 114.52 160.4C116.813 159.547 118.733 158.453 120.28 157.12L124.2 165.44ZM168.465 170L155.345 149.76H154.385H145.985V170H136.625V111.76H153.025C159.532 111.76 164.732 113.413 168.625 116.72C172.572 120.027 174.545 124.613 174.545 130.48C174.545 134.053 173.772 137.387 172.225 140.48C170.732 143.52 168.358 145.867 165.105 147.52L179.265 170H168.465ZM145.985 140.8H154.305C158.038 140.8 160.732 139.787 162.385 137.76C164.092 135.68 164.945 133.36 164.945 130.8C164.945 129.307 164.625 127.813 163.985 126.32C163.345 124.773 162.252 123.467 160.705 122.4C159.158 121.28 157.132 120.72 154.625 120.72H145.985V140.8ZM228.859 111.76V120.72H199.579V136.24H225.659V145.2H199.579V161.04H229.979V170H190.219V111.76H228.859ZM272.795 156.32H251.595L245.995 170H236.795L262.555 109.36H263.115L288.875 170H278.155L272.795 156.32ZM269.675 148.32L262.395 129.92L254.875 148.32H269.675ZM329.003 111.76V120.72H313.963V170H304.683V120.72H290.043V111.76H329.003ZM350.204 111.76V170H340.844V111.76H350.204ZM362.634 140.96C362.634 135.627 363.968 130.693 366.634 126.16C369.301 121.573 372.901 117.92 377.434 115.2C382.021 112.48 387.008 111.12 392.394 111.12C397.728 111.12 402.661 112.48 407.194 115.2C411.781 117.92 415.434 121.573 418.154 126.16C420.874 130.747 422.234 135.68 422.234 140.96C422.234 146.347 420.874 151.307 418.154 155.84C415.488 160.373 411.861 163.973 407.274 166.64C402.688 169.307 397.728 170.64 392.394 170.64C387.008 170.64 382.021 169.333 377.434 166.72C372.901 164.053 369.301 160.453 366.634 155.92C363.968 151.387 362.634 146.4 362.634 140.96ZM372.234 140.96C372.234 144.747 373.141 148.213 374.954 151.36C376.768 154.507 379.221 157.013 382.314 158.88C385.461 160.747 388.901 161.68 392.634 161.68C396.314 161.68 399.674 160.773 402.714 158.96C405.754 157.093 408.154 154.587 409.914 151.44C411.728 148.24 412.634 144.747 412.634 140.96C412.634 137.173 411.728 133.68 409.914 130.48C408.101 127.28 405.648 124.747 402.554 122.88C399.461 121.013 396.074 120.08 392.394 120.08C388.661 120.08 385.248 121.013 382.154 122.88C379.114 124.747 376.688 127.28 374.874 130.48C373.114 133.68 372.234 137.173 372.234 140.96ZM486.112 111.76V172.08H485.872L443.872 131.36L444.112 170H434.672V109.76H435.152L476.992 150.96L476.832 111.76H486.112Z" fill="#222D5B"/>
<circle cx="392" cy="141" r="15" fill="#FDB813"/>
</svg>

